%TF.GenerationSoftware,KiCad,Pcbnew,10.0.4*%
%TF.CreationDate,2026-08-30T06:01:53+02:00*%
%TF.ProjectId,STM32H743_board_wfl,53544d33-3248-4373-9433-5f626f617264,rev?*%
%TF.SameCoordinates,Original*%
%TF.FileFunction,Copper,L4,Bot*%
%TF.FilePolarity,Positive*%
%FSLAX46Y46*%
G04 Gerber Fmt 4.6, Leading zero omitted, Abs format (unit mm)*
G04 Created by KiCad (PCBNEW 10.0.4) date 2026-08-30 06:01:53*
%MOMM*%
%LPD*%
G01*
G04 APERTURE LIST*
%TA.AperFunction,ViaPad*%
%ADD10C,0.450000*%
%TD*%
%TA.AperFunction,ViaPad*%
%ADD11C,0.700000*%
%TD*%
%TA.AperFunction,Conductor*%
%ADD12C,0.200000*%
%TD*%
%TA.AperFunction,Conductor*%
%ADD13C,0.350000*%
%TD*%
%TA.AperFunction,Conductor*%
%ADD14C,0.250000*%
%TD*%
%TA.AperFunction,Conductor*%
%ADD15C,0.500000*%
%TD*%
%TA.AperFunction,Conductor*%
%ADD16C,0.400000*%
%TD*%
%TA.AperFunction,Conductor*%
%ADD17C,0.800000*%
%TD*%
%TA.AperFunction,Conductor*%
%ADD18C,0.150000*%
%TD*%
%TA.AperFunction,Conductor*%
%ADD19C,0.600000*%
%TD*%
G04 APERTURE END LIST*
D10*
%TO.N,GND*%
X124070000Y-110910000D03*
X123060000Y-108180000D03*
X125098579Y-128263602D03*
X120490000Y-124580000D03*
X126042584Y-115975582D03*
X134130000Y-112220000D03*
D11*
X134750000Y-117550000D03*
D10*
X132360000Y-112220000D03*
D11*
X128820000Y-128720000D03*
X134090000Y-116330000D03*
D10*
X125753765Y-119820000D03*
X119140000Y-111640000D03*
X130470000Y-120080000D03*
X110160000Y-126170000D03*
X129520000Y-118100000D03*
X126460000Y-128300000D03*
X112420000Y-135230000D03*
X129030000Y-112930000D03*
D11*
X128840000Y-126690000D03*
D10*
X134380000Y-120290000D03*
X103850672Y-119780000D03*
X123580000Y-128270000D03*
X127830000Y-112910000D03*
X110220000Y-122530000D03*
X125830000Y-122220000D03*
X123950000Y-109180000D03*
D11*
X134840000Y-116730000D03*
D10*
X101250000Y-118700000D03*
X134365000Y-120795000D03*
X110510000Y-128140000D03*
X111930000Y-105970000D03*
X115950000Y-129290000D03*
X115960000Y-123510000D03*
D11*
X128820000Y-127680000D03*
D10*
X107454831Y-110518911D03*
X128500000Y-112920000D03*
X122580000Y-107610000D03*
X115640000Y-126120000D03*
D11*
X136660000Y-114570000D03*
D10*
X126000000Y-131630000D03*
D11*
X125090000Y-107120000D03*
D10*
X124250000Y-122000000D03*
D11*
X108830000Y-106930000D03*
D10*
X122000000Y-127260000D03*
D11*
X122370000Y-106860000D03*
D10*
X126220000Y-123675974D03*
X113117504Y-126446040D03*
X128620000Y-119110000D03*
X101010000Y-116340000D03*
D11*
X137540000Y-115879341D03*
D10*
X103910000Y-122000000D03*
X133150000Y-112220000D03*
X117230000Y-135570000D03*
%TO.N,+3V3*%
X123450000Y-110290000D03*
X102500000Y-122470000D03*
X102480000Y-119760000D03*
X124907485Y-113430000D03*
X108550000Y-123440000D03*
X111910000Y-123320000D03*
X126800000Y-131110000D03*
X102480000Y-117820000D03*
X103055000Y-116315000D03*
X119120000Y-111000000D03*
X111142842Y-127407573D03*
X127860000Y-120210000D03*
X100600000Y-112810000D03*
X109410000Y-105040000D03*
X127460000Y-131080000D03*
X106830000Y-110710000D03*
X128120000Y-131090000D03*
X121496423Y-124498546D03*
%TO.N,Net-(C25-Pad1)*%
X111670000Y-107520000D03*
X112070000Y-110970000D03*
%TO.N,+5V*%
X133610000Y-113320000D03*
X132610000Y-124760000D03*
X111510000Y-135140000D03*
X124370000Y-132280000D03*
X132070000Y-124760000D03*
X134920000Y-113290000D03*
X133140000Y-124760000D03*
X134260000Y-113300000D03*
%TO.N,/03_STM32H743_schematic/UART1_RX*%
X109954832Y-116150000D03*
X126080000Y-136480000D03*
%TO.N,/03_STM32H743_schematic/UART1_TX*%
X110820000Y-116360000D03*
X127320000Y-135080000D03*
%TO.N,/03_STM32H743_schematic/FLASH_CS*%
X109180000Y-113470000D03*
X121910000Y-113470000D03*
%TO.N,Net-(U1-PG)*%
X132300000Y-114430000D03*
X131796308Y-116452791D03*
%TO.N,/03_STM32H743_schematic/CURRENT*%
X120970000Y-106460000D03*
X117720000Y-114360000D03*
X119870000Y-127090000D03*
X117720000Y-112890000D03*
%TO.N,Net-(U1-FB)*%
X130750000Y-116546820D03*
X133194656Y-115156021D03*
%TO.N,/03_STM32H743_schematic/SWD_NRST*%
X107210000Y-116854732D03*
X102535000Y-116725000D03*
X100725000Y-113650000D03*
%TO.N,CS1_ACCELEROMETER*%
X119350970Y-121390970D03*
X126145203Y-124391568D03*
%TO.N,SPI1_MISO*%
X124236942Y-123100714D03*
X123236942Y-123100000D03*
%TO.N,CS2_GYROSCOPE*%
X117982588Y-122549695D03*
X124350812Y-128346531D03*
%TO.N,INT1_ACCELEROMETER*%
X127720000Y-128080000D03*
X117080000Y-121870000D03*
%TO.N,INT3_GYROSCOPE*%
X118950000Y-119260000D03*
X125239999Y-124375000D03*
%TO.N,+3V3_IMU*%
X125091452Y-123313993D03*
X124750000Y-129490000D03*
%TD*%
%TO.N,GND*%
D12*
X134520000Y-116210000D02*
X134870000Y-116560000D01*
X134880000Y-117050000D02*
X134880000Y-116800000D01*
D13*
X118190000Y-136080000D02*
X117680000Y-135570000D01*
X128620000Y-119110000D02*
X129510000Y-119110000D01*
X126220000Y-123675974D02*
X126278138Y-123675974D01*
D12*
X101250000Y-119450000D02*
X101250000Y-118700000D01*
X135000000Y-116930000D02*
X134880000Y-117050000D01*
D14*
X113117504Y-126446040D02*
X110436040Y-126446040D01*
D15*
X128310000Y-121340000D02*
X128310000Y-126160000D01*
D13*
X127116883Y-121183117D02*
X125753765Y-119820000D01*
D16*
X122580000Y-107810000D02*
X123950000Y-109180000D01*
D13*
X128310000Y-121340000D02*
X127273765Y-121340000D01*
D15*
X129570000Y-120080000D02*
X128310000Y-121340000D01*
X129520000Y-120030000D02*
X129570000Y-120080000D01*
X130470000Y-120080000D02*
X129570000Y-120080000D01*
D13*
X126278138Y-123675974D02*
X126782538Y-124180374D01*
X122750000Y-131630000D02*
X120170000Y-134210000D01*
X120170000Y-134210000D02*
X120170000Y-135340000D01*
D16*
X122580000Y-107610000D02*
X122580000Y-107810000D01*
D17*
X130360000Y-112220000D02*
X129710000Y-112870000D01*
D12*
X102170000Y-120370000D02*
X101250000Y-119450000D01*
X103850672Y-119780000D02*
X103260672Y-120370000D01*
D18*
X103260672Y-121350672D02*
X103910000Y-122000000D01*
D17*
X129710000Y-112870000D02*
X127760000Y-112870000D01*
D12*
X134200000Y-116540000D02*
X135000000Y-117340000D01*
D15*
X129520000Y-119100000D02*
X129520000Y-120030000D01*
D13*
X129510000Y-119110000D02*
X129520000Y-119100000D01*
D12*
X134390000Y-116210000D02*
X134520000Y-116210000D01*
D13*
X126782538Y-127532538D02*
X126460000Y-127855076D01*
X119430000Y-136080000D02*
X118190000Y-136080000D01*
D12*
X134200000Y-116330000D02*
X134200000Y-116540000D01*
D17*
X127870000Y-112870000D02*
X127830000Y-112910000D01*
D15*
X129520000Y-118100000D02*
X129520000Y-119100000D01*
X128840000Y-126690000D02*
X128840000Y-128700000D01*
D13*
X120170000Y-135340000D02*
X119430000Y-136080000D01*
D15*
X134170000Y-120080000D02*
X134380000Y-120290000D01*
D12*
X134390000Y-116310000D02*
X134390000Y-116210000D01*
D16*
X125090000Y-107120000D02*
X124120000Y-107120000D01*
D12*
X134840000Y-116730000D02*
X134600000Y-116730000D01*
X134880000Y-116800000D02*
X134390000Y-116310000D01*
X134600000Y-116730000D02*
X134200000Y-116330000D01*
D15*
X128840000Y-128700000D02*
X128820000Y-128720000D01*
D13*
X127273765Y-121340000D02*
X127116883Y-121183117D01*
D15*
X130470000Y-120080000D02*
X134170000Y-120080000D01*
D13*
X126460000Y-127855076D02*
X126460000Y-128300000D01*
D15*
X128310000Y-126160000D02*
X128840000Y-126690000D01*
D18*
X103260672Y-120370000D02*
X103260672Y-121350672D01*
D12*
X135000000Y-117340000D02*
X135000000Y-116930000D01*
D13*
X126782538Y-124180374D02*
X126782538Y-127532538D01*
D16*
X124120000Y-107120000D02*
X123060000Y-108180000D01*
D15*
X134200000Y-116330000D02*
X134200000Y-117000000D01*
D13*
X126000000Y-131630000D02*
X122750000Y-131630000D01*
X126080000Y-122220000D02*
X127116883Y-121183117D01*
D14*
X110436040Y-126446040D02*
X110160000Y-126170000D01*
D12*
X103260672Y-120370000D02*
X102170000Y-120370000D01*
D13*
X125830000Y-122220000D02*
X126080000Y-122220000D01*
D17*
X132360000Y-112220000D02*
X130470000Y-112220000D01*
D13*
X117680000Y-135570000D02*
X117230000Y-135570000D01*
D15*
X134200000Y-117000000D02*
X134750000Y-117550000D01*
%TO.N,+3V3*%
D13*
X124907485Y-113430000D02*
X126038823Y-113430000D01*
X126106989Y-113386989D02*
X127680000Y-114960000D01*
X123470000Y-110310000D02*
X123450000Y-110290000D01*
X124907485Y-112596014D02*
X123470000Y-111158529D01*
X123470000Y-111158529D02*
X123470000Y-110310000D01*
D12*
X103055000Y-116315000D02*
X103011276Y-116315000D01*
D13*
X127680000Y-114960000D02*
X127680000Y-120030000D01*
X126081834Y-113386989D02*
X126106989Y-113386989D01*
X124907485Y-113430000D02*
X124907485Y-112596014D01*
D12*
X101080000Y-112810000D02*
X100600000Y-112810000D01*
D13*
X126038823Y-113430000D02*
X126081834Y-113386989D01*
X127680000Y-120030000D02*
X127860000Y-120210000D01*
D12*
X103011276Y-116315000D02*
X102300000Y-115603724D01*
X102300000Y-115603724D02*
X102300000Y-114030000D01*
X102300000Y-114030000D02*
X101080000Y-112810000D01*
%TO.N,Net-(C25-Pad1)*%
D14*
X112070000Y-107870000D02*
X112070000Y-110970000D01*
X111720000Y-107520000D02*
X112070000Y-107870000D01*
X111670000Y-107520000D02*
X111720000Y-107520000D01*
%TO.N,+5V*%
D19*
X133140000Y-124770000D02*
X133500000Y-125130000D01*
X133970000Y-124600000D02*
X133810000Y-124760000D01*
X134160000Y-113320000D02*
X134960000Y-114120000D01*
X134910000Y-114630000D02*
X135010000Y-114730000D01*
X133140000Y-124760000D02*
X133140000Y-124770000D01*
D16*
X120160000Y-136490000D02*
X120130000Y-136490000D01*
D19*
X137700000Y-120870000D02*
X133970000Y-124600000D01*
X132060000Y-124760000D02*
X132020000Y-124800000D01*
D16*
X120130000Y-136490000D02*
X119965000Y-136655000D01*
X119965000Y-136655000D02*
X114935000Y-136655000D01*
D19*
X132020000Y-124800000D02*
X132020000Y-125470000D01*
X133910000Y-113320000D02*
X134890000Y-113320000D01*
X133410000Y-124760000D02*
X132070000Y-124760000D01*
X132610000Y-125060000D02*
X132680000Y-125130000D01*
X137700000Y-117210000D02*
X137700000Y-120870000D01*
D16*
X114880000Y-136600000D02*
X111840000Y-136600000D01*
D19*
X135110000Y-114730000D02*
X137590000Y-117210000D01*
X133610000Y-113320000D02*
X133910000Y-113320000D01*
X133960000Y-124660000D02*
X133960000Y-124600000D01*
X133910000Y-113320000D02*
X134160000Y-113320000D01*
X134890000Y-113320000D02*
X134920000Y-113290000D01*
X134910000Y-113350000D02*
X134910000Y-114630000D01*
X133810000Y-124760000D02*
X133410000Y-124760000D01*
X134960000Y-114120000D02*
X134960000Y-113400000D01*
D13*
X132070000Y-127920000D02*
X127710000Y-132280000D01*
D19*
X132200000Y-125470000D02*
X132610000Y-125060000D01*
X133500000Y-125120000D02*
X133960000Y-124660000D01*
D13*
X132070000Y-124760000D02*
X132070000Y-127920000D01*
D16*
X124370000Y-132280000D02*
X120160000Y-136490000D01*
D13*
X127710000Y-132280000D02*
X124370000Y-132280000D01*
D16*
X111840000Y-136600000D02*
X111510000Y-136270000D01*
D19*
X133140000Y-124760000D02*
X133500000Y-125120000D01*
X134960000Y-113400000D02*
X134910000Y-113350000D01*
D16*
X114935000Y-136655000D02*
X114880000Y-136600000D01*
D19*
X132680000Y-125130000D02*
X133500000Y-125130000D01*
X132020000Y-125470000D02*
X132200000Y-125470000D01*
X135010000Y-114730000D02*
X135110000Y-114730000D01*
D16*
X111510000Y-136270000D02*
X111510000Y-135140000D01*
D19*
X133410000Y-124760000D02*
X132060000Y-124760000D01*
%TO.N,/03_STM32H743_schematic/UART1_RX*%
D18*
X105320000Y-128160000D02*
X109100000Y-131940000D01*
X107390000Y-119730000D02*
X107390000Y-120940000D01*
X109100000Y-131940000D02*
X109100000Y-133060000D01*
X124935000Y-137925000D02*
X126080000Y-136780000D01*
X106360000Y-123540000D02*
X105320000Y-124580000D01*
X109100000Y-133060000D02*
X107780000Y-134380000D01*
X126080000Y-136780000D02*
X126080000Y-136480000D01*
X107390000Y-120940000D02*
X106360000Y-121970000D01*
X107780000Y-136310000D02*
X109395000Y-137925000D01*
X105320000Y-124580000D02*
X105320000Y-128160000D01*
X107780000Y-134380000D02*
X107780000Y-136310000D01*
X109395000Y-137925000D02*
X124935000Y-137925000D01*
X106360000Y-121970000D02*
X106360000Y-123540000D01*
X109954832Y-116150000D02*
X109954832Y-117165168D01*
X109954832Y-117165168D02*
X107390000Y-119730000D01*
%TO.N,/03_STM32H743_schematic/UART1_TX*%
X110760000Y-117650000D02*
X108360000Y-120050000D01*
X106160000Y-127600000D02*
X110010000Y-131450000D01*
X109980000Y-137380000D02*
X122940000Y-137380000D01*
X107180000Y-122360000D02*
X107180000Y-123540000D01*
X108360000Y-120050000D02*
X108360000Y-121180000D01*
X108550000Y-135070000D02*
X108550000Y-135950000D01*
X108550000Y-135950000D02*
X109980000Y-137380000D01*
X127320000Y-135130000D02*
X127320000Y-135080000D01*
X110010000Y-131450000D02*
X110010000Y-133610000D01*
X106160000Y-124560000D02*
X106160000Y-127600000D01*
X126930000Y-135520000D02*
X127320000Y-135130000D01*
X108360000Y-121180000D02*
X107180000Y-122360000D01*
X110010000Y-133610000D02*
X108550000Y-135070000D01*
X110820000Y-116360000D02*
X110760000Y-116420000D01*
X122940000Y-137380000D02*
X124800000Y-135520000D01*
X124800000Y-135520000D02*
X126930000Y-135520000D01*
X107180000Y-123540000D02*
X106160000Y-124560000D01*
X110760000Y-116420000D02*
X110760000Y-117650000D01*
%TO.N,/03_STM32H743_schematic/FLASH_CS*%
X109180000Y-113470000D02*
X121910000Y-113470000D01*
%TO.N,Net-(U1-PG)*%
D12*
X131686308Y-115043692D02*
X132300000Y-114430000D01*
X131686308Y-116452791D02*
X131686308Y-115043692D01*
%TO.N,/03_STM32H743_schematic/CURRENT*%
D18*
X117720000Y-112890000D02*
X117720000Y-110990000D01*
X117720000Y-115240000D02*
X117720000Y-114360000D01*
X117720000Y-115260000D02*
X117710000Y-115250000D01*
X120970000Y-107740000D02*
X120970000Y-106460000D01*
X119870000Y-127090000D02*
X119870000Y-123540000D01*
X117710000Y-115250000D02*
X117720000Y-115240000D01*
X119870000Y-123540000D02*
X117720000Y-121390000D01*
X117720000Y-121390000D02*
X117720000Y-115260000D01*
X117720000Y-110990000D02*
X120970000Y-107740000D01*
%TO.N,Net-(U1-FB)*%
D12*
X133194656Y-115156021D02*
X133194656Y-115686906D01*
X131180971Y-116977791D02*
X130750000Y-116546820D01*
X132013771Y-116977791D02*
X131180971Y-116977791D01*
X133194656Y-115686906D02*
X131903771Y-116977791D01*
%TO.N,/03_STM32H743_schematic/SWD_NRST*%
X102535000Y-116675000D02*
X102535000Y-116725000D01*
X100725000Y-113650000D02*
X101884300Y-114809300D01*
X101870000Y-116010000D02*
X102535000Y-116675000D01*
X101884300Y-114809300D02*
X101884300Y-115995700D01*
D18*
X102700000Y-116890000D02*
X102535000Y-116725000D01*
X107174732Y-116890000D02*
X102700000Y-116890000D01*
D12*
X101884300Y-115995700D02*
X101870000Y-116010000D01*
D18*
X107210000Y-116854732D02*
X107174732Y-116890000D01*
%TO.N,CS1_ACCELEROMETER*%
X125386099Y-123813993D02*
X125923080Y-124350974D01*
X126104609Y-124350974D02*
X126145203Y-124391568D01*
X125923080Y-124350974D02*
X126104609Y-124350974D01*
X123253993Y-123813993D02*
X125386099Y-123813993D01*
X123040000Y-123600000D02*
X123253993Y-123813993D01*
X120150000Y-122190000D02*
X122240000Y-122190000D01*
X122736942Y-123307107D02*
X123029835Y-123600000D01*
X122560000Y-122510000D02*
X122560000Y-123120000D01*
X122560000Y-123120000D02*
X122736942Y-123296942D01*
X122736942Y-123296942D02*
X122736942Y-123307107D01*
X123029835Y-123600000D02*
X123040000Y-123600000D01*
X122240000Y-122190000D02*
X122560000Y-122510000D01*
X119350970Y-121390970D02*
X120150000Y-122190000D01*
%TO.N,SPI1_MISO*%
X124236942Y-123100714D02*
X123237656Y-123100714D01*
X123237656Y-123100714D02*
X123236942Y-123100000D01*
%TO.N,CS2_GYROSCOPE*%
X118390000Y-127740000D02*
X118090000Y-127440000D01*
X124350812Y-128419188D02*
X123410000Y-129360000D01*
X123410000Y-129360000D02*
X121530000Y-129360000D01*
X118090000Y-127440000D02*
X118090000Y-122657107D01*
X119910000Y-127740000D02*
X118390000Y-127740000D01*
X118090000Y-122657107D02*
X117982588Y-122549695D01*
X121530000Y-129360000D02*
X119910000Y-127740000D01*
X124350812Y-128346531D02*
X124350812Y-128419188D01*
%TO.N,INT1_ACCELEROMETER*%
X117440000Y-127650000D02*
X118040000Y-128250000D01*
X117440000Y-122180000D02*
X117440000Y-127650000D01*
X126200000Y-130100000D02*
X127720000Y-128580000D01*
X127720000Y-128580000D02*
X127720000Y-128080000D01*
X119770000Y-128250000D02*
X121620000Y-130100000D01*
X117080000Y-121870000D02*
X117130000Y-121870000D01*
X117130000Y-121870000D02*
X117440000Y-122180000D01*
X118040000Y-128250000D02*
X119770000Y-128250000D01*
X121620000Y-130100000D02*
X126200000Y-130100000D01*
%TO.N,INT3_GYROSCOPE*%
X118280000Y-119520000D02*
X118540000Y-119260000D01*
X123285000Y-124375000D02*
X122430000Y-123520000D01*
X122000000Y-123520000D02*
X121020000Y-122540000D01*
X122430000Y-123520000D02*
X122000000Y-123520000D01*
X119580000Y-122540000D02*
X118280000Y-121240000D01*
X118280000Y-121240000D02*
X118280000Y-119520000D01*
X125239999Y-124375000D02*
X123285000Y-124375000D01*
X121020000Y-122540000D02*
X119580000Y-122540000D01*
X118540000Y-119260000D02*
X118950000Y-119260000D01*
%TO.N,+3V3_IMU*%
D14*
X127276091Y-128413909D02*
X126180000Y-129510000D01*
X125285445Y-123120000D02*
X126950000Y-123120000D01*
X127320000Y-127702182D02*
X127170000Y-127852182D01*
X125091452Y-123313993D02*
X125285445Y-123120000D01*
X126180000Y-129510000D02*
X124770000Y-129510000D01*
X127170000Y-127852182D02*
X127170000Y-128307818D01*
X126950000Y-123120000D02*
X127320000Y-123490000D01*
X127170000Y-128307818D02*
X127276091Y-128413909D01*
X124770000Y-129510000D02*
X124750000Y-129490000D01*
X127320000Y-123490000D02*
X127320000Y-127702182D01*
%TD*%
M02*
