%TF.GenerationSoftware,KiCad,Pcbnew,10.0.4*%
%TF.CreationDate,2026-08-30T06:01:53+02:00*%
%TF.ProjectId,STM32H743_board_wfl,53544d33-3248-4373-9433-5f626f617264,rev?*%
%TF.SameCoordinates,Original*%
%TF.FileFunction,Legend,Top*%
%TF.FilePolarity,Positive*%
%FSLAX46Y46*%
G04 Gerber Fmt 4.6, Leading zero omitted, Abs format (unit mm)*
G04 Created by KiCad (PCBNEW 10.0.4) date 2026-08-30 06:01:53*
%MOMM*%
%LPD*%
G01*
G04 APERTURE LIST*
%ADD10C,0.150000*%
%ADD11C,0.120000*%
%ADD12C,0.127000*%
%ADD13C,0.200000*%
%ADD14C,0.100000*%
G04 APERTURE END LIST*
D10*
X118873333Y-132114819D02*
X118397143Y-132114819D01*
X118397143Y-132114819D02*
X118397143Y-131114819D01*
X119159048Y-131210057D02*
X119206667Y-131162438D01*
X119206667Y-131162438D02*
X119301905Y-131114819D01*
X119301905Y-131114819D02*
X119540000Y-131114819D01*
X119540000Y-131114819D02*
X119635238Y-131162438D01*
X119635238Y-131162438D02*
X119682857Y-131210057D01*
X119682857Y-131210057D02*
X119730476Y-131305295D01*
X119730476Y-131305295D02*
X119730476Y-131400533D01*
X119730476Y-131400533D02*
X119682857Y-131543390D01*
X119682857Y-131543390D02*
X119111429Y-132114819D01*
X119111429Y-132114819D02*
X119730476Y-132114819D01*
X123106666Y-135014819D02*
X123106666Y-135729104D01*
X123106666Y-135729104D02*
X123059047Y-135871961D01*
X123059047Y-135871961D02*
X122963809Y-135967200D01*
X122963809Y-135967200D02*
X122820952Y-136014819D01*
X122820952Y-136014819D02*
X122725714Y-136014819D01*
X123487619Y-135014819D02*
X124106666Y-135014819D01*
X124106666Y-135014819D02*
X123773333Y-135395771D01*
X123773333Y-135395771D02*
X123916190Y-135395771D01*
X123916190Y-135395771D02*
X124011428Y-135443390D01*
X124011428Y-135443390D02*
X124059047Y-135491009D01*
X124059047Y-135491009D02*
X124106666Y-135586247D01*
X124106666Y-135586247D02*
X124106666Y-135824342D01*
X124106666Y-135824342D02*
X124059047Y-135919580D01*
X124059047Y-135919580D02*
X124011428Y-135967200D01*
X124011428Y-135967200D02*
X123916190Y-136014819D01*
X123916190Y-136014819D02*
X123630476Y-136014819D01*
X123630476Y-136014819D02*
X123535238Y-135967200D01*
X123535238Y-135967200D02*
X123487619Y-135919580D01*
X130581905Y-107964819D02*
X130581905Y-106964819D01*
X130581905Y-106964819D02*
X130820000Y-106964819D01*
X130820000Y-106964819D02*
X130962857Y-107012438D01*
X130962857Y-107012438D02*
X131058095Y-107107676D01*
X131058095Y-107107676D02*
X131105714Y-107202914D01*
X131105714Y-107202914D02*
X131153333Y-107393390D01*
X131153333Y-107393390D02*
X131153333Y-107536247D01*
X131153333Y-107536247D02*
X131105714Y-107726723D01*
X131105714Y-107726723D02*
X131058095Y-107821961D01*
X131058095Y-107821961D02*
X130962857Y-107917200D01*
X130962857Y-107917200D02*
X130820000Y-107964819D01*
X130820000Y-107964819D02*
X130581905Y-107964819D01*
X132105714Y-107964819D02*
X131534286Y-107964819D01*
X131820000Y-107964819D02*
X131820000Y-106964819D01*
X131820000Y-106964819D02*
X131724762Y-107107676D01*
X131724762Y-107107676D02*
X131629524Y-107202914D01*
X131629524Y-107202914D02*
X131534286Y-107250533D01*
X114926666Y-102384819D02*
X114926666Y-103099104D01*
X114926666Y-103099104D02*
X114879047Y-103241961D01*
X114879047Y-103241961D02*
X114783809Y-103337200D01*
X114783809Y-103337200D02*
X114640952Y-103384819D01*
X114640952Y-103384819D02*
X114545714Y-103384819D01*
X115355238Y-102480057D02*
X115402857Y-102432438D01*
X115402857Y-102432438D02*
X115498095Y-102384819D01*
X115498095Y-102384819D02*
X115736190Y-102384819D01*
X115736190Y-102384819D02*
X115831428Y-102432438D01*
X115831428Y-102432438D02*
X115879047Y-102480057D01*
X115879047Y-102480057D02*
X115926666Y-102575295D01*
X115926666Y-102575295D02*
X115926666Y-102670533D01*
X115926666Y-102670533D02*
X115879047Y-102813390D01*
X115879047Y-102813390D02*
X115307619Y-103384819D01*
X115307619Y-103384819D02*
X115926666Y-103384819D01*
X104270476Y-108712295D02*
X104270476Y-109359914D01*
X104270476Y-109359914D02*
X104308571Y-109436104D01*
X104308571Y-109436104D02*
X104346666Y-109474200D01*
X104346666Y-109474200D02*
X104422857Y-109512295D01*
X104422857Y-109512295D02*
X104575238Y-109512295D01*
X104575238Y-109512295D02*
X104651428Y-109474200D01*
X104651428Y-109474200D02*
X104689523Y-109436104D01*
X104689523Y-109436104D02*
X104727619Y-109359914D01*
X104727619Y-109359914D02*
X104727619Y-108712295D01*
X105032380Y-108712295D02*
X105527618Y-108712295D01*
X105527618Y-108712295D02*
X105260952Y-109017057D01*
X105260952Y-109017057D02*
X105375237Y-109017057D01*
X105375237Y-109017057D02*
X105451428Y-109055152D01*
X105451428Y-109055152D02*
X105489523Y-109093247D01*
X105489523Y-109093247D02*
X105527618Y-109169438D01*
X105527618Y-109169438D02*
X105527618Y-109359914D01*
X105527618Y-109359914D02*
X105489523Y-109436104D01*
X105489523Y-109436104D02*
X105451428Y-109474200D01*
X105451428Y-109474200D02*
X105375237Y-109512295D01*
X105375237Y-109512295D02*
X105146666Y-109512295D01*
X105146666Y-109512295D02*
X105070475Y-109474200D01*
X105070475Y-109474200D02*
X105032380Y-109436104D01*
X130741009Y-101413333D02*
X130741009Y-101746666D01*
X131264819Y-101746666D02*
X130264819Y-101746666D01*
X130264819Y-101746666D02*
X130264819Y-101270476D01*
X131264819Y-100365714D02*
X131264819Y-100937142D01*
X131264819Y-100651428D02*
X130264819Y-100651428D01*
X130264819Y-100651428D02*
X130407676Y-100746666D01*
X130407676Y-100746666D02*
X130502914Y-100841904D01*
X130502914Y-100841904D02*
X130550533Y-100937142D01*
X121397142Y-109439580D02*
X121349523Y-109487200D01*
X121349523Y-109487200D02*
X121206666Y-109534819D01*
X121206666Y-109534819D02*
X121111428Y-109534819D01*
X121111428Y-109534819D02*
X120968571Y-109487200D01*
X120968571Y-109487200D02*
X120873333Y-109391961D01*
X120873333Y-109391961D02*
X120825714Y-109296723D01*
X120825714Y-109296723D02*
X120778095Y-109106247D01*
X120778095Y-109106247D02*
X120778095Y-108963390D01*
X120778095Y-108963390D02*
X120825714Y-108772914D01*
X120825714Y-108772914D02*
X120873333Y-108677676D01*
X120873333Y-108677676D02*
X120968571Y-108582438D01*
X120968571Y-108582438D02*
X121111428Y-108534819D01*
X121111428Y-108534819D02*
X121206666Y-108534819D01*
X121206666Y-108534819D02*
X121349523Y-108582438D01*
X121349523Y-108582438D02*
X121397142Y-108630057D01*
X122349523Y-109534819D02*
X121778095Y-109534819D01*
X122063809Y-109534819D02*
X122063809Y-108534819D01*
X122063809Y-108534819D02*
X121968571Y-108677676D01*
X121968571Y-108677676D02*
X121873333Y-108772914D01*
X121873333Y-108772914D02*
X121778095Y-108820533D01*
X123254285Y-108534819D02*
X122778095Y-108534819D01*
X122778095Y-108534819D02*
X122730476Y-109011009D01*
X122730476Y-109011009D02*
X122778095Y-108963390D01*
X122778095Y-108963390D02*
X122873333Y-108915771D01*
X122873333Y-108915771D02*
X123111428Y-108915771D01*
X123111428Y-108915771D02*
X123206666Y-108963390D01*
X123206666Y-108963390D02*
X123254285Y-109011009D01*
X123254285Y-109011009D02*
X123301904Y-109106247D01*
X123301904Y-109106247D02*
X123301904Y-109344342D01*
X123301904Y-109344342D02*
X123254285Y-109439580D01*
X123254285Y-109439580D02*
X123206666Y-109487200D01*
X123206666Y-109487200D02*
X123111428Y-109534819D01*
X123111428Y-109534819D02*
X122873333Y-109534819D01*
X122873333Y-109534819D02*
X122778095Y-109487200D01*
X122778095Y-109487200D02*
X122730476Y-109439580D01*
X102786666Y-108289819D02*
X102786666Y-109004104D01*
X102786666Y-109004104D02*
X102739047Y-109146961D01*
X102739047Y-109146961D02*
X102643809Y-109242200D01*
X102643809Y-109242200D02*
X102500952Y-109289819D01*
X102500952Y-109289819D02*
X102405714Y-109289819D01*
X103691428Y-108623152D02*
X103691428Y-109289819D01*
X103453333Y-108242200D02*
X103215238Y-108956485D01*
X103215238Y-108956485D02*
X103834285Y-108956485D01*
X100864819Y-121973333D02*
X101579104Y-121973333D01*
X101579104Y-121973333D02*
X101721961Y-122020952D01*
X101721961Y-122020952D02*
X101817200Y-122116190D01*
X101817200Y-122116190D02*
X101864819Y-122259047D01*
X101864819Y-122259047D02*
X101864819Y-122354285D01*
X101864819Y-121497142D02*
X100864819Y-121497142D01*
X100864819Y-121497142D02*
X100864819Y-121116190D01*
X100864819Y-121116190D02*
X100912438Y-121020952D01*
X100912438Y-121020952D02*
X100960057Y-120973333D01*
X100960057Y-120973333D02*
X101055295Y-120925714D01*
X101055295Y-120925714D02*
X101198152Y-120925714D01*
X101198152Y-120925714D02*
X101293390Y-120973333D01*
X101293390Y-120973333D02*
X101341009Y-121020952D01*
X101341009Y-121020952D02*
X101388628Y-121116190D01*
X101388628Y-121116190D02*
X101388628Y-121497142D01*
X101864819Y-119973333D02*
X101864819Y-120544761D01*
X101864819Y-120259047D02*
X100864819Y-120259047D01*
X100864819Y-120259047D02*
X101007676Y-120354285D01*
X101007676Y-120354285D02*
X101102914Y-120449523D01*
X101102914Y-120449523D02*
X101150533Y-120544761D01*
X119321667Y-107492295D02*
X119055000Y-107111342D01*
X118864524Y-107492295D02*
X118864524Y-106692295D01*
X118864524Y-106692295D02*
X119169286Y-106692295D01*
X119169286Y-106692295D02*
X119245476Y-106730390D01*
X119245476Y-106730390D02*
X119283571Y-106768485D01*
X119283571Y-106768485D02*
X119321667Y-106844676D01*
X119321667Y-106844676D02*
X119321667Y-106958961D01*
X119321667Y-106958961D02*
X119283571Y-107035152D01*
X119283571Y-107035152D02*
X119245476Y-107073247D01*
X119245476Y-107073247D02*
X119169286Y-107111342D01*
X119169286Y-107111342D02*
X118864524Y-107111342D01*
X119702619Y-107492295D02*
X119855000Y-107492295D01*
X119855000Y-107492295D02*
X119931190Y-107454200D01*
X119931190Y-107454200D02*
X119969286Y-107416104D01*
X119969286Y-107416104D02*
X120045476Y-107301819D01*
X120045476Y-107301819D02*
X120083571Y-107149438D01*
X120083571Y-107149438D02*
X120083571Y-106844676D01*
X120083571Y-106844676D02*
X120045476Y-106768485D01*
X120045476Y-106768485D02*
X120007381Y-106730390D01*
X120007381Y-106730390D02*
X119931190Y-106692295D01*
X119931190Y-106692295D02*
X119778809Y-106692295D01*
X119778809Y-106692295D02*
X119702619Y-106730390D01*
X119702619Y-106730390D02*
X119664524Y-106768485D01*
X119664524Y-106768485D02*
X119626428Y-106844676D01*
X119626428Y-106844676D02*
X119626428Y-107035152D01*
X119626428Y-107035152D02*
X119664524Y-107111342D01*
X119664524Y-107111342D02*
X119702619Y-107149438D01*
X119702619Y-107149438D02*
X119778809Y-107187533D01*
X119778809Y-107187533D02*
X119931190Y-107187533D01*
X119931190Y-107187533D02*
X120007381Y-107149438D01*
X120007381Y-107149438D02*
X120045476Y-107111342D01*
X120045476Y-107111342D02*
X120083571Y-107035152D01*
X112673809Y-131838628D02*
X112673809Y-132314819D01*
X112340476Y-131314819D02*
X112673809Y-131838628D01*
X112673809Y-131838628D02*
X113007142Y-131314819D01*
X113864285Y-132314819D02*
X113292857Y-132314819D01*
X113578571Y-132314819D02*
X113578571Y-131314819D01*
X113578571Y-131314819D02*
X113483333Y-131457676D01*
X113483333Y-131457676D02*
X113388095Y-131552914D01*
X113388095Y-131552914D02*
X113292857Y-131600533D01*
X125193333Y-107829580D02*
X125145714Y-107877200D01*
X125145714Y-107877200D02*
X125002857Y-107924819D01*
X125002857Y-107924819D02*
X124907619Y-107924819D01*
X124907619Y-107924819D02*
X124764762Y-107877200D01*
X124764762Y-107877200D02*
X124669524Y-107781961D01*
X124669524Y-107781961D02*
X124621905Y-107686723D01*
X124621905Y-107686723D02*
X124574286Y-107496247D01*
X124574286Y-107496247D02*
X124574286Y-107353390D01*
X124574286Y-107353390D02*
X124621905Y-107162914D01*
X124621905Y-107162914D02*
X124669524Y-107067676D01*
X124669524Y-107067676D02*
X124764762Y-106972438D01*
X124764762Y-106972438D02*
X124907619Y-106924819D01*
X124907619Y-106924819D02*
X125002857Y-106924819D01*
X125002857Y-106924819D02*
X125145714Y-106972438D01*
X125145714Y-106972438D02*
X125193333Y-107020057D01*
X126145714Y-107924819D02*
X125574286Y-107924819D01*
X125860000Y-107924819D02*
X125860000Y-106924819D01*
X125860000Y-106924819D02*
X125764762Y-107067676D01*
X125764762Y-107067676D02*
X125669524Y-107162914D01*
X125669524Y-107162914D02*
X125574286Y-107210533D01*
X102637142Y-124549580D02*
X102589523Y-124597200D01*
X102589523Y-124597200D02*
X102446666Y-124644819D01*
X102446666Y-124644819D02*
X102351428Y-124644819D01*
X102351428Y-124644819D02*
X102208571Y-124597200D01*
X102208571Y-124597200D02*
X102113333Y-124501961D01*
X102113333Y-124501961D02*
X102065714Y-124406723D01*
X102065714Y-124406723D02*
X102018095Y-124216247D01*
X102018095Y-124216247D02*
X102018095Y-124073390D01*
X102018095Y-124073390D02*
X102065714Y-123882914D01*
X102065714Y-123882914D02*
X102113333Y-123787676D01*
X102113333Y-123787676D02*
X102208571Y-123692438D01*
X102208571Y-123692438D02*
X102351428Y-123644819D01*
X102351428Y-123644819D02*
X102446666Y-123644819D01*
X102446666Y-123644819D02*
X102589523Y-123692438D01*
X102589523Y-123692438D02*
X102637142Y-123740057D01*
X103589523Y-124644819D02*
X103018095Y-124644819D01*
X103303809Y-124644819D02*
X103303809Y-123644819D01*
X103303809Y-123644819D02*
X103208571Y-123787676D01*
X103208571Y-123787676D02*
X103113333Y-123882914D01*
X103113333Y-123882914D02*
X103018095Y-123930533D01*
X103922857Y-123644819D02*
X104589523Y-123644819D01*
X104589523Y-123644819D02*
X104160952Y-124644819D01*
X122728095Y-113474819D02*
X122728095Y-114284342D01*
X122728095Y-114284342D02*
X122775714Y-114379580D01*
X122775714Y-114379580D02*
X122823333Y-114427200D01*
X122823333Y-114427200D02*
X122918571Y-114474819D01*
X122918571Y-114474819D02*
X123109047Y-114474819D01*
X123109047Y-114474819D02*
X123204285Y-114427200D01*
X123204285Y-114427200D02*
X123251904Y-114379580D01*
X123251904Y-114379580D02*
X123299523Y-114284342D01*
X123299523Y-114284342D02*
X123299523Y-113474819D01*
X124204285Y-113808152D02*
X124204285Y-114474819D01*
X123966190Y-113427200D02*
X123728095Y-114141485D01*
X123728095Y-114141485D02*
X124347142Y-114141485D01*
X109745714Y-104916104D02*
X109707618Y-104954200D01*
X109707618Y-104954200D02*
X109593333Y-104992295D01*
X109593333Y-104992295D02*
X109517142Y-104992295D01*
X109517142Y-104992295D02*
X109402856Y-104954200D01*
X109402856Y-104954200D02*
X109326666Y-104878009D01*
X109326666Y-104878009D02*
X109288571Y-104801819D01*
X109288571Y-104801819D02*
X109250475Y-104649438D01*
X109250475Y-104649438D02*
X109250475Y-104535152D01*
X109250475Y-104535152D02*
X109288571Y-104382771D01*
X109288571Y-104382771D02*
X109326666Y-104306580D01*
X109326666Y-104306580D02*
X109402856Y-104230390D01*
X109402856Y-104230390D02*
X109517142Y-104192295D01*
X109517142Y-104192295D02*
X109593333Y-104192295D01*
X109593333Y-104192295D02*
X109707618Y-104230390D01*
X109707618Y-104230390D02*
X109745714Y-104268485D01*
X110507618Y-104992295D02*
X110050475Y-104992295D01*
X110279047Y-104992295D02*
X110279047Y-104192295D01*
X110279047Y-104192295D02*
X110202856Y-104306580D01*
X110202856Y-104306580D02*
X110126666Y-104382771D01*
X110126666Y-104382771D02*
X110050475Y-104420866D01*
X110812380Y-104268485D02*
X110850476Y-104230390D01*
X110850476Y-104230390D02*
X110926666Y-104192295D01*
X110926666Y-104192295D02*
X111117142Y-104192295D01*
X111117142Y-104192295D02*
X111193333Y-104230390D01*
X111193333Y-104230390D02*
X111231428Y-104268485D01*
X111231428Y-104268485D02*
X111269523Y-104344676D01*
X111269523Y-104344676D02*
X111269523Y-104420866D01*
X111269523Y-104420866D02*
X111231428Y-104535152D01*
X111231428Y-104535152D02*
X110774285Y-104992295D01*
X110774285Y-104992295D02*
X111269523Y-104992295D01*
X105005714Y-108046104D02*
X104967618Y-108084200D01*
X104967618Y-108084200D02*
X104853333Y-108122295D01*
X104853333Y-108122295D02*
X104777142Y-108122295D01*
X104777142Y-108122295D02*
X104662856Y-108084200D01*
X104662856Y-108084200D02*
X104586666Y-108008009D01*
X104586666Y-108008009D02*
X104548571Y-107931819D01*
X104548571Y-107931819D02*
X104510475Y-107779438D01*
X104510475Y-107779438D02*
X104510475Y-107665152D01*
X104510475Y-107665152D02*
X104548571Y-107512771D01*
X104548571Y-107512771D02*
X104586666Y-107436580D01*
X104586666Y-107436580D02*
X104662856Y-107360390D01*
X104662856Y-107360390D02*
X104777142Y-107322295D01*
X104777142Y-107322295D02*
X104853333Y-107322295D01*
X104853333Y-107322295D02*
X104967618Y-107360390D01*
X104967618Y-107360390D02*
X105005714Y-107398485D01*
X105767618Y-108122295D02*
X105310475Y-108122295D01*
X105539047Y-108122295D02*
X105539047Y-107322295D01*
X105539047Y-107322295D02*
X105462856Y-107436580D01*
X105462856Y-107436580D02*
X105386666Y-107512771D01*
X105386666Y-107512771D02*
X105310475Y-107550866D01*
X106453333Y-107322295D02*
X106300952Y-107322295D01*
X106300952Y-107322295D02*
X106224761Y-107360390D01*
X106224761Y-107360390D02*
X106186666Y-107398485D01*
X106186666Y-107398485D02*
X106110476Y-107512771D01*
X106110476Y-107512771D02*
X106072380Y-107665152D01*
X106072380Y-107665152D02*
X106072380Y-107969914D01*
X106072380Y-107969914D02*
X106110476Y-108046104D01*
X106110476Y-108046104D02*
X106148571Y-108084200D01*
X106148571Y-108084200D02*
X106224761Y-108122295D01*
X106224761Y-108122295D02*
X106377142Y-108122295D01*
X106377142Y-108122295D02*
X106453333Y-108084200D01*
X106453333Y-108084200D02*
X106491428Y-108046104D01*
X106491428Y-108046104D02*
X106529523Y-107969914D01*
X106529523Y-107969914D02*
X106529523Y-107779438D01*
X106529523Y-107779438D02*
X106491428Y-107703247D01*
X106491428Y-107703247D02*
X106453333Y-107665152D01*
X106453333Y-107665152D02*
X106377142Y-107627057D01*
X106377142Y-107627057D02*
X106224761Y-107627057D01*
X106224761Y-107627057D02*
X106148571Y-107665152D01*
X106148571Y-107665152D02*
X106110476Y-107703247D01*
X106110476Y-107703247D02*
X106072380Y-107779438D01*
X111136666Y-135054819D02*
X111136666Y-135769104D01*
X111136666Y-135769104D02*
X111089047Y-135911961D01*
X111089047Y-135911961D02*
X110993809Y-136007200D01*
X110993809Y-136007200D02*
X110850952Y-136054819D01*
X110850952Y-136054819D02*
X110755714Y-136054819D01*
X112136666Y-136054819D02*
X111565238Y-136054819D01*
X111850952Y-136054819D02*
X111850952Y-135054819D01*
X111850952Y-135054819D02*
X111755714Y-135197676D01*
X111755714Y-135197676D02*
X111660476Y-135292914D01*
X111660476Y-135292914D02*
X111565238Y-135340533D01*
X129229580Y-128357857D02*
X129277200Y-128405476D01*
X129277200Y-128405476D02*
X129324819Y-128548333D01*
X129324819Y-128548333D02*
X129324819Y-128643571D01*
X129324819Y-128643571D02*
X129277200Y-128786428D01*
X129277200Y-128786428D02*
X129181961Y-128881666D01*
X129181961Y-128881666D02*
X129086723Y-128929285D01*
X129086723Y-128929285D02*
X128896247Y-128976904D01*
X128896247Y-128976904D02*
X128753390Y-128976904D01*
X128753390Y-128976904D02*
X128562914Y-128929285D01*
X128562914Y-128929285D02*
X128467676Y-128881666D01*
X128467676Y-128881666D02*
X128372438Y-128786428D01*
X128372438Y-128786428D02*
X128324819Y-128643571D01*
X128324819Y-128643571D02*
X128324819Y-128548333D01*
X128324819Y-128548333D02*
X128372438Y-128405476D01*
X128372438Y-128405476D02*
X128420057Y-128357857D01*
X129324819Y-127405476D02*
X129324819Y-127976904D01*
X129324819Y-127691190D02*
X128324819Y-127691190D01*
X128324819Y-127691190D02*
X128467676Y-127786428D01*
X128467676Y-127786428D02*
X128562914Y-127881666D01*
X128562914Y-127881666D02*
X128610533Y-127976904D01*
X128324819Y-126786428D02*
X128324819Y-126691190D01*
X128324819Y-126691190D02*
X128372438Y-126595952D01*
X128372438Y-126595952D02*
X128420057Y-126548333D01*
X128420057Y-126548333D02*
X128515295Y-126500714D01*
X128515295Y-126500714D02*
X128705771Y-126453095D01*
X128705771Y-126453095D02*
X128943866Y-126453095D01*
X128943866Y-126453095D02*
X129134342Y-126500714D01*
X129134342Y-126500714D02*
X129229580Y-126548333D01*
X129229580Y-126548333D02*
X129277200Y-126595952D01*
X129277200Y-126595952D02*
X129324819Y-126691190D01*
X129324819Y-126691190D02*
X129324819Y-126786428D01*
X129324819Y-126786428D02*
X129277200Y-126881666D01*
X129277200Y-126881666D02*
X129229580Y-126929285D01*
X129229580Y-126929285D02*
X129134342Y-126976904D01*
X129134342Y-126976904D02*
X128943866Y-127024523D01*
X128943866Y-127024523D02*
X128705771Y-127024523D01*
X128705771Y-127024523D02*
X128515295Y-126976904D01*
X128515295Y-126976904D02*
X128420057Y-126929285D01*
X128420057Y-126929285D02*
X128372438Y-126881666D01*
X128372438Y-126881666D02*
X128324819Y-126786428D01*
X136468095Y-122444819D02*
X136468095Y-123254342D01*
X136468095Y-123254342D02*
X136515714Y-123349580D01*
X136515714Y-123349580D02*
X136563333Y-123397200D01*
X136563333Y-123397200D02*
X136658571Y-123444819D01*
X136658571Y-123444819D02*
X136849047Y-123444819D01*
X136849047Y-123444819D02*
X136944285Y-123397200D01*
X136944285Y-123397200D02*
X136991904Y-123349580D01*
X136991904Y-123349580D02*
X137039523Y-123254342D01*
X137039523Y-123254342D02*
X137039523Y-122444819D01*
X137468095Y-122540057D02*
X137515714Y-122492438D01*
X137515714Y-122492438D02*
X137610952Y-122444819D01*
X137610952Y-122444819D02*
X137849047Y-122444819D01*
X137849047Y-122444819D02*
X137944285Y-122492438D01*
X137944285Y-122492438D02*
X137991904Y-122540057D01*
X137991904Y-122540057D02*
X138039523Y-122635295D01*
X138039523Y-122635295D02*
X138039523Y-122730533D01*
X138039523Y-122730533D02*
X137991904Y-122873390D01*
X137991904Y-122873390D02*
X137420476Y-123444819D01*
X137420476Y-123444819D02*
X138039523Y-123444819D01*
X131309580Y-132062857D02*
X131357200Y-132110476D01*
X131357200Y-132110476D02*
X131404819Y-132253333D01*
X131404819Y-132253333D02*
X131404819Y-132348571D01*
X131404819Y-132348571D02*
X131357200Y-132491428D01*
X131357200Y-132491428D02*
X131261961Y-132586666D01*
X131261961Y-132586666D02*
X131166723Y-132634285D01*
X131166723Y-132634285D02*
X130976247Y-132681904D01*
X130976247Y-132681904D02*
X130833390Y-132681904D01*
X130833390Y-132681904D02*
X130642914Y-132634285D01*
X130642914Y-132634285D02*
X130547676Y-132586666D01*
X130547676Y-132586666D02*
X130452438Y-132491428D01*
X130452438Y-132491428D02*
X130404819Y-132348571D01*
X130404819Y-132348571D02*
X130404819Y-132253333D01*
X130404819Y-132253333D02*
X130452438Y-132110476D01*
X130452438Y-132110476D02*
X130500057Y-132062857D01*
X131404819Y-131110476D02*
X131404819Y-131681904D01*
X131404819Y-131396190D02*
X130404819Y-131396190D01*
X130404819Y-131396190D02*
X130547676Y-131491428D01*
X130547676Y-131491428D02*
X130642914Y-131586666D01*
X130642914Y-131586666D02*
X130690533Y-131681904D01*
X131404819Y-130158095D02*
X131404819Y-130729523D01*
X131404819Y-130443809D02*
X130404819Y-130443809D01*
X130404819Y-130443809D02*
X130547676Y-130539047D01*
X130547676Y-130539047D02*
X130642914Y-130634285D01*
X130642914Y-130634285D02*
X130690533Y-130729523D01*
%TO.C,C23*%
D11*
X112922164Y-126630000D02*
X113137836Y-126630000D01*
X112922164Y-127350000D02*
X113137836Y-127350000D01*
%TO.C,L2*%
X118640378Y-129410000D02*
X119439622Y-129410000D01*
X118640378Y-130530000D02*
X119439622Y-130530000D01*
%TO.C,C2*%
X127836252Y-110590000D02*
X126413748Y-110590000D01*
X127836252Y-112410000D02*
X126413748Y-112410000D01*
%TO.C,C25*%
X110310580Y-107010000D02*
X110029420Y-107010000D01*
X110310580Y-108030000D02*
X110029420Y-108030000D01*
%TO.C,J3*%
X121245000Y-133840000D02*
X123045000Y-133840000D01*
X121245000Y-135290000D02*
X121245000Y-133840000D01*
X122515000Y-138110000D02*
X128445000Y-138110000D01*
X123045000Y-133840000D02*
X123045000Y-132850000D01*
X129715000Y-133840000D02*
X127915000Y-133840000D01*
X129715000Y-135290000D02*
X129715000Y-133840000D01*
%TO.C,C3*%
X130270580Y-112980000D02*
X129989420Y-112980000D01*
X130270580Y-114000000D02*
X129989420Y-114000000D01*
%TO.C,D1*%
X130750000Y-108360000D02*
X130750000Y-112660000D01*
X130750000Y-108360000D02*
X136560000Y-108360000D01*
X130750000Y-112660000D02*
X136560000Y-112660000D01*
%TO.C,J2*%
X112355000Y-103210000D02*
X112355000Y-104660000D01*
X112355000Y-104660000D02*
X114155000Y-104660000D01*
X124025000Y-104660000D02*
X124025000Y-105650000D01*
X124555000Y-100390000D02*
X113625000Y-100390000D01*
X125825000Y-103210000D02*
X125825000Y-104660000D01*
X125825000Y-104660000D02*
X124025000Y-104660000D01*
%TO.C,C28*%
X128260000Y-120357836D02*
X128260000Y-120142164D01*
X128980000Y-120357836D02*
X128980000Y-120142164D01*
%TO.C,C7*%
X135408748Y-113800000D02*
X136831252Y-113800000D01*
X135408748Y-115620000D02*
X136831252Y-115620000D01*
%TO.C,U3*%
X105844832Y-110095000D02*
X106544832Y-110095000D01*
X105844832Y-110795000D02*
X105844832Y-110095000D01*
X105844832Y-124315000D02*
X105844832Y-123615000D01*
X106544832Y-124315000D02*
X105844832Y-124315000D01*
X119364832Y-110095000D02*
X120064832Y-110095000D01*
X120064832Y-110095000D02*
X120064832Y-110795000D01*
X120064832Y-123615000D02*
X120064832Y-124315000D01*
X120064832Y-124315000D02*
X119364832Y-124315000D01*
X106544832Y-124955000D02*
X106074832Y-125295000D01*
X106074832Y-124615000D01*
X106544832Y-124955000D01*
G36*
X106544832Y-124955000D02*
G01*
X106074832Y-125295000D01*
X106074832Y-124615000D01*
X106544832Y-124955000D01*
G37*
%TO.C,C27*%
X127610580Y-121480000D02*
X127329420Y-121480000D01*
X127610580Y-122500000D02*
X127329420Y-122500000D01*
%TO.C,C24*%
X114842164Y-126450000D02*
X115057836Y-126450000D01*
X114842164Y-127170000D02*
X115057836Y-127170000D01*
%TO.C,F1*%
D12*
X127030000Y-104970000D02*
X127030000Y-102970000D01*
X129570000Y-102970000D02*
X129570000Y-104970000D01*
%TO.C,C6*%
D11*
X132559420Y-120700000D02*
X132840580Y-120700000D01*
X132559420Y-121720000D02*
X132840580Y-121720000D01*
%TO.C,U5*%
X122880000Y-124667500D02*
X123355000Y-124667500D01*
X122880000Y-125892500D02*
X122880000Y-124667500D01*
X122880000Y-127887500D02*
X122880000Y-126662500D01*
X123355000Y-127887500D02*
X122880000Y-127887500D01*
X127125000Y-124667500D02*
X127600000Y-124667500D01*
X127600000Y-124667500D02*
X127600000Y-125892500D01*
X127600000Y-126662500D02*
X127600000Y-127887500D01*
X127600000Y-127887500D02*
X127125000Y-127887500D01*
X126740000Y-128137500D02*
X126980000Y-128467500D01*
X126500000Y-128467500D01*
X126740000Y-128137500D01*
G36*
X126980000Y-128467500D02*
G01*
X126500000Y-128467500D01*
X126740000Y-128137500D01*
X126980000Y-128467500D01*
G37*
%TO.C,C13*%
X111217836Y-126450000D02*
X111002164Y-126450000D01*
X111217836Y-127170000D02*
X111002164Y-127170000D01*
%TO.C,U1*%
D13*
X131670000Y-120690000D02*
X131670000Y-120690000D01*
X131870000Y-120690000D02*
X131870000Y-120690000D01*
X131670000Y-120690000D02*
G75*
G02*
X131870000Y-120690000I100000J0D01*
G01*
X131870000Y-120690000D02*
G75*
G02*
X131670000Y-120690000I-100000J0D01*
G01*
%TO.C,C18*%
D11*
X117057836Y-126400000D02*
X116842164Y-126400000D01*
X117057836Y-127120000D02*
X116842164Y-127120000D01*
%TO.C,C15*%
X122270000Y-110662164D02*
X122270000Y-110877836D01*
X122990000Y-110662164D02*
X122990000Y-110877836D01*
%TO.C,J4*%
X100835000Y-110855000D02*
X101470000Y-110855000D01*
X100835000Y-111490000D02*
X100835000Y-110855000D01*
%TO.C,C29*%
X123065580Y-128715000D02*
X122784420Y-128715000D01*
X123065580Y-129735000D02*
X122784420Y-129735000D01*
%TO.C,C26*%
X123199420Y-112160000D02*
X123480580Y-112160000D01*
X123199420Y-113180000D02*
X123480580Y-113180000D01*
%TO.C,Y1*%
X115040000Y-127630000D02*
X110920000Y-127630000D01*
X115040000Y-131050000D02*
X115040000Y-127630000D01*
%TO.C,C1*%
X127981252Y-108230000D02*
X126558748Y-108230000D01*
X127981252Y-110050000D02*
X126558748Y-110050000D01*
%TO.C,C19*%
X117310580Y-127830000D02*
X117029420Y-127830000D01*
X117310580Y-128850000D02*
X117029420Y-128850000D01*
%TO.C,C17*%
X102850000Y-122607836D02*
X102850000Y-122392164D01*
X103570000Y-122607836D02*
X103570000Y-122392164D01*
%TO.C,U4*%
X122450000Y-114810000D02*
X122645000Y-114810000D01*
X122450000Y-121030000D02*
X122450000Y-114810000D01*
X122645000Y-121030000D02*
X122450000Y-121030000D01*
X127475000Y-114810000D02*
X127670000Y-114810000D01*
X127670000Y-114810000D02*
X127670000Y-121030000D01*
X127670000Y-121030000D02*
X127475000Y-121030000D01*
X126970000Y-114580000D02*
X126730000Y-114250000D01*
X127210000Y-114250000D01*
X126970000Y-114580000D01*
G36*
X126970000Y-114580000D02*
G01*
X126730000Y-114250000D01*
X127210000Y-114250000D01*
X126970000Y-114580000D01*
G37*
%TO.C,C12*%
X110049420Y-105450000D02*
X110330580Y-105450000D01*
X110049420Y-106470000D02*
X110330580Y-106470000D01*
%TO.C,C22*%
X120972164Y-126310000D02*
X121187836Y-126310000D01*
X120972164Y-127030000D02*
X121187836Y-127030000D01*
%TO.C,C30*%
X125162164Y-123355000D02*
X125377836Y-123355000D01*
X125162164Y-124075000D02*
X125377836Y-124075000D01*
%TO.C,L1*%
D14*
X134880000Y-120120000D02*
X134880000Y-117120000D01*
X137880000Y-117120000D02*
X137880000Y-120120000D01*
D13*
X136430000Y-116470000D02*
G75*
G02*
X136330000Y-116470000I-50000J0D01*
G01*
X136330000Y-116470000D02*
G75*
G02*
X136430000Y-116470000I50000J0D01*
G01*
%TO.C,L3*%
D11*
X123327122Y-130450000D02*
X122527878Y-130450000D01*
X123327122Y-131570000D02*
X122527878Y-131570000D01*
%TO.C,C31*%
X125792164Y-128720000D02*
X126007836Y-128720000D01*
X125792164Y-129440000D02*
X126007836Y-129440000D01*
%TO.C,C16*%
X107592164Y-107300000D02*
X107807836Y-107300000D01*
X107592164Y-108020000D02*
X107807836Y-108020000D01*
%TO.C,J1*%
X108785000Y-133840000D02*
X110585000Y-133840000D01*
X108785000Y-135290000D02*
X108785000Y-133840000D01*
X110055000Y-138110000D02*
X118485000Y-138110000D01*
X110585000Y-133840000D02*
X110585000Y-132850000D01*
X119755000Y-133840000D02*
X117955000Y-133840000D01*
X119755000Y-135290000D02*
X119755000Y-133840000D01*
%TO.C,C20*%
X109082164Y-126460000D02*
X109297836Y-126460000D01*
X109082164Y-127180000D02*
X109297836Y-127180000D01*
%TO.C,C9*%
X131125580Y-115040000D02*
X130844420Y-115040000D01*
X131125580Y-116060000D02*
X130844420Y-116060000D01*
%TO.C,C10*%
X128210000Y-124599420D02*
X128210000Y-124880580D01*
X129230000Y-124599420D02*
X129230000Y-124880580D01*
%TO.C,C21*%
X101260000Y-117292164D02*
X101260000Y-117507836D01*
X101980000Y-117292164D02*
X101980000Y-117507836D01*
%TO.C,U2*%
X132080000Y-122717500D02*
X135840000Y-122717500D01*
X132080000Y-129537500D02*
X135840000Y-129537500D01*
X135840000Y-122717500D02*
X135840000Y-123977500D01*
X135840000Y-129537500D02*
X135840000Y-128277500D01*
X130800000Y-122817500D02*
X130560000Y-122487500D01*
X131040000Y-122487500D01*
X130800000Y-122817500D01*
G36*
X130800000Y-122817500D02*
G01*
X130560000Y-122487500D01*
X131040000Y-122487500D01*
X130800000Y-122817500D01*
G37*
%TO.C,C14*%
X121547836Y-124760000D02*
X121332164Y-124760000D01*
X121547836Y-125480000D02*
X121332164Y-125480000D01*
%TO.C,C11*%
X129010000Y-131279420D02*
X129010000Y-131560580D01*
X130030000Y-131279420D02*
X130030000Y-131560580D01*
%TD*%
M02*
