M48
; DRILL file KiCad 10.0.4 date 2026-08-30T06:02:03
; FORMAT={-:-/ absolute / metric / decimal}
; #@! TF.CreationDate,2026-08-30T06:02:03+02:00
; #@! TF.GenerationSoftware,Kicad,Pcbnew,10.0.4
; #@! TF.FileFunction,Plated,1,4,PTH
FMAT,2
METRIC
; #@! TA.AperFunction,Plated,PTH,ViaDrill
T1C0.200
; #@! TA.AperFunction,Plated,PTH,ViaDrill
T2C0.300
%
G90
G05
T1
X100.6Y-112.81
X100.725Y-113.65
X101.01Y-116.34
X101.25Y-118.7
X102.48Y-117.82
X102.48Y-119.76
X102.5Y-122.47
X102.535Y-116.725
X103.055Y-116.315
X103.851Y-119.78
X103.91Y-122.0
X106.83Y-110.71
X107.21Y-116.855
X107.455Y-110.519
X108.55Y-123.44
X109.18Y-113.47
X109.41Y-105.04
X109.955Y-116.15
X110.16Y-126.17
X110.22Y-122.53
X110.51Y-128.14
X110.82Y-116.36
X111.143Y-127.408
X111.51Y-135.14
X111.67Y-107.52
X111.91Y-123.32
X111.93Y-105.97
X112.07Y-110.97
X112.42Y-135.23
X113.118Y-126.446
X115.64Y-126.12
X115.95Y-129.29
X115.96Y-123.51
X117.08Y-121.87
X117.23Y-135.57
X117.72Y-112.89
X117.72Y-114.36
X117.983Y-122.55
X118.95Y-119.26
X119.12Y-111.0
X119.14Y-111.64
X119.351Y-121.391
X119.87Y-127.09
X120.49Y-124.58
X120.97Y-106.46
X121.496Y-124.499
X121.91Y-113.47
X122.0Y-127.26
X122.58Y-107.61
X123.06Y-108.18
X123.237Y-123.1
X123.45Y-110.29
X123.58Y-128.27
X123.95Y-109.18
X124.07Y-110.91
X124.237Y-123.101
X124.25Y-122.0
X124.351Y-128.347
X124.37Y-132.28
X124.75Y-129.49
X124.907Y-113.43
X125.091Y-123.314
X125.099Y-128.264
X125.24Y-124.375
X125.754Y-119.82
X125.83Y-122.22
X126.0Y-131.63
X126.043Y-115.976
X126.08Y-136.48
X126.145Y-124.392
X126.22Y-123.676
X126.46Y-128.3
X126.8Y-131.11
X127.32Y-135.08
X127.46Y-131.08
X127.72Y-128.08
X127.83Y-112.91
X127.86Y-120.21
X128.12Y-131.09
X128.5Y-112.92
X128.62Y-119.11
X129.03Y-112.93
X129.52Y-118.1
X130.47Y-120.08
X130.75Y-116.547
X131.796Y-116.453
X132.07Y-124.76
X132.3Y-114.43
X132.36Y-112.22
X132.61Y-124.76
X133.14Y-124.76
X133.15Y-112.22
X133.195Y-115.156
X133.61Y-113.32
X134.13Y-112.22
X134.26Y-113.3
X134.365Y-120.795
X134.38Y-120.29
X134.92Y-113.29
T2
X108.83Y-106.93
X122.37Y-106.86
X125.09Y-107.12
X128.82Y-127.68
X128.82Y-128.72
X128.84Y-126.69
X134.09Y-116.33
X134.75Y-117.55
X134.84Y-116.73
X136.66Y-114.57
X137.54Y-115.879
M30
