%TF.GenerationSoftware,KiCad,Pcbnew,10.0.4*%
%TF.CreationDate,2026-08-30T06:01:53+02:00*%
%TF.ProjectId,STM32H743_board_wfl,53544d33-3248-4373-9433-5f626f617264,rev?*%
%TF.SameCoordinates,Original*%
%TF.FileFunction,Copper,L1,Top*%
%TF.FilePolarity,Positive*%
%FSLAX46Y46*%
G04 Gerber Fmt 4.6, Leading zero omitted, Abs format (unit mm)*
G04 Created by KiCad (PCBNEW 10.0.4) date 2026-08-30 06:01:53*
%MOMM*%
%LPD*%
G01*
G04 APERTURE LIST*
G04 Aperture macros list*
%AMRoundRect*
0 Rectangle with rounded corners*
0 $1 Rounding radius*
0 $2 $3 $4 $5 $6 $7 $8 $9 X,Y pos of 4 corners*
0 Add a 4 corners polygon primitive as box body*
4,1,4,$2,$3,$4,$5,$6,$7,$8,$9,$2,$3,0*
0 Add four circle primitives for the rounded corners*
1,1,$1+$1,$2,$3*
1,1,$1+$1,$4,$5*
1,1,$1+$1,$6,$7*
1,1,$1+$1,$8,$9*
0 Add four rect primitives between the rounded corners*
20,1,$1+$1,$2,$3,$4,$5,0*
20,1,$1+$1,$4,$5,$6,$7,0*
20,1,$1+$1,$6,$7,$8,$9,0*
20,1,$1+$1,$8,$9,$2,$3,0*%
G04 Aperture macros list end*
%TA.AperFunction,SMDPad,CuDef*%
%ADD10RoundRect,0.140000X-0.140000X-0.170000X0.140000X-0.170000X0.140000X0.170000X-0.140000X0.170000X0*%
%TD*%
%TA.AperFunction,SMDPad,CuDef*%
%ADD11RoundRect,0.075000X-0.125000X-0.075000X0.125000X-0.075000X0.125000X0.075000X-0.125000X0.075000X0*%
%TD*%
%TA.AperFunction,SMDPad,CuDef*%
%ADD12RoundRect,0.218750X-0.218750X-0.381250X0.218750X-0.381250X0.218750X0.381250X-0.218750X0.381250X0*%
%TD*%
%TA.AperFunction,SMDPad,CuDef*%
%ADD13RoundRect,0.075000X0.075000X-0.125000X0.075000X0.125000X-0.075000X0.125000X-0.075000X-0.125000X0*%
%TD*%
%TA.AperFunction,SMDPad,CuDef*%
%ADD14RoundRect,0.250000X0.325000X0.650000X-0.325000X0.650000X-0.325000X-0.650000X0.325000X-0.650000X0*%
%TD*%
%TA.AperFunction,SMDPad,CuDef*%
%ADD15RoundRect,0.225000X0.225000X0.250000X-0.225000X0.250000X-0.225000X-0.250000X0.225000X-0.250000X0*%
%TD*%
%TA.AperFunction,SMDPad,CuDef*%
%ADD16RoundRect,0.150000X-0.150000X-0.700000X0.150000X-0.700000X0.150000X0.700000X-0.150000X0.700000X0*%
%TD*%
%TA.AperFunction,SMDPad,CuDef*%
%ADD17RoundRect,0.250000X-0.250000X-1.100000X0.250000X-1.100000X0.250000X1.100000X-0.250000X1.100000X0*%
%TD*%
%TA.AperFunction,SMDPad,CuDef*%
%ADD18RoundRect,0.075000X-0.075000X0.125000X-0.075000X-0.125000X0.075000X-0.125000X0.075000X0.125000X0*%
%TD*%
%TA.AperFunction,SMDPad,CuDef*%
%ADD19RoundRect,0.250000X-1.000000X-0.900000X1.000000X-0.900000X1.000000X0.900000X-1.000000X0.900000X0*%
%TD*%
%TA.AperFunction,SMDPad,CuDef*%
%ADD20RoundRect,0.075000X0.125000X0.075000X-0.125000X0.075000X-0.125000X-0.075000X0.125000X-0.075000X0*%
%TD*%
%TA.AperFunction,SMDPad,CuDef*%
%ADD21RoundRect,0.150000X0.150000X0.700000X-0.150000X0.700000X-0.150000X-0.700000X0.150000X-0.700000X0*%
%TD*%
%TA.AperFunction,SMDPad,CuDef*%
%ADD22RoundRect,0.250000X0.250000X1.100000X-0.250000X1.100000X-0.250000X-1.100000X0.250000X-1.100000X0*%
%TD*%
%TA.AperFunction,SMDPad,CuDef*%
%ADD23RoundRect,0.140000X0.170000X-0.140000X0.170000X0.140000X-0.170000X0.140000X-0.170000X-0.140000X0*%
%TD*%
%TA.AperFunction,SMDPad,CuDef*%
%ADD24RoundRect,0.250000X-0.325000X-0.650000X0.325000X-0.650000X0.325000X0.650000X-0.325000X0.650000X0*%
%TD*%
%TA.AperFunction,SMDPad,CuDef*%
%ADD25RoundRect,0.075000X0.075000X-0.725000X0.075000X0.725000X-0.075000X0.725000X-0.075000X-0.725000X0*%
%TD*%
%TA.AperFunction,SMDPad,CuDef*%
%ADD26RoundRect,0.075000X0.725000X-0.075000X0.725000X0.075000X-0.725000X0.075000X-0.725000X-0.075000X0*%
%TD*%
%TA.AperFunction,SMDPad,CuDef*%
%ADD27R,2.800000X2.150000*%
%TD*%
%TA.AperFunction,SMDPad,CuDef*%
%ADD28RoundRect,0.225000X-0.225000X-0.250000X0.225000X-0.250000X0.225000X0.250000X-0.225000X0.250000X0*%
%TD*%
%TA.AperFunction,SMDPad,CuDef*%
%ADD29RoundRect,0.062500X0.062500X0.275000X-0.062500X0.275000X-0.062500X-0.275000X0.062500X-0.275000X0*%
%TD*%
%TA.AperFunction,SMDPad,CuDef*%
%ADD30RoundRect,0.062500X0.275000X0.062500X-0.275000X0.062500X-0.275000X-0.062500X0.275000X-0.062500X0*%
%TD*%
%TA.AperFunction,SMDPad,CuDef*%
%ADD31RoundRect,0.140000X0.140000X0.170000X-0.140000X0.170000X-0.140000X-0.170000X0.140000X-0.170000X0*%
%TD*%
%TA.AperFunction,SMDPad,CuDef*%
%ADD32R,0.250000X0.700000*%
%TD*%
%TA.AperFunction,SMDPad,CuDef*%
%ADD33R,0.700000X0.250000*%
%TD*%
%TA.AperFunction,SMDPad,CuDef*%
%ADD34R,1.450000X1.450000*%
%TD*%
%TA.AperFunction,SMDPad,CuDef*%
%ADD35R,0.375000X0.375000*%
%TD*%
%TA.AperFunction,SMDPad,CuDef*%
%ADD36RoundRect,0.140000X-0.170000X0.140000X-0.170000X-0.140000X0.170000X-0.140000X0.170000X0.140000X0*%
%TD*%
%TA.AperFunction,ConnectorPad*%
%ADD37C,0.787400*%
%TD*%
%TA.AperFunction,SMDPad,CuDef*%
%ADD38RoundRect,0.250000X0.450000X0.350000X-0.450000X0.350000X-0.450000X-0.350000X0.450000X-0.350000X0*%
%TD*%
%TA.AperFunction,SMDPad,CuDef*%
%ADD39RoundRect,0.125000X-0.125000X0.250000X-0.125000X-0.250000X0.125000X-0.250000X0.125000X0.250000X0*%
%TD*%
%TA.AperFunction,HeatsinkPad*%
%ADD40R,4.300000X3.400000*%
%TD*%
%TA.AperFunction,SMDPad,CuDef*%
%ADD41R,1.800000X1.100000*%
%TD*%
%TA.AperFunction,SMDPad,CuDef*%
%ADD42RoundRect,0.218750X0.218750X0.381250X-0.218750X0.381250X-0.218750X-0.381250X0.218750X-0.381250X0*%
%TD*%
%TA.AperFunction,SMDPad,CuDef*%
%ADD43RoundRect,0.225000X-0.250000X0.225000X-0.250000X-0.225000X0.250000X-0.225000X0.250000X0.225000X0*%
%TD*%
%TA.AperFunction,SMDPad,CuDef*%
%ADD44RoundRect,0.375000X-0.625000X-0.375000X0.625000X-0.375000X0.625000X0.375000X-0.625000X0.375000X0*%
%TD*%
%TA.AperFunction,SMDPad,CuDef*%
%ADD45RoundRect,0.500000X-0.500000X-1.400000X0.500000X-1.400000X0.500000X1.400000X-0.500000X1.400000X0*%
%TD*%
%TA.AperFunction,ViaPad*%
%ADD46C,0.450000*%
%TD*%
%TA.AperFunction,ViaPad*%
%ADD47C,0.700000*%
%TD*%
%TA.AperFunction,Conductor*%
%ADD48C,0.150000*%
%TD*%
%TA.AperFunction,Conductor*%
%ADD49C,0.250000*%
%TD*%
%TA.AperFunction,Conductor*%
%ADD50C,0.400000*%
%TD*%
%TA.AperFunction,Conductor*%
%ADD51C,0.350000*%
%TD*%
%TA.AperFunction,Conductor*%
%ADD52C,0.800000*%
%TD*%
%TA.AperFunction,Conductor*%
%ADD53C,0.300000*%
%TD*%
%TA.AperFunction,Conductor*%
%ADD54C,0.700000*%
%TD*%
%TA.AperFunction,Conductor*%
%ADD55C,0.200000*%
%TD*%
%TA.AperFunction,Conductor*%
%ADD56C,0.600000*%
%TD*%
%TA.AperFunction,Conductor*%
%ADD57C,0.450000*%
%TD*%
%TA.AperFunction,Conductor*%
%ADD58C,1.200000*%
%TD*%
%TA.AperFunction,Conductor*%
%ADD59C,0.500000*%
%TD*%
%TA.AperFunction,Conductor*%
%ADD60C,1.500000*%
%TD*%
%TA.AperFunction,Conductor*%
%ADD61C,1.000000*%
%TD*%
G04 APERTURE END LIST*
D10*
%TO.P,C23,1*%
%TO.N,Net-(U3-PH0)*%
X112550000Y-126990000D03*
%TO.P,C23,2*%
%TO.N,GND*%
X113510000Y-126990000D03*
%TD*%
D11*
%TO.P,R12,1*%
%TO.N,Net-(U3-PC9)*%
X113520000Y-107230000D03*
%TO.P,R12,2*%
%TO.N,/03_STM32H743_schematic/MOTOR_4*%
X114020000Y-107230000D03*
%TD*%
D12*
%TO.P,L2,1,1_1*%
%TO.N,Net-(U3-VDDA)*%
X117977500Y-129970000D03*
%TO.P,L2,2,2_2*%
%TO.N,+3V3*%
X120102500Y-129970000D03*
%TD*%
D13*
%TO.P,C8,1*%
%TO.N,Net-(U1-TR{slash}SS)*%
X130140000Y-118610000D03*
%TO.P,C8,2*%
%TO.N,GND*%
X130140000Y-118110000D03*
%TD*%
D14*
%TO.P,C2,1*%
%TO.N,+26V_prefiltered*%
X128600000Y-111500000D03*
%TO.P,C2,2*%
%TO.N,GND*%
X125650000Y-111500000D03*
%TD*%
D11*
%TO.P,R10,1*%
%TO.N,Net-(U3-PC7)*%
X116230000Y-107230000D03*
%TO.P,R10,2*%
%TO.N,/03_STM32H743_schematic/MOTOR_2*%
X116730000Y-107230000D03*
%TD*%
D15*
%TO.P,C25,1*%
%TO.N,Net-(C25-Pad1)*%
X110945000Y-107520000D03*
%TO.P,C25,2*%
%TO.N,GND*%
X109395000Y-107520000D03*
%TD*%
D16*
%TO.P,J3,1,Pin_1_1*%
%TO.N,+5V*%
X123605000Y-133700000D03*
%TO.P,J3,2,Pin_2_2*%
%TO.N,GND*%
X124855000Y-133700000D03*
%TO.P,J3,3,Pin_3_3*%
%TO.N,/03_STM32H743_schematic/UART1_RX*%
X126105000Y-133700000D03*
%TO.P,J3,4,Pin_4_4*%
%TO.N,/03_STM32H743_schematic/UART1_TX*%
X127355000Y-133700000D03*
D17*
%TO.P,J3,MP*%
%TO.N,N/C*%
X121755000Y-136900000D03*
X129205000Y-136900000D03*
%TD*%
D18*
%TO.P,R13,1*%
%TO.N,+3V3*%
X125370000Y-113510000D03*
%TO.P,R13,2*%
%TO.N,/03_STM32H743_schematic/FLASH_CS*%
X125370000Y-114010000D03*
%TD*%
D15*
%TO.P,C3,1*%
%TO.N,+26V_prefiltered*%
X130905000Y-113490000D03*
%TO.P,C3,2*%
%TO.N,GND*%
X129355000Y-113490000D03*
%TD*%
D19*
%TO.P,D1,1,K_1*%
%TO.N,+26V_prefiltered*%
X132260000Y-110510000D03*
%TO.P,D1,2,A_2*%
%TO.N,GND*%
X136560000Y-110510000D03*
%TD*%
D20*
%TO.P,R1,1*%
%TO.N,+5V*%
X132775000Y-113600000D03*
%TO.P,R1,2*%
%TO.N,Net-(U1-PG)*%
X132275000Y-113600000D03*
%TD*%
D21*
%TO.P,J2,1,Pin_1_1*%
%TO.N,+BATT*%
X123465000Y-104800000D03*
%TO.P,J2,2,Pin_2_2*%
%TO.N,GND*%
X122215000Y-104800000D03*
%TO.P,J2,3,Pin_3_3*%
%TO.N,/03_STM32H743_schematic/CURRENT*%
X120965000Y-104800000D03*
%TO.P,J2,4,Pin_4_4*%
%TO.N,/03_STM32H743_schematic/TELEMETRY*%
X119715000Y-104800000D03*
%TO.P,J2,5,Pin_5_5*%
%TO.N,/03_STM32H743_schematic/MOTOR_1*%
X118465000Y-104800000D03*
%TO.P,J2,6,Pin_6_6*%
%TO.N,/03_STM32H743_schematic/MOTOR_2*%
X117215000Y-104800000D03*
%TO.P,J2,7,Pin_7_7*%
%TO.N,/03_STM32H743_schematic/MOTOR_3*%
X115965000Y-104800000D03*
%TO.P,J2,8,Pin_8_8*%
%TO.N,/03_STM32H743_schematic/MOTOR_4*%
X114715000Y-104800000D03*
D22*
%TO.P,J2,MP*%
%TO.N,N/C*%
X125315000Y-101600000D03*
X112865000Y-101600000D03*
%TD*%
D23*
%TO.P,C28,1*%
%TO.N,+3V3*%
X128620000Y-120730000D03*
%TO.P,C28,2*%
%TO.N,GND*%
X128620000Y-119770000D03*
%TD*%
D13*
%TO.P,C5,1*%
%TO.N,Net-(U1-FB)*%
X133480000Y-114705000D03*
%TO.P,C5,2*%
%TO.N,+5V*%
X133480000Y-114205000D03*
%TD*%
D24*
%TO.P,C7,1*%
%TO.N,+5V*%
X134645000Y-114710000D03*
%TO.P,C7,2*%
%TO.N,GND*%
X137595000Y-114710000D03*
%TD*%
D18*
%TO.P,R7,1*%
%TO.N,+3V3*%
X103040000Y-117820000D03*
%TO.P,R7,2*%
%TO.N,/03_STM32H743_schematic/I2C1_SCL*%
X103040000Y-118320000D03*
%TD*%
D13*
%TO.P,R8,1*%
%TO.N,+3V3*%
X103050000Y-119580000D03*
%TO.P,R8,2*%
%TO.N,/03_STM32H743_schematic/I2C1_SDA*%
X103050000Y-119080000D03*
%TD*%
D25*
%TO.P,U3,1,PE2_1*%
%TO.N,unconnected-(U3-PE2-Pad1)*%
X106954832Y-124880000D03*
%TO.P,U3,2,PE3_2*%
%TO.N,unconnected-(U3-PE3-Pad2)*%
X107454832Y-124880000D03*
%TO.P,U3,3,PE4_3*%
%TO.N,unconnected-(U3-PE4-Pad3)*%
X107954832Y-124880000D03*
%TO.P,U3,4,PE5_4*%
%TO.N,unconnected-(U3-PE5-Pad4)*%
X108454832Y-124880000D03*
%TO.P,U3,5,PE6_5*%
%TO.N,unconnected-(U3-PE6-Pad5)*%
X108954832Y-124880000D03*
%TO.P,U3,6,VBAT_6*%
%TO.N,+3V3*%
X109454832Y-124880000D03*
%TO.P,U3,7,PC13_7*%
%TO.N,unconnected-(U3-PC13-Pad7)*%
X109954832Y-124880000D03*
%TO.P,U3,8,PC14_8*%
%TO.N,unconnected-(U3-PC14-Pad8)*%
X110454832Y-124880000D03*
%TO.P,U3,9,PC15_9*%
%TO.N,unconnected-(U3-PC15-Pad9)*%
X110954832Y-124880000D03*
%TO.P,U3,10,VSS_10*%
%TO.N,GND*%
X111454832Y-124880000D03*
%TO.P,U3,11,VDD_11*%
%TO.N,+3V3*%
X111954832Y-124880000D03*
%TO.P,U3,12,PH0_12*%
%TO.N,Net-(U3-PH0)*%
X112454832Y-124880000D03*
%TO.P,U3,13,PH1_13*%
%TO.N,Net-(U3-PH1)*%
X112954832Y-124880000D03*
%TO.P,U3,14,NRST_14*%
%TO.N,/03_STM32H743_schematic/SWD_NRST*%
X113454832Y-124880000D03*
%TO.P,U3,15,PC0_15*%
%TO.N,unconnected-(U3-PC0-Pad15)*%
X113954832Y-124880000D03*
%TO.P,U3,16,PC1_16*%
%TO.N,unconnected-(U3-PC1-Pad16)*%
X114454832Y-124880000D03*
%TO.P,U3,17,PC2_C_17*%
%TO.N,unconnected-(U3-PC2_C-Pad17)*%
X114954832Y-124880000D03*
%TO.P,U3,18,PC3_C_18*%
%TO.N,unconnected-(U3-PC3_C-Pad18)*%
X115454832Y-124880000D03*
%TO.P,U3,19,VSSA_19*%
%TO.N,GND*%
X115954832Y-124880000D03*
%TO.P,U3,20,VREF+_20*%
%TO.N,Net-(U3-VDDA)*%
X116454832Y-124880000D03*
%TO.P,U3,21,VDDA_21*%
X116954832Y-124880000D03*
%TO.P,U3,22,PA0_22*%
%TO.N,Net-(U3-PA0)*%
X117454832Y-124880000D03*
%TO.P,U3,23,PA1_23*%
%TO.N,unconnected-(U3-PA1-Pad23)*%
X117954832Y-124880000D03*
%TO.P,U3,24,PA2_24*%
%TO.N,/03_STM32H743_schematic/UART2_TX*%
X118454832Y-124880000D03*
%TO.P,U3,25,PA3_25*%
%TO.N,/03_STM32H743_schematic/UART2_RX*%
X118954832Y-124880000D03*
D26*
%TO.P,U3,26,VSS_26*%
%TO.N,GND*%
X120629832Y-123205000D03*
%TO.P,U3,27,VDD_27*%
%TO.N,+3V3*%
X120629832Y-122705000D03*
%TO.P,U3,28,PA4_28*%
%TO.N,CS1_ACCELEROMETER*%
X120629832Y-122205000D03*
%TO.P,U3,29,PA5_29*%
%TO.N,SPI1_SCK*%
X120629832Y-121705000D03*
%TO.P,U3,30,PA6_30*%
%TO.N,SPI1_MISO*%
X120629832Y-121205000D03*
%TO.P,U3,31,PA7_31*%
%TO.N,SPI1_MOSI*%
X120629832Y-120705000D03*
%TO.P,U3,32,PC4_32*%
%TO.N,CS2_GYROSCOPE*%
X120629832Y-120205000D03*
%TO.P,U3,33,PC5_33*%
%TO.N,INT1_ACCELEROMETER*%
X120629832Y-119705000D03*
%TO.P,U3,34,PB0_34*%
%TO.N,INT3_GYROSCOPE*%
X120629832Y-119205000D03*
%TO.P,U3,35,PB1_35*%
%TO.N,unconnected-(U3-PB1-Pad35)*%
X120629832Y-118705000D03*
%TO.P,U3,36,PB2_36*%
%TO.N,/03_STM32H743_schematic/FLASH_CLK*%
X120629832Y-118205000D03*
%TO.P,U3,37,PE7_37*%
%TO.N,/03_STM32H743_schematic/FLASH_DI{slash}IO0*%
X120629832Y-117705000D03*
%TO.P,U3,38,PE8_38*%
%TO.N,/03_STM32H743_schematic/FLASH_DO{slash}IO1*%
X120629832Y-117205000D03*
%TO.P,U3,39,PE9_39*%
%TO.N,/03_STM32H743_schematic/FLASH_WP{slash}IO2*%
X120629832Y-116705000D03*
%TO.P,U3,40,PE10_40*%
%TO.N,/03_STM32H743_schematic/FLASH_HOLD{slash}RESET{slash}IO3*%
X120629832Y-116205000D03*
%TO.P,U3,41,PE11_41*%
%TO.N,unconnected-(U3-PE11-Pad41)*%
X120629832Y-115705000D03*
%TO.P,U3,42,PE12_42*%
%TO.N,unconnected-(U3-PE12-Pad42)*%
X120629832Y-115205000D03*
%TO.P,U3,43,PE13_43*%
%TO.N,unconnected-(U3-PE13-Pad43)*%
X120629832Y-114705000D03*
%TO.P,U3,44,PE14_44*%
%TO.N,unconnected-(U3-PE14-Pad44)*%
X120629832Y-114205000D03*
%TO.P,U3,45,PE15_45*%
%TO.N,unconnected-(U3-PE15-Pad45)*%
X120629832Y-113705000D03*
%TO.P,U3,46,PB10_46*%
%TO.N,unconnected-(U3-PB10-Pad46)*%
X120629832Y-113205000D03*
%TO.P,U3,47,PB11_47*%
%TO.N,unconnected-(U3-PB11-Pad47)*%
X120629832Y-112705000D03*
%TO.P,U3,48,VCAP_48*%
%TO.N,Net-(C25-Pad1)*%
X120629832Y-112205000D03*
%TO.P,U3,49,VSS_49*%
%TO.N,GND*%
X120629832Y-111705000D03*
%TO.P,U3,50,VDD_50*%
%TO.N,+3V3*%
X120629832Y-111205000D03*
D25*
%TO.P,U3,51,PB12_51*%
%TO.N,unconnected-(U3-PB12-Pad51)*%
X118954832Y-109530000D03*
%TO.P,U3,52,PB13_52*%
%TO.N,unconnected-(U3-PB13-Pad52)*%
X118454832Y-109530000D03*
%TO.P,U3,53,PB14_53*%
%TO.N,unconnected-(U3-PB14-Pad53)*%
X117954832Y-109530000D03*
%TO.P,U3,54,PB15_54*%
%TO.N,unconnected-(U3-PB15-Pad54)*%
X117454832Y-109530000D03*
%TO.P,U3,55,PD8_55*%
%TO.N,unconnected-(U3-PD8-Pad55)*%
X116954832Y-109530000D03*
%TO.P,U3,56,PD9_56*%
%TO.N,/03_STM32H743_schematic/TELEMETRY*%
X116454832Y-109530000D03*
%TO.P,U3,57,PD10_57*%
%TO.N,unconnected-(U3-PD10-Pad57)*%
X115954832Y-109530000D03*
%TO.P,U3,58,PD11_58*%
%TO.N,unconnected-(U3-PD11-Pad58)*%
X115454832Y-109530000D03*
%TO.P,U3,59,PD12_59*%
%TO.N,unconnected-(U3-PD12-Pad59)*%
X114954832Y-109530000D03*
%TO.P,U3,60,PD13_60*%
%TO.N,unconnected-(U3-PD13-Pad60)*%
X114454832Y-109530000D03*
%TO.P,U3,61,PD14_61*%
%TO.N,unconnected-(U3-PD14-Pad61)*%
X113954832Y-109530000D03*
%TO.P,U3,62,PD15_62*%
%TO.N,unconnected-(U3-PD15-Pad62)*%
X113454832Y-109530000D03*
%TO.P,U3,63,PC6_63*%
%TO.N,Net-(U3-PC6)*%
X112954832Y-109530000D03*
%TO.P,U3,64,PC7_64*%
%TO.N,Net-(U3-PC7)*%
X112454832Y-109530000D03*
%TO.P,U3,65,PC8_65*%
%TO.N,Net-(U3-PC8)*%
X111954832Y-109530000D03*
%TO.P,U3,66,PC9_66*%
%TO.N,Net-(U3-PC9)*%
X111454832Y-109530000D03*
%TO.P,U3,67,PA8_67*%
%TO.N,unconnected-(U3-PA8-Pad67)*%
X110954832Y-109530000D03*
%TO.P,U3,68,PA9_68*%
%TO.N,/03_STM32H743_schematic/UART1_TX*%
X110454832Y-109530000D03*
%TO.P,U3,69,PA10_69*%
%TO.N,/03_STM32H743_schematic/UART1_RX*%
X109954832Y-109530000D03*
%TO.P,U3,70,PA11_70*%
%TO.N,unconnected-(U3-PA11-Pad70)*%
X109454832Y-109530000D03*
%TO.P,U3,71,PA12_71*%
%TO.N,unconnected-(U3-PA12-Pad71)*%
X108954832Y-109530000D03*
%TO.P,U3,72,PA13_72*%
%TO.N,/03_STM32H743_schematic/SWDIO*%
X108454832Y-109530000D03*
%TO.P,U3,73,VCAP_73*%
%TO.N,Net-(C25-Pad1)*%
X107954832Y-109530000D03*
%TO.P,U3,74,VSS_74*%
%TO.N,GND*%
X107454832Y-109530000D03*
%TO.P,U3,75,VDD_75*%
%TO.N,+3V3*%
X106954832Y-109530000D03*
D26*
%TO.P,U3,76,PA14_76*%
%TO.N,/03_STM32H743_schematic/SWCLK*%
X105279832Y-111205000D03*
%TO.P,U3,77,PA15_77*%
%TO.N,unconnected-(U3-PA15-Pad77)*%
X105279832Y-111705000D03*
%TO.P,U3,78,PC10_78*%
%TO.N,unconnected-(U3-PC10-Pad78)*%
X105279832Y-112205000D03*
%TO.P,U3,79,PC11_79*%
%TO.N,/03_STM32H743_schematic/FLASH_CS*%
X105279832Y-112705000D03*
%TO.P,U3,80,PC12_80*%
%TO.N,unconnected-(U3-PC12-Pad80)*%
X105279832Y-113205000D03*
%TO.P,U3,81,PD0_81*%
%TO.N,unconnected-(U3-PD0-Pad81)*%
X105279832Y-113705000D03*
%TO.P,U3,82,PD1_82*%
%TO.N,unconnected-(U3-PD1-Pad82)*%
X105279832Y-114205000D03*
%TO.P,U3,83,PD2_83*%
%TO.N,unconnected-(U3-PD2-Pad83)*%
X105279832Y-114705000D03*
%TO.P,U3,84,PD3_84*%
%TO.N,unconnected-(U3-PD3-Pad84)*%
X105279832Y-115205000D03*
%TO.P,U3,85,PD4_85*%
%TO.N,unconnected-(U3-PD4-Pad85)*%
X105279832Y-115705000D03*
%TO.P,U3,86,PD5_86*%
%TO.N,unconnected-(U3-PD5-Pad86)*%
X105279832Y-116205000D03*
%TO.P,U3,87,PD6_87*%
%TO.N,unconnected-(U3-PD6-Pad87)*%
X105279832Y-116705000D03*
%TO.P,U3,88,PD7_88*%
%TO.N,unconnected-(U3-PD7-Pad88)*%
X105279832Y-117205000D03*
%TO.P,U3,89,PB3_89*%
%TO.N,/03_STM32H743_schematic/SWO*%
X105279832Y-117705000D03*
%TO.P,U3,90,PB4_90*%
%TO.N,unconnected-(U3-PB4-Pad90)*%
X105279832Y-118205000D03*
%TO.P,U3,91,PB5_91*%
%TO.N,unconnected-(U3-PB5-Pad91)*%
X105279832Y-118705000D03*
%TO.P,U3,92,PB6_92*%
%TO.N,/03_STM32H743_schematic/I2C1_SCL*%
X105279832Y-119205000D03*
%TO.P,U3,93,PB7_93*%
%TO.N,/03_STM32H743_schematic/I2C1_SDA*%
X105279832Y-119705000D03*
%TO.P,U3,94,BOOT0_94*%
%TO.N,Net-(JP1-A)*%
X105279832Y-120205000D03*
%TO.P,U3,95,PB8_95*%
%TO.N,unconnected-(U3-PB8-Pad95)*%
X105279832Y-120705000D03*
%TO.P,U3,96,PB9_96*%
%TO.N,unconnected-(U3-PB9-Pad96)*%
X105279832Y-121205000D03*
%TO.P,U3,97,PE0_97*%
%TO.N,unconnected-(U3-PE0-Pad97)*%
X105279832Y-121705000D03*
%TO.P,U3,98,PE1_98*%
%TO.N,unconnected-(U3-PE1-Pad98)*%
X105279832Y-122205000D03*
%TO.P,U3,99,VSS_99*%
%TO.N,GND*%
X105279832Y-122705000D03*
%TO.P,U3,100,VDD_100*%
%TO.N,+3V3*%
X105279832Y-123205000D03*
%TD*%
D15*
%TO.P,C27,1*%
%TO.N,+3V3*%
X128245000Y-121990000D03*
%TO.P,C27,2*%
%TO.N,GND*%
X126695000Y-121990000D03*
%TD*%
D10*
%TO.P,C24,1*%
%TO.N,Net-(U3-PH1)*%
X114470000Y-126810000D03*
%TO.P,C24,2*%
%TO.N,GND*%
X115430000Y-126810000D03*
%TD*%
D27*
%TO.P,F1,1*%
%TO.N,+BATT*%
X128300000Y-101515000D03*
%TO.P,F1,2*%
%TO.N,+26V_prefiltered*%
X128300000Y-106425000D03*
%TD*%
D28*
%TO.P,C6,1*%
%TO.N,Net-(U1-SYNC)*%
X131925000Y-121210000D03*
%TO.P,C6,2*%
%TO.N,GND*%
X133475000Y-121210000D03*
%TD*%
D29*
%TO.P,U5,1,INT2_1*%
%TO.N,unconnected-(U5-INT2-Pad1)*%
X126740000Y-127540000D03*
%TO.P,U5,2,GNDA_2*%
%TO.N,GND*%
X126240000Y-127540000D03*
%TO.P,U5,3,VDD_3*%
%TO.N,+3V3_IMU*%
X125740000Y-127540000D03*
%TO.P,U5,4,GNDA_4*%
%TO.N,GND*%
X125240000Y-127540000D03*
%TO.P,U5,5,~{CSB2}_5*%
%TO.N,CS2_GYROSCOPE*%
X124740000Y-127540000D03*
%TO.P,U5,6,GNDIO_6*%
%TO.N,GND*%
X124240000Y-127540000D03*
%TO.P,U5,7,PS_7*%
X123740000Y-127540000D03*
D30*
%TO.P,U5,8,SCK/SCL_8*%
%TO.N,SPI1_SCK*%
X123227500Y-126277500D03*
D29*
%TO.P,U5,9,SDI/SDA_9*%
%TO.N,SPI1_MOSI*%
X123740000Y-125015000D03*
%TO.P,U5,10,SDO2_10*%
%TO.N,SPI1_MISO*%
X124240000Y-125015000D03*
%TO.P,U5,11,VDDIO_11*%
%TO.N,+3V3_IMU*%
X124740000Y-125015000D03*
%TO.P,U5,12,INT3_12*%
%TO.N,INT3_GYROSCOPE*%
X125240000Y-125015000D03*
%TO.P,U5,13,INT4_13*%
%TO.N,unconnected-(U5-INT4-Pad13)*%
X125740000Y-125015000D03*
%TO.P,U5,14,~{CSB1}_14*%
%TO.N,CS1_ACCELEROMETER*%
X126240000Y-125015000D03*
%TO.P,U5,15,SDO1_15*%
%TO.N,SPI1_MISO*%
X126740000Y-125015000D03*
D30*
%TO.P,U5,16,INT1_16*%
%TO.N,INT1_ACCELEROMETER*%
X127252500Y-126277500D03*
%TD*%
D31*
%TO.P,C13,1*%
%TO.N,+3V3*%
X111590000Y-126810000D03*
%TO.P,C13,2*%
%TO.N,GND*%
X110630000Y-126810000D03*
%TD*%
D32*
%TO.P,U1,1,RT_1*%
%TO.N,Net-(U1-RT)*%
X131820000Y-119790000D03*
%TO.P,U1,2,VCC_2*%
%TO.N,Net-(U1-SYNC)*%
X132320000Y-119790000D03*
%TO.P,U1,3,GND_1_3*%
%TO.N,GND*%
X132820000Y-119790000D03*
%TO.P,U1,4,GND_2_4*%
X133320000Y-119790000D03*
D33*
%TO.P,U1,5,SW_1_5*%
%TO.N,Net-(U1-SW_1)*%
X133970000Y-119140000D03*
%TO.P,U1,6,SW_2_6*%
X133970000Y-118640000D03*
%TO.P,U1,7,NC_1_7*%
%TO.N,GND*%
X133970000Y-118140000D03*
%TO.P,U1,8,GND_3_8*%
X133970000Y-117640000D03*
D32*
%TO.P,U1,9,VIN_1_9*%
%TO.N,+26V_prefiltered*%
X133320000Y-116990000D03*
%TO.P,U1,10,VIN_2_10*%
X132820000Y-116990000D03*
%TO.P,U1,11,EN/UV_11*%
X132320000Y-116990000D03*
%TO.P,U1,12,PG_12*%
%TO.N,Net-(U1-PG)*%
X131820000Y-116990000D03*
D33*
%TO.P,U1,13,FB_13*%
%TO.N,Net-(U1-FB)*%
X131170000Y-117640000D03*
%TO.P,U1,14,GND_4_14*%
%TO.N,GND*%
X131170000Y-118140000D03*
%TO.P,U1,15,TR/SS_15*%
%TO.N,Net-(U1-TR{slash}SS)*%
X131170000Y-118640000D03*
%TO.P,U1,16,SYNC_16*%
%TO.N,Net-(U1-SYNC)*%
X131170000Y-119140000D03*
D34*
%TO.P,U1,17,GND_5_17*%
%TO.N,GND*%
X132570000Y-118390000D03*
D35*
%TO.P,U1,18,NC_2_18*%
X131250000Y-119710000D03*
%TO.P,U1,19,NC_3_19*%
X133890000Y-119710000D03*
%TO.P,U1,20,NC_4_20*%
X133890000Y-117070000D03*
%TO.P,U1,21,NC_5_21*%
X131250000Y-117070000D03*
%TD*%
D31*
%TO.P,C18,1*%
%TO.N,Net-(U3-VDDA)*%
X117430000Y-126760000D03*
%TO.P,C18,2*%
%TO.N,GND*%
X116470000Y-126760000D03*
%TD*%
D36*
%TO.P,C15,1*%
%TO.N,+3V3*%
X122630000Y-110290000D03*
%TO.P,C15,2*%
%TO.N,GND*%
X122630000Y-111250000D03*
%TD*%
D37*
%TO.P,J4,1,Pin_1_1*%
%TO.N,+3V3*%
X101470000Y-111490000D03*
%TO.P,J4,2,Pin_2_2*%
%TO.N,/03_STM32H743_schematic/SWDIO*%
X102740000Y-111490000D03*
%TO.P,J4,3,Pin_3_3*%
%TO.N,/03_STM32H743_schematic/SWD_NRST*%
X101470000Y-112760000D03*
%TO.P,J4,4,Pin_4_4*%
%TO.N,/03_STM32H743_schematic/SWCLK*%
X102740000Y-112760000D03*
%TO.P,J4,5,Pin_5_5*%
%TO.N,GND*%
X101470000Y-114030000D03*
%TO.P,J4,6,Pin_6_6*%
%TO.N,/03_STM32H743_schematic/SWO*%
X102740000Y-114030000D03*
%TD*%
D13*
%TO.P,JP1,1,A_1*%
%TO.N,Net-(JP1-A)*%
X102460000Y-120990000D03*
%TO.P,JP1,2,B_2*%
%TO.N,+3V3*%
X102460000Y-120490000D03*
%TD*%
D15*
%TO.P,C29,1*%
%TO.N,+3V3_IMU*%
X123700000Y-129225000D03*
%TO.P,C29,2*%
%TO.N,GND*%
X122150000Y-129225000D03*
%TD*%
D28*
%TO.P,C26,1*%
%TO.N,Net-(C25-Pad1)*%
X122565000Y-112670000D03*
%TO.P,C26,2*%
%TO.N,GND*%
X124115000Y-112670000D03*
%TD*%
D11*
%TO.P,R9,1*%
%TO.N,Net-(U3-PC6)*%
X117560000Y-107230000D03*
%TO.P,R9,2*%
%TO.N,/03_STM32H743_schematic/MOTOR_1*%
X118060000Y-107230000D03*
%TD*%
%TO.P,R11,1*%
%TO.N,Net-(U3-PC8)*%
X114870000Y-107230000D03*
%TO.P,R11,2*%
%TO.N,/03_STM32H743_schematic/MOTOR_3*%
X115370000Y-107230000D03*
%TD*%
D38*
%TO.P,Y1,1,1_1*%
%TO.N,Net-(U3-PH1)*%
X114080000Y-128490000D03*
%TO.P,Y1,2,G_2*%
%TO.N,GND*%
X111880000Y-128490000D03*
%TO.P,Y1,3,3_3*%
%TO.N,Net-(U3-PH0)*%
X111880000Y-130190000D03*
%TO.P,Y1,4,G_4*%
%TO.N,GND*%
X114080000Y-130190000D03*
%TD*%
D14*
%TO.P,C1,1*%
%TO.N,+26V_prefiltered*%
X128745000Y-109140000D03*
%TO.P,C1,2*%
%TO.N,GND*%
X125795000Y-109140000D03*
%TD*%
D20*
%TO.P,R5,1*%
%TO.N,/03_STM32H743_schematic/CURRENT*%
X121180000Y-127650000D03*
%TO.P,R5,2*%
%TO.N,Net-(U3-PA0)*%
X120680000Y-127650000D03*
%TD*%
D15*
%TO.P,C19,1*%
%TO.N,Net-(U3-VDDA)*%
X117945000Y-128340000D03*
%TO.P,C19,2*%
%TO.N,GND*%
X116395000Y-128340000D03*
%TD*%
D23*
%TO.P,C17,1*%
%TO.N,+3V3*%
X103210000Y-122980000D03*
%TO.P,C17,2*%
%TO.N,GND*%
X103210000Y-122020000D03*
%TD*%
D39*
%TO.P,U4,1,~{CS}_1*%
%TO.N,/03_STM32H743_schematic/FLASH_CS*%
X126965000Y-115220000D03*
%TO.P,U4,2,DO/IO_{1}_2*%
%TO.N,/03_STM32H743_schematic/FLASH_DO{slash}IO1*%
X125695000Y-115220000D03*
%TO.P,U4,3,~{WP}/IO_{2}_3*%
%TO.N,/03_STM32H743_schematic/FLASH_WP{slash}IO2*%
X124425000Y-115220000D03*
%TO.P,U4,4,GND_4*%
%TO.N,GND*%
X123155000Y-115220000D03*
%TO.P,U4,5,DI/IO_{0}_5*%
%TO.N,/03_STM32H743_schematic/FLASH_DI{slash}IO0*%
X123155000Y-120620000D03*
%TO.P,U4,6,CLK_6*%
%TO.N,/03_STM32H743_schematic/FLASH_CLK*%
X124425000Y-120620000D03*
%TO.P,U4,7,~{HOLD}/~{RESET}/IO_{3}_7*%
%TO.N,/03_STM32H743_schematic/FLASH_HOLD{slash}RESET{slash}IO3*%
X125695000Y-120620000D03*
%TO.P,U4,8,VCC_8*%
%TO.N,+3V3*%
X126965000Y-120620000D03*
D40*
%TO.P,U4,9,EP_9*%
%TO.N,GND*%
X125060000Y-117920000D03*
%TD*%
D28*
%TO.P,C12,1*%
%TO.N,+3V3*%
X109415000Y-105960000D03*
%TO.P,C12,2*%
%TO.N,GND*%
X110965000Y-105960000D03*
%TD*%
D18*
%TO.P,R6,1*%
%TO.N,Net-(JP1-A)*%
X103344832Y-120440000D03*
%TO.P,R6,2*%
%TO.N,GND*%
X103344832Y-120940000D03*
%TD*%
D10*
%TO.P,C22,1*%
%TO.N,Net-(U3-PA0)*%
X120600000Y-126670000D03*
%TO.P,C22,2*%
%TO.N,GND*%
X121560000Y-126670000D03*
%TD*%
%TO.P,C30,1*%
%TO.N,+3V3_IMU*%
X124790000Y-123715000D03*
%TO.P,C30,2*%
%TO.N,GND*%
X125750000Y-123715000D03*
%TD*%
D20*
%TO.P,R2,1*%
%TO.N,Net-(U1-RT)*%
X130875000Y-120770000D03*
%TO.P,R2,2*%
%TO.N,GND*%
X130375000Y-120770000D03*
%TD*%
D41*
%TO.P,L1,1,1_1*%
%TO.N,+5V*%
X136380000Y-117320000D03*
%TO.P,L1,2,2_2*%
%TO.N,Net-(U1-SW_1)*%
X136380000Y-119920000D03*
%TD*%
D20*
%TO.P,C4,1*%
%TO.N,+26V_prefiltered*%
X130390000Y-114520000D03*
%TO.P,C4,2*%
%TO.N,GND*%
X129890000Y-114520000D03*
%TD*%
D42*
%TO.P,L3,1,1_1*%
%TO.N,+3V3*%
X123990000Y-131010000D03*
%TO.P,L3,2,2_2*%
%TO.N,+3V3_IMU*%
X121865000Y-131010000D03*
%TD*%
D10*
%TO.P,C31,1*%
%TO.N,+3V3_IMU*%
X125420000Y-129080000D03*
%TO.P,C31,2*%
%TO.N,GND*%
X126380000Y-129080000D03*
%TD*%
D13*
%TO.P,R3,1*%
%TO.N,Net-(U1-FB)*%
X132780000Y-114780000D03*
%TO.P,R3,2*%
%TO.N,+5V*%
X132780000Y-114280000D03*
%TD*%
D10*
%TO.P,C16,1*%
%TO.N,+3V3*%
X107220000Y-107660000D03*
%TO.P,C16,2*%
%TO.N,GND*%
X108180000Y-107660000D03*
%TD*%
D18*
%TO.P,R4,1*%
%TO.N,Net-(U1-FB)*%
X133500000Y-115400000D03*
%TO.P,R4,2*%
%TO.N,GND*%
X133500000Y-115900000D03*
%TD*%
D16*
%TO.P,J1,1,Pin_1_1*%
%TO.N,+5V*%
X111145000Y-133700000D03*
%TO.P,J1,2,Pin_2_2*%
%TO.N,GND*%
X112395000Y-133700000D03*
%TO.P,J1,3,Pin_3_3*%
%TO.N,/03_STM32H743_schematic/UART2_RX*%
X113645000Y-133700000D03*
%TO.P,J1,4,Pin_4_4*%
%TO.N,/03_STM32H743_schematic/UART2_TX*%
X114895000Y-133700000D03*
%TO.P,J1,5,Pin_5_5*%
%TO.N,/03_STM32H743_schematic/I2C1_SCL*%
X116145000Y-133700000D03*
%TO.P,J1,6,Pin_6_6*%
%TO.N,/03_STM32H743_schematic/I2C1_SDA*%
X117395000Y-133700000D03*
D17*
%TO.P,J1,MP*%
%TO.N,N/C*%
X109295000Y-136900000D03*
X119245000Y-136900000D03*
%TD*%
D10*
%TO.P,C20,1*%
%TO.N,+3V3*%
X108710000Y-126820000D03*
%TO.P,C20,2*%
%TO.N,GND*%
X109670000Y-126820000D03*
%TD*%
D15*
%TO.P,C9,1*%
%TO.N,+26V_prefiltered*%
X131760000Y-115550000D03*
%TO.P,C9,2*%
%TO.N,GND*%
X130210000Y-115550000D03*
%TD*%
D43*
%TO.P,C10,1*%
%TO.N,+5V*%
X128720000Y-123965000D03*
%TO.P,C10,2*%
%TO.N,GND*%
X128720000Y-125515000D03*
%TD*%
D36*
%TO.P,C21,1*%
%TO.N,/03_STM32H743_schematic/SWD_NRST*%
X101620000Y-116920000D03*
%TO.P,C21,2*%
%TO.N,GND*%
X101620000Y-117880000D03*
%TD*%
D44*
%TO.P,U2,1,VI_1*%
%TO.N,+5V*%
X130780000Y-123827500D03*
%TO.P,U2,2,GND_2*%
%TO.N,GND*%
X130780000Y-126127500D03*
D45*
X137080000Y-126127500D03*
D44*
%TO.P,U2,3,VO_3*%
%TO.N,+3V3*%
X130780000Y-128427500D03*
%TD*%
D31*
%TO.P,C14,1*%
%TO.N,+3V3*%
X121920000Y-125120000D03*
%TO.P,C14,2*%
%TO.N,GND*%
X120960000Y-125120000D03*
%TD*%
D43*
%TO.P,C11,1*%
%TO.N,+3V3*%
X129520000Y-130645000D03*
%TO.P,C11,2*%
%TO.N,GND*%
X129520000Y-132195000D03*
%TD*%
D46*
%TO.N,GND*%
X124070000Y-110910000D03*
X123060000Y-108180000D03*
X125098579Y-128263602D03*
X120490000Y-124580000D03*
X126042584Y-115975582D03*
X134130000Y-112220000D03*
D47*
X134750000Y-117550000D03*
D46*
X132360000Y-112220000D03*
D47*
X128820000Y-128720000D03*
X134090000Y-116330000D03*
D46*
X125753765Y-119820000D03*
X119140000Y-111640000D03*
X130470000Y-120080000D03*
X110160000Y-126170000D03*
X129520000Y-118100000D03*
X126460000Y-128300000D03*
X112420000Y-135230000D03*
X129030000Y-112930000D03*
D47*
X128840000Y-126690000D03*
D46*
X134380000Y-120290000D03*
X103850672Y-119780000D03*
X123580000Y-128270000D03*
X127830000Y-112910000D03*
X110220000Y-122530000D03*
X125830000Y-122220000D03*
X123950000Y-109180000D03*
D47*
X134840000Y-116730000D03*
D46*
X101250000Y-118700000D03*
X134365000Y-120795000D03*
X110510000Y-128140000D03*
X111930000Y-105970000D03*
X115950000Y-129290000D03*
X115960000Y-123510000D03*
D47*
X128820000Y-127680000D03*
D46*
X107454831Y-110518911D03*
X128500000Y-112920000D03*
X122580000Y-107610000D03*
X115640000Y-126120000D03*
D47*
X136660000Y-114570000D03*
D46*
X126000000Y-131630000D03*
D47*
X125090000Y-107120000D03*
D46*
X124250000Y-122000000D03*
D47*
X108830000Y-106930000D03*
D46*
X122000000Y-127260000D03*
D47*
X122370000Y-106860000D03*
D46*
X126220000Y-123675974D03*
X113117504Y-126446040D03*
X128620000Y-119110000D03*
X101010000Y-116340000D03*
D47*
X137540000Y-115879341D03*
D46*
X103910000Y-122000000D03*
X133150000Y-112220000D03*
X117230000Y-135570000D03*
%TO.N,+3V3*%
X123450000Y-110290000D03*
X102500000Y-122470000D03*
X102480000Y-119760000D03*
X124907485Y-113430000D03*
X108550000Y-123440000D03*
X111910000Y-123320000D03*
X126800000Y-131110000D03*
X102480000Y-117820000D03*
X103055000Y-116315000D03*
X119120000Y-111000000D03*
X111142842Y-127407573D03*
X127860000Y-120210000D03*
X100600000Y-112810000D03*
X109410000Y-105040000D03*
X127460000Y-131080000D03*
X106830000Y-110710000D03*
X128120000Y-131090000D03*
X121496423Y-124498546D03*
%TO.N,Net-(C25-Pad1)*%
X111670000Y-107520000D03*
X112070000Y-110970000D03*
%TO.N,+5V*%
X133610000Y-113320000D03*
X132610000Y-124760000D03*
X111510000Y-135140000D03*
X124370000Y-132280000D03*
X132070000Y-124760000D03*
X134920000Y-113290000D03*
X133140000Y-124760000D03*
X134260000Y-113300000D03*
%TO.N,/03_STM32H743_schematic/UART1_RX*%
X109954832Y-116150000D03*
X126080000Y-136480000D03*
%TO.N,/03_STM32H743_schematic/UART1_TX*%
X110820000Y-116360000D03*
X127320000Y-135080000D03*
%TO.N,/03_STM32H743_schematic/FLASH_CS*%
X109180000Y-113470000D03*
X121910000Y-113470000D03*
%TO.N,Net-(U1-PG)*%
X132300000Y-114430000D03*
X131796308Y-116452791D03*
%TO.N,/03_STM32H743_schematic/CURRENT*%
X120970000Y-106460000D03*
X117720000Y-114360000D03*
X119870000Y-127090000D03*
X117720000Y-112890000D03*
%TO.N,Net-(U1-FB)*%
X130750000Y-116546820D03*
X133194656Y-115156021D03*
%TO.N,/03_STM32H743_schematic/SWD_NRST*%
X107210000Y-116854732D03*
X102535000Y-116725000D03*
X100725000Y-113650000D03*
%TO.N,CS1_ACCELEROMETER*%
X119350970Y-121390970D03*
X126145203Y-124391568D03*
%TO.N,SPI1_MISO*%
X124236942Y-123100714D03*
X123236942Y-123100000D03*
%TO.N,CS2_GYROSCOPE*%
X117982588Y-122549695D03*
X124350812Y-128346531D03*
%TO.N,INT1_ACCELEROMETER*%
X127720000Y-128080000D03*
X117080000Y-121870000D03*
%TO.N,INT3_GYROSCOPE*%
X118950000Y-119260000D03*
X125239999Y-124375000D03*
%TO.N,+3V3_IMU*%
X125091452Y-123313993D03*
X124750000Y-129490000D03*
%TD*%
%TO.N,Net-(U3-PH0)*%
D48*
X112860000Y-129059390D02*
X112079390Y-129840000D01*
X112454832Y-124880000D02*
X112460000Y-124885168D01*
X112550000Y-127110000D02*
X112860000Y-127420000D01*
X112550000Y-126800000D02*
X112550000Y-127110000D01*
X112079390Y-129840000D02*
X112070000Y-129840000D01*
X112860000Y-127420000D02*
X112860000Y-129059390D01*
X112530000Y-126780000D02*
X112530000Y-125460000D01*
X112454832Y-126704832D02*
X112550000Y-126800000D01*
%TO.N,GND*%
D49*
X124480000Y-112880000D02*
X125730000Y-112880000D01*
X116220000Y-126500000D02*
X116410000Y-126690000D01*
D50*
X137540000Y-115879341D02*
X137680000Y-116019341D01*
X124190000Y-127402500D02*
X124190000Y-127730000D01*
D51*
X129440000Y-118180000D02*
X129440000Y-120030000D01*
D52*
X128433364Y-119616637D02*
X128433364Y-119499962D01*
D49*
X122670000Y-107610000D02*
X122580000Y-107610000D01*
D51*
X124490000Y-121370000D02*
X124760572Y-121370000D01*
D53*
X110750000Y-126690000D02*
X110760000Y-126690000D01*
D50*
X123497500Y-127402500D02*
X124190000Y-127402500D01*
D51*
X123840000Y-122020000D02*
X124490000Y-121370000D01*
D48*
X101010000Y-117380000D02*
X101510000Y-117880000D01*
D51*
X125060000Y-117920000D02*
X125060000Y-122120000D01*
D49*
X116090000Y-125882932D02*
X116090000Y-126810000D01*
D54*
X132360000Y-112220000D02*
X132330000Y-112220000D01*
D50*
X122330000Y-129320000D02*
X122360000Y-129350000D01*
D52*
X128750000Y-119460000D02*
X128730000Y-119440000D01*
D48*
X107966232Y-107346231D02*
X107970000Y-107349999D01*
D49*
X124100000Y-111990000D02*
X124230000Y-112120000D01*
D48*
X107454832Y-109530000D02*
X107454832Y-108730001D01*
D49*
X124720000Y-112590000D02*
X124720000Y-112420000D01*
D50*
X134200000Y-116330000D02*
X133930000Y-116600000D01*
D53*
X124590000Y-110710000D02*
X124370000Y-110710000D01*
X124300000Y-110760000D02*
X124300000Y-110450000D01*
D55*
X101884300Y-114444300D02*
X101884300Y-115635700D01*
D56*
X133540000Y-120100000D02*
X133580000Y-120100000D01*
D53*
X110760000Y-126460000D02*
X110910000Y-126310000D01*
D49*
X103360000Y-121890000D02*
X103360000Y-121010000D01*
D53*
X110810000Y-126230000D02*
X110580000Y-126460000D01*
X122690000Y-111190000D02*
X123790000Y-111190000D01*
D50*
X133265000Y-119670000D02*
X133890000Y-119670000D01*
X133930000Y-117600000D02*
X133830000Y-117700000D01*
D55*
X130415000Y-120345000D02*
X130470000Y-120290000D01*
D49*
X116467067Y-126259999D02*
X115979832Y-125772764D01*
D50*
X135130000Y-117380000D02*
X135130000Y-116600000D01*
D52*
X128820000Y-128720000D02*
X128820000Y-127340000D01*
D48*
X107490000Y-108350000D02*
X107490000Y-108620000D01*
D49*
X124880000Y-112200000D02*
X124880000Y-112220000D01*
D52*
X128620000Y-119770000D02*
X128620000Y-119590000D01*
D51*
X125550000Y-122230000D02*
X126210000Y-122230000D01*
D49*
X133855000Y-116525000D02*
X133855000Y-116396369D01*
X113650000Y-131470000D02*
X112395000Y-132725000D01*
D50*
X130070000Y-118010000D02*
X130413830Y-118010000D01*
D52*
X129290000Y-115160000D02*
X129020000Y-114890000D01*
D48*
X103344832Y-121885168D02*
X103210000Y-122020000D01*
D50*
X108620000Y-107670000D02*
X108740000Y-107670000D01*
D49*
X116030000Y-126020000D02*
X116030000Y-126090000D01*
D51*
X125310000Y-121650000D02*
X125280000Y-121620000D01*
D57*
X115050000Y-130190000D02*
X115950000Y-129290000D01*
D48*
X130840000Y-115920000D02*
X130730000Y-115920000D01*
D51*
X126390000Y-119420000D02*
X126210000Y-119420000D01*
D50*
X129493830Y-118190000D02*
X129430000Y-118190000D01*
D55*
X129680000Y-118040000D02*
X129900000Y-118040000D01*
D51*
X126042584Y-115975582D02*
X126125582Y-115975582D01*
D55*
X115640000Y-126120000D02*
X115650000Y-126120000D01*
D50*
X134920000Y-117760000D02*
X135130000Y-117550000D01*
X137040000Y-114030000D02*
X137520000Y-114030000D01*
D48*
X110330000Y-105560000D02*
X110740000Y-105560000D01*
D52*
X136910000Y-113880000D02*
X137110000Y-114080000D01*
D49*
X124720000Y-112420000D02*
X124760000Y-112380000D01*
D55*
X101180000Y-116340000D02*
X101010000Y-116340000D01*
D50*
X123110000Y-115900000D02*
X123130000Y-115880000D01*
X131735000Y-118125000D02*
X131925000Y-118125000D01*
D55*
X129540000Y-118230000D02*
X129720000Y-118230000D01*
X115870000Y-125920000D02*
X115904832Y-125885168D01*
D53*
X111067952Y-126170000D02*
X110630000Y-126607952D01*
D50*
X110490000Y-105730000D02*
X110400000Y-105820000D01*
D53*
X110220000Y-126230000D02*
X110810000Y-126230000D01*
D57*
X116470000Y-127930000D02*
X116620000Y-128080000D01*
D53*
X111454832Y-125783120D02*
X111207952Y-126030000D01*
D51*
X125310000Y-121650000D02*
X125310000Y-121990000D01*
D58*
X125090000Y-107120000D02*
X125795000Y-107825000D01*
D56*
X134430000Y-120320000D02*
X134430000Y-120730000D01*
D50*
X135850000Y-112060000D02*
X135890000Y-112020000D01*
D49*
X124760000Y-112380000D02*
X124830000Y-112450000D01*
D48*
X108079833Y-108105000D02*
X108082778Y-108105000D01*
D57*
X116395000Y-128340000D02*
X116395000Y-128215000D01*
D48*
X110740000Y-105560000D02*
X110740000Y-105790000D01*
D54*
X134930000Y-112220000D02*
X135510000Y-111640000D01*
D52*
X128890000Y-127938642D02*
X128890000Y-128580000D01*
D51*
X124250000Y-122000000D02*
X124410000Y-122160000D01*
D50*
X136880000Y-114010000D02*
X137470000Y-114010000D01*
X136260000Y-114570000D02*
X135780000Y-114090000D01*
D53*
X132080000Y-118210000D02*
X132080000Y-118420000D01*
D50*
X133220000Y-118075000D02*
X133970000Y-118075000D01*
D51*
X125365000Y-121990000D02*
X125365000Y-121955000D01*
D49*
X123520000Y-111350000D02*
X123900000Y-111350000D01*
D58*
X122065000Y-105330000D02*
X122310000Y-105330000D01*
D55*
X101470000Y-114030000D02*
X101884300Y-114444300D01*
D49*
X116510000Y-126880000D02*
X116470000Y-126840000D01*
X123960000Y-112380000D02*
X124090000Y-112380000D01*
X115954832Y-124880000D02*
X115954832Y-123515168D01*
D48*
X110190000Y-106990000D02*
X110110000Y-106990000D01*
D55*
X131250000Y-119670000D02*
X130960000Y-119960000D01*
D52*
X128380000Y-129160000D02*
X127460000Y-129160000D01*
D48*
X110220000Y-107056658D02*
X110876658Y-106400000D01*
D49*
X122650000Y-111420000D02*
X122500000Y-111570000D01*
D51*
X129200000Y-117040000D02*
X129260000Y-117040000D01*
D50*
X137060000Y-114490000D02*
X136940000Y-114490000D01*
X110370000Y-105820000D02*
X110370000Y-106400000D01*
D49*
X115520000Y-130820000D02*
X114870000Y-131470000D01*
X116630000Y-126960000D02*
X116630000Y-126409999D01*
D50*
X133310000Y-119740000D02*
X132900000Y-119740000D01*
D59*
X123840000Y-108490000D02*
X123840000Y-108780000D01*
D51*
X124870000Y-121670000D02*
X124730000Y-121810000D01*
D50*
X134470000Y-116050000D02*
X133860000Y-116050000D01*
D51*
X125160000Y-121370000D02*
X126492183Y-121370000D01*
D49*
X124430000Y-112730000D02*
X124590000Y-112570000D01*
D50*
X130120000Y-117980000D02*
X130150000Y-118010000D01*
D52*
X127805990Y-113000000D02*
X129200000Y-113000000D01*
D48*
X107500000Y-108630000D02*
X107590000Y-108540000D01*
D50*
X134380000Y-120290000D02*
X134490000Y-120290000D01*
D55*
X109860000Y-127030000D02*
X110520000Y-127030000D01*
D50*
X137690000Y-115150000D02*
X137060000Y-114520000D01*
D53*
X110760000Y-126690000D02*
X110760000Y-126460000D01*
D50*
X137550000Y-120890000D02*
X134950000Y-120890000D01*
D52*
X130780000Y-126127500D02*
X130701142Y-126127500D01*
D58*
X130030000Y-115590000D02*
X129840000Y-115590000D01*
D50*
X133860000Y-116050000D02*
X133810000Y-116000000D01*
D49*
X104130000Y-122590000D02*
X103855000Y-122315000D01*
D48*
X130450000Y-115920000D02*
X130430000Y-115900000D01*
D55*
X131250000Y-119670000D02*
X130415000Y-120505000D01*
D49*
X116320000Y-127070000D02*
X116510000Y-126880000D01*
D52*
X125895460Y-112310000D02*
X125691789Y-112513671D01*
X130260000Y-115430000D02*
X130143326Y-115430000D01*
D50*
X130015000Y-116225000D02*
X130320000Y-115920000D01*
X133960000Y-118075000D02*
X134160000Y-118075000D01*
D48*
X107590000Y-108400000D02*
X107890000Y-108100000D01*
D49*
X116090000Y-126810000D02*
X116090000Y-127119999D01*
X123550000Y-128280000D02*
X123080000Y-128280000D01*
D50*
X130320000Y-115920000D02*
X130321820Y-115921820D01*
D51*
X124250000Y-122000000D02*
X124250000Y-122090000D01*
X125070000Y-121280000D02*
X125070000Y-121830000D01*
D48*
X107529832Y-108657946D02*
X107643889Y-108543889D01*
D50*
X126700000Y-117610000D02*
X126920000Y-117830000D01*
X135890000Y-112020000D02*
X135510000Y-111640000D01*
X130150000Y-118010000D02*
X130280000Y-118010000D01*
D52*
X127395990Y-112480000D02*
X127915990Y-113000000D01*
D51*
X126210000Y-122230000D02*
X126210000Y-121950000D01*
D48*
X113510000Y-126838536D02*
X113117504Y-126446040D01*
D51*
X125070000Y-121280000D02*
X124970000Y-121280000D01*
D49*
X110860000Y-128490000D02*
X110510000Y-128140000D01*
D58*
X129912500Y-117158889D02*
X129912500Y-117180000D01*
D48*
X109843342Y-106720000D02*
X110170000Y-106393342D01*
D49*
X115540000Y-126090000D02*
X115280000Y-126350000D01*
D50*
X108830000Y-106930000D02*
X108690000Y-106930000D01*
D48*
X131250000Y-117030000D02*
X131250000Y-116330000D01*
D51*
X125620000Y-121700000D02*
X125070000Y-121150000D01*
D48*
X109700000Y-108000000D02*
X108060000Y-108000000D01*
D55*
X130415000Y-120505000D02*
X130415000Y-120770000D01*
X110550000Y-127000000D02*
X110410000Y-126860000D01*
D49*
X115280000Y-126870000D02*
X115290000Y-126880000D01*
D59*
X123840000Y-108780000D02*
X123840000Y-109200000D01*
D53*
X110580000Y-126460000D02*
X109980000Y-126460000D01*
D49*
X116220000Y-126040000D02*
X116220000Y-126500000D01*
X120960000Y-125560000D02*
X121560000Y-126160000D01*
D50*
X134480000Y-121210000D02*
X134800000Y-120890000D01*
D53*
X125060000Y-110910000D02*
X125650000Y-111500000D01*
D48*
X107454831Y-110518911D02*
X107368742Y-110605000D01*
D55*
X129520000Y-118210000D02*
X129540000Y-118230000D01*
D50*
X137060000Y-114520000D02*
X137060000Y-114880000D01*
D52*
X127250000Y-129160000D02*
X126640000Y-128550000D01*
X130701142Y-126127500D02*
X128890000Y-127938642D01*
D50*
X133970000Y-117600000D02*
X133970000Y-117840000D01*
D49*
X124370000Y-112330000D02*
X124430000Y-112390000D01*
D50*
X130555000Y-118070000D02*
X130205000Y-117720000D01*
D52*
X126440000Y-109890000D02*
X126780000Y-110230000D01*
D51*
X125060000Y-117260000D02*
X126080000Y-116240000D01*
D50*
X137400000Y-115200000D02*
X137400000Y-115270000D01*
D49*
X125730000Y-112880000D02*
X125580000Y-112730000D01*
D50*
X124190000Y-127730000D02*
X123640000Y-127730000D01*
X109920000Y-107570000D02*
X109920000Y-107140000D01*
D49*
X116300000Y-126890000D02*
X116280000Y-126870000D01*
D52*
X128280000Y-119463273D02*
X128433364Y-119616637D01*
D50*
X109920000Y-107140000D02*
X110580000Y-106480000D01*
D49*
X121560000Y-126160000D02*
X121560000Y-126670000D01*
D58*
X122065000Y-104200000D02*
X122065000Y-105330000D01*
D50*
X134200000Y-116330000D02*
X134010000Y-116140000D01*
D48*
X103240000Y-121040000D02*
X103240000Y-121940000D01*
D50*
X108960000Y-107220000D02*
X108790000Y-107220000D01*
D57*
X116470000Y-126760000D02*
X116470000Y-127930000D01*
D48*
X107630000Y-108350000D02*
X107490000Y-108350000D01*
D50*
X122220000Y-128640000D02*
X122300000Y-128640000D01*
D49*
X115930000Y-125510000D02*
X115979832Y-125559832D01*
D52*
X125691789Y-112513671D02*
X126550345Y-112513671D01*
D53*
X104129832Y-122459832D02*
X104330000Y-122660000D01*
D50*
X133120000Y-119525000D02*
X133265000Y-119670000D01*
X134630000Y-116850000D02*
X134630000Y-117340000D01*
D51*
X129180000Y-119770000D02*
X128620000Y-119770000D01*
D48*
X111000000Y-106170000D02*
X110640000Y-106530000D01*
D57*
X115380000Y-126900000D02*
X115460000Y-126900000D01*
D49*
X133930000Y-116600000D02*
X133855000Y-116525000D01*
X112395000Y-132725000D02*
X112395000Y-133700000D01*
D55*
X110410000Y-126860000D02*
X109910000Y-126860000D01*
D49*
X125580000Y-112730000D02*
X124430000Y-112730000D01*
D51*
X112395000Y-133700000D02*
X112395000Y-135205000D01*
X129010000Y-119770000D02*
X129200000Y-119580000D01*
D50*
X108790000Y-107220000D02*
X108480000Y-107530000D01*
D58*
X126210000Y-112310000D02*
X126210000Y-109570000D01*
D49*
X124115000Y-112670000D02*
X124115000Y-112735000D01*
X124050000Y-112670000D02*
X123790000Y-112410000D01*
D51*
X129180000Y-116860000D02*
X129180000Y-117400000D01*
D56*
X133700000Y-121140000D02*
X134230000Y-120610000D01*
D58*
X125795000Y-109140000D02*
X125520000Y-109140000D01*
D55*
X130590000Y-119960000D02*
X130590000Y-119970000D01*
D48*
X103344832Y-121440000D02*
X103344832Y-121885168D01*
D53*
X109680000Y-126810000D02*
X109670000Y-126820000D01*
X130246880Y-118060000D02*
X130393120Y-118060000D01*
D49*
X124650000Y-111120000D02*
X124100000Y-111670000D01*
D50*
X129866170Y-118010000D02*
X129590000Y-118286170D01*
D51*
X129440000Y-122200000D02*
X128800000Y-122840000D01*
D48*
X107380000Y-108245000D02*
X107535780Y-108245000D01*
D50*
X129520000Y-118100000D02*
X129610000Y-118010000D01*
D52*
X136660000Y-114570000D02*
X136660000Y-114340000D01*
D49*
X103340000Y-121890000D02*
X103360000Y-121890000D01*
D53*
X130580000Y-118075000D02*
X131945000Y-118075000D01*
D50*
X133120000Y-118900000D02*
X133120000Y-119525000D01*
D49*
X126240000Y-128940000D02*
X126380000Y-129080000D01*
D50*
X133120000Y-118175000D02*
X133220000Y-118075000D01*
D57*
X116470000Y-127910000D02*
X116630000Y-128070000D01*
D49*
X122175000Y-111705000D02*
X123085000Y-111705000D01*
D50*
X131910000Y-117750000D02*
X131910000Y-117850000D01*
X109930000Y-106950000D02*
X109910000Y-106930000D01*
D53*
X111454832Y-123976880D02*
X111454832Y-124880000D01*
D50*
X137257869Y-115879341D02*
X135660000Y-114281472D01*
D48*
X109740026Y-108105000D02*
X110220000Y-107625026D01*
D49*
X115929832Y-125510000D02*
X115930000Y-125510000D01*
X124370000Y-112990000D02*
X124480000Y-112880000D01*
D53*
X109680000Y-126650000D02*
X109680000Y-126810000D01*
D50*
X136390000Y-114600000D02*
X136390000Y-114510000D01*
D57*
X115910000Y-126920000D02*
X115710000Y-126720000D01*
D49*
X120960000Y-124620000D02*
X120960000Y-125120000D01*
D51*
X125850000Y-119650000D02*
X125880000Y-119620000D01*
D52*
X124380000Y-111950000D02*
X126440000Y-109890000D01*
D55*
X130470000Y-120080000D02*
X130470000Y-120290000D01*
D53*
X103690000Y-122150000D02*
X103540000Y-122150000D01*
D50*
X136660000Y-114570000D02*
X136660000Y-114870000D01*
D49*
X120664832Y-123240000D02*
X120629832Y-123205000D01*
D52*
X136660000Y-114340000D02*
X136220000Y-113900000D01*
D50*
X136660000Y-114570000D02*
X136260000Y-114570000D01*
D48*
X108295000Y-108105000D02*
X109740026Y-108105000D01*
D49*
X104245000Y-122705000D02*
X104130000Y-122590000D01*
D58*
X122065000Y-105685000D02*
X122065000Y-105060000D01*
D53*
X132080000Y-118420000D02*
X131785000Y-118125000D01*
D50*
X133810000Y-116000000D02*
X133630000Y-116000000D01*
D53*
X110182952Y-122705000D02*
X111454832Y-123976880D01*
D49*
X116280000Y-126870000D02*
X116280000Y-126390000D01*
D53*
X122630000Y-111250000D02*
X122175000Y-111705000D01*
D57*
X123180000Y-115690000D02*
X123140000Y-115730000D01*
D51*
X126390000Y-119250000D02*
X126390000Y-119420000D01*
D58*
X124190000Y-108010000D02*
X124190000Y-109290000D01*
D51*
X124250000Y-122090000D02*
X124523993Y-122363993D01*
D55*
X129900000Y-117870000D02*
X129850000Y-117820000D01*
D50*
X136880000Y-115090000D02*
X136390000Y-114600000D01*
D51*
X126042584Y-115975582D02*
X125984418Y-115975582D01*
X129160000Y-116840000D02*
X129180000Y-116860000D01*
D52*
X130780000Y-126127500D02*
X137080000Y-126127500D01*
D49*
X103855000Y-122315000D02*
X103680000Y-122140000D01*
D51*
X124800000Y-121880000D02*
X124730000Y-121810000D01*
D50*
X110370000Y-106400000D02*
X110360000Y-106410000D01*
D48*
X107380000Y-108807778D02*
X107380000Y-108245000D01*
X107890000Y-108100000D02*
X108300000Y-108100000D01*
D49*
X122000000Y-127110000D02*
X121560000Y-126670000D01*
X124070000Y-112625000D02*
X124115000Y-112670000D01*
D55*
X130960000Y-119960000D02*
X130590000Y-119960000D01*
D57*
X115380000Y-127200000D02*
X115380000Y-126900000D01*
D50*
X108230000Y-107390000D02*
X108200000Y-107390000D01*
X110580000Y-106480000D02*
X110580000Y-106380000D01*
D53*
X124070000Y-110340000D02*
X124260000Y-110150000D01*
D50*
X122330000Y-129040000D02*
X122330000Y-129320000D01*
D49*
X115950000Y-129290000D02*
X115520000Y-129720000D01*
X123730000Y-112130000D02*
X123020000Y-111420000D01*
D52*
X129332500Y-126127500D02*
X128720000Y-125515000D01*
D56*
X133000000Y-120650000D02*
X133490000Y-121140000D01*
D53*
X103350000Y-121860000D02*
X103520000Y-121690000D01*
D56*
X133585000Y-121210000D02*
X133585000Y-120385000D01*
D55*
X130350000Y-120060000D02*
X130350000Y-120610000D01*
D49*
X115750000Y-126560000D02*
X115750000Y-126670000D01*
X125098579Y-128201421D02*
X125240000Y-128060000D01*
X103680000Y-122140000D02*
X103240000Y-122140000D01*
D53*
X111207952Y-126030000D02*
X110300000Y-126030000D01*
D49*
X124830000Y-112450000D02*
X124870000Y-112450000D01*
D52*
X126010000Y-112600000D02*
X128280000Y-114870000D01*
D55*
X116000000Y-126390000D02*
X115700000Y-126090000D01*
D51*
X129440000Y-120030000D02*
X129180000Y-119770000D01*
D50*
X123155000Y-115850000D02*
X123155000Y-116485000D01*
D51*
X126670000Y-121650000D02*
X125310000Y-121650000D01*
D52*
X128680000Y-113980000D02*
X128550000Y-113850000D01*
D51*
X128724762Y-122840000D02*
X129305000Y-122259762D01*
D58*
X125650000Y-109250000D02*
X124300000Y-107900000D01*
D57*
X116470000Y-126760000D02*
X116470000Y-127910000D01*
D49*
X124100000Y-111670000D02*
X124100000Y-111990000D01*
D48*
X103344832Y-120940000D02*
X103344832Y-121440000D01*
D50*
X108950000Y-107910000D02*
X108980000Y-107880000D01*
D49*
X116050000Y-126260000D02*
X115750000Y-126560000D01*
D55*
X129480000Y-117840000D02*
X129680000Y-118040000D01*
D57*
X124385000Y-116450000D02*
X123940000Y-116450000D01*
D50*
X130312500Y-116993204D02*
X130125000Y-116805704D01*
D49*
X124070000Y-111900000D02*
X123520000Y-111350000D01*
D48*
X107490000Y-108620000D02*
X107500000Y-108630000D01*
D50*
X134160000Y-116360000D02*
X134190000Y-116330000D01*
D59*
X122365000Y-107015000D02*
X123840000Y-108490000D01*
D50*
X133970000Y-118065000D02*
X133960000Y-118075000D01*
D53*
X103910000Y-121770000D02*
X103350000Y-121210000D01*
D49*
X123950000Y-111580000D02*
X124250000Y-111280000D01*
D52*
X129370000Y-125480000D02*
X128640000Y-125480000D01*
D53*
X124070000Y-110910000D02*
X125060000Y-110910000D01*
D55*
X116030000Y-126500000D02*
X116000000Y-126530000D01*
D52*
X129200000Y-113000000D02*
X129590000Y-113390000D01*
D50*
X133585000Y-121210000D02*
X134480000Y-121210000D01*
D49*
X123580000Y-128270000D02*
X123640000Y-128210000D01*
X126460000Y-128170000D02*
X126300000Y-128010000D01*
D51*
X129305000Y-122259762D02*
X129305000Y-120345000D01*
D58*
X122215000Y-104800000D02*
X122280000Y-104865000D01*
D56*
X133580000Y-120100000D02*
X133800000Y-120320000D01*
D52*
X130780000Y-126127500D02*
X130057500Y-126127500D01*
D53*
X124370000Y-110710000D02*
X124310000Y-110770000D01*
D51*
X126200000Y-121940000D02*
X126170000Y-121970000D01*
X123310000Y-116170000D02*
X123310000Y-116130000D01*
D50*
X134020000Y-116140000D02*
X134010000Y-116140000D01*
D48*
X113510000Y-126990000D02*
X113510000Y-126838536D01*
D55*
X109670000Y-126820000D02*
X109860000Y-127010000D01*
D48*
X107454832Y-109530000D02*
X107529832Y-109455000D01*
D50*
X135130000Y-117060000D02*
X134390000Y-116320000D01*
D52*
X136330000Y-112050000D02*
X136900000Y-112050000D01*
D50*
X122150000Y-129225000D02*
X122150000Y-128750000D01*
D55*
X109860000Y-127010000D02*
X109860000Y-127030000D01*
X116000000Y-126530000D02*
X116000000Y-126390000D01*
D50*
X135890000Y-112480000D02*
X135890000Y-112020000D01*
D49*
X116630000Y-126409999D02*
X116480000Y-126259999D01*
D52*
X130260000Y-115390000D02*
X130260000Y-115430000D01*
D49*
X115750000Y-126670000D02*
X115980000Y-126670000D01*
D52*
X124380000Y-112480000D02*
X124380000Y-111950000D01*
D50*
X137690000Y-115900000D02*
X137690000Y-115150000D01*
D52*
X128620000Y-119590000D02*
X128750000Y-119460000D01*
X128720000Y-125515000D02*
X128720000Y-128620000D01*
D51*
X125210000Y-119910000D02*
X125210000Y-119650000D01*
X129750000Y-116250000D02*
X129160000Y-116840000D01*
D48*
X107535780Y-108245000D02*
X107826232Y-107954548D01*
D49*
X123020000Y-111420000D02*
X122650000Y-111420000D01*
D51*
X124970000Y-121280000D02*
X124250000Y-122000000D01*
D52*
X136220000Y-113900000D02*
X136220000Y-112050000D01*
D51*
X124080000Y-122020000D02*
X124060000Y-122000000D01*
D50*
X135780000Y-114090000D02*
X135780000Y-112480000D01*
D55*
X101620000Y-118330000D02*
X101250000Y-118700000D01*
D57*
X116395000Y-128340000D02*
X116395000Y-128845000D01*
D50*
X131850000Y-118240000D02*
X131735000Y-118125000D01*
D48*
X130730000Y-115920000D02*
X130450000Y-115920000D01*
D55*
X130380000Y-120090000D02*
X130350000Y-120060000D01*
D53*
X104029832Y-122119832D02*
X104040000Y-122119832D01*
D50*
X121900000Y-128960000D02*
X122220000Y-128640000D01*
D51*
X126210000Y-119420000D02*
X125760000Y-119870000D01*
D49*
X124690000Y-111600000D02*
X124470000Y-111820000D01*
X115280000Y-126890000D02*
X115280000Y-127250000D01*
X115610000Y-126900000D02*
X115630000Y-126920000D01*
D48*
X107529832Y-109455000D02*
X107529832Y-108657946D01*
X110170000Y-106393342D02*
X110170000Y-105720000D01*
X107826232Y-107954548D02*
X107826232Y-107486231D01*
D58*
X124190000Y-109290000D02*
X125430000Y-110530000D01*
D50*
X108980000Y-107880000D02*
X108960000Y-107860000D01*
X136880000Y-114020000D02*
X136880000Y-114010000D01*
D48*
X108300000Y-108100000D02*
X108295000Y-108105000D01*
D49*
X115632596Y-126070000D02*
X115540000Y-126070000D01*
D50*
X134190000Y-116330000D02*
X134200000Y-116330000D01*
D48*
X110110000Y-106990000D02*
X110110000Y-107590000D01*
D50*
X126920000Y-117830000D02*
X126990000Y-117830000D01*
D56*
X134230000Y-120610000D02*
X134020000Y-120610000D01*
D55*
X129850000Y-117820000D02*
X129780000Y-117890000D01*
D50*
X133930000Y-116330000D02*
X133600000Y-116000000D01*
D52*
X126780000Y-110230000D02*
X126780000Y-112480000D01*
D49*
X115940000Y-126920000D02*
X115940000Y-127030000D01*
D50*
X137790000Y-120650000D02*
X137550000Y-120890000D01*
D49*
X115979832Y-125772764D02*
X115979832Y-125480000D01*
D50*
X135770000Y-111620000D02*
X135760000Y-111610000D01*
D51*
X126170000Y-121970000D02*
X125610000Y-121970000D01*
D50*
X131900000Y-117960000D02*
X131735000Y-118125000D01*
D51*
X124760572Y-121370000D02*
X124790286Y-121340286D01*
D56*
X133800000Y-120320000D02*
X134430000Y-120320000D01*
D49*
X124070000Y-112180000D02*
X124070000Y-112625000D01*
D56*
X134365000Y-120795000D02*
X133780000Y-121380000D01*
D50*
X132890000Y-119750000D02*
X132890000Y-119280000D01*
D49*
X122630000Y-111250000D02*
X122690000Y-111190000D01*
D50*
X130230000Y-117720000D02*
X130312500Y-117637500D01*
X110400000Y-105820000D02*
X110370000Y-105820000D01*
D56*
X133210000Y-119770000D02*
X133000000Y-119980000D01*
D50*
X133970000Y-117840000D02*
X134190000Y-118060000D01*
D49*
X116080000Y-126770000D02*
X116080000Y-126480000D01*
D52*
X126210000Y-112310000D02*
X125895460Y-112310000D01*
X127460000Y-129160000D02*
X126610000Y-129160000D01*
D58*
X122365000Y-104675000D02*
X122365000Y-104200000D01*
D52*
X128820000Y-128720000D02*
X128380000Y-129160000D01*
D50*
X132570000Y-118350000D02*
X132560000Y-118350000D01*
X108890000Y-107520000D02*
X109395000Y-107520000D01*
D51*
X126125582Y-115975582D02*
X126540000Y-116390000D01*
D49*
X120940000Y-124580000D02*
X120940000Y-124050000D01*
D59*
X125789026Y-123675974D02*
X126220000Y-123675974D01*
D57*
X123940000Y-116450000D02*
X123180000Y-115690000D01*
D53*
X103910000Y-121780000D02*
X103940000Y-121810000D01*
D50*
X136660000Y-114570000D02*
X136660000Y-114410000D01*
D49*
X124590000Y-112320000D02*
X124710000Y-112200000D01*
D50*
X133690000Y-117700000D02*
X133730000Y-117660000D01*
D55*
X129550000Y-118110000D02*
X129480000Y-118040000D01*
D50*
X137400000Y-115270000D02*
X137480000Y-115350000D01*
X133730000Y-117660000D02*
X133677107Y-117660000D01*
D49*
X111930000Y-105970000D02*
X110975000Y-105970000D01*
D58*
X122365000Y-104200000D02*
X122065000Y-104200000D01*
D49*
X124430000Y-111510000D02*
X124690000Y-111250000D01*
X116290000Y-126070000D02*
X116277068Y-126070000D01*
D50*
X108690000Y-106930000D02*
X108230000Y-107390000D01*
D52*
X130057500Y-126127500D02*
X129390000Y-125460000D01*
D59*
X125750000Y-123715000D02*
X125789026Y-123675974D01*
D50*
X108480000Y-107530000D02*
X108620000Y-107670000D01*
D53*
X110630000Y-126640000D02*
X110220000Y-126230000D01*
X103350000Y-121210000D02*
X103350000Y-121860000D01*
D49*
X124470000Y-112240000D02*
X124680000Y-112030000D01*
D50*
X136390000Y-114510000D02*
X136880000Y-114020000D01*
D51*
X124800000Y-122160000D02*
X124800000Y-121880000D01*
D55*
X129630000Y-117800000D02*
X129710000Y-117800000D01*
D50*
X109840000Y-107650000D02*
X109920000Y-107570000D01*
D51*
X124523993Y-122363993D02*
X124043993Y-122363993D01*
D50*
X123640000Y-127730000D02*
X122330000Y-129040000D01*
D49*
X116080000Y-126480000D02*
X116070000Y-126470000D01*
D51*
X128860000Y-119900000D02*
X129380000Y-119900000D01*
D49*
X120960000Y-125120000D02*
X120960000Y-125560000D01*
X126460000Y-128300000D02*
X126460000Y-128170000D01*
X115954832Y-123515168D02*
X115960000Y-123510000D01*
X116360000Y-127250000D02*
X116640000Y-126970000D01*
D52*
X137390000Y-114080000D02*
X137490000Y-113980000D01*
D49*
X116150000Y-126260000D02*
X116050000Y-126260000D01*
D54*
X133150000Y-112220000D02*
X132360000Y-112220000D01*
D52*
X125705788Y-112310000D02*
X125540000Y-112475788D01*
D58*
X122240000Y-104800000D02*
X122365000Y-104675000D01*
D55*
X130710000Y-120090000D02*
X130380000Y-120090000D01*
D50*
X133930000Y-117407107D02*
X133930000Y-117600000D01*
X134390000Y-116320000D02*
X134390000Y-116510000D01*
D48*
X101510000Y-117880000D02*
X101620000Y-117880000D01*
D55*
X129710000Y-117800000D02*
X129760000Y-117750000D01*
D48*
X107966232Y-107346231D02*
X108592463Y-106720000D01*
D49*
X122960000Y-111570000D02*
X122970000Y-111560000D01*
X123900000Y-111350000D02*
X123950000Y-111300000D01*
D51*
X127760000Y-122840000D02*
X128724762Y-122840000D01*
D48*
X108592463Y-106720000D02*
X109843342Y-106720000D01*
D54*
X135630000Y-112220000D02*
X135890000Y-112480000D01*
D50*
X124070000Y-117400000D02*
X123340000Y-117400000D01*
D58*
X122215000Y-104800000D02*
X122240000Y-104800000D01*
D50*
X134190000Y-118060000D02*
X134490000Y-117760000D01*
D51*
X129260000Y-117040000D02*
X129780000Y-116520000D01*
D55*
X129630000Y-117660000D02*
X129630000Y-117800000D01*
D52*
X128433364Y-119499962D02*
X128663326Y-119270000D01*
D58*
X122365000Y-105897660D02*
X122917340Y-106450000D01*
D52*
X127395990Y-112480000D02*
X126510000Y-111594010D01*
D49*
X124250000Y-111110000D02*
X124260000Y-111120000D01*
D53*
X110630000Y-126810000D02*
X110750000Y-126690000D01*
D49*
X124880000Y-112220000D02*
X125250000Y-112590000D01*
X110975000Y-105970000D02*
X110965000Y-105960000D01*
X115440000Y-126420000D02*
X115440000Y-127070000D01*
D50*
X123110000Y-117170000D02*
X123110000Y-115900000D01*
X135020000Y-116600000D02*
X134470000Y-116050000D01*
D58*
X125650000Y-111500000D02*
X125650000Y-109250000D01*
D49*
X124890000Y-112040000D02*
X124930000Y-112000000D01*
D58*
X122310000Y-105330000D02*
X122365000Y-105275000D01*
D52*
X129310000Y-117210000D02*
X129400000Y-117120000D01*
D50*
X136660000Y-114870000D02*
X137690000Y-115900000D01*
D53*
X110160000Y-126170000D02*
X109680000Y-126650000D01*
D50*
X108960000Y-107860000D02*
X108960000Y-107220000D01*
D48*
X111340000Y-106370000D02*
X111340000Y-106180000D01*
D56*
X133870000Y-119780000D02*
X133870000Y-119770000D01*
D50*
X131920000Y-117730000D02*
X133690000Y-117730000D01*
D55*
X129840000Y-118110000D02*
X129550000Y-118110000D01*
D50*
X131920000Y-118240000D02*
X131850000Y-118240000D01*
D53*
X109860000Y-126580000D02*
X109920000Y-126640000D01*
D56*
X133420000Y-120220000D02*
X133540000Y-120100000D01*
D51*
X112395000Y-135205000D02*
X112420000Y-135230000D01*
D50*
X130530000Y-118075000D02*
X130530000Y-118070000D01*
D51*
X125310000Y-121990000D02*
X125550000Y-122230000D01*
D53*
X110300000Y-126030000D02*
X110160000Y-126170000D01*
D50*
X108200000Y-107390000D02*
X108200000Y-107670000D01*
D52*
X136900000Y-112050000D02*
X137020000Y-111930000D01*
D49*
X116030000Y-126090000D02*
X115610000Y-126510000D01*
X122690000Y-111190000D02*
X123080000Y-111190000D01*
D50*
X132010000Y-118950000D02*
X131920000Y-118860000D01*
D57*
X115940000Y-126920000D02*
X115910000Y-126920000D01*
D52*
X136910000Y-111930000D02*
X136910000Y-113880000D01*
D50*
X130413830Y-118010000D02*
X130312500Y-117908670D01*
D52*
X128663326Y-119270000D02*
X129310000Y-119270000D01*
D54*
X132330000Y-112220000D02*
X132320000Y-112210000D01*
D49*
X124230000Y-111710000D02*
X124370000Y-111570000D01*
D52*
X129290000Y-117120000D02*
X129290000Y-115160000D01*
X128730000Y-119440000D02*
X128730000Y-114610000D01*
D53*
X104040000Y-122119832D02*
X104129832Y-122030000D01*
D51*
X123840000Y-122020000D02*
X124080000Y-122020000D01*
D49*
X123880000Y-127830000D02*
X123490000Y-128220000D01*
D48*
X110640000Y-106530000D02*
X110640000Y-106540000D01*
D55*
X130415000Y-120345000D02*
X130415000Y-120670000D01*
D58*
X125520000Y-109140000D02*
X122065000Y-105685000D01*
D49*
X115980000Y-126670000D02*
X116080000Y-126770000D01*
D55*
X115650000Y-126120000D02*
X116030000Y-126500000D01*
D51*
X126492183Y-121370000D02*
X126753592Y-121631409D01*
D49*
X115954832Y-124880000D02*
X115954832Y-126654832D01*
X123950000Y-111300000D02*
X123950000Y-111580000D01*
D50*
X135810000Y-111640000D02*
X136130000Y-111960000D01*
D58*
X122280000Y-104865000D02*
X122365000Y-104865000D01*
D49*
X116050000Y-126810000D02*
X115940000Y-126920000D01*
D51*
X125520000Y-116440000D02*
X125360000Y-116440000D01*
D49*
X120940000Y-124600000D02*
X120960000Y-124620000D01*
D53*
X122175000Y-111705000D02*
X120629832Y-111705000D01*
D52*
X127460000Y-129160000D02*
X127250000Y-129160000D01*
D51*
X127270000Y-122350000D02*
X127760000Y-122840000D01*
D50*
X130321820Y-115921820D02*
X130291820Y-115921820D01*
X129430000Y-117250000D02*
X129440000Y-117240000D01*
X134390000Y-116510000D02*
X134020000Y-116140000D01*
D49*
X124250000Y-111280000D02*
X124250000Y-111110000D01*
D50*
X132570000Y-118350000D02*
X133120000Y-118900000D01*
X132900000Y-119740000D02*
X132890000Y-119750000D01*
D58*
X122917340Y-106450000D02*
X124400000Y-106450000D01*
D53*
X111454832Y-125783120D02*
X111067952Y-126170000D01*
D56*
X133000000Y-119980000D02*
X133000000Y-120650000D01*
D55*
X129480000Y-117820000D02*
X129480000Y-117510000D01*
D52*
X129060000Y-113600000D02*
X128680000Y-113980000D01*
X137490000Y-113980000D02*
X137490000Y-110130000D01*
D50*
X130125000Y-116805704D02*
X130125000Y-116225000D01*
X134630000Y-117340000D02*
X134590000Y-117380000D01*
D52*
X129590000Y-114876674D02*
X130103326Y-115390000D01*
D50*
X133970000Y-117600000D02*
X133970000Y-118065000D01*
D53*
X109980000Y-126460000D02*
X109860000Y-126580000D01*
D49*
X115979832Y-125720000D02*
X115979832Y-125880168D01*
D50*
X134210000Y-116140000D02*
X134600000Y-116530000D01*
X136660000Y-114410000D02*
X137040000Y-114030000D01*
X123110000Y-115805000D02*
X123155000Y-115850000D01*
D59*
X122365000Y-105897660D02*
X122365000Y-107015000D01*
D48*
X110740000Y-105790000D02*
X110760000Y-105810000D01*
D49*
X115280000Y-126350000D02*
X115280000Y-126870000D01*
D53*
X119140000Y-111640000D02*
X119205000Y-111705000D01*
D50*
X133320000Y-119750000D02*
X133310000Y-119740000D01*
D48*
X130730000Y-115920000D02*
X130310000Y-115500000D01*
D53*
X124260000Y-110150000D02*
X124590000Y-110480000D01*
D52*
X129390000Y-125460000D02*
X129370000Y-125480000D01*
D50*
X134810000Y-117030000D02*
X134630000Y-116850000D01*
D55*
X110520000Y-127030000D02*
X110550000Y-127000000D01*
D48*
X108082778Y-108105000D02*
X107380000Y-108807778D01*
D53*
X130320000Y-117986880D02*
X130246880Y-118060000D01*
X131785000Y-118125000D02*
X130458120Y-118125000D01*
D48*
X110760000Y-105810000D02*
X110815000Y-105810000D01*
D52*
X130143326Y-115430000D02*
X128950000Y-114236674D01*
D55*
X115870000Y-125920000D02*
X115870000Y-125870000D01*
X129900000Y-118040000D02*
X129900000Y-117870000D01*
D52*
X129060000Y-114236674D02*
X129060000Y-113600000D01*
D51*
X125060000Y-117920000D02*
X125060000Y-117260000D01*
X129440000Y-119960000D02*
X129440000Y-122200000D01*
D50*
X109910000Y-106930000D02*
X108830000Y-106930000D01*
D56*
X133585000Y-120385000D02*
X133420000Y-120220000D01*
D50*
X125630000Y-132195000D02*
X126040000Y-132195000D01*
D53*
X105279832Y-122705000D02*
X110182952Y-122705000D01*
D51*
X126210000Y-121950000D02*
X126200000Y-121940000D01*
D58*
X125290000Y-111760000D02*
X125290000Y-110130000D01*
D51*
X124060000Y-122000000D02*
X124130572Y-122000000D01*
D55*
X129780000Y-117890000D02*
X129550000Y-117890000D01*
D50*
X123155000Y-116485000D02*
X124070000Y-117400000D01*
D53*
X103690000Y-122070000D02*
X103730000Y-122110000D01*
D58*
X122365000Y-104865000D02*
X122365000Y-105840000D01*
D53*
X124070000Y-110910000D02*
X124070000Y-110340000D01*
D50*
X122150000Y-129210000D02*
X121900000Y-128960000D01*
X124855000Y-133700000D02*
X124855000Y-132970000D01*
X126040000Y-132195000D02*
X129520000Y-132195000D01*
X131925000Y-118125000D02*
X132020000Y-118030000D01*
D49*
X115954832Y-126654832D02*
X115960000Y-126660000D01*
D56*
X133490000Y-121140000D02*
X133700000Y-121140000D01*
D48*
X107970000Y-107349999D02*
X107970000Y-108010000D01*
D50*
X108200000Y-107670000D02*
X108440000Y-107910000D01*
D51*
X124523993Y-122363993D02*
X125686007Y-122363993D01*
D55*
X101620000Y-117880000D02*
X101620000Y-118330000D01*
D49*
X123085000Y-111705000D02*
X123730000Y-112350000D01*
X103210000Y-122020000D02*
X103340000Y-121890000D01*
D51*
X123840000Y-122160000D02*
X123840000Y-122020000D01*
X126753592Y-121631409D02*
X127108591Y-121631409D01*
D50*
X134950000Y-120890000D02*
X134270000Y-120210000D01*
D49*
X105279832Y-122705000D02*
X104245000Y-122705000D01*
D48*
X111340000Y-106180000D02*
X111330000Y-106170000D01*
D58*
X125430000Y-110530000D02*
X125430000Y-111530000D01*
D52*
X128280000Y-114870000D02*
X128280000Y-119463273D01*
D49*
X123790000Y-111940000D02*
X123770000Y-111920000D01*
X125250000Y-112590000D02*
X124720000Y-112590000D01*
D51*
X125060000Y-117920000D02*
X126390000Y-119250000D01*
D53*
X103940000Y-121810000D02*
X103940000Y-122320000D01*
D48*
X110220000Y-107625026D02*
X110220000Y-107056658D01*
X107970000Y-108010000D02*
X107630000Y-108350000D01*
D59*
X122370000Y-107730000D02*
X122370000Y-106860000D01*
D49*
X115979832Y-125880168D02*
X115440000Y-126420000D01*
D58*
X122365000Y-105840000D02*
X122365000Y-105897660D01*
D49*
X124070000Y-112180000D02*
X124070000Y-111900000D01*
D53*
X109920000Y-126640000D02*
X110480000Y-126640000D01*
D49*
X120490000Y-124580000D02*
X120940000Y-124580000D01*
D48*
X101010000Y-116340000D02*
X101010000Y-117380000D01*
D50*
X134160000Y-118075000D02*
X134160000Y-116360000D01*
D53*
X119205000Y-111705000D02*
X120629832Y-111705000D01*
X123790000Y-111190000D02*
X124070000Y-110910000D01*
D48*
X111310000Y-106400000D02*
X111340000Y-106370000D01*
D57*
X116395000Y-128845000D02*
X115950000Y-129290000D01*
D48*
X107826232Y-107486231D02*
X107966232Y-107346231D01*
D49*
X124810000Y-112040000D02*
X124890000Y-112040000D01*
D50*
X137060000Y-114880000D02*
X137380000Y-115200000D01*
X109710000Y-107520000D02*
X109840000Y-107650000D01*
D49*
X115954832Y-125747764D02*
X115954832Y-124880000D01*
D51*
X125070000Y-121830000D02*
X125170000Y-121930000D01*
D50*
X110360000Y-106520000D02*
X109930000Y-106950000D01*
D49*
X124260000Y-111120000D02*
X124650000Y-111120000D01*
D50*
X129430000Y-118190000D02*
X129430000Y-117250000D01*
D49*
X116260000Y-126040000D02*
X116290000Y-126070000D01*
X111880000Y-128490000D02*
X110860000Y-128490000D01*
D53*
X103730000Y-122110000D02*
X103690000Y-122150000D01*
D49*
X124090000Y-112380000D02*
X124270000Y-112560000D01*
D50*
X130291820Y-115921820D02*
X129960000Y-115590000D01*
D56*
X134380000Y-120290000D02*
X133870000Y-119780000D01*
D49*
X124680000Y-111910000D02*
X124810000Y-112040000D01*
D53*
X124590000Y-110480000D02*
X124590000Y-110710000D01*
D49*
X115520000Y-129720000D02*
X115520000Y-130820000D01*
D51*
X126000000Y-132155000D02*
X126040000Y-132195000D01*
X125070000Y-121280000D02*
X125160000Y-121370000D01*
D49*
X124230000Y-112120000D02*
X124230000Y-111710000D01*
D55*
X129480000Y-117510000D02*
X129630000Y-117660000D01*
D49*
X123730000Y-112350000D02*
X123730000Y-112130000D01*
D51*
X125070000Y-121150000D02*
X125070000Y-121280000D01*
D52*
X128090000Y-113420000D02*
X128070000Y-113440000D01*
D48*
X101010000Y-116340000D02*
X101138369Y-116340000D01*
X110876658Y-106400000D02*
X111310000Y-106400000D01*
X130310000Y-115500000D02*
X130210000Y-115500000D01*
D49*
X123490000Y-128220000D02*
X123550000Y-128280000D01*
D51*
X125210000Y-119650000D02*
X125850000Y-119650000D01*
D52*
X128730000Y-114610000D02*
X126600000Y-112480000D01*
D53*
X103690000Y-121840000D02*
X103690000Y-122070000D01*
X104129832Y-122030000D02*
X104129832Y-122459832D01*
D58*
X125430000Y-111530000D02*
X126210000Y-112310000D01*
D49*
X115280000Y-127250000D02*
X116360000Y-127250000D01*
X126240000Y-127540000D02*
X126240000Y-128940000D01*
X125098579Y-128263602D02*
X125098579Y-128201421D01*
X123080000Y-111190000D02*
X124070000Y-112180000D01*
X115954832Y-125747764D02*
X115632596Y-126070000D01*
D50*
X134810000Y-117570000D02*
X134810000Y-117030000D01*
D49*
X107454831Y-110518911D02*
X107454832Y-109530000D01*
X124680000Y-112030000D02*
X124680000Y-111910000D01*
D48*
X110110000Y-107590000D02*
X109700000Y-108000000D01*
D49*
X114870000Y-131470000D02*
X113650000Y-131470000D01*
D57*
X115460000Y-126900000D02*
X116260000Y-127700000D01*
D50*
X137540000Y-115879341D02*
X137257869Y-115879341D01*
D55*
X133830000Y-118050000D02*
X133780000Y-118100000D01*
D50*
X125340000Y-118830000D02*
X125060000Y-118550000D01*
D49*
X123690000Y-128210000D02*
X124070000Y-127830000D01*
D52*
X126780000Y-112480000D02*
X127395990Y-112480000D01*
D51*
X125250000Y-119870000D02*
X125210000Y-119910000D01*
D49*
X124070000Y-127830000D02*
X123880000Y-127830000D01*
X116270000Y-126920000D02*
X116300000Y-126890000D01*
X116220000Y-126040000D02*
X116260000Y-126040000D01*
D50*
X110965000Y-105960000D02*
X110720000Y-105960000D01*
X134010000Y-116140000D02*
X134210000Y-116140000D01*
D49*
X120940000Y-124050000D02*
X120664832Y-123774832D01*
D50*
X134490000Y-117760000D02*
X134920000Y-117760000D01*
X130312500Y-117908670D02*
X130312500Y-116993204D01*
D53*
X110630000Y-126810000D02*
X110630000Y-126640000D01*
D51*
X124730000Y-121810000D02*
X124730000Y-121830000D01*
D50*
X133637107Y-117700000D02*
X133930000Y-117407107D01*
D51*
X125060000Y-117920000D02*
X123310000Y-116170000D01*
D55*
X129720000Y-118230000D02*
X129840000Y-118110000D01*
D51*
X128620000Y-119770000D02*
X128620000Y-119110000D01*
D48*
X103344832Y-120940000D02*
X103340000Y-120940000D01*
D52*
X131317500Y-126127500D02*
X131230000Y-126040000D01*
D48*
X110400000Y-105756658D02*
X110400000Y-105820000D01*
D51*
X127420000Y-122400000D02*
X126670000Y-121650000D01*
D49*
X123840000Y-108780000D02*
X122670000Y-107610000D01*
D50*
X133930000Y-116600000D02*
X133930000Y-117407107D01*
D49*
X116480000Y-126259999D02*
X116467067Y-126259999D01*
X115630000Y-126920000D02*
X116270000Y-126920000D01*
D51*
X129380000Y-119900000D02*
X129440000Y-119960000D01*
D53*
X103540000Y-122150000D02*
X103910000Y-121780000D01*
D52*
X128550000Y-113850000D02*
X128550000Y-113420000D01*
D50*
X108440000Y-107910000D02*
X108950000Y-107910000D01*
D53*
X131945000Y-118075000D02*
X132080000Y-118210000D01*
D51*
X125686007Y-122363993D02*
X125830000Y-122220000D01*
D50*
X110360000Y-106410000D02*
X110360000Y-106520000D01*
X137790000Y-116019341D02*
X137790000Y-120650000D01*
D55*
X130590000Y-119970000D02*
X130710000Y-120090000D01*
D49*
X124590000Y-112570000D02*
X124590000Y-112320000D01*
D50*
X135660000Y-114281472D02*
X135660000Y-111620000D01*
D58*
X124300000Y-107900000D02*
X124190000Y-108010000D01*
D51*
X127108591Y-121631409D02*
X127420000Y-121942818D01*
D55*
X129520000Y-118100000D02*
X129520000Y-118210000D01*
D49*
X126460000Y-128300000D02*
X126460000Y-128770000D01*
D51*
X124130572Y-122000000D02*
X124935286Y-121195286D01*
D49*
X123960000Y-112100000D02*
X123960000Y-112380000D01*
D50*
X133830000Y-117700000D02*
X133460000Y-117700000D01*
X135510000Y-111640000D02*
X135810000Y-111640000D01*
X129590000Y-118286170D02*
X129493830Y-118190000D01*
X137520000Y-114030000D02*
X137060000Y-114490000D01*
D49*
X116277068Y-126070000D02*
X115979832Y-125772764D01*
X123770000Y-111920000D02*
X123780000Y-111920000D01*
D50*
X122150000Y-129225000D02*
X122150000Y-129210000D01*
D57*
X114080000Y-130190000D02*
X115050000Y-130190000D01*
D49*
X123790000Y-112410000D02*
X123790000Y-111940000D01*
D50*
X134790000Y-117590000D02*
X134810000Y-117570000D01*
D54*
X134930000Y-112220000D02*
X135630000Y-112220000D01*
D51*
X129750000Y-116490000D02*
X129750000Y-116250000D01*
D50*
X130312500Y-117637500D02*
X130312500Y-117908670D01*
D49*
X115290000Y-126880000D02*
X115280000Y-126890000D01*
D50*
X134490000Y-120290000D02*
X135070000Y-120870000D01*
D49*
X122000000Y-127260000D02*
X122000000Y-127110000D01*
X122500000Y-111570000D02*
X122960000Y-111570000D01*
D53*
X124310000Y-110770000D02*
X124300000Y-110760000D01*
D56*
X134020000Y-120610000D02*
X133765000Y-120355000D01*
D52*
X130103326Y-115390000D02*
X130260000Y-115390000D01*
D50*
X132890000Y-119280000D02*
X132560000Y-118950000D01*
D58*
X122365000Y-105275000D02*
X122365000Y-105897660D01*
D49*
X124470000Y-111820000D02*
X124470000Y-112240000D01*
D55*
X133830000Y-116240000D02*
X133830000Y-118050000D01*
D53*
X103520000Y-121690000D02*
X103520000Y-122010000D01*
D50*
X110720000Y-105960000D02*
X110490000Y-105730000D01*
D52*
X125540000Y-112475788D02*
X125540000Y-112600000D01*
D53*
X103910000Y-122000000D02*
X104029832Y-122119832D01*
D49*
X115610000Y-126510000D02*
X115610000Y-126900000D01*
D48*
X107590000Y-108540000D02*
X107590000Y-108400000D01*
D50*
X129960000Y-115590000D02*
X129960000Y-118010000D01*
D52*
X137600000Y-110130000D02*
X137460000Y-109990000D01*
D49*
X103360000Y-121010000D02*
X103350000Y-121000000D01*
D51*
X125984418Y-115975582D02*
X125520000Y-116440000D01*
X124043993Y-122363993D02*
X123840000Y-122160000D01*
X125760000Y-119870000D02*
X125250000Y-119870000D01*
D49*
X116090000Y-126810000D02*
X116050000Y-126810000D01*
D51*
X125365000Y-121955000D02*
X125620000Y-121700000D01*
D49*
X124115000Y-112735000D02*
X124370000Y-112990000D01*
X124370000Y-111570000D02*
X124370000Y-112330000D01*
D58*
X124400000Y-106450000D02*
X124410000Y-106440000D01*
D49*
X124070000Y-110910000D02*
X124070000Y-112180000D01*
X120490000Y-124580000D02*
X120510000Y-124600000D01*
D57*
X123140000Y-115730000D02*
X123140000Y-115190000D01*
D48*
X131250000Y-116330000D02*
X130840000Y-115920000D01*
D50*
X137470000Y-114010000D02*
X137510000Y-114050000D01*
X109395000Y-107520000D02*
X109710000Y-107520000D01*
D52*
X128820000Y-127340000D02*
X129780000Y-126380000D01*
D55*
X129480000Y-118040000D02*
X129480000Y-117840000D01*
D49*
X116470000Y-126420000D02*
X116070000Y-126020000D01*
D51*
X129200000Y-119580000D02*
X129200000Y-117040000D01*
D59*
X123840000Y-109200000D02*
X122370000Y-107730000D01*
D57*
X116395000Y-128215000D02*
X115380000Y-127200000D01*
D53*
X103520000Y-122010000D02*
X103690000Y-121840000D01*
D50*
X130420000Y-118016170D02*
X130478830Y-118075000D01*
X134390000Y-117590000D02*
X134790000Y-117590000D01*
D49*
X115540000Y-126070000D02*
X115540000Y-126090000D01*
D51*
X125060000Y-122120000D02*
X125290000Y-122350000D01*
D55*
X115904832Y-125885168D02*
X115904832Y-125610000D01*
D49*
X124430000Y-112390000D02*
X124430000Y-111510000D01*
X116470000Y-126840000D02*
X116470000Y-126420000D01*
D54*
X134130000Y-112220000D02*
X133150000Y-112220000D01*
D50*
X124190000Y-127730000D02*
X124200000Y-127740000D01*
D55*
X101884300Y-115635700D02*
X101180000Y-116340000D01*
D49*
X116090000Y-127119999D02*
X116229999Y-126980000D01*
D50*
X131920000Y-118860000D02*
X131920000Y-118240000D01*
X123340000Y-117400000D02*
X123110000Y-117170000D01*
X135130000Y-117550000D02*
X135130000Y-117060000D01*
D49*
X124690000Y-111250000D02*
X124690000Y-111600000D01*
D51*
X127420000Y-121942818D02*
X127420000Y-122400000D01*
X125290000Y-122350000D02*
X127270000Y-122350000D01*
D53*
X103910000Y-122000000D02*
X103910000Y-121770000D01*
D51*
X129520000Y-118100000D02*
X129440000Y-118180000D01*
D49*
X124710000Y-112200000D02*
X124880000Y-112200000D01*
D48*
X110815000Y-105810000D02*
X110965000Y-105960000D01*
D53*
X110630000Y-126607952D02*
X110630000Y-126810000D01*
D52*
X129590000Y-113390000D02*
X129590000Y-114876674D01*
X128090000Y-113420000D02*
X128550000Y-113420000D01*
D49*
X125240000Y-128060000D02*
X125240000Y-127540000D01*
X123780000Y-111920000D02*
X123960000Y-112100000D01*
D50*
X108740000Y-107670000D02*
X108785000Y-107625000D01*
D49*
X116280000Y-126390000D02*
X116150000Y-126260000D01*
D50*
X134090000Y-116330000D02*
X133930000Y-116330000D01*
D58*
X125795000Y-107825000D02*
X125795000Y-109140000D01*
D50*
X137380000Y-115200000D02*
X137400000Y-115200000D01*
D51*
X124410000Y-122160000D02*
X124800000Y-122160000D01*
D50*
X124855000Y-132970000D02*
X125630000Y-132195000D01*
D52*
X126510000Y-111594010D02*
X126510000Y-111410000D01*
D50*
X134390000Y-116510000D02*
X134390000Y-117590000D01*
D48*
X110170000Y-105720000D02*
X110330000Y-105560000D01*
D51*
X129780000Y-116520000D02*
X129750000Y-116490000D01*
D49*
X115440000Y-127070000D02*
X116320000Y-127070000D01*
D55*
X129550000Y-117890000D02*
X129480000Y-117820000D01*
D53*
X111454832Y-124880000D02*
X111454832Y-125783120D01*
D52*
X126550345Y-112513671D02*
X127273337Y-113236663D01*
D51*
X128620000Y-119770000D02*
X129010000Y-119770000D01*
D54*
X134930000Y-112220000D02*
X134130000Y-112220000D01*
D52*
X129310000Y-119270000D02*
X129310000Y-117210000D01*
D55*
X115700000Y-126090000D02*
X115870000Y-125920000D01*
D52*
X126600000Y-112480000D02*
X124380000Y-112480000D01*
D51*
X129305000Y-120345000D02*
X128860000Y-119900000D01*
D50*
X108785000Y-107625000D02*
X108890000Y-107520000D01*
D56*
X134430000Y-120730000D02*
X134365000Y-120795000D01*
D48*
X103340000Y-120940000D02*
X103240000Y-121040000D01*
D53*
X104130000Y-122000000D02*
X103860000Y-121730000D01*
D51*
X124730000Y-121830000D02*
X124560000Y-122000000D01*
D58*
X124410000Y-106440000D02*
X125090000Y-107120000D01*
D48*
X110640000Y-106540000D02*
X110190000Y-106990000D01*
D49*
X120664832Y-123774832D02*
X120664832Y-123240000D01*
X115954832Y-125747764D02*
X116090000Y-125882932D01*
D58*
X126210000Y-109570000D02*
X125470000Y-108830000D01*
D49*
X116070000Y-126020000D02*
X116030000Y-126020000D01*
D50*
X132560000Y-118950000D02*
X132010000Y-118950000D01*
D49*
X123640000Y-128210000D02*
X123690000Y-128210000D01*
D48*
X107454832Y-108730001D02*
X108079833Y-108105000D01*
D52*
X125540000Y-112600000D02*
X126010000Y-112600000D01*
D50*
X133120000Y-118900000D02*
X133120000Y-118175000D01*
D49*
X120510000Y-124600000D02*
X120940000Y-124600000D01*
D56*
X133870000Y-119770000D02*
X133210000Y-119770000D01*
D52*
X128720000Y-128620000D02*
X128820000Y-128720000D01*
X126210000Y-112310000D02*
X125705788Y-112310000D01*
D49*
X116640000Y-126970000D02*
X116630000Y-126960000D01*
D52*
X130780000Y-126127500D02*
X129332500Y-126127500D01*
D50*
X122150000Y-128750000D02*
X123497500Y-127402500D01*
X129610000Y-118010000D02*
X129866170Y-118010000D01*
D52*
X137110000Y-114080000D02*
X137390000Y-114080000D01*
D51*
X126000000Y-131630000D02*
X126000000Y-132155000D01*
D49*
X126460000Y-128770000D02*
X126470000Y-128780000D01*
D52*
X137080000Y-126127500D02*
X131317500Y-126127500D01*
D48*
X111330000Y-106170000D02*
X111000000Y-106170000D01*
D49*
X124115000Y-112670000D02*
X124050000Y-112670000D01*
%TO.N,Net-(U3-PC9)*%
D48*
X111454832Y-109530000D02*
X111454832Y-108715168D01*
X112940000Y-107230000D02*
X113520000Y-107230000D01*
X111454832Y-108715168D02*
X112940000Y-107230000D01*
%TO.N,/03_STM32H743_schematic/MOTOR_4*%
X114020000Y-106460000D02*
X114020000Y-107230000D01*
X114715000Y-104800000D02*
X114715000Y-105765000D01*
X114715000Y-105765000D02*
X114020000Y-106460000D01*
%TO.N,Net-(U3-VDDA)*%
D49*
X117430000Y-126850000D02*
X117280000Y-127000000D01*
D55*
X116610000Y-125600000D02*
X116640000Y-125600000D01*
D50*
X117722422Y-126480000D02*
X117460000Y-126480000D01*
D57*
X117945000Y-127875000D02*
X117650000Y-127580000D01*
D55*
X116454832Y-124880000D02*
X116454832Y-125633791D01*
D50*
X117460000Y-126480000D02*
X117240000Y-126260000D01*
D49*
X117080000Y-126223603D02*
X117090000Y-126233603D01*
D57*
X117930000Y-126570000D02*
X117610000Y-126250000D01*
D49*
X117730000Y-126260000D02*
X117475000Y-126005000D01*
D55*
X117000000Y-125757578D02*
X117242422Y-126000000D01*
D50*
X116680000Y-125420000D02*
X116680000Y-125437578D01*
D55*
X116640000Y-125600000D02*
X117140000Y-126100000D01*
D49*
X117090000Y-126233603D02*
X117090000Y-126820000D01*
D57*
X117430000Y-127825000D02*
X117945000Y-128340000D01*
X118110000Y-127630000D02*
X118110000Y-128240000D01*
D50*
X117430000Y-126760000D02*
X117150001Y-126760000D01*
D49*
X117290000Y-127010000D02*
X117650000Y-127010000D01*
D55*
X117432422Y-126190000D02*
X117000000Y-125757578D01*
D49*
X117270000Y-127000000D02*
X117280000Y-127000000D01*
D57*
X117945000Y-128340000D02*
X117945000Y-127875000D01*
D49*
X117560000Y-126370000D02*
X117560000Y-126830000D01*
D57*
X117650000Y-127170000D02*
X118110000Y-127630000D01*
D50*
X117150001Y-126090001D02*
X116580000Y-125520000D01*
D49*
X117650000Y-127010000D02*
X117730000Y-126930000D01*
D55*
X117000000Y-125560000D02*
X116650000Y-125560000D01*
D50*
X116580000Y-125520000D02*
X116680000Y-125420000D01*
D55*
X116650000Y-125560000D02*
X116610000Y-125600000D01*
D57*
X117650000Y-127580000D02*
X117650000Y-127170000D01*
X117945000Y-128340000D02*
X117945000Y-129787500D01*
X117650000Y-127580000D02*
X117850000Y-127580000D01*
D55*
X116860000Y-125760000D02*
X116860000Y-125570000D01*
D57*
X117430000Y-126760000D02*
X117430000Y-127825000D01*
D55*
X117000000Y-125757578D02*
X117000000Y-125560000D01*
D49*
X117430000Y-126760000D02*
X117430000Y-126573603D01*
X117150001Y-126760000D02*
X117090001Y-126700000D01*
D57*
X117945000Y-129787500D02*
X118127500Y-129970000D01*
X117930000Y-127500000D02*
X117930000Y-126570000D01*
D50*
X117150001Y-126760000D02*
X117150001Y-126090001D01*
D49*
X117430000Y-126760000D02*
X117430000Y-126850000D01*
D57*
X117850000Y-127580000D02*
X117930000Y-127500000D01*
D50*
X116680000Y-125437578D02*
X117722422Y-126480000D01*
D49*
X117280000Y-127000000D02*
X117290000Y-127010000D01*
X117195000Y-126005000D02*
X117560000Y-126370000D01*
X117475000Y-126005000D02*
X117195000Y-126005000D01*
X117730000Y-126930000D02*
X117730000Y-126260000D01*
X117090000Y-126820000D02*
X117270000Y-127000000D01*
X117080000Y-126700000D02*
X117080000Y-126223603D01*
X117090001Y-126700000D02*
X117080000Y-126700000D01*
%TO.N,+3V3*%
X103210000Y-122980000D02*
X103060000Y-122980000D01*
X121496423Y-124696423D02*
X121920000Y-125120000D01*
D48*
X102500000Y-122470000D02*
X102340000Y-122310000D01*
D55*
X102840000Y-119630000D02*
X102460000Y-120010000D01*
D52*
X121010000Y-132440000D02*
X120130000Y-131560000D01*
D51*
X126965000Y-120620000D02*
X126965000Y-120545000D01*
D52*
X130780000Y-128427500D02*
X130780000Y-129385000D01*
D53*
X120629832Y-111205000D02*
X121310000Y-111205000D01*
D59*
X108610001Y-105960000D02*
X107220000Y-107350001D01*
D49*
X121496423Y-124498546D02*
X121750000Y-124244969D01*
D52*
X120102500Y-130972500D02*
X120102500Y-129970000D01*
D51*
X126890000Y-120695000D02*
X126965000Y-120620000D01*
D52*
X125665000Y-130645000D02*
X125300000Y-131010000D01*
D48*
X102262946Y-120490000D02*
X102270000Y-120490000D01*
D53*
X108820000Y-126990000D02*
X108820000Y-126490000D01*
X109420000Y-125910000D02*
X109454832Y-125875168D01*
D59*
X107220000Y-107350001D02*
X107220000Y-107660000D01*
D53*
X108820000Y-126490000D02*
X109400000Y-125910000D01*
D49*
X109410000Y-105040000D02*
X109410000Y-105955000D01*
X102720000Y-122980000D02*
X103210000Y-122980000D01*
X122565000Y-126035000D02*
X122565000Y-127507500D01*
D51*
X127830000Y-120540000D02*
X127830000Y-120510000D01*
D49*
X121496423Y-124498546D02*
X121496423Y-124696423D01*
X102620000Y-122880000D02*
X102620000Y-122970000D01*
X123070000Y-110380000D02*
X123410000Y-110380000D01*
D48*
X102161473Y-120591473D02*
X102035000Y-120717946D01*
D51*
X128620000Y-120730000D02*
X128620000Y-121615000D01*
D48*
X102320000Y-122310000D02*
X102450000Y-122310000D01*
D50*
X126650000Y-131200000D02*
X126140000Y-130690000D01*
D55*
X102940000Y-119630000D02*
X102840000Y-119630000D01*
X101076301Y-110123975D02*
X101810276Y-109390000D01*
D48*
X102650000Y-122790000D02*
X102650000Y-122830000D01*
D53*
X103435000Y-123205000D02*
X103210000Y-122980000D01*
D49*
X122570000Y-126030000D02*
X122565000Y-126035000D01*
D53*
X111450000Y-126520000D02*
X111450000Y-127080000D01*
X122930000Y-110360000D02*
X122930000Y-110230000D01*
D51*
X128400000Y-121500000D02*
X128400000Y-121110000D01*
D48*
X102700000Y-123180000D02*
X102040000Y-122520000D01*
X103210000Y-122980000D02*
X103010000Y-123180000D01*
X102262946Y-120490000D02*
X102161473Y-120591473D01*
D55*
X101076301Y-111096301D02*
X101076301Y-110123975D01*
D51*
X127860000Y-120210000D02*
X128380000Y-120730000D01*
D48*
X102360000Y-122500000D02*
X102650000Y-122790000D01*
D49*
X120835000Y-122705000D02*
X120629832Y-122705000D01*
D51*
X123410000Y-110180000D02*
X123420000Y-110170000D01*
X126965000Y-120545000D02*
X127090000Y-120420000D01*
D49*
X121750000Y-123452596D02*
X121754832Y-123447764D01*
D53*
X111050000Y-127480000D02*
X109310000Y-127480000D01*
D48*
X102460000Y-120490000D02*
X102262946Y-120490000D01*
D55*
X102460000Y-120010000D02*
X102460000Y-120490000D01*
D49*
X121750000Y-124244969D02*
X121750000Y-123452596D01*
X123410000Y-110380000D02*
X123470000Y-110320000D01*
D48*
X102140000Y-122310000D02*
X102320000Y-122490000D01*
X102640000Y-122500000D02*
X102360000Y-122500000D01*
D55*
X103240000Y-116500000D02*
X103055000Y-116315000D01*
D52*
X123990000Y-131010000D02*
X123910000Y-131010000D01*
D48*
X102035000Y-122295000D02*
X102210000Y-122470000D01*
D59*
X106850000Y-109390000D02*
X106854832Y-109394832D01*
D53*
X109400000Y-125910000D02*
X109420000Y-125910000D01*
D52*
X130780000Y-129385000D02*
X129520000Y-130645000D01*
D49*
X123470000Y-110320000D02*
X123350000Y-110200000D01*
D48*
X102035000Y-120717946D02*
X102035000Y-122295000D01*
D49*
X102720000Y-122980000D02*
X102720000Y-122690000D01*
D51*
X128000000Y-121500000D02*
X128400000Y-121500000D01*
D50*
X128480000Y-131200000D02*
X126650000Y-131200000D01*
D53*
X109310000Y-127480000D02*
X108820000Y-126990000D01*
X102835000Y-123205000D02*
X102640000Y-123010000D01*
D59*
X107220000Y-107660000D02*
X107220000Y-107350000D01*
D49*
X106830000Y-110710000D02*
X106830000Y-109654832D01*
D52*
X129520000Y-130645000D02*
X125665000Y-130645000D01*
D49*
X121754832Y-123447764D02*
X121754832Y-122962236D01*
X109410000Y-105955000D02*
X109415000Y-105960000D01*
D48*
X102340000Y-122310000D02*
X102140000Y-122310000D01*
D51*
X127710000Y-120510000D02*
X127570000Y-120650000D01*
D48*
X102237946Y-120515000D02*
X102400000Y-120515000D01*
D51*
X122115000Y-110395000D02*
X122330000Y-110180000D01*
X127330000Y-120830000D02*
X128000000Y-121500000D01*
D52*
X122480000Y-132440000D02*
X121010000Y-132440000D01*
X123910000Y-131010000D02*
X122480000Y-132440000D01*
D48*
X102040000Y-122520000D02*
X102040000Y-122410000D01*
D51*
X126890000Y-120990000D02*
X126890000Y-120695000D01*
D55*
X101470000Y-111490000D02*
X100600000Y-112360000D01*
D53*
X108550000Y-123440000D02*
X108890000Y-123440000D01*
D55*
X100600000Y-112810000D02*
X100600000Y-112820000D01*
D51*
X127570000Y-120650000D02*
X128140000Y-121220000D01*
D49*
X120860000Y-122730000D02*
X120835000Y-122705000D01*
D55*
X103040000Y-117610000D02*
X103240000Y-117410000D01*
D49*
X123070000Y-110370000D02*
X123070000Y-110380000D01*
X120629832Y-122705000D02*
X120654832Y-122680000D01*
X121522596Y-122730000D02*
X120860000Y-122730000D01*
X106830000Y-109654832D02*
X106954832Y-109530000D01*
D55*
X103240000Y-117410000D02*
X103240000Y-116500000D01*
D51*
X127290000Y-120420000D02*
X127650000Y-120420000D01*
X127315000Y-121060000D02*
X126960000Y-121060000D01*
D53*
X111954832Y-126015168D02*
X111450000Y-126520000D01*
D48*
X103010000Y-123180000D02*
X102700000Y-123180000D01*
D49*
X122570000Y-125770000D02*
X122570000Y-126030000D01*
D59*
X107220000Y-107350000D02*
X106850000Y-107720000D01*
D49*
X123150000Y-110200000D02*
X123110000Y-110160000D01*
X103505000Y-123205000D02*
X103310000Y-123010000D01*
X123350000Y-110200000D02*
X123150000Y-110200000D01*
D51*
X127090000Y-120420000D02*
X127290000Y-120420000D01*
D53*
X124907485Y-113430000D02*
X124937485Y-113460000D01*
X105279832Y-123205000D02*
X103435000Y-123205000D01*
D49*
X102930000Y-122970000D02*
X103000000Y-123040000D01*
D48*
X102040000Y-122520000D02*
X102040000Y-122200000D01*
D53*
X111910000Y-123320000D02*
X111954832Y-123364832D01*
D51*
X126960000Y-121060000D02*
X126890000Y-120990000D01*
X122330000Y-110180000D02*
X123410000Y-110180000D01*
X128380000Y-120730000D02*
X128620000Y-120730000D01*
X127290000Y-120810000D02*
X127270000Y-120830000D01*
X127650000Y-120420000D02*
X127860000Y-120210000D01*
X122115000Y-110400000D02*
X122115000Y-110395000D01*
D52*
X120130000Y-131560000D02*
X120130000Y-131000000D01*
D51*
X127270000Y-120830000D02*
X127330000Y-120830000D01*
X128620000Y-121615000D02*
X128245000Y-121990000D01*
D59*
X106850000Y-107720000D02*
X106850000Y-108150000D01*
D53*
X111954832Y-124880000D02*
X111954832Y-126015168D01*
D48*
X102210000Y-122470000D02*
X102720000Y-122980000D01*
D59*
X106850000Y-108030000D02*
X106850000Y-109390000D01*
D52*
X120130000Y-131000000D02*
X120102500Y-130972500D01*
D53*
X108890000Y-123440000D02*
X108903976Y-123426024D01*
X120424832Y-111000000D02*
X120629832Y-111205000D01*
D48*
X102270000Y-120490000D02*
X102470000Y-120290000D01*
D53*
X124937485Y-113460000D02*
X125370000Y-113460000D01*
X111450000Y-127080000D02*
X111050000Y-127480000D01*
D49*
X122930000Y-110230000D02*
X123070000Y-110370000D01*
D59*
X107220000Y-107660000D02*
X106850000Y-108030000D01*
D55*
X103040000Y-117610000D02*
X103040000Y-117820000D01*
D49*
X122565000Y-127507500D02*
X120102500Y-129970000D01*
D51*
X128245000Y-121990000D02*
X127315000Y-121060000D01*
D53*
X119120000Y-111000000D02*
X120424832Y-111000000D01*
X103505000Y-123205000D02*
X102835000Y-123205000D01*
D51*
X127830000Y-120510000D02*
X127710000Y-120510000D01*
X128400000Y-121110000D02*
X127830000Y-120540000D01*
D55*
X103040000Y-117820000D02*
X102480000Y-117820000D01*
D49*
X102620000Y-122970000D02*
X102930000Y-122970000D01*
D48*
X102040000Y-122410000D02*
X102660000Y-123030000D01*
D53*
X122115000Y-110400000D02*
X122970000Y-110400000D01*
D49*
X105279832Y-123205000D02*
X103505000Y-123205000D01*
D48*
X102450000Y-122310000D02*
X102640000Y-122500000D01*
D55*
X100600000Y-112360000D02*
X100600000Y-112810000D01*
D53*
X111954832Y-123364832D02*
X111954832Y-124880000D01*
D52*
X125300000Y-131010000D02*
X123990000Y-131010000D01*
D50*
X129520000Y-130645000D02*
X129035000Y-130645000D01*
D51*
X127290000Y-120420000D02*
X127290000Y-120810000D01*
D53*
X105279832Y-123205000D02*
X108682952Y-123205000D01*
D50*
X129035000Y-130645000D02*
X128480000Y-131200000D01*
D55*
X101810276Y-109390000D02*
X106850000Y-109390000D01*
X101470000Y-111490000D02*
X101076301Y-111096301D01*
D53*
X109454832Y-124880000D02*
X109454832Y-123976880D01*
D49*
X102720000Y-122690000D02*
X102500000Y-122470000D01*
X121920000Y-125120000D02*
X122570000Y-125770000D01*
D48*
X102320000Y-122490000D02*
X102320000Y-122310000D01*
D53*
X109454832Y-125875168D02*
X109454832Y-124880000D01*
X109454832Y-123976880D02*
X108682952Y-123205000D01*
D48*
X102161473Y-120591473D02*
X102237946Y-120515000D01*
D59*
X109415000Y-105960000D02*
X108610001Y-105960000D01*
D49*
X103060000Y-122980000D02*
X102560000Y-122480000D01*
X121754832Y-122962236D02*
X121522596Y-122730000D01*
D59*
X106854832Y-109394832D02*
X106854832Y-110080000D01*
D53*
X121310000Y-111205000D02*
X122115000Y-110400000D01*
D55*
X103050000Y-119520000D02*
X102940000Y-119630000D01*
%TO.N,Net-(U1-TR{slash}SS)*%
X131270000Y-118610000D02*
X130140000Y-118610000D01*
X131280000Y-118600000D02*
X131270000Y-118610000D01*
%TO.N,+26V_prefiltered*%
D60*
X128930000Y-109300000D02*
X128930000Y-111410000D01*
D52*
X129470000Y-107120000D02*
X131300000Y-107120000D01*
D50*
X132311308Y-116193907D02*
X131945192Y-115827791D01*
X132680000Y-116780000D02*
X133010000Y-116780000D01*
X132400000Y-116780000D02*
X132570000Y-116950000D01*
X128600000Y-111500000D02*
X128830000Y-111500000D01*
X131194882Y-114984882D02*
X131060000Y-114984882D01*
X133302500Y-116586330D02*
X132856116Y-116139946D01*
X133302500Y-116586330D02*
X133302500Y-116950000D01*
X131620000Y-114633884D02*
X131620000Y-113290000D01*
D55*
X133302500Y-116586330D02*
X133302500Y-116444910D01*
D50*
X132570000Y-116950000D02*
X133010000Y-116950000D01*
D52*
X130330000Y-109850000D02*
X129690000Y-109850000D01*
X131650000Y-107470000D02*
X131650000Y-107600000D01*
D54*
X130597981Y-113054479D02*
X130597981Y-114142019D01*
D55*
X133402500Y-116686330D02*
X133302500Y-116586330D01*
D50*
X132645000Y-115900000D02*
X132645000Y-116038830D01*
D54*
X129500000Y-111410000D02*
X131370000Y-113280000D01*
D50*
X132421308Y-116193907D02*
X132421308Y-116758692D01*
X132645000Y-115900000D02*
X132600000Y-115900000D01*
D55*
X133302500Y-116444910D02*
X133090000Y-116232410D01*
D50*
X130640000Y-114564882D02*
X130640000Y-113966170D01*
D54*
X128780000Y-111560000D02*
X128780000Y-112050000D01*
D52*
X130200000Y-105710000D02*
X129310000Y-105710000D01*
D60*
X130155000Y-106425000D02*
X132260000Y-108530000D01*
D61*
X131360000Y-115130000D02*
X131360000Y-114818094D01*
D55*
X131760000Y-115530000D02*
X131760000Y-115770000D01*
D50*
X132421308Y-116521308D02*
X132680000Y-116780000D01*
D60*
X131220000Y-110740000D02*
X130330000Y-109850000D01*
D50*
X131620000Y-113290000D02*
X131300000Y-112970000D01*
X133010000Y-116780000D02*
X133010000Y-116740000D01*
D60*
X129780000Y-109300000D02*
X128930000Y-109300000D01*
D54*
X130597981Y-114142019D02*
X130938625Y-114482663D01*
D61*
X131200000Y-114658094D02*
X131780000Y-115238094D01*
D50*
X131777401Y-115550000D02*
X132421308Y-116193907D01*
D60*
X132260000Y-108530000D02*
X132260000Y-110740000D01*
D55*
X132355000Y-116300000D02*
X132355000Y-117200000D01*
D50*
X131945192Y-115735192D02*
X131194882Y-114984882D01*
D55*
X132355000Y-117200000D02*
X133402500Y-117200000D01*
D50*
X128830000Y-111500000D02*
X128970000Y-111640000D01*
X131945192Y-115827791D02*
X131945192Y-115735192D01*
D52*
X132260000Y-110740000D02*
X133000000Y-110000000D01*
X128300000Y-106425000D02*
X128775000Y-106425000D01*
D61*
X130940000Y-114398094D02*
X130940000Y-113841906D01*
D54*
X130938625Y-114482663D02*
X130938625Y-114701375D01*
D50*
X132600000Y-115900000D02*
X132200000Y-115500000D01*
X132041116Y-115055000D02*
X131620000Y-114633884D01*
X132856116Y-116139946D02*
X132856116Y-115870000D01*
D60*
X128300000Y-106425000D02*
X130155000Y-106425000D01*
D52*
X131300000Y-107120000D02*
X131650000Y-107470000D01*
D50*
X131760000Y-115550000D02*
X131777401Y-115550000D01*
D61*
X131200000Y-113300000D02*
X131200000Y-114658094D01*
D50*
X128970000Y-111640000D02*
X128970000Y-111380000D01*
X133010000Y-116950000D02*
X133110000Y-117050000D01*
D49*
X131730000Y-113260000D02*
X131630000Y-113260000D01*
D52*
X133000000Y-110000000D02*
X133000000Y-108510000D01*
X129690000Y-109850000D02*
X129330000Y-110210000D01*
D60*
X132260000Y-110740000D02*
X131220000Y-110740000D01*
D54*
X129772792Y-112050000D02*
X130456751Y-112733959D01*
D49*
X131750000Y-114657818D02*
X131750000Y-113300000D01*
D50*
X131060000Y-114984882D02*
X130640000Y-114564882D01*
D52*
X133000000Y-108510000D02*
X130200000Y-105710000D01*
D60*
X130330000Y-109850000D02*
X129780000Y-109300000D01*
X128930000Y-111410000D02*
X128780000Y-111560000D01*
D49*
X132147182Y-115055000D02*
X131750000Y-114657818D01*
D52*
X128775000Y-106425000D02*
X129470000Y-107120000D01*
D50*
X132421308Y-116758692D02*
X132400000Y-116780000D01*
D61*
X131360000Y-114749196D02*
X131360000Y-115130000D01*
D50*
X132645000Y-116038830D02*
X133192500Y-116586330D01*
D55*
X133402500Y-117200000D02*
X133402500Y-116686330D01*
D50*
X132856116Y-115870000D02*
X131763058Y-114776942D01*
X133010000Y-116740000D02*
X132640000Y-116370000D01*
X132421308Y-116193907D02*
X132421308Y-116521308D01*
D61*
X131360000Y-114818094D02*
X130940000Y-114398094D01*
D54*
X128780000Y-112050000D02*
X129772792Y-112050000D01*
%TO.N,Net-(U3-PC7)*%
D48*
X116230000Y-107540000D02*
X115665000Y-108105000D01*
X116230000Y-107540000D02*
X116230000Y-107230000D01*
X112454832Y-108725168D02*
X112454832Y-109530000D01*
X115665000Y-108105000D02*
X113075000Y-108105000D01*
X113075000Y-108105000D02*
X112454832Y-108725168D01*
%TO.N,/03_STM32H743_schematic/MOTOR_2*%
X117215000Y-104800000D02*
X117215000Y-105905000D01*
X117215000Y-105905000D02*
X116730000Y-106390000D01*
X116730000Y-106390000D02*
X116730000Y-107230000D01*
%TO.N,Net-(C25-Pad1)*%
X108029832Y-108660168D02*
X107910000Y-108780000D01*
X107920000Y-108790000D02*
X107920000Y-108910000D01*
X110820000Y-107520000D02*
X109885000Y-108455000D01*
X110945000Y-107520000D02*
X110820000Y-107520000D01*
D49*
X120629832Y-112205000D02*
X122100000Y-112205000D01*
D48*
X108029832Y-109040000D02*
X108029832Y-108657946D01*
X108029832Y-108657946D02*
X108029832Y-108660168D01*
D49*
X112070000Y-110970000D02*
X113305000Y-112205000D01*
D48*
X109885000Y-108455000D02*
X108232778Y-108455000D01*
D49*
X111670000Y-107520000D02*
X110945000Y-107520000D01*
X113305000Y-112205000D02*
X120629832Y-112205000D01*
D48*
X108232778Y-108455000D02*
X108029832Y-108657946D01*
D49*
X122100000Y-112205000D02*
X122565000Y-112670000D01*
D48*
X107910000Y-108780000D02*
X107920000Y-108790000D01*
%TO.N,+5V*%
D56*
X132610000Y-124760000D02*
X133140000Y-124760000D01*
D49*
X132800000Y-114152182D02*
X132800000Y-113670000D01*
D59*
X134300000Y-113540000D02*
X134560000Y-113800000D01*
X134950000Y-113200000D02*
X133550000Y-113200000D01*
X134290000Y-114290000D02*
X134290000Y-113540000D01*
X134700000Y-113540000D02*
X134300000Y-113540000D01*
X134290000Y-113420000D02*
X133660000Y-113420000D01*
D50*
X136490000Y-117320000D02*
X136070000Y-116900000D01*
D59*
X134560000Y-114560000D02*
X134290000Y-114290000D01*
D56*
X132070000Y-124760000D02*
X132610000Y-124760000D01*
D55*
X134300000Y-114345000D02*
X134665000Y-114710000D01*
D50*
X136210000Y-116940000D02*
X136210000Y-115820000D01*
D59*
X134935000Y-114445000D02*
X135010000Y-114520000D01*
D50*
X136480000Y-117100000D02*
X136700000Y-117320000D01*
D59*
X134645000Y-114710000D02*
X134910000Y-114445000D01*
D51*
X123605000Y-132955000D02*
X124280000Y-132280000D01*
D52*
X128872500Y-123827500D02*
X128700000Y-124000000D01*
D59*
X134645000Y-113775000D02*
X134290000Y-113420000D01*
D52*
X130780000Y-123827500D02*
X128872500Y-123827500D01*
D51*
X123605000Y-133700000D02*
X123605000Y-132955000D01*
D59*
X134645000Y-114710000D02*
X134645000Y-113775000D01*
D50*
X135010000Y-114480000D02*
X135010000Y-114365000D01*
D49*
X134665000Y-114710000D02*
X134530000Y-114710000D01*
X134645000Y-114710000D02*
X134115000Y-114180000D01*
D50*
X111145000Y-133700000D02*
X111145000Y-134775000D01*
X135800000Y-116900000D02*
X135800000Y-116260000D01*
X137150000Y-116700000D02*
X136710000Y-116700000D01*
X135300000Y-114910000D02*
X134800000Y-115410000D01*
X134800000Y-115410000D02*
X135090000Y-115410000D01*
X135010000Y-114365000D02*
X134665000Y-114710000D01*
X135980000Y-117070000D02*
X136010000Y-117100000D01*
D49*
X132860000Y-114180000D02*
X132843909Y-114196091D01*
D50*
X135690000Y-116260000D02*
X134850000Y-115420000D01*
X135090000Y-115410000D02*
X136620000Y-116940000D01*
D49*
X132843909Y-114196091D02*
X132800000Y-114152182D01*
D56*
X132070000Y-124760000D02*
X131712500Y-124760000D01*
D59*
X133550000Y-113200000D02*
X133550000Y-113400000D01*
D51*
X124280000Y-132280000D02*
X124370000Y-132280000D01*
D50*
X135870000Y-115915000D02*
X135870000Y-117070000D01*
D59*
X136700000Y-117320000D02*
X137040000Y-117320000D01*
D50*
X134665000Y-114710000D02*
X135870000Y-115915000D01*
X136010000Y-117100000D02*
X136480000Y-117100000D01*
D59*
X134530000Y-113710000D02*
X134700000Y-113540000D01*
D49*
X134115000Y-114180000D02*
X132860000Y-114180000D01*
D59*
X134530000Y-114200000D02*
X134530000Y-113710000D01*
X133550000Y-113400000D02*
X133750000Y-113600000D01*
X134920000Y-113290000D02*
X134920000Y-114435000D01*
X135010000Y-114520000D02*
X135010000Y-113260000D01*
D56*
X131712500Y-124760000D02*
X130780000Y-123827500D01*
D59*
X135010000Y-113260000D02*
X134950000Y-113200000D01*
X133750000Y-113600000D02*
X133930000Y-113600000D01*
D50*
X111145000Y-134775000D02*
X111510000Y-135140000D01*
X136600000Y-116700000D02*
X136600000Y-116070000D01*
D59*
X133660000Y-113420000D02*
X133630000Y-113390000D01*
D50*
X136210000Y-115820000D02*
X135300000Y-114910000D01*
D59*
X134920000Y-114435000D02*
X134645000Y-114710000D01*
X133930000Y-113600000D02*
X134530000Y-114200000D01*
D50*
X137190000Y-116550000D02*
X137190000Y-117330000D01*
X136600000Y-116070000D02*
X137080000Y-116550000D01*
X136600000Y-116070000D02*
X135010000Y-114480000D01*
D59*
X134910000Y-114445000D02*
X134935000Y-114445000D01*
D56*
X133140000Y-124760000D02*
X133270000Y-124760000D01*
D50*
X136070000Y-116900000D02*
X135800000Y-116900000D01*
D59*
X134560000Y-113800000D02*
X134560000Y-114560000D01*
D50*
X136700000Y-117320000D02*
X136320000Y-116940000D01*
%TO.N,/03_STM32H743_schematic/UART1_RX*%
D48*
X109954832Y-109530000D02*
X109954832Y-116150000D01*
X126105000Y-136455000D02*
X126105000Y-133700000D01*
X126080000Y-136480000D02*
X126105000Y-136455000D01*
%TO.N,/03_STM32H743_schematic/UART1_TX*%
X110820000Y-111030000D02*
X110454832Y-110664832D01*
X110454832Y-110664832D02*
X110454832Y-109530000D01*
X127320000Y-135080000D02*
X127320000Y-133735000D01*
X110820000Y-116360000D02*
X110820000Y-111030000D01*
X127320000Y-133735000D02*
X127355000Y-133700000D01*
%TO.N,/03_STM32H743_schematic/FLASH_CS*%
X126965000Y-114585000D02*
X126430000Y-114050000D01*
X121910000Y-113470000D02*
X121920000Y-113480000D01*
X105279832Y-112705000D02*
X108415000Y-112705000D01*
X126965000Y-115220000D02*
X126965000Y-114585000D01*
X124530000Y-114050000D02*
X123950000Y-113470000D01*
X108415000Y-112705000D02*
X109180000Y-113470000D01*
X126430000Y-114050000D02*
X124530000Y-114050000D01*
X123950000Y-113470000D02*
X121910000Y-113470000D01*
%TO.N,Net-(U1-PG)*%
X131768818Y-116452791D02*
X131740000Y-116481609D01*
D49*
X132300000Y-114430000D02*
X132250000Y-114380000D01*
D48*
X131770544Y-116675544D02*
X131820000Y-116725000D01*
X131770544Y-116546203D02*
X131770544Y-116675544D01*
D49*
X132250000Y-114380000D02*
X132250000Y-113600000D01*
D48*
X131820000Y-116725000D02*
X131820000Y-116950000D01*
X131740000Y-116515659D02*
X131770544Y-116546203D01*
X131740000Y-116481609D02*
X131740000Y-116515659D01*
X131796308Y-116452791D02*
X131768818Y-116452791D01*
%TO.N,+BATT*%
D56*
X128300000Y-101515000D02*
X128300000Y-102270000D01*
X124285000Y-103980000D02*
X126200000Y-103980000D01*
X123510000Y-105340000D02*
X125980000Y-105340000D01*
X126200000Y-103615000D02*
X126195000Y-103615000D01*
X123465000Y-104800000D02*
X124285000Y-103980000D01*
X128720000Y-102600000D02*
X129190000Y-102600000D01*
X123465000Y-104800000D02*
X123465000Y-105295000D01*
X126200000Y-103980000D02*
X126200000Y-103615000D01*
X123470000Y-104060000D02*
X123480000Y-104070000D01*
X124285000Y-103980000D02*
X123550000Y-103980000D01*
X124170000Y-105070000D02*
X124390000Y-104850000D01*
X123550000Y-103980000D02*
X123470000Y-104060000D01*
X123660000Y-105070000D02*
X124170000Y-105070000D01*
X123465000Y-105295000D02*
X123510000Y-105340000D01*
X125960000Y-104850000D02*
X126080000Y-104730000D01*
X128300000Y-102270000D02*
X126180000Y-104390000D01*
X129190000Y-102600000D02*
X129390000Y-102400000D01*
X123480000Y-104070000D02*
X123480000Y-104650000D01*
X124340000Y-104390000D02*
X123660000Y-105070000D01*
X126200000Y-103615000D02*
X128300000Y-101515000D01*
X126195000Y-103615000D02*
X125350000Y-104460000D01*
X124390000Y-104850000D02*
X125960000Y-104850000D01*
X125980000Y-105340000D02*
X128720000Y-102600000D01*
X126180000Y-104390000D02*
X124340000Y-104390000D01*
%TO.N,/03_STM32H743_schematic/CURRENT*%
D48*
X120970000Y-106460000D02*
X120965000Y-106455000D01*
X120412946Y-128080000D02*
X119870000Y-127537054D01*
X120965000Y-106455000D02*
X120965000Y-104800000D01*
X121180000Y-127650000D02*
X121180000Y-127847054D01*
X117720000Y-114360000D02*
X117720000Y-112890000D01*
X120947054Y-128080000D02*
X120412946Y-128080000D01*
X121180000Y-127847054D02*
X120947054Y-128080000D01*
X119870000Y-127537054D02*
X119870000Y-127090000D01*
%TO.N,/03_STM32H743_schematic/TELEMETRY*%
X116814833Y-108370000D02*
X118020000Y-108370000D01*
X116454832Y-109530000D02*
X116454832Y-108730001D01*
X118020000Y-108370000D02*
X119715000Y-106675000D01*
X119715000Y-106675000D02*
X119715000Y-104800000D01*
X116454832Y-108730001D02*
X116814833Y-108370000D01*
%TO.N,/03_STM32H743_schematic/MOTOR_1*%
X118060000Y-106400000D02*
X118060000Y-107230000D01*
X118465000Y-104800000D02*
X118465000Y-105995000D01*
X118465000Y-105995000D02*
X118060000Y-106400000D01*
%TO.N,/03_STM32H743_schematic/MOTOR_3*%
X115965000Y-105885000D02*
X115370000Y-106480000D01*
X115370000Y-106480000D02*
X115370000Y-107230000D01*
X115965000Y-104800000D02*
X115965000Y-105885000D01*
%TO.N,Net-(U1-FB)*%
X130895000Y-117600000D02*
X130787500Y-117492500D01*
D49*
X132801726Y-114890000D02*
X132775000Y-114890000D01*
X133086382Y-115174656D02*
X132801726Y-114890000D01*
X133540000Y-115420000D02*
X133540000Y-114970000D01*
D55*
X133010000Y-114970000D02*
X133510000Y-115470000D01*
D49*
X133530000Y-114960000D02*
X133540000Y-114950000D01*
D55*
X132800000Y-114870000D02*
X133475000Y-114870000D01*
D49*
X133194656Y-115263215D02*
X133306441Y-115375000D01*
X133194656Y-115156021D02*
X133194656Y-115263215D01*
D48*
X130787500Y-116584320D02*
X130750000Y-116546820D01*
D49*
X133194656Y-115156021D02*
X133176021Y-115174656D01*
X133425000Y-115375000D02*
X133260000Y-115210000D01*
D55*
X132910000Y-114980000D02*
X132900000Y-114970000D01*
D49*
X133540000Y-114970000D02*
X133530000Y-114960000D01*
X133176021Y-115174656D02*
X133086382Y-115174656D01*
X133540000Y-114950000D02*
X133540000Y-114910000D01*
D55*
X132900000Y-114970000D02*
X133010000Y-114970000D01*
D49*
X133306441Y-115375000D02*
X133425000Y-115375000D01*
D55*
X133350000Y-114980000D02*
X132910000Y-114980000D01*
X133520000Y-114865000D02*
X133500000Y-114845000D01*
D49*
X133520000Y-115400000D02*
X133540000Y-115420000D01*
D55*
X133520000Y-115330000D02*
X133350000Y-115160000D01*
X133520000Y-115330000D02*
X133520000Y-115090000D01*
D49*
X133520000Y-115090000D02*
X133520000Y-115400000D01*
D55*
X133520000Y-115090000D02*
X133520000Y-114865000D01*
D48*
X130787500Y-117492500D02*
X130787500Y-116584320D01*
D55*
X133500000Y-114850677D02*
X133500000Y-114845000D01*
D48*
X131170000Y-117600000D02*
X130895000Y-117600000D01*
D55*
X133350000Y-115160000D02*
X133350000Y-114980000D01*
X133475000Y-114870000D02*
X133500000Y-114845000D01*
%TO.N,/03_STM32H743_schematic/I2C1_SCL*%
D48*
X117080000Y-136680000D02*
X118920000Y-134840000D01*
X105279832Y-119205000D02*
X104482778Y-119205000D01*
X104482778Y-119205000D02*
X103597778Y-118320000D01*
X117000000Y-131740000D02*
X116145000Y-132595000D01*
X109484390Y-134990000D02*
X111150000Y-136655610D01*
X109000000Y-134990000D02*
X109484390Y-134990000D01*
X111150000Y-136655610D02*
X111150000Y-136680000D01*
X102540000Y-118320000D02*
X100575000Y-120285000D01*
X116145000Y-132595000D02*
X116145000Y-133700000D01*
X103597778Y-118320000D02*
X102540000Y-118320000D01*
X111150000Y-136680000D02*
X117080000Y-136680000D01*
X118920000Y-132730000D02*
X117930000Y-131740000D01*
X100575000Y-126565000D02*
X109000000Y-134990000D01*
X117930000Y-131740000D02*
X117000000Y-131740000D01*
X100575000Y-120285000D02*
X100575000Y-126565000D01*
X118920000Y-134840000D02*
X118920000Y-132730000D01*
%TO.N,/03_STM32H743_schematic/I2C1_SDA*%
X101980000Y-119680000D02*
X101980000Y-119552893D01*
X103050000Y-119080000D02*
X103857778Y-119080000D01*
X102452893Y-119080000D02*
X103050000Y-119080000D01*
X101980000Y-119680000D02*
X101210000Y-120450000D01*
X104482778Y-119705000D02*
X105279832Y-119705000D01*
X116214999Y-135730000D02*
X117395000Y-134549999D01*
X101980000Y-119552893D02*
X102452893Y-119080000D01*
X103857778Y-119080000D02*
X104482778Y-119705000D01*
X117395000Y-134549999D02*
X117395000Y-133700000D01*
X101210000Y-125810000D02*
X111130000Y-135730000D01*
X101210000Y-120450000D02*
X101210000Y-125810000D01*
X111130000Y-135730000D02*
X116214999Y-135730000D01*
%TO.N,Net-(U3-PH1)*%
X114380000Y-126810000D02*
X114470000Y-126810000D01*
X114290000Y-128280000D02*
X114080000Y-128490000D01*
X114290000Y-126990000D02*
X114290000Y-128280000D01*
X112954832Y-125679999D02*
X113234833Y-125960000D01*
X113530000Y-125960000D02*
X114380000Y-126810000D01*
X112954832Y-124880000D02*
X113029832Y-124955000D01*
X113234833Y-125960000D02*
X113530000Y-125960000D01*
X114470000Y-126810000D02*
X114290000Y-126990000D01*
X112954832Y-124880000D02*
X112954832Y-125679999D01*
%TO.N,/03_STM32H743_schematic/SWD_NRST*%
X108430000Y-116890000D02*
X113454832Y-121914832D01*
D55*
X101815000Y-116725000D02*
X101620000Y-116920000D01*
D48*
X100725000Y-113650000D02*
X100725000Y-113635000D01*
X100725000Y-113635000D02*
X101470000Y-112890000D01*
X107210000Y-116854732D02*
X107245268Y-116890000D01*
X101470000Y-112890000D02*
X101470000Y-112760000D01*
X107245268Y-116890000D02*
X108430000Y-116890000D01*
D55*
X102535000Y-116725000D02*
X101815000Y-116725000D01*
D48*
X113454832Y-121914832D02*
X113454832Y-124880000D01*
%TO.N,Net-(U3-PA0)*%
X117454832Y-124880000D02*
X117454832Y-124080001D01*
X119990000Y-126060000D02*
X120600000Y-126670000D01*
X118079833Y-123455000D02*
X119321860Y-123455000D01*
X119321860Y-123455000D02*
X119990000Y-124123140D01*
X117454832Y-124080001D02*
X118079833Y-123455000D01*
X120600000Y-126670000D02*
X120600000Y-127570000D01*
X119990000Y-124123140D02*
X119990000Y-126060000D01*
X120600000Y-127570000D02*
X120680000Y-127650000D01*
%TO.N,/03_STM32H743_schematic/UART2_TX*%
X116355001Y-131390000D02*
X114895000Y-132850001D01*
X119360000Y-130770000D02*
X118740000Y-131390000D01*
X119510000Y-126150000D02*
X119360000Y-126300000D01*
X119360000Y-126300000D02*
X119360000Y-130770000D01*
X118454832Y-124880000D02*
X118454832Y-124082946D01*
X118454832Y-124082946D02*
X118732778Y-123805000D01*
X118732778Y-123805000D02*
X119176886Y-123805000D01*
X118740000Y-131390000D02*
X116355001Y-131390000D01*
X119510000Y-124138114D02*
X119510000Y-126150000D01*
X114895000Y-132850001D02*
X114895000Y-133700000D01*
X119176886Y-123805000D02*
X119510000Y-124138114D01*
%TO.N,/03_STM32H743_schematic/UART2_RX*%
X118690000Y-125941886D02*
X118879832Y-125752054D01*
X118879832Y-124955000D02*
X118954832Y-124880000D01*
X118690000Y-130561830D02*
X118690000Y-125941886D01*
X113645000Y-133700000D02*
X113645000Y-132385000D01*
X115080000Y-131870000D02*
X115980000Y-130970000D01*
X115980000Y-130970000D02*
X118281830Y-130970000D01*
X118281830Y-130970000D02*
X118690000Y-130561830D01*
X114160000Y-131870000D02*
X115080000Y-131870000D01*
X113645000Y-132385000D02*
X114160000Y-131870000D01*
X118879832Y-125752054D02*
X118879832Y-124955000D01*
%TO.N,CS1_ACCELEROMETER*%
X119675000Y-122205000D02*
X120629832Y-122205000D01*
X119350970Y-121390970D02*
X119300000Y-121441940D01*
X126145203Y-124391568D02*
X126209596Y-124455961D01*
X126209596Y-124455961D02*
X126209596Y-124984596D01*
X126209596Y-124984596D02*
X126240000Y-125015000D01*
X119300000Y-121830000D02*
X119675000Y-122205000D01*
X119300000Y-121441940D02*
X119300000Y-121830000D01*
%TO.N,SPI1_SCK*%
X120629832Y-121780000D02*
X121510000Y-121780000D01*
X122970000Y-126230000D02*
X123000000Y-126230000D01*
X123000000Y-126230000D02*
X123020000Y-126250000D01*
X122200000Y-122470000D02*
X122200000Y-123960000D01*
X121510000Y-121780000D02*
X122200000Y-122470000D01*
X120629832Y-121705000D02*
X120629832Y-121780000D01*
X122970000Y-124730000D02*
X122970000Y-126230000D01*
X122200000Y-123960000D02*
X122970000Y-124730000D01*
%TO.N,SPI1_MISO*%
X124224268Y-123113388D02*
X124236942Y-123100714D01*
X126770000Y-123448287D02*
X126135706Y-122813993D01*
X121575000Y-121205000D02*
X123240000Y-122870000D01*
X124240000Y-125015000D02*
X124224268Y-124999268D01*
X120629832Y-121205000D02*
X121575000Y-121205000D01*
X124523663Y-122813993D02*
X124236942Y-123100714D01*
X126740000Y-125015000D02*
X126770000Y-124985000D01*
X123240000Y-122870000D02*
X123240000Y-123100000D01*
X124224268Y-124999268D02*
X124224268Y-123113388D01*
X126770000Y-124985000D02*
X126770000Y-123448287D01*
X126135706Y-122813993D02*
X124523663Y-122813993D01*
%TO.N,SPI1_MOSI*%
X123740000Y-122890549D02*
X123740000Y-122860000D01*
X123736942Y-125011942D02*
X123740000Y-125015000D01*
X123736942Y-122893607D02*
X123740000Y-122890549D01*
X121585000Y-120705000D02*
X120629832Y-120705000D01*
X123736942Y-122893607D02*
X123736942Y-125011942D01*
X123740000Y-122860000D02*
X121585000Y-120705000D01*
%TO.N,CS2_GYROSCOPE*%
X124350812Y-128299188D02*
X124740000Y-127910000D01*
X124350812Y-128346531D02*
X124350812Y-128299188D01*
X124740000Y-127910000D02*
X124740000Y-127540000D01*
X117982588Y-122549695D02*
X117982588Y-122052245D01*
X117982588Y-122052245D02*
X119829833Y-120205000D01*
X119829833Y-120205000D02*
X120629832Y-120205000D01*
%TO.N,INT1_ACCELEROMETER*%
X117080000Y-121870000D02*
X117640000Y-121310000D01*
X127720000Y-126745000D02*
X127720000Y-128080000D01*
X117640000Y-120130000D02*
X117990000Y-119780000D01*
X120554832Y-119780000D02*
X120629832Y-119705000D01*
X127447500Y-126277500D02*
X127720000Y-126550000D01*
X117990000Y-119780000D02*
X120554832Y-119780000D01*
X117640000Y-121310000D02*
X117640000Y-120130000D01*
X127720000Y-126550000D02*
X127720000Y-126940000D01*
X127252500Y-126277500D02*
X127447500Y-126277500D01*
%TO.N,INT3_GYROSCOPE*%
X118950000Y-119260000D02*
X119005000Y-119205000D01*
X125240000Y-125015000D02*
X125240000Y-124522569D01*
X125240000Y-124522569D02*
X125239999Y-124522568D01*
X119005000Y-119205000D02*
X120629832Y-119205000D01*
%TO.N,/03_STM32H743_schematic/FLASH_CLK*%
X121426886Y-118205000D02*
X120629832Y-118205000D01*
X121910000Y-118688114D02*
X121426886Y-118205000D01*
X122860850Y-121270000D02*
X121910000Y-120319150D01*
X123775000Y-121270000D02*
X122860850Y-121270000D01*
X124425000Y-120620000D02*
X123775000Y-121270000D01*
X121910000Y-120319150D02*
X121910000Y-118688114D01*
%TO.N,/03_STM32H743_schematic/FLASH_DI{slash}IO0*%
X121429831Y-117705000D02*
X120629832Y-117705000D01*
X123155000Y-120620000D02*
X122370000Y-119835000D01*
X122370000Y-118645169D02*
X121429831Y-117705000D01*
X122370000Y-119835000D02*
X122370000Y-118645169D01*
%TO.N,/03_STM32H743_schematic/FLASH_DO{slash}IO1*%
X122610000Y-114820000D02*
X122610000Y-116259948D01*
X122610000Y-116259948D02*
X122600000Y-116269949D01*
X122860000Y-114570000D02*
X122610000Y-114820000D01*
X123449150Y-114570000D02*
X122860000Y-114570000D01*
X123690000Y-114810850D02*
X123449150Y-114570000D01*
X125695000Y-115220000D02*
X124995000Y-115920000D01*
X124995000Y-115920000D02*
X124117106Y-115920000D01*
X122600000Y-116269949D02*
X122600000Y-116340000D01*
X122600000Y-116340000D02*
X121735000Y-117205000D01*
X123690000Y-115492894D02*
X123690000Y-114810850D01*
X121735000Y-117205000D02*
X120629832Y-117205000D01*
X124117106Y-115920000D02*
X123690000Y-115492894D01*
%TO.N,/03_STM32H743_schematic/FLASH_WP{slash}IO2*%
X124425000Y-115050876D02*
X124425000Y-115220000D01*
X121669974Y-116705000D02*
X122260000Y-116114974D01*
X123594124Y-114220000D02*
X124425000Y-115050876D01*
X122715026Y-114220000D02*
X123594124Y-114220000D01*
X120629832Y-116705000D02*
X121669974Y-116705000D01*
X122260000Y-114675026D02*
X122715026Y-114220000D01*
X122260000Y-116114974D02*
X122260000Y-114675026D01*
%TO.N,/03_STM32H743_schematic/FLASH_HOLD{slash}RESET{slash}IO3*%
X121910000Y-115970000D02*
X121675000Y-116205000D01*
X121910000Y-114530051D02*
X121910000Y-115970000D01*
X121675000Y-116205000D02*
X120629832Y-116205000D01*
X126220000Y-114800850D02*
X125989150Y-114570000D01*
X126220000Y-115419150D02*
X126220000Y-114800850D01*
X126345000Y-119970000D02*
X127260000Y-119970000D01*
X125989150Y-114570000D02*
X124550000Y-114570000D01*
X122570052Y-113869999D02*
X121910000Y-114530051D01*
X127260000Y-119970000D02*
X127520000Y-119710000D01*
X127520000Y-116080000D02*
X127310000Y-115870000D01*
X127520000Y-119710000D02*
X127520000Y-116080000D01*
X123849999Y-113869999D02*
X122570052Y-113869999D01*
X125695000Y-120620000D02*
X126345000Y-119970000D01*
X126670850Y-115870000D02*
X126220000Y-115419150D01*
X124550000Y-114570000D02*
X123849999Y-113869999D01*
X127310000Y-115870000D02*
X126670850Y-115870000D01*
%TO.N,Net-(U3-PC6)*%
X115880000Y-108455000D02*
X113229833Y-108455000D01*
X116605000Y-107730000D02*
X115880000Y-108455000D01*
X113229833Y-108455000D02*
X112954832Y-108730001D01*
X112954832Y-108730001D02*
X112954832Y-109530000D01*
X117490000Y-107230000D02*
X116990000Y-107730000D01*
X117560000Y-107230000D02*
X117490000Y-107230000D01*
X116990000Y-107730000D02*
X116605000Y-107730000D01*
%TO.N,Net-(U3-PC8)*%
X111954832Y-108730001D02*
X112929833Y-107755000D01*
X112929833Y-107755000D02*
X114345000Y-107755000D01*
X114345000Y-107755000D02*
X114870000Y-107230000D01*
X111954832Y-109530000D02*
X111954832Y-108730001D01*
%TO.N,/03_STM32H743_schematic/SWDIO*%
X103560000Y-110670000D02*
X102740000Y-111490000D01*
X106910000Y-111420000D02*
X106160000Y-110670000D01*
X107364831Y-111420000D02*
X106910000Y-111420000D01*
X108454832Y-109530000D02*
X108454832Y-110329999D01*
X108454832Y-110329999D02*
X107364831Y-111420000D01*
X106160000Y-110670000D02*
X103560000Y-110670000D01*
%TO.N,/03_STM32H743_schematic/SWCLK*%
X103520000Y-112164833D02*
X103515167Y-112164833D01*
X102760000Y-112740000D02*
X102760000Y-112440000D01*
X103515167Y-112164833D02*
X102920000Y-112760000D01*
X104440000Y-111280000D02*
X104440000Y-111240000D01*
X103140000Y-112540000D02*
X102980000Y-112540000D01*
X105279832Y-111205000D02*
X105204832Y-111280000D01*
X102740000Y-112760000D02*
X102760000Y-112740000D01*
X104479833Y-111205000D02*
X103520000Y-112164833D01*
X105204832Y-111280000D02*
X104440000Y-111280000D01*
X104440000Y-111240000D02*
X104550000Y-111130000D01*
X105279832Y-111205000D02*
X104479833Y-111205000D01*
X102760000Y-112440000D02*
X103240000Y-112440000D01*
X103240000Y-112440000D02*
X103140000Y-112540000D01*
%TO.N,/03_STM32H743_schematic/SWO*%
X104479833Y-117705000D02*
X105279832Y-117705000D01*
X102740000Y-114030000D02*
X102940369Y-114030000D01*
X103900000Y-114989631D02*
X103900000Y-117125167D01*
X103900000Y-117125167D02*
X104479833Y-117705000D01*
X102940369Y-114030000D02*
X103900000Y-114989631D01*
%TO.N,Net-(JP1-A)*%
X103344832Y-120440000D02*
X103112946Y-120440000D01*
X103112946Y-120440000D02*
X102885000Y-120667946D01*
X103504832Y-120280000D02*
X103344832Y-120440000D01*
X102657054Y-120990000D02*
X102460000Y-120990000D01*
X105279832Y-120205000D02*
X105204832Y-120280000D01*
X102885000Y-120762054D02*
X102657054Y-120990000D01*
X102885000Y-120667946D02*
X102885000Y-120762054D01*
X105204832Y-120280000D02*
X103504832Y-120280000D01*
%TO.N,Net-(U1-SYNC)*%
D55*
X129915000Y-121002410D02*
X130132590Y-121220000D01*
X132320000Y-120925000D02*
X132320000Y-119750000D01*
X132035000Y-121210000D02*
X132320000Y-120925000D01*
X129915000Y-119915000D02*
X129915000Y-121002410D01*
X130730000Y-119100000D02*
X129915000Y-119915000D01*
X131170000Y-119100000D02*
X130730000Y-119100000D01*
X130132590Y-121220000D02*
X132025000Y-121220000D01*
X132025000Y-121220000D02*
X132035000Y-121210000D01*
%TO.N,+3V3_IMU*%
D49*
X125740000Y-128400000D02*
X125140000Y-129000000D01*
X125390000Y-129080000D02*
X125130000Y-129080000D01*
D55*
X124714999Y-123790001D02*
X124714999Y-124989999D01*
D59*
X124790000Y-123580000D02*
X125020000Y-123350000D01*
D55*
X124790000Y-123715000D02*
X124714999Y-123790001D01*
D52*
X123700000Y-129536050D02*
X123700000Y-129225000D01*
D59*
X124790000Y-123715000D02*
X124790000Y-123580000D01*
D49*
X125140000Y-128960000D02*
X125000000Y-128960000D01*
X125740000Y-128760000D02*
X125420000Y-129080000D01*
X125740000Y-128470000D02*
X125740000Y-128360000D01*
X125150000Y-129490000D02*
X124750000Y-129490000D01*
D59*
X125020000Y-123485000D02*
X125020000Y-123380000D01*
D52*
X122226050Y-131010000D02*
X123700000Y-129536050D01*
D55*
X124714999Y-124989999D02*
X124740000Y-125015000D01*
D52*
X121865000Y-131010000D02*
X122226050Y-131010000D01*
X123700000Y-129225000D02*
X124985000Y-129225000D01*
D49*
X125740000Y-127540000D02*
X125740000Y-128760000D01*
X125740000Y-128900000D02*
X125150000Y-129490000D01*
D59*
X124790000Y-123715000D02*
X125020000Y-123485000D01*
D49*
X124750000Y-129490000D02*
X124590000Y-129490000D01*
X124985000Y-129225000D02*
X125740000Y-128470000D01*
X125740000Y-128760000D02*
X125740000Y-128900000D01*
%TO.N,Net-(U1-RT)*%
D55*
X131820000Y-119975000D02*
X131025000Y-120770000D01*
X131820000Y-119750000D02*
X131820000Y-119975000D01*
X131025000Y-120770000D02*
X130915000Y-120770000D01*
%TO.N,Net-(U1-SW_1)*%
D50*
X133845000Y-118675000D02*
X134475000Y-118675000D01*
X136700000Y-119920000D02*
X135420000Y-118640000D01*
X135420000Y-118640000D02*
X134820000Y-118640000D01*
X135045000Y-118675000D02*
X134735000Y-118675000D01*
X134735000Y-118675000D02*
X135640000Y-119580000D01*
X135640000Y-119580000D02*
X135640000Y-119270000D01*
X135790000Y-120260000D02*
X135730000Y-120260000D01*
X135960000Y-120270000D02*
X135800000Y-120270000D01*
X135000000Y-118660000D02*
X134453528Y-118660000D01*
X135980000Y-119610000D02*
X135045000Y-118675000D01*
X135800000Y-120270000D02*
X135790000Y-120260000D01*
X134475000Y-118675000D02*
X135510000Y-119710000D01*
X135510000Y-119710000D02*
X135980000Y-119710000D01*
X135640000Y-119280000D02*
X135000000Y-118640000D01*
X136700000Y-119920000D02*
X135380000Y-119920000D01*
X135730000Y-120260000D02*
X135390000Y-119920000D01*
X133845000Y-119070000D02*
X133845000Y-118675000D01*
X136700000Y-119920000D02*
X136310000Y-119920000D01*
X134453528Y-118670000D02*
X134431764Y-118691764D01*
X135980000Y-119710000D02*
X135980000Y-119610000D01*
X135380000Y-119920000D02*
X134530000Y-119070000D01*
X134530000Y-119070000D02*
X133845000Y-119070000D01*
X136310000Y-119920000D02*
X135960000Y-120270000D01*
%TD*%
M02*
