%TF.GenerationSoftware,KiCad,Pcbnew,10.0.4*%
%TF.CreationDate,2026-08-30T06:01:53+02:00*%
%TF.ProjectId,STM32H743_board_wfl,53544d33-3248-4373-9433-5f626f617264,rev?*%
%TF.SameCoordinates,Original*%
%TF.FileFunction,Paste,Top*%
%TF.FilePolarity,Positive*%
%FSLAX46Y46*%
G04 Gerber Fmt 4.6, Leading zero omitted, Abs format (unit mm)*
G04 Created by KiCad (PCBNEW 10.0.4) date 2026-08-30 06:01:53*
%MOMM*%
%LPD*%
G01*
G04 APERTURE LIST*
G04 Aperture macros list*
%AMRoundRect*
0 Rectangle with rounded corners*
0 $1 Rounding radius*
0 $2 $3 $4 $5 $6 $7 $8 $9 X,Y pos of 4 corners*
0 Add a 4 corners polygon primitive as box body*
4,1,4,$2,$3,$4,$5,$6,$7,$8,$9,$2,$3,0*
0 Add four circle primitives for the rounded corners*
1,1,$1+$1,$2,$3*
1,1,$1+$1,$4,$5*
1,1,$1+$1,$6,$7*
1,1,$1+$1,$8,$9*
0 Add four rect primitives between the rounded corners*
20,1,$1+$1,$2,$3,$4,$5,0*
20,1,$1+$1,$4,$5,$6,$7,0*
20,1,$1+$1,$6,$7,$8,$9,0*
20,1,$1+$1,$8,$9,$2,$3,0*%
G04 Aperture macros list end*
%ADD10RoundRect,0.140000X-0.140000X-0.170000X0.140000X-0.170000X0.140000X0.170000X-0.140000X0.170000X0*%
%ADD11RoundRect,0.067500X-0.067500X-0.067500X0.067500X-0.067500X0.067500X0.067500X-0.067500X0.067500X0*%
%ADD12RoundRect,0.218750X-0.218750X-0.381250X0.218750X-0.381250X0.218750X0.381250X-0.218750X0.381250X0*%
%ADD13RoundRect,0.067500X0.067500X-0.067500X0.067500X0.067500X-0.067500X0.067500X-0.067500X-0.067500X0*%
%ADD14RoundRect,0.250000X0.325000X0.650000X-0.325000X0.650000X-0.325000X-0.650000X0.325000X-0.650000X0*%
%ADD15RoundRect,0.225000X0.225000X0.250000X-0.225000X0.250000X-0.225000X-0.250000X0.225000X-0.250000X0*%
%ADD16RoundRect,0.150000X-0.150000X-0.700000X0.150000X-0.700000X0.150000X0.700000X-0.150000X0.700000X0*%
%ADD17RoundRect,0.250000X-0.250000X-1.100000X0.250000X-1.100000X0.250000X1.100000X-0.250000X1.100000X0*%
%ADD18RoundRect,0.067500X-0.067500X0.067500X-0.067500X-0.067500X0.067500X-0.067500X0.067500X0.067500X0*%
%ADD19RoundRect,0.250000X-1.000000X-0.900000X1.000000X-0.900000X1.000000X0.900000X-1.000000X0.900000X0*%
%ADD20RoundRect,0.067500X0.067500X0.067500X-0.067500X0.067500X-0.067500X-0.067500X0.067500X-0.067500X0*%
%ADD21RoundRect,0.150000X0.150000X0.700000X-0.150000X0.700000X-0.150000X-0.700000X0.150000X-0.700000X0*%
%ADD22RoundRect,0.250000X0.250000X1.100000X-0.250000X1.100000X-0.250000X-1.100000X0.250000X-1.100000X0*%
%ADD23RoundRect,0.140000X0.170000X-0.140000X0.170000X0.140000X-0.170000X0.140000X-0.170000X-0.140000X0*%
%ADD24RoundRect,0.250000X-0.325000X-0.650000X0.325000X-0.650000X0.325000X0.650000X-0.325000X0.650000X0*%
%ADD25RoundRect,0.075000X0.075000X-0.725000X0.075000X0.725000X-0.075000X0.725000X-0.075000X-0.725000X0*%
%ADD26RoundRect,0.075000X0.725000X-0.075000X0.725000X0.075000X-0.725000X0.075000X-0.725000X-0.075000X0*%
%ADD27R,2.800000X2.150000*%
%ADD28RoundRect,0.225000X-0.225000X-0.250000X0.225000X-0.250000X0.225000X0.250000X-0.225000X0.250000X0*%
%ADD29RoundRect,0.062500X0.062500X0.275000X-0.062500X0.275000X-0.062500X-0.275000X0.062500X-0.275000X0*%
%ADD30RoundRect,0.062500X0.275000X0.062500X-0.275000X0.062500X-0.275000X-0.062500X0.275000X-0.062500X0*%
%ADD31RoundRect,0.140000X0.140000X0.170000X-0.140000X0.170000X-0.140000X-0.170000X0.140000X-0.170000X0*%
%ADD32R,0.250000X0.700000*%
%ADD33R,0.700000X0.250000*%
%ADD34R,1.450000X1.450000*%
%ADD35R,0.375000X0.375000*%
%ADD36RoundRect,0.140000X-0.170000X0.140000X-0.170000X-0.140000X0.170000X-0.140000X0.170000X0.140000X0*%
%ADD37RoundRect,0.250000X0.450000X0.350000X-0.450000X0.350000X-0.450000X-0.350000X0.450000X-0.350000X0*%
%ADD38RoundRect,0.250000X-0.615000X0.435000X-0.615000X-0.435000X0.615000X-0.435000X0.615000X0.435000X0*%
%ADD39RoundRect,0.125000X-0.125000X0.250000X-0.125000X-0.250000X0.125000X-0.250000X0.125000X0.250000X0*%
%ADD40R,1.800000X1.100000*%
%ADD41RoundRect,0.218750X0.218750X0.381250X-0.218750X0.381250X-0.218750X-0.381250X0.218750X-0.381250X0*%
%ADD42RoundRect,0.225000X-0.250000X0.225000X-0.250000X-0.225000X0.250000X-0.225000X0.250000X0.225000X0*%
%ADD43RoundRect,0.375000X-0.625000X-0.375000X0.625000X-0.375000X0.625000X0.375000X-0.625000X0.375000X0*%
%ADD44RoundRect,0.500000X-0.500000X-1.400000X0.500000X-1.400000X0.500000X1.400000X-0.500000X1.400000X0*%
G04 APERTURE END LIST*
D10*
%TO.C,C23*%
X112550000Y-126990000D03*
X113510000Y-126990000D03*
%TD*%
D11*
%TO.C,R12*%
X113495000Y-107230000D03*
X114045000Y-107230000D03*
%TD*%
D12*
%TO.C,L2*%
X117977500Y-129970000D03*
X120102500Y-129970000D03*
%TD*%
D13*
%TO.C,C8*%
X130140000Y-118635000D03*
X130140000Y-118085000D03*
%TD*%
D14*
%TO.C,C2*%
X128600000Y-111500000D03*
X125650000Y-111500000D03*
%TD*%
D11*
%TO.C,R10*%
X116205000Y-107230000D03*
X116755000Y-107230000D03*
%TD*%
D15*
%TO.C,C25*%
X110945000Y-107520000D03*
X109395000Y-107520000D03*
%TD*%
D16*
%TO.C,J3*%
X123605000Y-133700000D03*
X124855000Y-133700000D03*
X126105000Y-133700000D03*
X127355000Y-133700000D03*
D17*
X121755000Y-136900000D03*
X129205000Y-136900000D03*
%TD*%
D18*
%TO.C,R13*%
X125370000Y-113485000D03*
X125370000Y-114035000D03*
%TD*%
D15*
%TO.C,C3*%
X130905000Y-113490000D03*
X129355000Y-113490000D03*
%TD*%
D19*
%TO.C,D1*%
X132260000Y-110510000D03*
X136560000Y-110510000D03*
%TD*%
D20*
%TO.C,R1*%
X132800000Y-113600000D03*
X132250000Y-113600000D03*
%TD*%
D21*
%TO.C,J2*%
X123465000Y-104800000D03*
X122215000Y-104800000D03*
X120965000Y-104800000D03*
X119715000Y-104800000D03*
X118465000Y-104800000D03*
X117215000Y-104800000D03*
X115965000Y-104800000D03*
X114715000Y-104800000D03*
D22*
X125315000Y-101600000D03*
X112865000Y-101600000D03*
%TD*%
D23*
%TO.C,C28*%
X128620000Y-120730000D03*
X128620000Y-119770000D03*
%TD*%
D13*
%TO.C,C5*%
X133480000Y-114730000D03*
X133480000Y-114180000D03*
%TD*%
D24*
%TO.C,C7*%
X134645000Y-114710000D03*
X137595000Y-114710000D03*
%TD*%
D18*
%TO.C,R7*%
X103040000Y-117795000D03*
X103040000Y-118345000D03*
%TD*%
D13*
%TO.C,R8*%
X103050000Y-119605000D03*
X103050000Y-119055000D03*
%TD*%
D25*
%TO.C,U3*%
X106954832Y-124880000D03*
X107454832Y-124880000D03*
X107954832Y-124880000D03*
X108454832Y-124880000D03*
X108954832Y-124880000D03*
X109454832Y-124880000D03*
X109954832Y-124880000D03*
X110454832Y-124880000D03*
X110954832Y-124880000D03*
X111454832Y-124880000D03*
X111954832Y-124880000D03*
X112454832Y-124880000D03*
X112954832Y-124880000D03*
X113454832Y-124880000D03*
X113954832Y-124880000D03*
X114454832Y-124880000D03*
X114954832Y-124880000D03*
X115454832Y-124880000D03*
X115954832Y-124880000D03*
X116454832Y-124880000D03*
X116954832Y-124880000D03*
X117454832Y-124880000D03*
X117954832Y-124880000D03*
X118454832Y-124880000D03*
X118954832Y-124880000D03*
D26*
X120629832Y-123205000D03*
X120629832Y-122705000D03*
X120629832Y-122205000D03*
X120629832Y-121705000D03*
X120629832Y-121205000D03*
X120629832Y-120705000D03*
X120629832Y-120205000D03*
X120629832Y-119705000D03*
X120629832Y-119205000D03*
X120629832Y-118705000D03*
X120629832Y-118205000D03*
X120629832Y-117705000D03*
X120629832Y-117205000D03*
X120629832Y-116705000D03*
X120629832Y-116205000D03*
X120629832Y-115705000D03*
X120629832Y-115205000D03*
X120629832Y-114705000D03*
X120629832Y-114205000D03*
X120629832Y-113705000D03*
X120629832Y-113205000D03*
X120629832Y-112705000D03*
X120629832Y-112205000D03*
X120629832Y-111705000D03*
X120629832Y-111205000D03*
D25*
X118954832Y-109530000D03*
X118454832Y-109530000D03*
X117954832Y-109530000D03*
X117454832Y-109530000D03*
X116954832Y-109530000D03*
X116454832Y-109530000D03*
X115954832Y-109530000D03*
X115454832Y-109530000D03*
X114954832Y-109530000D03*
X114454832Y-109530000D03*
X113954832Y-109530000D03*
X113454832Y-109530000D03*
X112954832Y-109530000D03*
X112454832Y-109530000D03*
X111954832Y-109530000D03*
X111454832Y-109530000D03*
X110954832Y-109530000D03*
X110454832Y-109530000D03*
X109954832Y-109530000D03*
X109454832Y-109530000D03*
X108954832Y-109530000D03*
X108454832Y-109530000D03*
X107954832Y-109530000D03*
X107454832Y-109530000D03*
X106954832Y-109530000D03*
D26*
X105279832Y-111205000D03*
X105279832Y-111705000D03*
X105279832Y-112205000D03*
X105279832Y-112705000D03*
X105279832Y-113205000D03*
X105279832Y-113705000D03*
X105279832Y-114205000D03*
X105279832Y-114705000D03*
X105279832Y-115205000D03*
X105279832Y-115705000D03*
X105279832Y-116205000D03*
X105279832Y-116705000D03*
X105279832Y-117205000D03*
X105279832Y-117705000D03*
X105279832Y-118205000D03*
X105279832Y-118705000D03*
X105279832Y-119205000D03*
X105279832Y-119705000D03*
X105279832Y-120205000D03*
X105279832Y-120705000D03*
X105279832Y-121205000D03*
X105279832Y-121705000D03*
X105279832Y-122205000D03*
X105279832Y-122705000D03*
X105279832Y-123205000D03*
%TD*%
D15*
%TO.C,C27*%
X128245000Y-121990000D03*
X126695000Y-121990000D03*
%TD*%
D10*
%TO.C,C24*%
X114470000Y-126810000D03*
X115430000Y-126810000D03*
%TD*%
D27*
%TO.C,F1*%
X128300000Y-101515000D03*
X128300000Y-106425000D03*
%TD*%
D28*
%TO.C,C6*%
X131925000Y-121210000D03*
X133475000Y-121210000D03*
%TD*%
D29*
%TO.C,U5*%
X126740000Y-127540000D03*
X126240000Y-127540000D03*
X125740000Y-127540000D03*
X125240000Y-127540000D03*
X124740000Y-127540000D03*
X124240000Y-127540000D03*
X123740000Y-127540000D03*
D30*
X123227500Y-126277500D03*
D29*
X123740000Y-125015000D03*
X124240000Y-125015000D03*
X124740000Y-125015000D03*
X125240000Y-125015000D03*
X125740000Y-125015000D03*
X126240000Y-125015000D03*
X126740000Y-125015000D03*
D30*
X127252500Y-126277500D03*
%TD*%
D31*
%TO.C,C13*%
X111590000Y-126810000D03*
X110630000Y-126810000D03*
%TD*%
D32*
%TO.C,U1*%
X131820000Y-119790000D03*
X132320000Y-119790000D03*
X132820000Y-119790000D03*
X133320000Y-119790000D03*
D33*
X133970000Y-119140000D03*
X133970000Y-118640000D03*
X133970000Y-118140000D03*
X133970000Y-117640000D03*
D32*
X133320000Y-116990000D03*
X132820000Y-116990000D03*
X132320000Y-116990000D03*
X131820000Y-116990000D03*
D33*
X131170000Y-117640000D03*
X131170000Y-118140000D03*
X131170000Y-118640000D03*
X131170000Y-119140000D03*
D34*
X132570000Y-118390000D03*
D35*
X131250000Y-119710000D03*
X133890000Y-119710000D03*
X133890000Y-117070000D03*
X131250000Y-117070000D03*
%TD*%
D31*
%TO.C,C18*%
X117430000Y-126760000D03*
X116470000Y-126760000D03*
%TD*%
D36*
%TO.C,C15*%
X122630000Y-110290000D03*
X122630000Y-111250000D03*
%TD*%
D13*
%TO.C,JP1*%
X102460000Y-121015000D03*
X102460000Y-120465000D03*
%TD*%
D15*
%TO.C,C29*%
X123700000Y-129225000D03*
X122150000Y-129225000D03*
%TD*%
D28*
%TO.C,C26*%
X122565000Y-112670000D03*
X124115000Y-112670000D03*
%TD*%
D11*
%TO.C,R9*%
X117535000Y-107230000D03*
X118085000Y-107230000D03*
%TD*%
%TO.C,R11*%
X114845000Y-107230000D03*
X115395000Y-107230000D03*
%TD*%
D37*
%TO.C,Y1*%
X114080000Y-128490000D03*
X111880000Y-128490000D03*
X111880000Y-130190000D03*
X114080000Y-130190000D03*
%TD*%
D14*
%TO.C,C1*%
X128745000Y-109140000D03*
X125795000Y-109140000D03*
%TD*%
D20*
%TO.C,R5*%
X121205000Y-127650000D03*
X120655000Y-127650000D03*
%TD*%
D15*
%TO.C,C19*%
X117945000Y-128340000D03*
X116395000Y-128340000D03*
%TD*%
D23*
%TO.C,C17*%
X103210000Y-122980000D03*
X103210000Y-122020000D03*
%TD*%
D38*
%TO.C,U4*%
X126135000Y-117070000D03*
X123985000Y-117070000D03*
X126135000Y-118770000D03*
X123985000Y-118770000D03*
D39*
X126965000Y-115220000D03*
X125695000Y-115220000D03*
X124425000Y-115220000D03*
X123155000Y-115220000D03*
X123155000Y-120620000D03*
X124425000Y-120620000D03*
X125695000Y-120620000D03*
X126965000Y-120620000D03*
%TD*%
D28*
%TO.C,C12*%
X109415000Y-105960000D03*
X110965000Y-105960000D03*
%TD*%
D18*
%TO.C,R6*%
X103344832Y-120415000D03*
X103344832Y-120965000D03*
%TD*%
D10*
%TO.C,C22*%
X120600000Y-126670000D03*
X121560000Y-126670000D03*
%TD*%
%TO.C,C30*%
X124790000Y-123715000D03*
X125750000Y-123715000D03*
%TD*%
D20*
%TO.C,R2*%
X130900000Y-120770000D03*
X130350000Y-120770000D03*
%TD*%
D40*
%TO.C,L1*%
X136380000Y-117320000D03*
X136380000Y-119920000D03*
%TD*%
D20*
%TO.C,C4*%
X130415000Y-114520000D03*
X129865000Y-114520000D03*
%TD*%
D41*
%TO.C,L3*%
X123990000Y-131010000D03*
X121865000Y-131010000D03*
%TD*%
D10*
%TO.C,C31*%
X125420000Y-129080000D03*
X126380000Y-129080000D03*
%TD*%
D13*
%TO.C,R3*%
X132780000Y-114805000D03*
X132780000Y-114255000D03*
%TD*%
D10*
%TO.C,C16*%
X107220000Y-107660000D03*
X108180000Y-107660000D03*
%TD*%
D18*
%TO.C,R4*%
X133500000Y-115375000D03*
X133500000Y-115925000D03*
%TD*%
D16*
%TO.C,J1*%
X111145000Y-133700000D03*
X112395000Y-133700000D03*
X113645000Y-133700000D03*
X114895000Y-133700000D03*
X116145000Y-133700000D03*
X117395000Y-133700000D03*
D17*
X109295000Y-136900000D03*
X119245000Y-136900000D03*
%TD*%
D10*
%TO.C,C20*%
X108710000Y-126820000D03*
X109670000Y-126820000D03*
%TD*%
D15*
%TO.C,C9*%
X131760000Y-115550000D03*
X130210000Y-115550000D03*
%TD*%
D42*
%TO.C,C10*%
X128720000Y-123965000D03*
X128720000Y-125515000D03*
%TD*%
D36*
%TO.C,C21*%
X101620000Y-116920000D03*
X101620000Y-117880000D03*
%TD*%
D43*
%TO.C,U2*%
X130780000Y-123827500D03*
X130780000Y-126127500D03*
D44*
X137080000Y-126127500D03*
D43*
X130780000Y-128427500D03*
%TD*%
D31*
%TO.C,C14*%
X121920000Y-125120000D03*
X120960000Y-125120000D03*
%TD*%
D42*
%TO.C,C11*%
X129520000Y-130645000D03*
X129520000Y-132195000D03*
%TD*%
M02*
