%TF.GenerationSoftware,KiCad,Pcbnew,10.0.4*%
%TF.CreationDate,2026-08-30T06:01:53+02:00*%
%TF.ProjectId,STM32H743_board_wfl,53544d33-3248-4373-9433-5f626f617264,rev?*%
%TF.SameCoordinates,Original*%
%TF.FileFunction,Copper,L2,Inr*%
%TF.FilePolarity,Positive*%
%FSLAX46Y46*%
G04 Gerber Fmt 4.6, Leading zero omitted, Abs format (unit mm)*
G04 Created by KiCad (PCBNEW 10.0.4) date 2026-08-30 06:01:53*
%MOMM*%
%LPD*%
G01*
G04 APERTURE LIST*
%TA.AperFunction,ViaPad*%
%ADD10C,0.450000*%
%TD*%
%TA.AperFunction,ViaPad*%
%ADD11C,0.700000*%
%TD*%
%TA.AperFunction,Conductor*%
%ADD12C,0.400000*%
%TD*%
G04 APERTURE END LIST*
D10*
%TO.N,GND*%
X124070000Y-110910000D03*
X123060000Y-108180000D03*
X125098579Y-128263602D03*
X120490000Y-124580000D03*
X126042584Y-115975582D03*
X134130000Y-112220000D03*
D11*
X134750000Y-117550000D03*
D10*
X132360000Y-112220000D03*
D11*
X128820000Y-128720000D03*
X134090000Y-116330000D03*
D10*
X125753765Y-119820000D03*
X119140000Y-111640000D03*
X130470000Y-120080000D03*
X110160000Y-126170000D03*
X129520000Y-118100000D03*
X126460000Y-128300000D03*
X112420000Y-135230000D03*
X129030000Y-112930000D03*
D11*
X128840000Y-126690000D03*
D10*
X134380000Y-120290000D03*
X103850672Y-119780000D03*
X123580000Y-128270000D03*
X127830000Y-112910000D03*
X110220000Y-122530000D03*
X125830000Y-122220000D03*
X123950000Y-109180000D03*
D11*
X134840000Y-116730000D03*
D10*
X101250000Y-118700000D03*
X134365000Y-120795000D03*
X110510000Y-128140000D03*
X111930000Y-105970000D03*
X115950000Y-129290000D03*
X115960000Y-123510000D03*
D11*
X128820000Y-127680000D03*
D10*
X107454831Y-110518911D03*
X128500000Y-112920000D03*
X122580000Y-107610000D03*
X115640000Y-126120000D03*
D11*
X136660000Y-114570000D03*
D10*
X126000000Y-131630000D03*
D11*
X125090000Y-107120000D03*
D10*
X124250000Y-122000000D03*
D11*
X108830000Y-106930000D03*
D10*
X122000000Y-127260000D03*
D11*
X122370000Y-106860000D03*
D10*
X126220000Y-123675974D03*
X113117504Y-126446040D03*
X128620000Y-119110000D03*
X101010000Y-116340000D03*
D11*
X137540000Y-115879341D03*
D10*
X103910000Y-122000000D03*
X133150000Y-112220000D03*
X117230000Y-135570000D03*
%TO.N,+3V3*%
X123450000Y-110290000D03*
X102500000Y-122470000D03*
X102480000Y-119760000D03*
X124907485Y-113430000D03*
X108550000Y-123440000D03*
X111910000Y-123320000D03*
X126800000Y-131110000D03*
X102480000Y-117820000D03*
X103055000Y-116315000D03*
X119120000Y-111000000D03*
X111142842Y-127407573D03*
X127860000Y-120210000D03*
X100600000Y-112810000D03*
X109410000Y-105040000D03*
X127460000Y-131080000D03*
X106830000Y-110710000D03*
X128120000Y-131090000D03*
X121496423Y-124498546D03*
%TO.N,Net-(C25-Pad1)*%
X111670000Y-107520000D03*
X112070000Y-110970000D03*
%TO.N,+5V*%
X133610000Y-113320000D03*
X132610000Y-124760000D03*
X111510000Y-135140000D03*
X124370000Y-132280000D03*
X132070000Y-124760000D03*
X134920000Y-113290000D03*
X133140000Y-124760000D03*
X134260000Y-113300000D03*
%TO.N,/03_STM32H743_schematic/UART1_RX*%
X109954832Y-116150000D03*
X126080000Y-136480000D03*
%TO.N,/03_STM32H743_schematic/UART1_TX*%
X110820000Y-116360000D03*
X127320000Y-135080000D03*
%TO.N,/03_STM32H743_schematic/FLASH_CS*%
X109180000Y-113470000D03*
X121910000Y-113470000D03*
%TO.N,Net-(U1-PG)*%
X132300000Y-114430000D03*
X131796308Y-116452791D03*
%TO.N,/03_STM32H743_schematic/CURRENT*%
X120970000Y-106460000D03*
X117720000Y-114360000D03*
X119870000Y-127090000D03*
X117720000Y-112890000D03*
%TO.N,Net-(U1-FB)*%
X130750000Y-116546820D03*
X133194656Y-115156021D03*
%TO.N,/03_STM32H743_schematic/SWD_NRST*%
X107210000Y-116854732D03*
X102535000Y-116725000D03*
X100725000Y-113650000D03*
%TO.N,CS1_ACCELEROMETER*%
X119350970Y-121390970D03*
X126145203Y-124391568D03*
%TO.N,SPI1_MISO*%
X124236942Y-123100714D03*
X123236942Y-123100000D03*
%TO.N,CS2_GYROSCOPE*%
X117982588Y-122549695D03*
X124350812Y-128346531D03*
%TO.N,INT1_ACCELEROMETER*%
X127720000Y-128080000D03*
X117080000Y-121870000D03*
%TO.N,INT3_GYROSCOPE*%
X118950000Y-119260000D03*
X125239999Y-124375000D03*
%TO.N,+3V3_IMU*%
X125091452Y-123313993D03*
X124750000Y-129490000D03*
%TD*%
%TO.N,GND*%
D12*
X134380000Y-120290000D02*
X134380000Y-120780000D01*
X110160000Y-127790000D02*
X110510000Y-128140000D01*
X112420000Y-135230000D02*
X112420000Y-132230000D01*
X125753765Y-119820000D02*
X126463765Y-119110000D01*
X108830000Y-106930000D02*
X107454831Y-108305169D01*
X110510000Y-128140000D02*
X111530000Y-128140000D01*
X120490000Y-125750000D02*
X122000000Y-127260000D01*
X136660000Y-114570000D02*
X136660000Y-113040000D01*
X128820000Y-126710000D02*
X128840000Y-126690000D01*
X131580000Y-121140000D02*
X127632013Y-125087987D01*
X114452496Y-127442496D02*
X113117504Y-127442496D01*
X127840000Y-112920000D02*
X127830000Y-112910000D01*
X128580000Y-128960000D02*
X127120000Y-128960000D01*
X121124083Y-120894083D02*
X126042584Y-115975582D01*
X120490000Y-124580000D02*
X120490000Y-125750000D01*
X119625000Y-133175000D02*
X122000000Y-130800000D01*
X128820000Y-127680000D02*
X128820000Y-126710000D01*
X109690000Y-122000000D02*
X110220000Y-122530000D01*
X122580000Y-107610000D02*
X122580000Y-107070000D01*
X128510000Y-112930000D02*
X128500000Y-112920000D01*
X112420000Y-132230000D02*
X110510000Y-130320000D01*
X115960000Y-123510000D02*
X119420000Y-123510000D01*
X136660000Y-113040000D02*
X135840000Y-112220000D01*
X125830000Y-122220000D02*
X124470000Y-122220000D01*
X103850672Y-121940672D02*
X103910000Y-122000000D01*
X125753765Y-119820000D02*
X125753765Y-116264401D01*
X110510000Y-130320000D02*
X110510000Y-128140000D01*
X125753765Y-122143765D02*
X125830000Y-122220000D01*
X123920000Y-127710000D02*
X123580000Y-128050000D01*
X122580000Y-107070000D02*
X122370000Y-106860000D01*
X125098579Y-128168579D02*
X124640000Y-127710000D01*
X115640000Y-123830000D02*
X115960000Y-123510000D01*
X130470000Y-120080000D02*
X131530000Y-121140000D01*
X122830000Y-131630000D02*
X122000000Y-130800000D01*
X124640000Y-127710000D02*
X123920000Y-127710000D01*
X125753765Y-116264401D02*
X126042584Y-115975582D01*
X127830000Y-112910000D02*
X126070000Y-112910000D01*
X123950000Y-109070000D02*
X123060000Y-108180000D01*
X126463765Y-119110000D02*
X128620000Y-119110000D01*
X103850672Y-117839328D02*
X103850672Y-119780000D01*
X136660000Y-114570000D02*
X136660000Y-114999341D01*
X119140000Y-111640000D02*
X119140000Y-113930000D01*
X134750000Y-117550000D02*
X134750000Y-119920000D01*
X126000000Y-128760000D02*
X126460000Y-128300000D01*
X125753765Y-119820000D02*
X125753765Y-122143765D01*
X122370000Y-106860000D02*
X124830000Y-106860000D01*
X131530000Y-121140000D02*
X131580000Y-121140000D01*
X124470000Y-122220000D02*
X124250000Y-122000000D01*
X103150000Y-118700000D02*
X101250000Y-118700000D01*
X132360000Y-112220000D02*
X134130000Y-112220000D01*
X132360000Y-112220000D02*
X129740000Y-112220000D01*
X122000000Y-127260000D02*
X122570000Y-127260000D01*
X117230000Y-135570000D02*
X112760000Y-135570000D01*
X110220000Y-122530000D02*
X110220000Y-126110000D01*
X107454831Y-110518911D02*
X107454831Y-114235169D01*
X120490000Y-124580000D02*
X120490000Y-121528166D01*
X134750000Y-117550000D02*
X134750000Y-116820000D01*
X135850000Y-114570000D02*
X134090000Y-116330000D01*
X112760000Y-135570000D02*
X112420000Y-135230000D01*
X123060000Y-108180000D02*
X123060000Y-108090000D01*
X110220000Y-126110000D02*
X110160000Y-126170000D01*
X111930000Y-105970000D02*
X109790000Y-105970000D01*
X131925000Y-120795000D02*
X131580000Y-121140000D01*
X125098579Y-128263602D02*
X125098579Y-128168579D01*
X110160000Y-126170000D02*
X110160000Y-127790000D01*
X130070000Y-117550000D02*
X129520000Y-118100000D01*
X121185582Y-115975582D02*
X126042584Y-115975582D01*
X122000000Y-130800000D02*
X122000000Y-127260000D01*
X134750000Y-117550000D02*
X130070000Y-117550000D01*
X124830000Y-106860000D02*
X125090000Y-107120000D01*
X126000000Y-131630000D02*
X126000000Y-128760000D01*
X115950000Y-129500000D02*
X119625000Y-133175000D01*
X125830000Y-123285974D02*
X126220000Y-123675974D01*
X117230000Y-135570000D02*
X119625000Y-133175000D01*
X101010000Y-116340000D02*
X101010000Y-118460000D01*
X115950000Y-129290000D02*
X115950000Y-129500000D01*
X136660000Y-114999341D02*
X137540000Y-115879341D01*
X112227504Y-127442496D02*
X113117504Y-127442496D01*
X134750000Y-119920000D02*
X134380000Y-120290000D01*
X115950000Y-128940000D02*
X114452496Y-127442496D01*
X134750000Y-116820000D02*
X134840000Y-116730000D01*
X123340000Y-111640000D02*
X124070000Y-110910000D01*
X103850672Y-119400672D02*
X103150000Y-118700000D01*
X126423602Y-128263602D02*
X126460000Y-128300000D01*
X128840000Y-126690000D02*
X128840000Y-126295974D01*
X129030000Y-112930000D02*
X128510000Y-112930000D01*
X103850672Y-119780000D02*
X103850672Y-121940672D01*
X128500000Y-112920000D02*
X127840000Y-112920000D01*
X126070000Y-112910000D02*
X124070000Y-110910000D01*
X125098579Y-128263602D02*
X126423602Y-128263602D01*
X129520000Y-118100000D02*
X129520000Y-118210000D01*
X122570000Y-127260000D02*
X123580000Y-128270000D01*
X136689341Y-116730000D02*
X137540000Y-115879341D01*
X119420000Y-123510000D02*
X120490000Y-124580000D01*
X126000000Y-131630000D02*
X122830000Y-131630000D01*
X135840000Y-112220000D02*
X134130000Y-112220000D01*
X123950000Y-109180000D02*
X124070000Y-109300000D01*
X134490000Y-116730000D02*
X134090000Y-116330000D01*
X127632013Y-125087987D02*
X126220000Y-123675974D01*
X119140000Y-113930000D02*
X120160000Y-114950000D01*
X111530000Y-128140000D02*
X112227504Y-127442496D01*
X103910000Y-122000000D02*
X109690000Y-122000000D01*
X127120000Y-128960000D02*
X126460000Y-128300000D01*
X103850672Y-119780000D02*
X103850672Y-119400672D01*
X115950000Y-129290000D02*
X115950000Y-128940000D01*
X128820000Y-128720000D02*
X128580000Y-128960000D01*
X134840000Y-116730000D02*
X136689341Y-116730000D01*
X125830000Y-122220000D02*
X125830000Y-123285974D01*
X101010000Y-118460000D02*
X101250000Y-118700000D01*
X128840000Y-126295974D02*
X127632013Y-125087987D01*
X134365000Y-120795000D02*
X131925000Y-120795000D01*
X128820000Y-128720000D02*
X128820000Y-127680000D01*
X114140000Y-108180000D02*
X123060000Y-108180000D01*
X115313960Y-126446040D02*
X115640000Y-126120000D01*
X107454831Y-108305169D02*
X107454831Y-110518911D01*
X123950000Y-109180000D02*
X123950000Y-109070000D01*
X136660000Y-114570000D02*
X135850000Y-114570000D01*
X115640000Y-126120000D02*
X115640000Y-123830000D01*
X120160000Y-114950000D02*
X121185582Y-115975582D01*
X134380000Y-120780000D02*
X134365000Y-120795000D01*
X123580000Y-128050000D02*
X123580000Y-128270000D01*
X129520000Y-118210000D02*
X128620000Y-119110000D01*
X111930000Y-105970000D02*
X114140000Y-108180000D01*
X129740000Y-112220000D02*
X129030000Y-112930000D01*
X119140000Y-111640000D02*
X123340000Y-111640000D01*
X120160000Y-119930000D02*
X121124083Y-120894083D01*
X113117504Y-126446040D02*
X115313960Y-126446040D01*
X124070000Y-109300000D02*
X124070000Y-110910000D01*
X120490000Y-121528166D02*
X121124083Y-120894083D01*
X107454831Y-114235169D02*
X103850672Y-117839328D01*
X109790000Y-105970000D02*
X108830000Y-106930000D01*
X123060000Y-108090000D02*
X122580000Y-107610000D01*
X134840000Y-116730000D02*
X134490000Y-116730000D01*
X120160000Y-114950000D02*
X120160000Y-119930000D01*
X113117504Y-127442496D02*
X113117504Y-126446040D01*
%TD*%
%TA.AperFunction,Conductor*%
%TO.N,GND*%
G36*
X134503032Y-100200649D02*
G01*
X134567797Y-100203830D01*
X134866338Y-100218497D01*
X134878440Y-100219689D01*
X135235230Y-100272613D01*
X135247140Y-100274982D01*
X135597046Y-100362629D01*
X135608663Y-100366154D01*
X135948275Y-100487669D01*
X135959497Y-100492317D01*
X136285582Y-100646543D01*
X136296290Y-100652267D01*
X136484308Y-100764961D01*
X136605659Y-100837696D01*
X136615777Y-100844456D01*
X136905488Y-101059321D01*
X136914894Y-101067041D01*
X137182146Y-101309264D01*
X137190735Y-101317853D01*
X137394324Y-101542479D01*
X137432958Y-101585105D01*
X137440678Y-101594511D01*
X137655543Y-101884222D01*
X137662303Y-101894340D01*
X137825388Y-102166431D01*
X137847725Y-102203697D01*
X137853462Y-102214429D01*
X138007679Y-102540495D01*
X138012335Y-102551737D01*
X138133840Y-102891319D01*
X138137373Y-102902964D01*
X138225014Y-103252846D01*
X138227388Y-103264782D01*
X138280309Y-103621555D01*
X138281502Y-103633664D01*
X138299351Y-103996967D01*
X138299500Y-104003052D01*
X138299500Y-134496947D01*
X138299351Y-134503032D01*
X138281502Y-134866335D01*
X138280309Y-134878444D01*
X138227388Y-135235217D01*
X138225014Y-135247153D01*
X138137373Y-135597035D01*
X138133840Y-135608680D01*
X138012335Y-135948262D01*
X138007679Y-135959504D01*
X137853462Y-136285570D01*
X137847725Y-136296302D01*
X137662303Y-136605659D01*
X137655543Y-136615777D01*
X137440678Y-136905488D01*
X137432958Y-136914894D01*
X137190743Y-137182138D01*
X137182138Y-137190743D01*
X136914894Y-137432958D01*
X136905488Y-137440678D01*
X136615777Y-137655543D01*
X136605659Y-137662303D01*
X136296302Y-137847725D01*
X136285570Y-137853462D01*
X135959504Y-138007679D01*
X135948262Y-138012335D01*
X135608680Y-138133840D01*
X135597035Y-138137373D01*
X135247153Y-138225014D01*
X135235217Y-138227388D01*
X134878444Y-138280309D01*
X134866335Y-138281502D01*
X134503033Y-138299351D01*
X134496948Y-138299500D01*
X104003052Y-138299500D01*
X103996967Y-138299351D01*
X103633664Y-138281502D01*
X103621555Y-138280309D01*
X103264782Y-138227388D01*
X103252846Y-138225014D01*
X102902964Y-138137373D01*
X102891323Y-138133841D01*
X102551734Y-138012334D01*
X102540495Y-138007679D01*
X102214429Y-137853462D01*
X102203702Y-137847727D01*
X101894340Y-137662303D01*
X101884222Y-137655543D01*
X101594511Y-137440678D01*
X101585105Y-137432958D01*
X101542479Y-137394324D01*
X101317853Y-137190735D01*
X101309264Y-137182146D01*
X101067041Y-136914894D01*
X101059321Y-136905488D01*
X100844456Y-136615777D01*
X100837696Y-136605659D01*
X100827226Y-136588191D01*
X100652267Y-136296290D01*
X100646543Y-136285582D01*
X100492317Y-135959497D01*
X100487669Y-135948275D01*
X100366154Y-135608663D01*
X100362629Y-135597046D01*
X100274982Y-135247140D01*
X100272613Y-135235230D01*
X100219689Y-134878440D01*
X100218497Y-134866334D01*
X100215058Y-134796340D01*
X100200649Y-134503031D01*
X100200500Y-134496947D01*
X100200500Y-134355778D01*
X101799500Y-134355778D01*
X101799500Y-134644221D01*
X101799501Y-134644238D01*
X101837149Y-134930206D01*
X101837150Y-134930211D01*
X101837151Y-134930217D01*
X101896432Y-135151457D01*
X101911809Y-135208844D01*
X101911814Y-135208860D01*
X102022191Y-135475336D01*
X102022199Y-135475352D01*
X102166420Y-135725148D01*
X102166431Y-135725164D01*
X102342024Y-135954002D01*
X102342030Y-135954009D01*
X102545990Y-136157969D01*
X102545996Y-136157974D01*
X102774844Y-136333575D01*
X102774851Y-136333579D01*
X103024647Y-136477800D01*
X103024663Y-136477808D01*
X103291139Y-136588185D01*
X103291145Y-136588186D01*
X103291155Y-136588191D01*
X103569783Y-136662849D01*
X103855772Y-136700500D01*
X103855779Y-136700500D01*
X104144221Y-136700500D01*
X104144228Y-136700500D01*
X104430217Y-136662849D01*
X104708845Y-136588191D01*
X104708857Y-136588185D01*
X104708860Y-136588185D01*
X104797530Y-136551457D01*
X125354499Y-136551457D01*
X125382379Y-136691614D01*
X125382381Y-136691620D01*
X125437069Y-136823650D01*
X125437074Y-136823659D01*
X125516467Y-136942478D01*
X125516470Y-136942482D01*
X125617517Y-137043529D01*
X125617521Y-137043532D01*
X125736340Y-137122925D01*
X125736346Y-137122928D01*
X125736347Y-137122929D01*
X125868380Y-137177619D01*
X125868384Y-137177619D01*
X125868385Y-137177620D01*
X126008542Y-137205500D01*
X126008545Y-137205500D01*
X126151457Y-137205500D01*
X126247767Y-137186342D01*
X126291620Y-137177619D01*
X126423653Y-137122929D01*
X126542479Y-137043532D01*
X126643532Y-136942479D01*
X126722929Y-136823653D01*
X126777619Y-136691620D01*
X126805500Y-136551455D01*
X126805500Y-136408545D01*
X126805500Y-136408542D01*
X126777620Y-136268385D01*
X126777619Y-136268384D01*
X126777619Y-136268380D01*
X126722929Y-136136347D01*
X126722928Y-136136346D01*
X126722925Y-136136340D01*
X126643532Y-136017521D01*
X126643529Y-136017517D01*
X126542482Y-135916470D01*
X126542478Y-135916467D01*
X126423659Y-135837074D01*
X126423650Y-135837069D01*
X126291620Y-135782381D01*
X126291614Y-135782379D01*
X126151457Y-135754500D01*
X126151455Y-135754500D01*
X126008545Y-135754500D01*
X126008543Y-135754500D01*
X125868385Y-135782379D01*
X125868379Y-135782381D01*
X125736349Y-135837069D01*
X125736340Y-135837074D01*
X125617521Y-135916467D01*
X125617517Y-135916470D01*
X125516470Y-136017517D01*
X125516467Y-136017521D01*
X125437074Y-136136340D01*
X125437069Y-136136349D01*
X125382381Y-136268379D01*
X125382379Y-136268385D01*
X125354500Y-136408542D01*
X125354500Y-136408545D01*
X125354500Y-136551455D01*
X125354500Y-136551457D01*
X125354499Y-136551457D01*
X104797530Y-136551457D01*
X104975336Y-136477808D01*
X104975339Y-136477806D01*
X104975345Y-136477804D01*
X105225156Y-136333575D01*
X105273732Y-136296302D01*
X105333477Y-136250457D01*
X105454004Y-136157974D01*
X105657974Y-135954004D01*
X105833575Y-135725156D01*
X105977804Y-135475345D01*
X105999216Y-135423653D01*
X106087109Y-135211457D01*
X110784499Y-135211457D01*
X110812379Y-135351614D01*
X110812381Y-135351620D01*
X110867069Y-135483650D01*
X110867074Y-135483659D01*
X110946467Y-135602478D01*
X110946470Y-135602482D01*
X111047517Y-135703529D01*
X111047521Y-135703532D01*
X111166340Y-135782925D01*
X111166346Y-135782928D01*
X111166347Y-135782929D01*
X111298380Y-135837619D01*
X111298384Y-135837619D01*
X111298385Y-135837620D01*
X111438542Y-135865500D01*
X111438545Y-135865500D01*
X111581457Y-135865500D01*
X111675751Y-135846742D01*
X111721620Y-135837619D01*
X111853653Y-135782929D01*
X111972479Y-135703532D01*
X112073532Y-135602479D01*
X112152929Y-135483653D01*
X112207619Y-135351620D01*
X112229574Y-135241246D01*
X112235500Y-135211457D01*
X112235500Y-135151457D01*
X126594499Y-135151457D01*
X126622379Y-135291614D01*
X126622381Y-135291620D01*
X126677069Y-135423650D01*
X126677074Y-135423659D01*
X126756467Y-135542478D01*
X126756470Y-135542482D01*
X126857517Y-135643529D01*
X126857521Y-135643532D01*
X126976340Y-135722925D01*
X126976349Y-135722930D01*
X127006258Y-135735318D01*
X127108380Y-135777619D01*
X127108384Y-135777619D01*
X127108385Y-135777620D01*
X127248542Y-135805500D01*
X127248545Y-135805500D01*
X127391457Y-135805500D01*
X127507690Y-135782379D01*
X127531620Y-135777619D01*
X127663653Y-135722929D01*
X127782479Y-135643532D01*
X127883532Y-135542479D01*
X127962929Y-135423653D01*
X128017619Y-135291620D01*
X128034084Y-135208845D01*
X128045500Y-135151457D01*
X128045500Y-135008542D01*
X128017620Y-134868385D01*
X128017619Y-134868384D01*
X128017619Y-134868380D01*
X127962929Y-134736347D01*
X127962928Y-134736346D01*
X127962925Y-134736340D01*
X127883532Y-134617521D01*
X127883529Y-134617517D01*
X127782482Y-134516470D01*
X127782478Y-134516467D01*
X127690210Y-134454815D01*
X127690208Y-134454813D01*
X127663664Y-134437077D01*
X127663650Y-134437069D01*
X127531620Y-134382381D01*
X127531614Y-134382379D01*
X127397882Y-134355778D01*
X132299500Y-134355778D01*
X132299500Y-134644221D01*
X132299501Y-134644238D01*
X132337149Y-134930206D01*
X132337150Y-134930211D01*
X132337151Y-134930217D01*
X132396432Y-135151457D01*
X132411809Y-135208844D01*
X132411814Y-135208860D01*
X132522191Y-135475336D01*
X132522199Y-135475352D01*
X132666420Y-135725148D01*
X132666431Y-135725164D01*
X132842024Y-135954002D01*
X132842030Y-135954009D01*
X133045990Y-136157969D01*
X133045996Y-136157974D01*
X133274844Y-136333575D01*
X133274851Y-136333579D01*
X133524647Y-136477800D01*
X133524663Y-136477808D01*
X133791139Y-136588185D01*
X133791145Y-136588186D01*
X133791155Y-136588191D01*
X134069783Y-136662849D01*
X134355772Y-136700500D01*
X134355779Y-136700500D01*
X134644221Y-136700500D01*
X134644228Y-136700500D01*
X134930217Y-136662849D01*
X135208845Y-136588191D01*
X135208857Y-136588185D01*
X135208860Y-136588185D01*
X135475336Y-136477808D01*
X135475339Y-136477806D01*
X135475345Y-136477804D01*
X135725156Y-136333575D01*
X135954004Y-136157974D01*
X136157974Y-135954004D01*
X136333575Y-135725156D01*
X136477804Y-135475345D01*
X136499216Y-135423653D01*
X136588185Y-135208860D01*
X136588185Y-135208857D01*
X136588191Y-135208845D01*
X136662849Y-134930217D01*
X136700500Y-134644228D01*
X136700500Y-134355772D01*
X136662849Y-134069783D01*
X136588191Y-133791155D01*
X136588186Y-133791145D01*
X136588185Y-133791139D01*
X136477808Y-133524663D01*
X136477800Y-133524647D01*
X136333579Y-133274851D01*
X136333575Y-133274844D01*
X136157974Y-133045996D01*
X136157969Y-133045990D01*
X135954009Y-132842030D01*
X135954002Y-132842024D01*
X135725164Y-132666431D01*
X135725162Y-132666429D01*
X135725156Y-132666425D01*
X135725151Y-132666422D01*
X135725148Y-132666420D01*
X135475352Y-132522199D01*
X135475336Y-132522191D01*
X135208860Y-132411814D01*
X135208848Y-132411810D01*
X135208845Y-132411809D01*
X134930217Y-132337151D01*
X134930211Y-132337150D01*
X134930206Y-132337149D01*
X134644238Y-132299501D01*
X134644233Y-132299500D01*
X134644228Y-132299500D01*
X134355772Y-132299500D01*
X134355766Y-132299500D01*
X134355761Y-132299501D01*
X134069793Y-132337149D01*
X134069786Y-132337150D01*
X134069783Y-132337151D01*
X133791155Y-132411809D01*
X133791139Y-132411814D01*
X133524663Y-132522191D01*
X133524647Y-132522199D01*
X133274851Y-132666420D01*
X133274835Y-132666431D01*
X133045997Y-132842024D01*
X133045990Y-132842030D01*
X132842030Y-133045990D01*
X132842024Y-133045997D01*
X132666431Y-133274835D01*
X132666420Y-133274851D01*
X132522199Y-133524647D01*
X132522191Y-133524663D01*
X132411814Y-133791139D01*
X132411809Y-133791155D01*
X132337152Y-134069780D01*
X132337149Y-134069793D01*
X132299501Y-134355761D01*
X132299500Y-134355778D01*
X127397882Y-134355778D01*
X127391457Y-134354500D01*
X127391455Y-134354500D01*
X127248545Y-134354500D01*
X127248543Y-134354500D01*
X127108385Y-134382379D01*
X127108379Y-134382381D01*
X126976349Y-134437069D01*
X126976340Y-134437074D01*
X126857521Y-134516467D01*
X126857517Y-134516470D01*
X126756470Y-134617517D01*
X126756467Y-134617521D01*
X126677074Y-134736340D01*
X126677069Y-134736349D01*
X126622381Y-134868379D01*
X126622379Y-134868385D01*
X126594500Y-135008542D01*
X126594500Y-135008545D01*
X126594500Y-135151455D01*
X126594500Y-135151457D01*
X126594499Y-135151457D01*
X112235500Y-135151457D01*
X112235500Y-135068542D01*
X112235499Y-135068540D01*
X112227166Y-135026644D01*
X112207620Y-134928385D01*
X112207619Y-134928384D01*
X112207619Y-134928380D01*
X112152929Y-134796347D01*
X112152928Y-134796346D01*
X112152925Y-134796340D01*
X112073532Y-134677521D01*
X112073529Y-134677517D01*
X111972482Y-134576470D01*
X111972478Y-134576467D01*
X111853659Y-134497074D01*
X111853650Y-134497069D01*
X111721620Y-134442381D01*
X111721614Y-134442379D01*
X111581457Y-134414500D01*
X111581455Y-134414500D01*
X111438545Y-134414500D01*
X111438543Y-134414500D01*
X111298385Y-134442379D01*
X111298379Y-134442381D01*
X111166349Y-134497069D01*
X111166340Y-134497074D01*
X111047521Y-134576467D01*
X111047517Y-134576470D01*
X110946470Y-134677517D01*
X110946467Y-134677521D01*
X110867074Y-134796340D01*
X110867069Y-134796349D01*
X110812381Y-134928379D01*
X110812379Y-134928385D01*
X110784500Y-135068542D01*
X110784500Y-135068545D01*
X110784500Y-135211455D01*
X110784500Y-135211457D01*
X110784499Y-135211457D01*
X106087109Y-135211457D01*
X106088185Y-135208860D01*
X106088185Y-135208857D01*
X106088191Y-135208845D01*
X106162849Y-134930217D01*
X106200500Y-134644228D01*
X106200500Y-134355772D01*
X106162849Y-134069783D01*
X106088191Y-133791155D01*
X106088186Y-133791145D01*
X106088185Y-133791139D01*
X105977808Y-133524663D01*
X105977800Y-133524647D01*
X105833579Y-133274851D01*
X105833575Y-133274844D01*
X105657974Y-133045996D01*
X105657969Y-133045990D01*
X105454009Y-132842030D01*
X105454002Y-132842024D01*
X105225164Y-132666431D01*
X105225162Y-132666429D01*
X105225156Y-132666425D01*
X105225151Y-132666422D01*
X105225148Y-132666420D01*
X104975352Y-132522199D01*
X104975336Y-132522191D01*
X104708860Y-132411814D01*
X104708848Y-132411810D01*
X104708845Y-132411809D01*
X104483608Y-132351457D01*
X123644499Y-132351457D01*
X123672379Y-132491614D01*
X123672381Y-132491620D01*
X123727069Y-132623650D01*
X123727074Y-132623659D01*
X123806467Y-132742478D01*
X123806470Y-132742482D01*
X123907517Y-132843529D01*
X123907521Y-132843532D01*
X124026340Y-132922925D01*
X124026346Y-132922928D01*
X124026347Y-132922929D01*
X124158380Y-132977619D01*
X124158384Y-132977619D01*
X124158385Y-132977620D01*
X124298542Y-133005500D01*
X124298545Y-133005500D01*
X124441457Y-133005500D01*
X124535751Y-132986742D01*
X124581620Y-132977619D01*
X124713653Y-132922929D01*
X124832479Y-132843532D01*
X124933532Y-132742479D01*
X125012929Y-132623653D01*
X125067619Y-132491620D01*
X125095500Y-132351455D01*
X125095500Y-132208545D01*
X125095500Y-132208542D01*
X125067620Y-132068385D01*
X125067619Y-132068384D01*
X125067619Y-132068380D01*
X125012929Y-131936347D01*
X125012928Y-131936346D01*
X125012925Y-131936340D01*
X124933532Y-131817521D01*
X124933529Y-131817517D01*
X124832482Y-131716470D01*
X124832478Y-131716467D01*
X124713659Y-131637074D01*
X124713650Y-131637069D01*
X124581620Y-131582381D01*
X124581614Y-131582379D01*
X124441457Y-131554500D01*
X124441455Y-131554500D01*
X124298545Y-131554500D01*
X124298543Y-131554500D01*
X124158385Y-131582379D01*
X124158379Y-131582381D01*
X124026349Y-131637069D01*
X124026340Y-131637074D01*
X123907521Y-131716467D01*
X123907517Y-131716470D01*
X123806470Y-131817517D01*
X123806467Y-131817521D01*
X123727074Y-131936340D01*
X123727069Y-131936349D01*
X123672381Y-132068379D01*
X123672379Y-132068385D01*
X123644500Y-132208542D01*
X123644500Y-132208545D01*
X123644500Y-132351455D01*
X123644500Y-132351457D01*
X123644499Y-132351457D01*
X104483608Y-132351457D01*
X104430217Y-132337151D01*
X104430211Y-132337150D01*
X104430206Y-132337149D01*
X104340898Y-132325392D01*
X104144238Y-132299501D01*
X104144233Y-132299500D01*
X104144228Y-132299500D01*
X103855772Y-132299500D01*
X103855766Y-132299500D01*
X103855761Y-132299501D01*
X103569793Y-132337149D01*
X103569786Y-132337150D01*
X103569783Y-132337151D01*
X103291155Y-132411809D01*
X103291139Y-132411814D01*
X103024663Y-132522191D01*
X103024647Y-132522199D01*
X102774851Y-132666420D01*
X102774835Y-132666431D01*
X102545997Y-132842024D01*
X102545990Y-132842030D01*
X102342030Y-133045990D01*
X102342024Y-133045997D01*
X102166431Y-133274835D01*
X102166420Y-133274851D01*
X102022199Y-133524647D01*
X102022191Y-133524663D01*
X101911814Y-133791139D01*
X101911809Y-133791155D01*
X101837152Y-134069780D01*
X101837149Y-134069793D01*
X101799501Y-134355761D01*
X101799500Y-134355778D01*
X100200500Y-134355778D01*
X100200500Y-131181457D01*
X126074499Y-131181457D01*
X126102379Y-131321614D01*
X126102381Y-131321620D01*
X126157069Y-131453650D01*
X126157074Y-131453659D01*
X126236467Y-131572478D01*
X126236470Y-131572482D01*
X126337517Y-131673529D01*
X126337521Y-131673532D01*
X126456340Y-131752925D01*
X126456349Y-131752930D01*
X126481237Y-131763239D01*
X126588380Y-131807619D01*
X126588384Y-131807619D01*
X126588385Y-131807620D01*
X126728542Y-131835500D01*
X126728545Y-131835500D01*
X126871457Y-131835500D01*
X126972000Y-131815500D01*
X127011620Y-131807619D01*
X127118763Y-131763238D01*
X127188229Y-131755770D01*
X127213662Y-131763238D01*
X127248380Y-131777619D01*
X127248384Y-131777619D01*
X127248385Y-131777620D01*
X127388542Y-131805500D01*
X127388545Y-131805500D01*
X127531457Y-131805500D01*
X127625751Y-131786742D01*
X127671620Y-131777619D01*
X127730475Y-131753239D01*
X127799943Y-131745770D01*
X127825375Y-131753237D01*
X127908380Y-131787619D01*
X127908384Y-131787619D01*
X127908385Y-131787620D01*
X128048542Y-131815500D01*
X128048545Y-131815500D01*
X128191457Y-131815500D01*
X128285751Y-131796742D01*
X128331620Y-131787619D01*
X128463653Y-131732929D01*
X128582479Y-131653532D01*
X128683532Y-131552479D01*
X128762929Y-131433653D01*
X128817619Y-131301620D01*
X128826742Y-131255751D01*
X128845500Y-131161457D01*
X128845500Y-131018542D01*
X128817620Y-130878385D01*
X128817619Y-130878384D01*
X128817619Y-130878380D01*
X128762929Y-130746347D01*
X128762928Y-130746346D01*
X128762925Y-130746340D01*
X128683532Y-130627521D01*
X128683529Y-130627517D01*
X128582482Y-130526470D01*
X128582478Y-130526467D01*
X128463659Y-130447074D01*
X128463650Y-130447069D01*
X128331620Y-130392381D01*
X128331614Y-130392379D01*
X128191457Y-130364500D01*
X128191455Y-130364500D01*
X128048545Y-130364500D01*
X128048543Y-130364500D01*
X127908386Y-130392379D01*
X127908378Y-130392381D01*
X127849523Y-130416760D01*
X127780053Y-130424229D01*
X127754619Y-130416760D01*
X127671621Y-130382381D01*
X127671613Y-130382379D01*
X127531457Y-130354500D01*
X127531455Y-130354500D01*
X127388545Y-130354500D01*
X127388543Y-130354500D01*
X127248385Y-130382379D01*
X127248379Y-130382381D01*
X127141240Y-130426760D01*
X127071770Y-130434229D01*
X127046335Y-130426760D01*
X127011624Y-130412382D01*
X127011614Y-130412379D01*
X126871457Y-130384500D01*
X126871455Y-130384500D01*
X126728545Y-130384500D01*
X126728543Y-130384500D01*
X126588385Y-130412379D01*
X126588379Y-130412381D01*
X126456349Y-130467069D01*
X126456340Y-130467074D01*
X126337521Y-130546467D01*
X126337517Y-130546470D01*
X126236470Y-130647517D01*
X126236467Y-130647521D01*
X126157074Y-130766340D01*
X126157069Y-130766349D01*
X126102381Y-130898379D01*
X126102379Y-130898385D01*
X126074500Y-131038542D01*
X126074500Y-131038545D01*
X126074500Y-131181455D01*
X126074500Y-131181457D01*
X126074499Y-131181457D01*
X100200500Y-131181457D01*
X100200500Y-128417988D01*
X123625311Y-128417988D01*
X123653191Y-128558145D01*
X123653193Y-128558151D01*
X123707881Y-128690181D01*
X123707886Y-128690190D01*
X123787279Y-128809009D01*
X123787282Y-128809013D01*
X123888329Y-128910060D01*
X123888333Y-128910063D01*
X124007152Y-128989456D01*
X124007165Y-128989463D01*
X124033345Y-129000307D01*
X124087749Y-129044147D01*
X124109814Y-129110441D01*
X124100454Y-129162320D01*
X124052382Y-129278375D01*
X124052379Y-129278385D01*
X124024500Y-129418542D01*
X124024500Y-129418545D01*
X124024500Y-129561455D01*
X124024500Y-129561457D01*
X124024499Y-129561457D01*
X124052379Y-129701614D01*
X124052381Y-129701620D01*
X124107069Y-129833650D01*
X124107074Y-129833659D01*
X124186467Y-129952478D01*
X124186470Y-129952482D01*
X124287517Y-130053529D01*
X124287521Y-130053532D01*
X124406340Y-130132925D01*
X124406346Y-130132928D01*
X124406347Y-130132929D01*
X124538380Y-130187619D01*
X124538384Y-130187619D01*
X124538385Y-130187620D01*
X124678542Y-130215500D01*
X124678545Y-130215500D01*
X124821457Y-130215500D01*
X124915751Y-130196742D01*
X124961620Y-130187619D01*
X125093653Y-130132929D01*
X125212479Y-130053532D01*
X125313532Y-129952479D01*
X125392929Y-129833653D01*
X125447619Y-129701620D01*
X125475500Y-129561455D01*
X125475500Y-129418545D01*
X125475500Y-129418542D01*
X125447620Y-129278385D01*
X125447619Y-129278384D01*
X125447619Y-129278380D01*
X125392929Y-129146347D01*
X125392928Y-129146346D01*
X125392925Y-129146340D01*
X125313532Y-129027521D01*
X125313529Y-129027517D01*
X125212482Y-128926470D01*
X125212478Y-128926467D01*
X125093659Y-128847074D01*
X125093654Y-128847072D01*
X125093653Y-128847071D01*
X125067464Y-128836223D01*
X125013061Y-128792381D01*
X124990997Y-128726087D01*
X125000355Y-128674214D01*
X125048431Y-128558151D01*
X125075185Y-128423653D01*
X125076312Y-128417988D01*
X125076312Y-128275073D01*
X125051722Y-128151457D01*
X126994499Y-128151457D01*
X127022379Y-128291614D01*
X127022381Y-128291620D01*
X127077069Y-128423650D01*
X127077074Y-128423659D01*
X127156467Y-128542478D01*
X127156470Y-128542482D01*
X127257517Y-128643529D01*
X127257521Y-128643532D01*
X127376340Y-128722925D01*
X127376346Y-128722928D01*
X127376347Y-128722929D01*
X127508380Y-128777619D01*
X127508384Y-128777619D01*
X127508385Y-128777620D01*
X127648542Y-128805500D01*
X127648545Y-128805500D01*
X127791457Y-128805500D01*
X127889331Y-128786031D01*
X127931620Y-128777619D01*
X128063653Y-128722929D01*
X128182479Y-128643532D01*
X128283532Y-128542479D01*
X128362929Y-128423653D01*
X128417619Y-128291620D01*
X128445500Y-128151455D01*
X128445500Y-128008545D01*
X128445500Y-128008542D01*
X128417620Y-127868385D01*
X128417619Y-127868384D01*
X128417619Y-127868380D01*
X128362929Y-127736347D01*
X128362928Y-127736346D01*
X128362925Y-127736340D01*
X128283532Y-127617521D01*
X128283529Y-127617517D01*
X128182482Y-127516470D01*
X128182478Y-127516467D01*
X128063659Y-127437074D01*
X128063650Y-127437069D01*
X127931620Y-127382381D01*
X127931614Y-127382379D01*
X127791457Y-127354500D01*
X127791455Y-127354500D01*
X127648545Y-127354500D01*
X127648543Y-127354500D01*
X127508385Y-127382379D01*
X127508379Y-127382381D01*
X127376349Y-127437069D01*
X127376340Y-127437074D01*
X127257521Y-127516467D01*
X127257517Y-127516470D01*
X127156470Y-127617517D01*
X127156467Y-127617521D01*
X127077074Y-127736340D01*
X127077069Y-127736349D01*
X127022381Y-127868379D01*
X127022379Y-127868385D01*
X126994500Y-128008542D01*
X126994500Y-128008545D01*
X126994500Y-128151455D01*
X126994500Y-128151457D01*
X126994499Y-128151457D01*
X125051722Y-128151457D01*
X125048432Y-128134916D01*
X125048431Y-128134915D01*
X125048431Y-128134911D01*
X125047670Y-128133073D01*
X125013221Y-128049905D01*
X124993742Y-128002881D01*
X124993742Y-128002880D01*
X124993741Y-128002878D01*
X124993739Y-128002875D01*
X124993737Y-128002871D01*
X124914344Y-127884052D01*
X124914341Y-127884048D01*
X124813294Y-127783001D01*
X124813290Y-127782998D01*
X124694471Y-127703605D01*
X124694462Y-127703600D01*
X124562432Y-127648912D01*
X124562426Y-127648910D01*
X124422269Y-127621031D01*
X124422267Y-127621031D01*
X124279357Y-127621031D01*
X124279355Y-127621031D01*
X124139197Y-127648910D01*
X124139191Y-127648912D01*
X124007161Y-127703600D01*
X124007152Y-127703605D01*
X123888333Y-127782998D01*
X123888329Y-127783001D01*
X123787282Y-127884048D01*
X123787279Y-127884052D01*
X123707886Y-128002871D01*
X123707881Y-128002880D01*
X123653193Y-128134910D01*
X123653191Y-128134916D01*
X123625312Y-128275073D01*
X123625312Y-128275076D01*
X123625312Y-128417986D01*
X123625312Y-128417988D01*
X123625311Y-128417988D01*
X100200500Y-128417988D01*
X100200500Y-127479030D01*
X110417341Y-127479030D01*
X110445221Y-127619187D01*
X110445223Y-127619193D01*
X110499911Y-127751223D01*
X110499916Y-127751232D01*
X110579309Y-127870051D01*
X110579312Y-127870055D01*
X110680359Y-127971102D01*
X110680363Y-127971105D01*
X110799182Y-128050498D01*
X110799188Y-128050501D01*
X110799189Y-128050502D01*
X110931222Y-128105192D01*
X110931226Y-128105192D01*
X110931227Y-128105193D01*
X111071384Y-128133073D01*
X111071387Y-128133073D01*
X111214299Y-128133073D01*
X111308593Y-128114315D01*
X111354462Y-128105192D01*
X111486495Y-128050502D01*
X111605321Y-127971105D01*
X111706374Y-127870052D01*
X111785771Y-127751226D01*
X111840461Y-127619193D01*
X111853731Y-127552482D01*
X111868342Y-127479030D01*
X111868342Y-127336115D01*
X111840462Y-127195958D01*
X111840461Y-127195957D01*
X111840461Y-127195953D01*
X111840459Y-127195948D01*
X111826173Y-127161457D01*
X119144499Y-127161457D01*
X119172379Y-127301614D01*
X119172381Y-127301620D01*
X119227069Y-127433650D01*
X119227074Y-127433659D01*
X119306467Y-127552478D01*
X119306470Y-127552482D01*
X119407517Y-127653529D01*
X119407521Y-127653532D01*
X119526340Y-127732925D01*
X119526349Y-127732930D01*
X119556258Y-127745318D01*
X119658380Y-127787619D01*
X119658384Y-127787619D01*
X119658385Y-127787620D01*
X119798542Y-127815500D01*
X119798545Y-127815500D01*
X119941457Y-127815500D01*
X120035751Y-127796742D01*
X120081620Y-127787619D01*
X120213653Y-127732929D01*
X120332479Y-127653532D01*
X120433532Y-127552479D01*
X120512929Y-127433653D01*
X120567619Y-127301620D01*
X120595500Y-127161455D01*
X120595500Y-127018545D01*
X120595500Y-127018542D01*
X120567620Y-126878385D01*
X120567619Y-126878384D01*
X120567619Y-126878380D01*
X120512929Y-126746347D01*
X120512928Y-126746346D01*
X120512925Y-126746340D01*
X120433532Y-126627521D01*
X120433529Y-126627517D01*
X120332482Y-126526470D01*
X120332478Y-126526467D01*
X120213659Y-126447074D01*
X120213650Y-126447069D01*
X120081620Y-126392381D01*
X120081614Y-126392379D01*
X119941457Y-126364500D01*
X119941455Y-126364500D01*
X119798545Y-126364500D01*
X119798543Y-126364500D01*
X119658385Y-126392379D01*
X119658379Y-126392381D01*
X119526349Y-126447069D01*
X119526340Y-126447074D01*
X119407521Y-126526467D01*
X119407517Y-126526470D01*
X119306470Y-126627517D01*
X119306467Y-126627521D01*
X119227074Y-126746340D01*
X119227069Y-126746349D01*
X119172381Y-126878379D01*
X119172379Y-126878385D01*
X119144500Y-127018542D01*
X119144500Y-127018545D01*
X119144500Y-127161455D01*
X119144500Y-127161457D01*
X119144499Y-127161457D01*
X111826173Y-127161457D01*
X111785776Y-127063930D01*
X111785767Y-127063913D01*
X111706374Y-126945094D01*
X111706371Y-126945090D01*
X111605324Y-126844043D01*
X111605320Y-126844040D01*
X111486501Y-126764647D01*
X111486492Y-126764642D01*
X111354462Y-126709954D01*
X111354456Y-126709952D01*
X111214299Y-126682073D01*
X111214297Y-126682073D01*
X111071387Y-126682073D01*
X111071385Y-126682073D01*
X110931227Y-126709952D01*
X110931221Y-126709954D01*
X110799191Y-126764642D01*
X110799182Y-126764647D01*
X110680363Y-126844040D01*
X110680359Y-126844043D01*
X110579312Y-126945090D01*
X110579309Y-126945094D01*
X110499916Y-127063913D01*
X110499911Y-127063922D01*
X110445223Y-127195952D01*
X110445221Y-127195958D01*
X110417342Y-127336115D01*
X110417342Y-127336118D01*
X110417342Y-127479028D01*
X110417342Y-127479030D01*
X110417341Y-127479030D01*
X100200500Y-127479030D01*
X100200500Y-124570003D01*
X120770922Y-124570003D01*
X120798802Y-124710160D01*
X120798804Y-124710166D01*
X120853492Y-124842196D01*
X120853497Y-124842205D01*
X120932890Y-124961024D01*
X120932893Y-124961028D01*
X121033940Y-125062075D01*
X121033944Y-125062078D01*
X121152763Y-125141471D01*
X121152769Y-125141474D01*
X121152770Y-125141475D01*
X121284803Y-125196165D01*
X121284807Y-125196165D01*
X121284808Y-125196166D01*
X121424965Y-125224046D01*
X121424968Y-125224046D01*
X121567880Y-125224046D01*
X121662174Y-125205288D01*
X121708043Y-125196165D01*
X121840076Y-125141475D01*
X121958902Y-125062078D01*
X122059955Y-124961025D01*
X122139352Y-124842199D01*
X122194042Y-124710166D01*
X122215323Y-124603182D01*
X122221923Y-124570003D01*
X122221923Y-124427088D01*
X122194043Y-124286931D01*
X122194042Y-124286930D01*
X122194042Y-124286926D01*
X122142870Y-124163385D01*
X122139353Y-124154895D01*
X122139348Y-124154886D01*
X122059955Y-124036067D01*
X122059952Y-124036063D01*
X121958905Y-123935016D01*
X121958901Y-123935013D01*
X121840082Y-123855620D01*
X121840073Y-123855615D01*
X121708043Y-123800927D01*
X121708037Y-123800925D01*
X121567880Y-123773046D01*
X121567878Y-123773046D01*
X121424968Y-123773046D01*
X121424966Y-123773046D01*
X121284808Y-123800925D01*
X121284802Y-123800927D01*
X121152772Y-123855615D01*
X121152763Y-123855620D01*
X121033944Y-123935013D01*
X121033940Y-123935016D01*
X120932893Y-124036063D01*
X120932890Y-124036067D01*
X120853497Y-124154886D01*
X120853492Y-124154895D01*
X120798804Y-124286925D01*
X120798802Y-124286931D01*
X120770923Y-124427088D01*
X120770923Y-124427091D01*
X120770923Y-124570001D01*
X120770923Y-124570003D01*
X120770922Y-124570003D01*
X100200500Y-124570003D01*
X100200500Y-123511457D01*
X107824499Y-123511457D01*
X107852379Y-123651614D01*
X107852381Y-123651620D01*
X107907069Y-123783650D01*
X107907074Y-123783659D01*
X107986467Y-123902478D01*
X107986470Y-123902482D01*
X108087517Y-124003529D01*
X108087521Y-124003532D01*
X108206340Y-124082925D01*
X108206346Y-124082928D01*
X108206347Y-124082929D01*
X108338380Y-124137619D01*
X108338384Y-124137619D01*
X108338385Y-124137620D01*
X108478542Y-124165500D01*
X108478545Y-124165500D01*
X108621457Y-124165500D01*
X108715751Y-124146742D01*
X108761620Y-124137619D01*
X108893653Y-124082929D01*
X109012479Y-124003532D01*
X109113532Y-123902479D01*
X109192929Y-123783653D01*
X109247619Y-123651620D01*
X109272522Y-123526428D01*
X109275500Y-123511457D01*
X109275500Y-123391457D01*
X111184499Y-123391457D01*
X111212379Y-123531614D01*
X111212381Y-123531620D01*
X111267069Y-123663650D01*
X111267074Y-123663659D01*
X111346467Y-123782478D01*
X111346470Y-123782482D01*
X111447517Y-123883529D01*
X111447521Y-123883532D01*
X111566340Y-123962925D01*
X111566346Y-123962928D01*
X111566347Y-123962929D01*
X111698380Y-124017619D01*
X111698384Y-124017619D01*
X111698385Y-124017620D01*
X111838542Y-124045500D01*
X111838545Y-124045500D01*
X111981457Y-124045500D01*
X112075751Y-124026742D01*
X112121620Y-124017619D01*
X112253653Y-123962929D01*
X112372479Y-123883532D01*
X112473532Y-123782479D01*
X112552929Y-123663653D01*
X112607619Y-123531620D01*
X112635500Y-123391455D01*
X112635500Y-123248545D01*
X112635500Y-123248542D01*
X112607620Y-123108385D01*
X112607619Y-123108384D01*
X112607619Y-123108380D01*
X112552929Y-122976347D01*
X112552928Y-122976346D01*
X112552925Y-122976340D01*
X112473532Y-122857521D01*
X112473529Y-122857517D01*
X112372482Y-122756470D01*
X112372478Y-122756467D01*
X112253659Y-122677074D01*
X112253650Y-122677069D01*
X112121620Y-122622381D01*
X112121614Y-122622379D01*
X111981457Y-122594500D01*
X111981455Y-122594500D01*
X111838545Y-122594500D01*
X111838543Y-122594500D01*
X111698385Y-122622379D01*
X111698379Y-122622381D01*
X111566349Y-122677069D01*
X111566340Y-122677074D01*
X111447521Y-122756467D01*
X111447517Y-122756470D01*
X111346470Y-122857517D01*
X111346467Y-122857521D01*
X111267074Y-122976340D01*
X111267069Y-122976349D01*
X111212381Y-123108379D01*
X111212379Y-123108385D01*
X111184500Y-123248542D01*
X111184500Y-123248545D01*
X111184500Y-123391455D01*
X111184500Y-123391457D01*
X111184499Y-123391457D01*
X109275500Y-123391457D01*
X109275500Y-123368542D01*
X109255231Y-123266645D01*
X109247620Y-123228385D01*
X109247619Y-123228384D01*
X109247619Y-123228380D01*
X109192929Y-123096347D01*
X109192928Y-123096346D01*
X109192925Y-123096340D01*
X109113532Y-122977521D01*
X109113529Y-122977517D01*
X109012482Y-122876470D01*
X109012478Y-122876467D01*
X108893659Y-122797074D01*
X108893650Y-122797069D01*
X108761620Y-122742381D01*
X108761614Y-122742379D01*
X108621457Y-122714500D01*
X108621455Y-122714500D01*
X108478545Y-122714500D01*
X108478543Y-122714500D01*
X108338385Y-122742379D01*
X108338379Y-122742381D01*
X108206349Y-122797069D01*
X108206340Y-122797074D01*
X108087521Y-122876467D01*
X108087517Y-122876470D01*
X107986470Y-122977517D01*
X107986467Y-122977521D01*
X107907074Y-123096340D01*
X107907069Y-123096349D01*
X107852381Y-123228379D01*
X107852379Y-123228385D01*
X107824500Y-123368542D01*
X107824500Y-123368545D01*
X107824500Y-123511455D01*
X107824500Y-123511457D01*
X107824499Y-123511457D01*
X100200500Y-123511457D01*
X100200500Y-122541457D01*
X101774499Y-122541457D01*
X101802379Y-122681614D01*
X101802381Y-122681620D01*
X101857069Y-122813650D01*
X101857074Y-122813659D01*
X101936467Y-122932478D01*
X101936470Y-122932482D01*
X102037517Y-123033529D01*
X102037521Y-123033532D01*
X102156340Y-123112925D01*
X102156346Y-123112928D01*
X102156347Y-123112929D01*
X102288380Y-123167619D01*
X102288384Y-123167619D01*
X102288385Y-123167620D01*
X102428542Y-123195500D01*
X102428545Y-123195500D01*
X102571457Y-123195500D01*
X102692335Y-123171455D01*
X102711620Y-123167619D01*
X102843653Y-123112929D01*
X102962479Y-123033532D01*
X103063532Y-122932479D01*
X103142929Y-122813653D01*
X103197619Y-122681620D01*
X103210246Y-122618141D01*
X103225500Y-122541457D01*
X103225500Y-122398542D01*
X103197620Y-122258385D01*
X103197619Y-122258384D01*
X103197619Y-122258380D01*
X103142929Y-122126347D01*
X103142928Y-122126346D01*
X103142925Y-122126340D01*
X103063532Y-122007521D01*
X103063529Y-122007517D01*
X102997469Y-121941457D01*
X116354499Y-121941457D01*
X116382379Y-122081614D01*
X116382381Y-122081620D01*
X116437069Y-122213650D01*
X116437074Y-122213659D01*
X116516467Y-122332478D01*
X116516470Y-122332482D01*
X116617517Y-122433529D01*
X116617521Y-122433532D01*
X116736340Y-122512925D01*
X116736349Y-122512930D01*
X116749207Y-122518256D01*
X116868380Y-122567619D01*
X116868384Y-122567619D01*
X116868385Y-122567620D01*
X117008542Y-122595500D01*
X117150222Y-122595500D01*
X117217261Y-122615185D01*
X117263016Y-122667989D01*
X117271839Y-122695309D01*
X117284967Y-122761307D01*
X117284969Y-122761315D01*
X117339657Y-122893345D01*
X117339662Y-122893354D01*
X117419055Y-123012173D01*
X117419058Y-123012177D01*
X117520105Y-123113224D01*
X117520109Y-123113227D01*
X117638928Y-123192620D01*
X117638934Y-123192623D01*
X117638935Y-123192624D01*
X117770968Y-123247314D01*
X117770972Y-123247314D01*
X117770973Y-123247315D01*
X117911130Y-123275195D01*
X117911133Y-123275195D01*
X118054045Y-123275195D01*
X118188019Y-123248545D01*
X118194208Y-123247314D01*
X118326241Y-123192624D01*
X118357920Y-123171457D01*
X122511441Y-123171457D01*
X122539321Y-123311614D01*
X122539323Y-123311620D01*
X122594011Y-123443650D01*
X122594016Y-123443659D01*
X122673409Y-123562478D01*
X122673412Y-123562482D01*
X122774459Y-123663529D01*
X122774463Y-123663532D01*
X122893282Y-123742925D01*
X122893291Y-123742930D01*
X122895015Y-123743644D01*
X123025322Y-123797619D01*
X123025326Y-123797619D01*
X123025327Y-123797620D01*
X123165484Y-123825500D01*
X123165487Y-123825500D01*
X123308399Y-123825500D01*
X123405815Y-123806122D01*
X123448562Y-123797619D01*
X123580595Y-123742929D01*
X123667516Y-123684849D01*
X123734193Y-123663972D01*
X123801573Y-123682456D01*
X123805298Y-123684850D01*
X123893282Y-123743639D01*
X123893291Y-123743644D01*
X123923200Y-123756032D01*
X124025322Y-123798333D01*
X124025326Y-123798333D01*
X124025327Y-123798334D01*
X124165484Y-123826214D01*
X124165487Y-123826214D01*
X124308399Y-123826214D01*
X124435531Y-123800925D01*
X124448562Y-123798333D01*
X124448569Y-123798329D01*
X124454393Y-123796564D01*
X124455188Y-123799186D01*
X124463362Y-123798293D01*
X124482193Y-123791270D01*
X124497385Y-123794575D01*
X124512840Y-123792886D01*
X124530827Y-123801849D01*
X124550466Y-123806122D01*
X124572502Y-123822618D01*
X124575375Y-123824050D01*
X124578720Y-123827273D01*
X124599502Y-123848055D01*
X124632987Y-123909378D01*
X124628003Y-123979070D01*
X124614923Y-124004627D01*
X124597073Y-124031340D01*
X124597068Y-124031349D01*
X124542380Y-124163379D01*
X124542378Y-124163385D01*
X124514499Y-124303542D01*
X124514499Y-124303545D01*
X124514499Y-124446455D01*
X124514499Y-124446457D01*
X124514498Y-124446457D01*
X124542378Y-124586614D01*
X124542380Y-124586620D01*
X124597068Y-124718650D01*
X124597073Y-124718659D01*
X124676466Y-124837478D01*
X124676469Y-124837482D01*
X124777516Y-124938529D01*
X124777520Y-124938532D01*
X124896339Y-125017925D01*
X124896345Y-125017928D01*
X124896346Y-125017929D01*
X125028379Y-125072619D01*
X125028383Y-125072619D01*
X125028384Y-125072620D01*
X125168541Y-125100500D01*
X125168544Y-125100500D01*
X125311456Y-125100500D01*
X125405750Y-125081742D01*
X125451619Y-125072619D01*
X125583652Y-125017929D01*
X125611310Y-124999447D01*
X125677987Y-124978569D01*
X125745368Y-124997053D01*
X125749093Y-124999447D01*
X125801543Y-125034493D01*
X125801549Y-125034496D01*
X125801550Y-125034497D01*
X125933583Y-125089187D01*
X125933587Y-125089187D01*
X125933588Y-125089188D01*
X126073745Y-125117068D01*
X126073748Y-125117068D01*
X126216660Y-125117068D01*
X126310954Y-125098310D01*
X126356823Y-125089187D01*
X126488856Y-125034497D01*
X126607682Y-124955100D01*
X126708735Y-124854047D01*
X126723829Y-124831457D01*
X131344499Y-124831457D01*
X131372379Y-124971614D01*
X131372381Y-124971620D01*
X131427069Y-125103650D01*
X131427074Y-125103659D01*
X131506467Y-125222478D01*
X131506470Y-125222482D01*
X131607517Y-125323529D01*
X131607521Y-125323532D01*
X131726340Y-125402925D01*
X131726346Y-125402928D01*
X131726347Y-125402929D01*
X131858380Y-125457619D01*
X131858384Y-125457619D01*
X131858385Y-125457620D01*
X131998542Y-125485500D01*
X131998545Y-125485500D01*
X132141457Y-125485500D01*
X132235751Y-125466742D01*
X132281620Y-125457619D01*
X132292544Y-125453093D01*
X132362012Y-125445622D01*
X132387452Y-125453092D01*
X132398380Y-125457619D01*
X132398384Y-125457619D01*
X132398385Y-125457620D01*
X132538542Y-125485500D01*
X132538545Y-125485500D01*
X132681457Y-125485500D01*
X132775751Y-125466742D01*
X132821620Y-125457619D01*
X132827542Y-125455165D01*
X132897010Y-125447693D01*
X132922455Y-125455165D01*
X132928380Y-125457619D01*
X132928384Y-125457619D01*
X132928385Y-125457620D01*
X133068542Y-125485500D01*
X133068545Y-125485500D01*
X133211457Y-125485500D01*
X133305751Y-125466742D01*
X133351620Y-125457619D01*
X133483653Y-125402929D01*
X133602479Y-125323532D01*
X133703532Y-125222479D01*
X133782929Y-125103653D01*
X133837619Y-124971620D01*
X133861006Y-124854047D01*
X133865500Y-124831457D01*
X133865500Y-124688542D01*
X133837620Y-124548385D01*
X133837619Y-124548384D01*
X133837619Y-124548380D01*
X133782929Y-124416347D01*
X133782928Y-124416346D01*
X133782925Y-124416340D01*
X133703532Y-124297521D01*
X133703529Y-124297517D01*
X133602482Y-124196470D01*
X133602478Y-124196467D01*
X133483659Y-124117074D01*
X133483650Y-124117069D01*
X133351620Y-124062381D01*
X133351614Y-124062379D01*
X133211457Y-124034500D01*
X133211455Y-124034500D01*
X133068545Y-124034500D01*
X133068543Y-124034500D01*
X132928381Y-124062380D01*
X132928371Y-124062383D01*
X132922447Y-124064837D01*
X132852978Y-124072303D01*
X132827553Y-124064837D01*
X132821628Y-124062383D01*
X132821618Y-124062380D01*
X132681457Y-124034500D01*
X132681455Y-124034500D01*
X132538545Y-124034500D01*
X132538543Y-124034500D01*
X132398381Y-124062380D01*
X132398375Y-124062382D01*
X132387448Y-124066908D01*
X132317979Y-124074374D01*
X132292552Y-124066908D01*
X132281624Y-124062382D01*
X132281618Y-124062380D01*
X132141457Y-124034500D01*
X132141455Y-124034500D01*
X131998545Y-124034500D01*
X131998543Y-124034500D01*
X131858385Y-124062379D01*
X131858379Y-124062381D01*
X131726349Y-124117069D01*
X131726340Y-124117074D01*
X131607521Y-124196467D01*
X131607517Y-124196470D01*
X131506470Y-124297517D01*
X131506467Y-124297521D01*
X131427074Y-124416340D01*
X131427069Y-124416349D01*
X131372381Y-124548379D01*
X131372379Y-124548385D01*
X131344500Y-124688542D01*
X131344500Y-124688545D01*
X131344500Y-124831455D01*
X131344500Y-124831457D01*
X131344499Y-124831457D01*
X126723829Y-124831457D01*
X126788132Y-124735221D01*
X126842822Y-124603188D01*
X126870703Y-124463023D01*
X126870703Y-124320113D01*
X126870703Y-124320110D01*
X126842823Y-124179953D01*
X126842822Y-124179952D01*
X126842822Y-124179948D01*
X126794125Y-124062383D01*
X126788133Y-124047917D01*
X126788128Y-124047908D01*
X126708735Y-123929089D01*
X126708732Y-123929085D01*
X126607685Y-123828038D01*
X126607681Y-123828035D01*
X126488862Y-123748642D01*
X126488853Y-123748637D01*
X126356823Y-123693949D01*
X126356817Y-123693947D01*
X126216660Y-123666068D01*
X126216658Y-123666068D01*
X126073748Y-123666068D01*
X126073746Y-123666068D01*
X125927638Y-123695131D01*
X125858046Y-123688904D01*
X125802869Y-123646041D01*
X125779624Y-123580151D01*
X125787932Y-123531630D01*
X125787303Y-123531440D01*
X125788823Y-123526428D01*
X125788887Y-123526057D01*
X125789071Y-123525613D01*
X125816952Y-123385448D01*
X125816952Y-123242538D01*
X125816952Y-123242535D01*
X125789072Y-123102378D01*
X125789071Y-123102377D01*
X125789071Y-123102373D01*
X125746770Y-123000251D01*
X125734382Y-122970342D01*
X125734377Y-122970333D01*
X125654984Y-122851514D01*
X125654981Y-122851510D01*
X125553934Y-122750463D01*
X125553930Y-122750460D01*
X125435111Y-122671067D01*
X125435102Y-122671062D01*
X125303072Y-122616374D01*
X125303066Y-122616372D01*
X125162909Y-122588493D01*
X125162907Y-122588493D01*
X125019997Y-122588493D01*
X125019995Y-122588493D01*
X124879838Y-122616372D01*
X124874009Y-122618141D01*
X124873233Y-122615584D01*
X124815195Y-122621756D01*
X124752752Y-122590408D01*
X124749673Y-122587433D01*
X124699424Y-122537184D01*
X124699420Y-122537181D01*
X124580601Y-122457788D01*
X124580592Y-122457783D01*
X124448562Y-122403095D01*
X124448556Y-122403093D01*
X124308399Y-122375214D01*
X124308397Y-122375214D01*
X124165487Y-122375214D01*
X124165485Y-122375214D01*
X124025327Y-122403093D01*
X124025321Y-122403095D01*
X123893291Y-122457783D01*
X123893284Y-122457787D01*
X123806366Y-122515864D01*
X123739689Y-122536741D01*
X123672309Y-122518256D01*
X123668586Y-122515863D01*
X123580606Y-122457077D01*
X123580592Y-122457069D01*
X123448562Y-122402381D01*
X123448556Y-122402379D01*
X123308399Y-122374500D01*
X123308397Y-122374500D01*
X123165487Y-122374500D01*
X123165485Y-122374500D01*
X123025327Y-122402379D01*
X123025321Y-122402381D01*
X122893291Y-122457069D01*
X122893282Y-122457074D01*
X122774463Y-122536467D01*
X122774459Y-122536470D01*
X122673412Y-122637517D01*
X122673409Y-122637521D01*
X122594016Y-122756340D01*
X122594011Y-122756349D01*
X122539323Y-122888379D01*
X122539321Y-122888385D01*
X122511442Y-123028542D01*
X122511442Y-123028545D01*
X122511442Y-123171455D01*
X122511442Y-123171457D01*
X122511441Y-123171457D01*
X118357920Y-123171457D01*
X118445067Y-123113227D01*
X118546120Y-123012174D01*
X118565092Y-122983779D01*
X118585284Y-122953562D01*
X118625513Y-122893354D01*
X118625513Y-122893353D01*
X118625517Y-122893348D01*
X118680207Y-122761315D01*
X118696964Y-122677074D01*
X118708088Y-122621152D01*
X118708088Y-122478237D01*
X118680208Y-122338080D01*
X118680207Y-122338079D01*
X118680207Y-122338075D01*
X118625517Y-122206042D01*
X118625516Y-122206041D01*
X118625513Y-122206035D01*
X118546120Y-122087216D01*
X118546117Y-122087212D01*
X118445070Y-121986165D01*
X118445066Y-121986162D01*
X118326247Y-121906769D01*
X118326238Y-121906764D01*
X118194208Y-121852076D01*
X118194202Y-121852074D01*
X118054045Y-121824195D01*
X118054043Y-121824195D01*
X117912366Y-121824195D01*
X117845327Y-121804510D01*
X117799572Y-121751706D01*
X117790749Y-121724386D01*
X117777620Y-121658387D01*
X117777620Y-121658385D01*
X117777619Y-121658380D01*
X117722929Y-121526347D01*
X117722928Y-121526346D01*
X117722925Y-121526340D01*
X117680219Y-121462427D01*
X118625469Y-121462427D01*
X118653349Y-121602584D01*
X118653351Y-121602590D01*
X118708039Y-121734620D01*
X118708044Y-121734629D01*
X118787437Y-121853448D01*
X118787440Y-121853452D01*
X118888487Y-121954499D01*
X118888491Y-121954502D01*
X119007310Y-122033895D01*
X119007316Y-122033898D01*
X119007317Y-122033899D01*
X119139350Y-122088589D01*
X119139354Y-122088589D01*
X119139355Y-122088590D01*
X119279512Y-122116470D01*
X119279515Y-122116470D01*
X119422427Y-122116470D01*
X119516721Y-122097712D01*
X119562590Y-122088589D01*
X119694623Y-122033899D01*
X119813449Y-121954502D01*
X119914502Y-121853449D01*
X119993899Y-121734623D01*
X120048589Y-121602590D01*
X120076470Y-121462425D01*
X120076470Y-121319515D01*
X120076470Y-121319512D01*
X120048590Y-121179355D01*
X120048589Y-121179354D01*
X120048589Y-121179350D01*
X119993899Y-121047317D01*
X119993898Y-121047316D01*
X119993895Y-121047310D01*
X119914502Y-120928491D01*
X119914499Y-120928487D01*
X119813452Y-120827440D01*
X119813448Y-120827437D01*
X119694629Y-120748044D01*
X119694620Y-120748039D01*
X119562590Y-120693351D01*
X119562584Y-120693349D01*
X119422427Y-120665470D01*
X119422425Y-120665470D01*
X119279515Y-120665470D01*
X119279513Y-120665470D01*
X119139355Y-120693349D01*
X119139349Y-120693351D01*
X119007319Y-120748039D01*
X119007310Y-120748044D01*
X118888491Y-120827437D01*
X118888487Y-120827440D01*
X118787440Y-120928487D01*
X118787437Y-120928491D01*
X118708044Y-121047310D01*
X118708039Y-121047319D01*
X118653351Y-121179349D01*
X118653349Y-121179355D01*
X118625470Y-121319512D01*
X118625470Y-121319515D01*
X118625470Y-121462425D01*
X118625470Y-121462427D01*
X118625469Y-121462427D01*
X117680219Y-121462427D01*
X117643532Y-121407521D01*
X117643529Y-121407517D01*
X117542482Y-121306470D01*
X117542478Y-121306467D01*
X117423659Y-121227074D01*
X117423650Y-121227069D01*
X117291620Y-121172381D01*
X117291614Y-121172379D01*
X117151457Y-121144500D01*
X117151455Y-121144500D01*
X117008545Y-121144500D01*
X117008543Y-121144500D01*
X116868385Y-121172379D01*
X116868379Y-121172381D01*
X116736349Y-121227069D01*
X116736340Y-121227074D01*
X116617521Y-121306467D01*
X116617517Y-121306470D01*
X116516470Y-121407517D01*
X116516467Y-121407521D01*
X116437074Y-121526340D01*
X116437069Y-121526349D01*
X116382381Y-121658379D01*
X116382379Y-121658385D01*
X116354500Y-121798542D01*
X116354500Y-121798545D01*
X116354500Y-121941455D01*
X116354500Y-121941457D01*
X116354499Y-121941457D01*
X102997469Y-121941457D01*
X102962479Y-121906467D01*
X102946147Y-121895555D01*
X102843659Y-121827074D01*
X102843650Y-121827069D01*
X102711620Y-121772381D01*
X102711614Y-121772379D01*
X102571457Y-121744500D01*
X102571455Y-121744500D01*
X102428545Y-121744500D01*
X102428543Y-121744500D01*
X102288385Y-121772379D01*
X102288379Y-121772381D01*
X102156349Y-121827069D01*
X102156340Y-121827074D01*
X102037521Y-121906467D01*
X102037517Y-121906470D01*
X101936470Y-122007517D01*
X101936467Y-122007521D01*
X101857074Y-122126340D01*
X101857069Y-122126349D01*
X101802381Y-122258379D01*
X101802379Y-122258385D01*
X101774500Y-122398542D01*
X101774500Y-122398545D01*
X101774500Y-122541455D01*
X101774500Y-122541457D01*
X101774499Y-122541457D01*
X100200500Y-122541457D01*
X100200500Y-119831457D01*
X101754499Y-119831457D01*
X101782379Y-119971614D01*
X101782381Y-119971620D01*
X101837069Y-120103650D01*
X101837074Y-120103659D01*
X101916467Y-120222478D01*
X101916470Y-120222482D01*
X102017517Y-120323529D01*
X102017521Y-120323532D01*
X102136340Y-120402925D01*
X102136346Y-120402928D01*
X102136347Y-120402929D01*
X102268380Y-120457619D01*
X102268384Y-120457619D01*
X102268385Y-120457620D01*
X102408542Y-120485500D01*
X102408545Y-120485500D01*
X102551457Y-120485500D01*
X102645751Y-120466742D01*
X102691620Y-120457619D01*
X102823653Y-120402929D01*
X102942479Y-120323532D01*
X102984554Y-120281457D01*
X127134499Y-120281457D01*
X127162379Y-120421614D01*
X127162381Y-120421620D01*
X127217069Y-120553650D01*
X127217074Y-120553659D01*
X127296467Y-120672478D01*
X127296470Y-120672482D01*
X127397517Y-120773529D01*
X127397521Y-120773532D01*
X127516340Y-120852925D01*
X127516346Y-120852928D01*
X127516347Y-120852929D01*
X127648380Y-120907619D01*
X127648384Y-120907619D01*
X127648385Y-120907620D01*
X127788542Y-120935500D01*
X127788545Y-120935500D01*
X127931457Y-120935500D01*
X128025751Y-120916742D01*
X128071620Y-120907619D01*
X128203653Y-120852929D01*
X128322479Y-120773532D01*
X128423532Y-120672479D01*
X128502929Y-120553653D01*
X128557619Y-120421620D01*
X128585500Y-120281455D01*
X128585500Y-120138545D01*
X128585500Y-120138542D01*
X128557620Y-119998385D01*
X128557619Y-119998384D01*
X128557619Y-119998380D01*
X128502929Y-119866347D01*
X128502928Y-119866346D01*
X128502925Y-119866340D01*
X128423532Y-119747521D01*
X128423529Y-119747517D01*
X128322482Y-119646470D01*
X128322478Y-119646467D01*
X128203659Y-119567074D01*
X128203650Y-119567069D01*
X128071620Y-119512381D01*
X128071614Y-119512379D01*
X127931457Y-119484500D01*
X127931455Y-119484500D01*
X127788545Y-119484500D01*
X127788543Y-119484500D01*
X127648385Y-119512379D01*
X127648379Y-119512381D01*
X127516349Y-119567069D01*
X127516340Y-119567074D01*
X127397521Y-119646467D01*
X127397517Y-119646470D01*
X127296470Y-119747517D01*
X127296467Y-119747521D01*
X127217074Y-119866340D01*
X127217069Y-119866349D01*
X127162381Y-119998379D01*
X127162379Y-119998385D01*
X127134500Y-120138542D01*
X127134500Y-120138545D01*
X127134500Y-120281455D01*
X127134500Y-120281457D01*
X127134499Y-120281457D01*
X102984554Y-120281457D01*
X103043532Y-120222479D01*
X103122929Y-120103653D01*
X103177619Y-119971620D01*
X103198559Y-119866349D01*
X103205500Y-119831457D01*
X103205500Y-119688542D01*
X103177620Y-119548385D01*
X103177619Y-119548384D01*
X103177619Y-119548380D01*
X103122929Y-119416347D01*
X103122928Y-119416346D01*
X103122925Y-119416340D01*
X103066208Y-119331457D01*
X118224499Y-119331457D01*
X118252379Y-119471614D01*
X118252381Y-119471620D01*
X118307069Y-119603650D01*
X118307074Y-119603659D01*
X118386467Y-119722478D01*
X118386470Y-119722482D01*
X118487517Y-119823529D01*
X118487521Y-119823532D01*
X118606340Y-119902925D01*
X118606346Y-119902928D01*
X118606347Y-119902929D01*
X118738380Y-119957619D01*
X118738384Y-119957619D01*
X118738385Y-119957620D01*
X118878542Y-119985500D01*
X118878545Y-119985500D01*
X119021457Y-119985500D01*
X119115751Y-119966742D01*
X119161620Y-119957619D01*
X119293653Y-119902929D01*
X119412479Y-119823532D01*
X119513532Y-119722479D01*
X119592929Y-119603653D01*
X119647619Y-119471620D01*
X119675500Y-119331455D01*
X119675500Y-119188545D01*
X119675500Y-119188542D01*
X119647620Y-119048385D01*
X119647619Y-119048384D01*
X119647619Y-119048380D01*
X119592929Y-118916347D01*
X119592928Y-118916346D01*
X119592925Y-118916340D01*
X119513532Y-118797521D01*
X119513529Y-118797517D01*
X119412482Y-118696470D01*
X119412478Y-118696467D01*
X119293659Y-118617074D01*
X119293650Y-118617069D01*
X119161620Y-118562381D01*
X119161614Y-118562379D01*
X119021457Y-118534500D01*
X119021455Y-118534500D01*
X118878545Y-118534500D01*
X118878543Y-118534500D01*
X118738385Y-118562379D01*
X118738379Y-118562381D01*
X118606349Y-118617069D01*
X118606340Y-118617074D01*
X118487521Y-118696467D01*
X118487517Y-118696470D01*
X118386470Y-118797517D01*
X118386467Y-118797521D01*
X118307074Y-118916340D01*
X118307069Y-118916349D01*
X118252381Y-119048379D01*
X118252379Y-119048385D01*
X118224500Y-119188542D01*
X118224500Y-119188545D01*
X118224500Y-119331455D01*
X118224500Y-119331457D01*
X118224499Y-119331457D01*
X103066208Y-119331457D01*
X103043532Y-119297521D01*
X103043529Y-119297517D01*
X102942482Y-119196470D01*
X102942478Y-119196467D01*
X102823659Y-119117074D01*
X102823650Y-119117069D01*
X102691620Y-119062381D01*
X102691614Y-119062379D01*
X102551457Y-119034500D01*
X102551455Y-119034500D01*
X102408545Y-119034500D01*
X102408543Y-119034500D01*
X102268385Y-119062379D01*
X102268379Y-119062381D01*
X102136349Y-119117069D01*
X102136340Y-119117074D01*
X102017521Y-119196467D01*
X102017517Y-119196470D01*
X101916470Y-119297517D01*
X101916467Y-119297521D01*
X101837074Y-119416340D01*
X101837069Y-119416349D01*
X101782381Y-119548379D01*
X101782379Y-119548385D01*
X101754500Y-119688542D01*
X101754500Y-119688545D01*
X101754500Y-119831455D01*
X101754500Y-119831457D01*
X101754499Y-119831457D01*
X100200500Y-119831457D01*
X100200500Y-117891457D01*
X101754499Y-117891457D01*
X101782379Y-118031614D01*
X101782381Y-118031620D01*
X101837069Y-118163650D01*
X101837074Y-118163659D01*
X101916467Y-118282478D01*
X101916470Y-118282482D01*
X102017517Y-118383529D01*
X102017521Y-118383532D01*
X102136340Y-118462925D01*
X102136346Y-118462928D01*
X102136347Y-118462929D01*
X102268380Y-118517619D01*
X102268384Y-118517619D01*
X102268385Y-118517620D01*
X102408542Y-118545500D01*
X102408545Y-118545500D01*
X102551457Y-118545500D01*
X102645751Y-118526742D01*
X102691620Y-118517619D01*
X102823653Y-118462929D01*
X102942479Y-118383532D01*
X103043532Y-118282479D01*
X103122929Y-118163653D01*
X103177619Y-118031620D01*
X103205500Y-117891455D01*
X103205500Y-117748545D01*
X103205500Y-117748542D01*
X103177620Y-117608385D01*
X103177619Y-117608384D01*
X103177619Y-117608380D01*
X103122929Y-117476347D01*
X103122928Y-117476346D01*
X103122925Y-117476340D01*
X103053990Y-117373172D01*
X103033112Y-117306495D01*
X103051596Y-117239114D01*
X103057540Y-117230353D01*
X103062969Y-117223041D01*
X103098532Y-117187479D01*
X103177929Y-117068653D01*
X103178318Y-117067712D01*
X103182528Y-117062044D01*
X103208050Y-117042784D01*
X103232589Y-117022277D01*
X103237097Y-117020865D01*
X103238300Y-117019958D01*
X103240533Y-117019789D01*
X103257887Y-117014355D01*
X103266620Y-117012619D01*
X103398653Y-116957929D01*
X103446155Y-116926189D01*
X106484499Y-116926189D01*
X106512379Y-117066346D01*
X106512381Y-117066352D01*
X106567069Y-117198382D01*
X106567074Y-117198391D01*
X106646467Y-117317210D01*
X106646470Y-117317214D01*
X106747517Y-117418261D01*
X106747521Y-117418264D01*
X106866340Y-117497657D01*
X106866346Y-117497660D01*
X106866347Y-117497661D01*
X106998380Y-117552351D01*
X106998384Y-117552351D01*
X106998385Y-117552352D01*
X107138542Y-117580232D01*
X107138545Y-117580232D01*
X107281457Y-117580232D01*
X107375751Y-117561474D01*
X107421620Y-117552351D01*
X107553653Y-117497661D01*
X107672479Y-117418264D01*
X107773532Y-117317211D01*
X107852929Y-117198385D01*
X107907619Y-117066352D01*
X107935500Y-116926187D01*
X107935500Y-116783277D01*
X107935500Y-116783274D01*
X107907620Y-116643117D01*
X107907619Y-116643116D01*
X107907619Y-116643112D01*
X107852929Y-116511079D01*
X107852928Y-116511078D01*
X107852925Y-116511072D01*
X107773532Y-116392253D01*
X107773529Y-116392249D01*
X107672482Y-116291202D01*
X107672478Y-116291199D01*
X107568103Y-116221457D01*
X109229331Y-116221457D01*
X109257211Y-116361614D01*
X109257213Y-116361620D01*
X109311901Y-116493650D01*
X109311906Y-116493659D01*
X109391299Y-116612478D01*
X109391302Y-116612482D01*
X109492349Y-116713529D01*
X109492353Y-116713532D01*
X109611172Y-116792925D01*
X109611181Y-116792930D01*
X109619665Y-116796444D01*
X109743212Y-116847619D01*
X109743216Y-116847619D01*
X109743217Y-116847620D01*
X109883374Y-116875500D01*
X109883377Y-116875500D01*
X110026289Y-116875500D01*
X110166447Y-116847620D01*
X110166447Y-116847619D01*
X110166452Y-116847619D01*
X110171322Y-116845601D01*
X110240788Y-116838126D01*
X110303270Y-116869394D01*
X110306465Y-116872477D01*
X110357517Y-116923529D01*
X110357521Y-116923532D01*
X110476340Y-117002925D01*
X110476349Y-117002930D01*
X110491733Y-117009302D01*
X110608380Y-117057619D01*
X110608384Y-117057619D01*
X110608385Y-117057620D01*
X110748542Y-117085500D01*
X110748545Y-117085500D01*
X110891457Y-117085500D01*
X111009374Y-117062044D01*
X111031620Y-117057619D01*
X111163653Y-117002929D01*
X111282479Y-116923532D01*
X111383532Y-116822479D01*
X111462929Y-116703653D01*
X111498293Y-116618277D01*
X130024499Y-116618277D01*
X130052379Y-116758434D01*
X130052381Y-116758440D01*
X130107069Y-116890470D01*
X130107074Y-116890479D01*
X130186467Y-117009298D01*
X130186470Y-117009302D01*
X130287517Y-117110349D01*
X130287521Y-117110352D01*
X130406340Y-117189745D01*
X130406349Y-117189750D01*
X130436258Y-117202138D01*
X130538380Y-117244439D01*
X130538384Y-117244439D01*
X130538385Y-117244440D01*
X130678542Y-117272320D01*
X130678545Y-117272320D01*
X130821457Y-117272320D01*
X130915751Y-117253562D01*
X130961620Y-117244439D01*
X131093653Y-117189749D01*
X131212479Y-117110352D01*
X131245492Y-117077339D01*
X131306814Y-117043853D01*
X131376506Y-117048837D01*
X131402065Y-117061917D01*
X131412142Y-117068650D01*
X131452655Y-117095720D01*
X131584688Y-117150410D01*
X131584692Y-117150410D01*
X131584693Y-117150411D01*
X131724850Y-117178291D01*
X131724853Y-117178291D01*
X131867765Y-117178291D01*
X131962059Y-117159533D01*
X132007928Y-117150410D01*
X132139961Y-117095720D01*
X132258787Y-117016323D01*
X132359840Y-116915270D01*
X132439237Y-116796444D01*
X132493927Y-116664411D01*
X132503104Y-116618275D01*
X132521808Y-116524248D01*
X132521808Y-116381333D01*
X132493928Y-116241176D01*
X132493927Y-116241175D01*
X132493927Y-116241171D01*
X132439237Y-116109138D01*
X132439236Y-116109137D01*
X132439233Y-116109131D01*
X132359840Y-115990312D01*
X132359837Y-115990308D01*
X132258790Y-115889261D01*
X132258786Y-115889258D01*
X132139967Y-115809865D01*
X132139958Y-115809860D01*
X132007928Y-115755172D01*
X132007922Y-115755170D01*
X131867765Y-115727291D01*
X131867763Y-115727291D01*
X131724853Y-115727291D01*
X131724851Y-115727291D01*
X131584693Y-115755170D01*
X131584687Y-115755172D01*
X131452657Y-115809860D01*
X131452648Y-115809865D01*
X131333829Y-115889258D01*
X131333824Y-115889262D01*
X131300813Y-115922273D01*
X131239489Y-115955758D01*
X131169798Y-115950772D01*
X131144242Y-115937693D01*
X131093659Y-115903894D01*
X131093650Y-115903889D01*
X130961620Y-115849201D01*
X130961614Y-115849199D01*
X130821457Y-115821320D01*
X130821455Y-115821320D01*
X130678545Y-115821320D01*
X130678543Y-115821320D01*
X130538385Y-115849199D01*
X130538379Y-115849201D01*
X130406349Y-115903889D01*
X130406340Y-115903894D01*
X130287521Y-115983287D01*
X130287517Y-115983290D01*
X130186470Y-116084337D01*
X130186467Y-116084341D01*
X130107074Y-116203160D01*
X130107069Y-116203169D01*
X130052381Y-116335199D01*
X130052379Y-116335205D01*
X130024500Y-116475362D01*
X130024500Y-116475365D01*
X130024500Y-116618275D01*
X130024500Y-116618277D01*
X130024499Y-116618277D01*
X111498293Y-116618277D01*
X111517619Y-116571620D01*
X111533128Y-116493653D01*
X111542790Y-116445081D01*
X111545500Y-116431457D01*
X111545500Y-116288542D01*
X111517620Y-116148385D01*
X111517619Y-116148384D01*
X111517619Y-116148380D01*
X111475318Y-116046258D01*
X111462930Y-116016349D01*
X111462925Y-116016340D01*
X111383532Y-115897521D01*
X111383529Y-115897517D01*
X111282482Y-115796470D01*
X111282478Y-115796467D01*
X111163659Y-115717074D01*
X111163650Y-115717069D01*
X111031620Y-115662381D01*
X111031614Y-115662379D01*
X110891457Y-115634500D01*
X110891455Y-115634500D01*
X110748545Y-115634500D01*
X110748543Y-115634500D01*
X110608385Y-115662379D01*
X110608376Y-115662382D01*
X110603495Y-115664404D01*
X110534025Y-115671870D01*
X110471547Y-115640592D01*
X110468366Y-115637522D01*
X110417314Y-115586470D01*
X110417310Y-115586467D01*
X110298491Y-115507074D01*
X110298482Y-115507069D01*
X110166452Y-115452381D01*
X110166446Y-115452379D01*
X110026289Y-115424500D01*
X110026287Y-115424500D01*
X109883377Y-115424500D01*
X109883375Y-115424500D01*
X109743217Y-115452379D01*
X109743211Y-115452381D01*
X109611181Y-115507069D01*
X109611172Y-115507074D01*
X109492353Y-115586467D01*
X109492349Y-115586470D01*
X109391302Y-115687517D01*
X109391299Y-115687521D01*
X109311906Y-115806340D01*
X109311901Y-115806349D01*
X109257213Y-115938379D01*
X109257211Y-115938385D01*
X109229332Y-116078542D01*
X109229332Y-116078545D01*
X109229332Y-116221455D01*
X109229332Y-116221457D01*
X109229331Y-116221457D01*
X107568103Y-116221457D01*
X107553659Y-116211806D01*
X107553646Y-116211799D01*
X107493808Y-116187014D01*
X107493807Y-116187014D01*
X107421620Y-116157113D01*
X107421614Y-116157111D01*
X107281457Y-116129232D01*
X107281455Y-116129232D01*
X107138545Y-116129232D01*
X107138543Y-116129232D01*
X106998385Y-116157111D01*
X106998379Y-116157113D01*
X106866349Y-116211801D01*
X106866340Y-116211806D01*
X106747521Y-116291199D01*
X106747517Y-116291202D01*
X106646470Y-116392249D01*
X106646467Y-116392253D01*
X106567074Y-116511072D01*
X106567069Y-116511081D01*
X106512381Y-116643111D01*
X106512379Y-116643117D01*
X106484500Y-116783274D01*
X106484500Y-116783277D01*
X106484500Y-116926187D01*
X106484500Y-116926189D01*
X106484499Y-116926189D01*
X103446155Y-116926189D01*
X103517479Y-116878532D01*
X103618532Y-116777479D01*
X103697929Y-116658653D01*
X103752619Y-116526620D01*
X103762815Y-116475362D01*
X103780500Y-116386457D01*
X103780500Y-116243542D01*
X103752620Y-116103385D01*
X103752619Y-116103384D01*
X103752619Y-116103380D01*
X103697929Y-115971347D01*
X103697928Y-115971346D01*
X103697925Y-115971340D01*
X103648616Y-115897544D01*
X103627738Y-115830866D01*
X103646223Y-115763486D01*
X103658013Y-115748588D01*
X103657602Y-115748251D01*
X103661464Y-115743546D01*
X103737610Y-115629585D01*
X103790061Y-115502957D01*
X103816800Y-115368530D01*
X103816800Y-115231470D01*
X103790061Y-115097043D01*
X103774274Y-115058930D01*
X103737613Y-114970421D01*
X103737606Y-114970408D01*
X103661463Y-114856453D01*
X103661460Y-114856449D01*
X103564550Y-114759539D01*
X103564546Y-114759536D01*
X103450591Y-114683393D01*
X103450578Y-114683386D01*
X103323961Y-114630940D01*
X103323949Y-114630937D01*
X103189534Y-114604200D01*
X103189530Y-114604200D01*
X103052470Y-114604200D01*
X103052465Y-114604200D01*
X102918050Y-114630937D01*
X102918038Y-114630940D01*
X102791421Y-114683386D01*
X102791408Y-114683393D01*
X102677453Y-114759536D01*
X102677449Y-114759539D01*
X102580539Y-114856449D01*
X102580536Y-114856453D01*
X102504393Y-114970408D01*
X102504386Y-114970421D01*
X102451940Y-115097038D01*
X102451937Y-115097050D01*
X102425200Y-115231465D01*
X102425200Y-115368534D01*
X102451937Y-115502949D01*
X102451940Y-115502961D01*
X102504386Y-115629578D01*
X102504393Y-115629591D01*
X102531972Y-115670865D01*
X102552850Y-115737542D01*
X102534366Y-115804922D01*
X102528723Y-115813277D01*
X102523170Y-115820818D01*
X102491468Y-115852521D01*
X102412071Y-115971347D01*
X102411728Y-115972172D01*
X102407772Y-115977547D01*
X102382134Y-115997058D01*
X102357409Y-116017722D01*
X102353286Y-116019013D01*
X102352172Y-116019861D01*
X102350036Y-116020030D01*
X102332117Y-116025642D01*
X102323386Y-116027379D01*
X102323381Y-116027380D01*
X102191349Y-116082069D01*
X102191340Y-116082074D01*
X102072521Y-116161467D01*
X102072517Y-116161470D01*
X101971470Y-116262517D01*
X101971467Y-116262521D01*
X101892074Y-116381340D01*
X101892069Y-116381349D01*
X101837381Y-116513379D01*
X101837379Y-116513385D01*
X101809500Y-116653542D01*
X101809500Y-116653545D01*
X101809500Y-116796455D01*
X101809500Y-116796457D01*
X101809499Y-116796457D01*
X101837379Y-116936614D01*
X101837381Y-116936620D01*
X101892069Y-117068650D01*
X101892074Y-117068659D01*
X101961009Y-117171827D01*
X101981887Y-117238505D01*
X101963402Y-117305885D01*
X101945590Y-117328398D01*
X101916467Y-117357521D01*
X101837074Y-117476340D01*
X101837069Y-117476349D01*
X101782381Y-117608379D01*
X101782379Y-117608385D01*
X101754500Y-117748542D01*
X101754500Y-117748545D01*
X101754500Y-117891455D01*
X101754500Y-117891457D01*
X101754499Y-117891457D01*
X100200500Y-117891457D01*
X100200500Y-115596574D01*
X100220185Y-115529535D01*
X100272989Y-115483780D01*
X100342147Y-115473836D01*
X100405703Y-115502861D01*
X100439061Y-115549122D01*
X100472386Y-115629578D01*
X100472393Y-115629591D01*
X100548536Y-115743546D01*
X100548539Y-115743550D01*
X100645449Y-115840460D01*
X100645453Y-115840463D01*
X100759408Y-115916606D01*
X100759421Y-115916613D01*
X100886038Y-115969059D01*
X100886043Y-115969061D01*
X100957578Y-115983290D01*
X101020465Y-115995799D01*
X101020469Y-115995800D01*
X101020470Y-115995800D01*
X101157531Y-115995800D01*
X101157532Y-115995799D01*
X101291957Y-115969061D01*
X101418585Y-115916610D01*
X101532547Y-115840463D01*
X101629463Y-115743547D01*
X101705610Y-115629585D01*
X101758061Y-115502957D01*
X101784800Y-115368530D01*
X101784800Y-115231470D01*
X101758061Y-115097043D01*
X101742274Y-115058930D01*
X101705613Y-114970421D01*
X101705606Y-114970408D01*
X101629463Y-114856453D01*
X101629460Y-114856449D01*
X101532550Y-114759539D01*
X101532546Y-114759536D01*
X101418591Y-114683393D01*
X101418578Y-114683386D01*
X101291961Y-114630940D01*
X101291949Y-114630937D01*
X101157534Y-114604200D01*
X101157530Y-114604200D01*
X101020470Y-114604200D01*
X101020465Y-114604200D01*
X100886050Y-114630937D01*
X100886038Y-114630940D01*
X100759421Y-114683386D01*
X100759408Y-114683393D01*
X100645453Y-114759536D01*
X100645449Y-114759539D01*
X100548539Y-114856449D01*
X100548536Y-114856453D01*
X100472393Y-114970408D01*
X100472388Y-114970417D01*
X100439061Y-115050878D01*
X100395220Y-115105281D01*
X100328926Y-115127346D01*
X100261227Y-115110067D01*
X100213616Y-115058930D01*
X100200500Y-115003425D01*
X100200500Y-114403146D01*
X100220185Y-114336107D01*
X100272989Y-114290352D01*
X100342147Y-114280408D01*
X100375420Y-114291317D01*
X100375719Y-114290598D01*
X100381347Y-114292929D01*
X100513380Y-114347619D01*
X100513384Y-114347619D01*
X100513385Y-114347620D01*
X100653542Y-114375500D01*
X100653545Y-114375500D01*
X100796457Y-114375500D01*
X100890751Y-114356742D01*
X100936620Y-114347619D01*
X101068653Y-114292929D01*
X101187479Y-114213532D01*
X101288532Y-114112479D01*
X101367929Y-113993653D01*
X101422619Y-113861620D01*
X101438361Y-113782482D01*
X101450500Y-113721457D01*
X101450500Y-113578542D01*
X101443123Y-113541457D01*
X108454499Y-113541457D01*
X108482379Y-113681614D01*
X108482381Y-113681620D01*
X108537069Y-113813650D01*
X108537074Y-113813659D01*
X108616467Y-113932478D01*
X108616470Y-113932482D01*
X108717517Y-114033529D01*
X108717521Y-114033532D01*
X108836340Y-114112925D01*
X108836346Y-114112928D01*
X108836347Y-114112929D01*
X108968380Y-114167619D01*
X108968384Y-114167619D01*
X108968385Y-114167620D01*
X109108542Y-114195500D01*
X109108545Y-114195500D01*
X109251457Y-114195500D01*
X109345751Y-114176742D01*
X109391620Y-114167619D01*
X109523653Y-114112929D01*
X109642479Y-114033532D01*
X109743532Y-113932479D01*
X109822929Y-113813653D01*
X109877619Y-113681620D01*
X109898726Y-113575510D01*
X109905500Y-113541457D01*
X109905500Y-113398542D01*
X109877620Y-113258385D01*
X109877619Y-113258384D01*
X109877619Y-113258380D01*
X109822929Y-113126347D01*
X109822928Y-113126346D01*
X109822925Y-113126340D01*
X109743532Y-113007521D01*
X109743529Y-113007517D01*
X109697469Y-112961457D01*
X116994499Y-112961457D01*
X117022379Y-113101614D01*
X117022381Y-113101620D01*
X117077069Y-113233650D01*
X117077074Y-113233659D01*
X117156467Y-113352478D01*
X117156470Y-113352482D01*
X117257517Y-113453529D01*
X117257521Y-113453532D01*
X117359837Y-113521898D01*
X117404642Y-113575510D01*
X117413349Y-113644835D01*
X117383194Y-113707863D01*
X117359837Y-113728102D01*
X117257521Y-113796467D01*
X117257517Y-113796470D01*
X117156470Y-113897517D01*
X117156467Y-113897521D01*
X117077074Y-114016340D01*
X117077069Y-114016349D01*
X117022381Y-114148379D01*
X117022379Y-114148385D01*
X116994500Y-114288542D01*
X116994500Y-114288545D01*
X116994500Y-114431455D01*
X116994500Y-114431457D01*
X116994499Y-114431457D01*
X117022379Y-114571614D01*
X117022381Y-114571620D01*
X117077069Y-114703650D01*
X117077074Y-114703659D01*
X117156467Y-114822478D01*
X117156470Y-114822482D01*
X117257517Y-114923529D01*
X117257521Y-114923532D01*
X117376340Y-115002925D01*
X117376346Y-115002928D01*
X117376347Y-115002929D01*
X117508380Y-115057619D01*
X117508384Y-115057619D01*
X117508385Y-115057620D01*
X117648542Y-115085500D01*
X117648545Y-115085500D01*
X117791457Y-115085500D01*
X117885751Y-115066742D01*
X117931620Y-115057619D01*
X118063653Y-115002929D01*
X118182479Y-114923532D01*
X118283532Y-114822479D01*
X118362929Y-114703653D01*
X118417619Y-114571620D01*
X118431576Y-114501457D01*
X131574499Y-114501457D01*
X131602379Y-114641614D01*
X131602381Y-114641620D01*
X131657069Y-114773650D01*
X131657074Y-114773659D01*
X131736467Y-114892478D01*
X131736470Y-114892482D01*
X131837517Y-114993529D01*
X131837521Y-114993532D01*
X131956340Y-115072925D01*
X131956346Y-115072928D01*
X131956347Y-115072929D01*
X132088380Y-115127619D01*
X132088384Y-115127619D01*
X132088385Y-115127620D01*
X132228542Y-115155500D01*
X132353075Y-115155500D01*
X132420114Y-115175185D01*
X132465869Y-115227989D01*
X132474692Y-115255309D01*
X132497035Y-115367633D01*
X132497037Y-115367641D01*
X132551725Y-115499671D01*
X132551730Y-115499680D01*
X132631123Y-115618499D01*
X132631126Y-115618503D01*
X132732173Y-115719550D01*
X132732177Y-115719553D01*
X132850996Y-115798946D01*
X132851005Y-115798951D01*
X132868844Y-115806340D01*
X132983036Y-115853640D01*
X132983040Y-115853640D01*
X132983041Y-115853641D01*
X133123198Y-115881521D01*
X133123201Y-115881521D01*
X133266113Y-115881521D01*
X133360407Y-115862763D01*
X133406276Y-115853640D01*
X133538309Y-115798950D01*
X133657135Y-115719553D01*
X133758188Y-115618500D01*
X133837585Y-115499674D01*
X133892275Y-115367641D01*
X133920156Y-115227476D01*
X133920156Y-115084566D01*
X133920156Y-115084563D01*
X133892276Y-114944406D01*
X133892275Y-114944405D01*
X133892275Y-114944401D01*
X133837585Y-114812368D01*
X133837584Y-114812367D01*
X133837581Y-114812361D01*
X133758188Y-114693542D01*
X133758185Y-114693538D01*
X133657138Y-114592491D01*
X133657134Y-114592488D01*
X133538315Y-114513095D01*
X133538306Y-114513090D01*
X133406276Y-114458402D01*
X133406270Y-114458400D01*
X133266113Y-114430521D01*
X133266111Y-114430521D01*
X133141581Y-114430521D01*
X133074542Y-114410836D01*
X133028787Y-114358032D01*
X133019964Y-114330712D01*
X132997620Y-114218387D01*
X132997620Y-114218385D01*
X132997619Y-114218380D01*
X132953938Y-114112925D01*
X132942930Y-114086349D01*
X132942925Y-114086340D01*
X132863532Y-113967521D01*
X132863529Y-113967517D01*
X132762482Y-113866470D01*
X132762478Y-113866467D01*
X132643659Y-113787074D01*
X132643650Y-113787069D01*
X132511620Y-113732381D01*
X132511614Y-113732379D01*
X132371457Y-113704500D01*
X132371455Y-113704500D01*
X132228545Y-113704500D01*
X132228543Y-113704500D01*
X132088385Y-113732379D01*
X132088379Y-113732381D01*
X131956349Y-113787069D01*
X131956340Y-113787074D01*
X131837521Y-113866467D01*
X131837517Y-113866470D01*
X131736470Y-113967517D01*
X131736467Y-113967521D01*
X131657074Y-114086340D01*
X131657069Y-114086349D01*
X131602381Y-114218379D01*
X131602379Y-114218385D01*
X131574500Y-114358542D01*
X131574500Y-114358545D01*
X131574500Y-114501455D01*
X131574500Y-114501457D01*
X131574499Y-114501457D01*
X118431576Y-114501457D01*
X118440140Y-114458402D01*
X118445500Y-114431457D01*
X118445500Y-114288542D01*
X118417620Y-114148385D01*
X118417619Y-114148384D01*
X118417619Y-114148380D01*
X118363456Y-114017619D01*
X118362930Y-114016349D01*
X118362925Y-114016340D01*
X118283532Y-113897521D01*
X118283529Y-113897517D01*
X118182482Y-113796470D01*
X118182474Y-113796464D01*
X118080163Y-113728102D01*
X118035357Y-113674490D01*
X118026650Y-113605165D01*
X118056804Y-113542138D01*
X118057590Y-113541457D01*
X121184499Y-113541457D01*
X121212379Y-113681614D01*
X121212381Y-113681620D01*
X121267069Y-113813650D01*
X121267074Y-113813659D01*
X121346467Y-113932478D01*
X121346470Y-113932482D01*
X121447517Y-114033529D01*
X121447521Y-114033532D01*
X121566340Y-114112925D01*
X121566346Y-114112928D01*
X121566347Y-114112929D01*
X121698380Y-114167619D01*
X121698384Y-114167619D01*
X121698385Y-114167620D01*
X121838542Y-114195500D01*
X121838545Y-114195500D01*
X121981457Y-114195500D01*
X122075751Y-114176742D01*
X122121620Y-114167619D01*
X122253653Y-114112929D01*
X122372479Y-114033532D01*
X122473532Y-113932479D01*
X122552929Y-113813653D01*
X122607619Y-113681620D01*
X122628726Y-113575510D01*
X122635500Y-113541457D01*
X122635500Y-113501457D01*
X124181984Y-113501457D01*
X124209864Y-113641614D01*
X124209866Y-113641620D01*
X124264554Y-113773650D01*
X124264559Y-113773659D01*
X124343952Y-113892478D01*
X124343955Y-113892482D01*
X124445002Y-113993529D01*
X124445006Y-113993532D01*
X124563825Y-114072925D01*
X124563831Y-114072928D01*
X124563832Y-114072929D01*
X124695865Y-114127619D01*
X124695869Y-114127619D01*
X124695870Y-114127620D01*
X124836027Y-114155500D01*
X124836030Y-114155500D01*
X124978942Y-114155500D01*
X125073236Y-114136742D01*
X125119105Y-114127619D01*
X125251138Y-114072929D01*
X125369964Y-113993532D01*
X125471017Y-113892479D01*
X125550414Y-113773653D01*
X125605104Y-113641620D01*
X125625028Y-113541457D01*
X125632985Y-113501457D01*
X125632985Y-113391457D01*
X132884499Y-113391457D01*
X132912379Y-113531614D01*
X132912381Y-113531620D01*
X132967069Y-113663650D01*
X132967074Y-113663659D01*
X133046467Y-113782478D01*
X133046470Y-113782482D01*
X133147517Y-113883529D01*
X133147521Y-113883532D01*
X133266340Y-113962925D01*
X133266346Y-113962928D01*
X133266347Y-113962929D01*
X133398380Y-114017619D01*
X133398384Y-114017619D01*
X133398385Y-114017620D01*
X133538542Y-114045500D01*
X133538545Y-114045500D01*
X133681457Y-114045500D01*
X133782000Y-114025500D01*
X133821620Y-114017619D01*
X133911690Y-113980310D01*
X133981156Y-113972841D01*
X134006595Y-113980310D01*
X134048380Y-113997619D01*
X134048384Y-113997619D01*
X134048385Y-113997620D01*
X134188542Y-114025500D01*
X134188545Y-114025500D01*
X134331457Y-114025500D01*
X134425751Y-114006742D01*
X134471620Y-113997619D01*
X134554621Y-113963238D01*
X134624087Y-113955770D01*
X134649514Y-113963235D01*
X134708380Y-113987619D01*
X134708384Y-113987619D01*
X134708385Y-113987620D01*
X134848542Y-114015500D01*
X134848545Y-114015500D01*
X134991457Y-114015500D01*
X135101255Y-113993659D01*
X135131620Y-113987619D01*
X135263653Y-113932929D01*
X135382479Y-113853532D01*
X135483532Y-113752479D01*
X135562929Y-113633653D01*
X135617619Y-113501620D01*
X135639533Y-113391455D01*
X135645500Y-113361457D01*
X135645500Y-113218542D01*
X135617620Y-113078385D01*
X135617619Y-113078384D01*
X135617619Y-113078380D01*
X135562929Y-112946347D01*
X135562928Y-112946346D01*
X135562925Y-112946340D01*
X135483532Y-112827521D01*
X135483529Y-112827517D01*
X135382482Y-112726470D01*
X135382478Y-112726467D01*
X135263659Y-112647074D01*
X135263650Y-112647069D01*
X135131620Y-112592381D01*
X135131614Y-112592379D01*
X134991457Y-112564500D01*
X134991455Y-112564500D01*
X134848545Y-112564500D01*
X134848543Y-112564500D01*
X134708386Y-112592379D01*
X134708383Y-112592380D01*
X134708381Y-112592380D01*
X134708380Y-112592381D01*
X134693897Y-112598380D01*
X134625379Y-112626760D01*
X134555909Y-112634227D01*
X134530476Y-112626760D01*
X134471620Y-112602381D01*
X134471615Y-112602380D01*
X134471614Y-112602379D01*
X134331457Y-112574500D01*
X134331455Y-112574500D01*
X134188545Y-112574500D01*
X134188543Y-112574500D01*
X134048385Y-112602379D01*
X134048375Y-112602382D01*
X133958309Y-112639689D01*
X133888840Y-112647158D01*
X133863406Y-112639689D01*
X133821620Y-112622381D01*
X133821614Y-112622379D01*
X133681457Y-112594500D01*
X133681455Y-112594500D01*
X133538545Y-112594500D01*
X133538543Y-112594500D01*
X133398385Y-112622379D01*
X133398379Y-112622381D01*
X133266349Y-112677069D01*
X133266340Y-112677074D01*
X133147521Y-112756467D01*
X133147517Y-112756470D01*
X133046470Y-112857517D01*
X133046467Y-112857521D01*
X132967074Y-112976340D01*
X132967069Y-112976349D01*
X132912381Y-113108379D01*
X132912379Y-113108385D01*
X132884500Y-113248542D01*
X132884500Y-113248545D01*
X132884500Y-113391455D01*
X132884500Y-113391457D01*
X132884499Y-113391457D01*
X125632985Y-113391457D01*
X125632985Y-113358542D01*
X125614705Y-113266645D01*
X125605105Y-113218385D01*
X125605104Y-113218384D01*
X125605104Y-113218380D01*
X125562803Y-113116258D01*
X125550415Y-113086349D01*
X125550410Y-113086340D01*
X125471017Y-112967520D01*
X125369967Y-112866470D01*
X125369963Y-112866467D01*
X125251144Y-112787074D01*
X125251135Y-112787069D01*
X125119105Y-112732381D01*
X125119099Y-112732379D01*
X124978942Y-112704500D01*
X124978940Y-112704500D01*
X124836030Y-112704500D01*
X124836028Y-112704500D01*
X124695870Y-112732379D01*
X124695864Y-112732381D01*
X124563834Y-112787069D01*
X124563825Y-112787074D01*
X124445006Y-112866467D01*
X124445002Y-112866470D01*
X124343955Y-112967517D01*
X124343953Y-112967520D01*
X124264559Y-113086340D01*
X124264554Y-113086349D01*
X124209866Y-113218379D01*
X124209864Y-113218385D01*
X124181985Y-113358542D01*
X124181985Y-113358545D01*
X124181985Y-113501455D01*
X124181985Y-113501457D01*
X124181984Y-113501457D01*
X122635500Y-113501457D01*
X122635500Y-113398543D01*
X122631144Y-113376646D01*
X122631144Y-113376645D01*
X122607620Y-113258385D01*
X122607619Y-113258384D01*
X122607619Y-113258380D01*
X122552929Y-113126347D01*
X122552928Y-113126346D01*
X122552925Y-113126340D01*
X122473532Y-113007521D01*
X122473529Y-113007517D01*
X122372482Y-112906470D01*
X122372478Y-112906467D01*
X122253659Y-112827074D01*
X122253650Y-112827069D01*
X122121620Y-112772381D01*
X122121614Y-112772379D01*
X121981457Y-112744500D01*
X121981455Y-112744500D01*
X121838545Y-112744500D01*
X121838543Y-112744500D01*
X121698385Y-112772379D01*
X121698379Y-112772381D01*
X121566349Y-112827069D01*
X121566340Y-112827074D01*
X121447521Y-112906467D01*
X121447517Y-112906470D01*
X121346470Y-113007517D01*
X121346467Y-113007521D01*
X121267074Y-113126340D01*
X121267069Y-113126349D01*
X121212381Y-113258379D01*
X121212379Y-113258385D01*
X121184500Y-113398542D01*
X121184500Y-113398543D01*
X121184500Y-113398545D01*
X121184500Y-113541455D01*
X121184500Y-113541457D01*
X121184499Y-113541457D01*
X118057590Y-113541457D01*
X118080163Y-113521898D01*
X118146552Y-113477537D01*
X118182479Y-113453532D01*
X118283532Y-113352479D01*
X118314357Y-113306347D01*
X118362925Y-113233659D01*
X118362925Y-113233658D01*
X118362929Y-113233653D01*
X118417619Y-113101620D01*
X118433532Y-113021620D01*
X118445500Y-112961457D01*
X118445500Y-112818542D01*
X118417620Y-112678385D01*
X118417619Y-112678384D01*
X118417619Y-112678380D01*
X118362929Y-112546347D01*
X118362928Y-112546346D01*
X118362925Y-112546340D01*
X118283532Y-112427521D01*
X118283529Y-112427517D01*
X118182482Y-112326470D01*
X118182478Y-112326467D01*
X118063659Y-112247074D01*
X118063650Y-112247069D01*
X117931620Y-112192381D01*
X117931614Y-112192379D01*
X117791457Y-112164500D01*
X117791455Y-112164500D01*
X117648545Y-112164500D01*
X117648543Y-112164500D01*
X117508385Y-112192379D01*
X117508379Y-112192381D01*
X117376349Y-112247069D01*
X117376340Y-112247074D01*
X117257521Y-112326467D01*
X117257517Y-112326470D01*
X117156470Y-112427517D01*
X117156467Y-112427521D01*
X117077074Y-112546340D01*
X117077069Y-112546349D01*
X117022381Y-112678379D01*
X117022379Y-112678385D01*
X116994500Y-112818542D01*
X116994500Y-112818545D01*
X116994500Y-112961455D01*
X116994500Y-112961457D01*
X116994499Y-112961457D01*
X109697469Y-112961457D01*
X109642487Y-112906475D01*
X109642481Y-112906470D01*
X109642479Y-112906468D01*
X109641414Y-112905756D01*
X109523659Y-112827074D01*
X109523650Y-112827069D01*
X109391620Y-112772381D01*
X109391614Y-112772379D01*
X109251457Y-112744500D01*
X109251455Y-112744500D01*
X109108545Y-112744500D01*
X109108543Y-112744500D01*
X108968385Y-112772379D01*
X108968379Y-112772381D01*
X108836349Y-112827069D01*
X108836340Y-112827074D01*
X108717521Y-112906467D01*
X108717517Y-112906470D01*
X108616470Y-113007517D01*
X108616467Y-113007521D01*
X108537074Y-113126340D01*
X108537069Y-113126349D01*
X108482381Y-113258379D01*
X108482379Y-113258385D01*
X108454500Y-113398542D01*
X108454500Y-113398543D01*
X108454500Y-113398545D01*
X108454500Y-113541455D01*
X108454500Y-113541457D01*
X108454499Y-113541457D01*
X101443123Y-113541457D01*
X101422620Y-113438385D01*
X101422618Y-113438378D01*
X101406117Y-113398542D01*
X101367929Y-113306347D01*
X101367928Y-113306346D01*
X101367925Y-113306340D01*
X101288543Y-113187537D01*
X101267665Y-113120860D01*
X101277084Y-113071195D01*
X101297619Y-113021620D01*
X101320525Y-112906467D01*
X101325500Y-112881457D01*
X101325500Y-112738542D01*
X101297620Y-112598385D01*
X101297619Y-112598384D01*
X101297619Y-112598380D01*
X101242929Y-112466347D01*
X101242928Y-112466346D01*
X101242925Y-112466340D01*
X101163532Y-112347521D01*
X101163529Y-112347517D01*
X101062482Y-112246470D01*
X101062478Y-112246467D01*
X100943659Y-112167074D01*
X100943650Y-112167069D01*
X100811620Y-112112381D01*
X100811614Y-112112379D01*
X100671457Y-112084500D01*
X100671455Y-112084500D01*
X100528545Y-112084500D01*
X100528543Y-112084500D01*
X100388385Y-112112379D01*
X100388379Y-112112381D01*
X100371951Y-112119186D01*
X100302481Y-112126653D01*
X100240002Y-112095377D01*
X100204351Y-112035288D01*
X100200500Y-112004624D01*
X100200500Y-110151465D01*
X101409200Y-110151465D01*
X101409200Y-110288534D01*
X101435937Y-110422949D01*
X101435940Y-110422961D01*
X101488386Y-110549578D01*
X101488393Y-110549591D01*
X101564536Y-110663546D01*
X101564539Y-110663550D01*
X101661449Y-110760460D01*
X101661453Y-110760463D01*
X101775408Y-110836606D01*
X101775421Y-110836613D01*
X101902038Y-110889059D01*
X101902043Y-110889061D01*
X102036465Y-110915799D01*
X102036469Y-110915800D01*
X102036470Y-110915800D01*
X102173531Y-110915800D01*
X102173532Y-110915799D01*
X102307957Y-110889061D01*
X102434585Y-110836610D01*
X102517127Y-110781457D01*
X106104499Y-110781457D01*
X106132379Y-110921614D01*
X106132381Y-110921620D01*
X106187069Y-111053650D01*
X106187074Y-111053659D01*
X106266467Y-111172478D01*
X106266470Y-111172482D01*
X106367517Y-111273529D01*
X106367521Y-111273532D01*
X106486340Y-111352925D01*
X106486346Y-111352928D01*
X106486347Y-111352929D01*
X106618380Y-111407619D01*
X106618384Y-111407619D01*
X106618385Y-111407620D01*
X106758542Y-111435500D01*
X106758545Y-111435500D01*
X106901457Y-111435500D01*
X106995751Y-111416742D01*
X107041620Y-111407619D01*
X107173653Y-111352929D01*
X107292479Y-111273532D01*
X107393532Y-111172479D01*
X107472929Y-111053653D01*
X107477981Y-111041457D01*
X111344499Y-111041457D01*
X111372379Y-111181614D01*
X111372381Y-111181620D01*
X111427069Y-111313650D01*
X111427074Y-111313659D01*
X111506467Y-111432478D01*
X111506470Y-111432482D01*
X111607517Y-111533529D01*
X111607521Y-111533532D01*
X111726340Y-111612925D01*
X111726346Y-111612928D01*
X111726347Y-111612929D01*
X111858380Y-111667619D01*
X111858384Y-111667619D01*
X111858385Y-111667620D01*
X111998542Y-111695500D01*
X111998545Y-111695500D01*
X112141457Y-111695500D01*
X112235751Y-111676742D01*
X112281620Y-111667619D01*
X112413653Y-111612929D01*
X112532479Y-111533532D01*
X112633532Y-111432479D01*
X112712929Y-111313653D01*
X112767619Y-111181620D01*
X112789533Y-111071457D01*
X118394499Y-111071457D01*
X118422379Y-111211614D01*
X118422381Y-111211620D01*
X118477069Y-111343650D01*
X118477074Y-111343659D01*
X118556467Y-111462478D01*
X118556470Y-111462482D01*
X118657517Y-111563529D01*
X118657521Y-111563532D01*
X118776340Y-111642925D01*
X118776346Y-111642928D01*
X118776347Y-111642929D01*
X118908380Y-111697619D01*
X118908384Y-111697619D01*
X118908385Y-111697620D01*
X119048542Y-111725500D01*
X119048545Y-111725500D01*
X119191457Y-111725500D01*
X119285751Y-111706742D01*
X119331620Y-111697619D01*
X119463653Y-111642929D01*
X119582479Y-111563532D01*
X119683532Y-111462479D01*
X119762929Y-111343653D01*
X119817619Y-111211620D01*
X119845500Y-111071455D01*
X119845500Y-110928545D01*
X119845500Y-110928542D01*
X119817620Y-110788385D01*
X119817619Y-110788384D01*
X119817619Y-110788380D01*
X119762929Y-110656347D01*
X119762928Y-110656346D01*
X119762925Y-110656340D01*
X119683532Y-110537521D01*
X119683529Y-110537517D01*
X119582482Y-110436470D01*
X119582478Y-110436467D01*
X119470219Y-110361457D01*
X122724499Y-110361457D01*
X122752379Y-110501614D01*
X122752381Y-110501620D01*
X122807069Y-110633650D01*
X122807074Y-110633659D01*
X122886467Y-110752478D01*
X122886470Y-110752482D01*
X122987517Y-110853529D01*
X122987521Y-110853532D01*
X123106340Y-110932925D01*
X123106346Y-110932928D01*
X123106347Y-110932929D01*
X123238380Y-110987619D01*
X123238384Y-110987619D01*
X123238385Y-110987620D01*
X123378542Y-111015500D01*
X123378545Y-111015500D01*
X123521457Y-111015500D01*
X123615751Y-110996742D01*
X123661620Y-110987619D01*
X123793653Y-110932929D01*
X123912479Y-110853532D01*
X124013532Y-110752479D01*
X124092929Y-110633653D01*
X124147619Y-110501620D01*
X124160579Y-110436467D01*
X124175500Y-110361457D01*
X124175500Y-110218542D01*
X124147620Y-110078385D01*
X124147619Y-110078384D01*
X124147619Y-110078380D01*
X124092929Y-109946347D01*
X124092928Y-109946346D01*
X124092925Y-109946340D01*
X124013532Y-109827521D01*
X124013529Y-109827517D01*
X123912482Y-109726470D01*
X123912478Y-109726467D01*
X123793659Y-109647074D01*
X123793650Y-109647069D01*
X123661620Y-109592381D01*
X123661614Y-109592379D01*
X123521457Y-109564500D01*
X123521455Y-109564500D01*
X123378545Y-109564500D01*
X123378543Y-109564500D01*
X123238385Y-109592379D01*
X123238379Y-109592381D01*
X123106349Y-109647069D01*
X123106340Y-109647074D01*
X122987521Y-109726467D01*
X122987517Y-109726470D01*
X122886470Y-109827517D01*
X122886467Y-109827521D01*
X122807074Y-109946340D01*
X122807069Y-109946349D01*
X122752381Y-110078379D01*
X122752379Y-110078385D01*
X122724500Y-110218542D01*
X122724500Y-110218545D01*
X122724500Y-110361455D01*
X122724500Y-110361457D01*
X122724499Y-110361457D01*
X119470219Y-110361457D01*
X119463659Y-110357074D01*
X119463650Y-110357069D01*
X119391089Y-110327014D01*
X119331620Y-110302381D01*
X119331614Y-110302379D01*
X119191457Y-110274500D01*
X119191455Y-110274500D01*
X119048545Y-110274500D01*
X119048543Y-110274500D01*
X118908385Y-110302379D01*
X118908379Y-110302381D01*
X118776349Y-110357069D01*
X118776340Y-110357074D01*
X118657521Y-110436467D01*
X118657517Y-110436470D01*
X118556470Y-110537517D01*
X118556467Y-110537521D01*
X118477074Y-110656340D01*
X118477069Y-110656349D01*
X118422381Y-110788379D01*
X118422379Y-110788385D01*
X118394500Y-110928542D01*
X118394500Y-110928545D01*
X118394500Y-111071455D01*
X118394500Y-111071457D01*
X118394499Y-111071457D01*
X112789533Y-111071457D01*
X112789533Y-111071455D01*
X112795500Y-111041457D01*
X112795500Y-110898542D01*
X112767620Y-110758385D01*
X112767619Y-110758384D01*
X112767619Y-110758380D01*
X112712929Y-110626347D01*
X112712928Y-110626346D01*
X112712925Y-110626340D01*
X112633532Y-110507521D01*
X112633529Y-110507517D01*
X112532482Y-110406470D01*
X112532478Y-110406467D01*
X112413659Y-110327074D01*
X112413650Y-110327069D01*
X112281620Y-110272381D01*
X112281614Y-110272379D01*
X112141457Y-110244500D01*
X112141455Y-110244500D01*
X111998545Y-110244500D01*
X111998543Y-110244500D01*
X111858385Y-110272379D01*
X111858379Y-110272381D01*
X111726349Y-110327069D01*
X111726340Y-110327074D01*
X111607521Y-110406467D01*
X111607517Y-110406470D01*
X111506470Y-110507517D01*
X111506467Y-110507521D01*
X111427074Y-110626340D01*
X111427069Y-110626349D01*
X111372381Y-110758379D01*
X111372379Y-110758385D01*
X111344500Y-110898542D01*
X111344500Y-110898545D01*
X111344500Y-111041455D01*
X111344500Y-111041457D01*
X111344499Y-111041457D01*
X107477981Y-111041457D01*
X107527619Y-110921620D01*
X107555500Y-110781455D01*
X107555500Y-110638545D01*
X107555500Y-110638542D01*
X107527620Y-110498385D01*
X107527619Y-110498384D01*
X107527619Y-110498380D01*
X107472929Y-110366347D01*
X107472928Y-110366346D01*
X107472925Y-110366340D01*
X107393532Y-110247521D01*
X107393529Y-110247517D01*
X107292482Y-110146470D01*
X107292478Y-110146467D01*
X107173659Y-110067074D01*
X107173650Y-110067069D01*
X107041620Y-110012381D01*
X107041614Y-110012379D01*
X106901457Y-109984500D01*
X106901455Y-109984500D01*
X106758545Y-109984500D01*
X106758543Y-109984500D01*
X106618385Y-110012379D01*
X106618379Y-110012381D01*
X106486349Y-110067069D01*
X106486340Y-110067074D01*
X106367521Y-110146467D01*
X106367517Y-110146470D01*
X106266470Y-110247517D01*
X106266467Y-110247521D01*
X106187074Y-110366340D01*
X106187069Y-110366349D01*
X106132381Y-110498379D01*
X106132379Y-110498385D01*
X106104500Y-110638542D01*
X106104500Y-110638545D01*
X106104500Y-110781455D01*
X106104500Y-110781457D01*
X106104499Y-110781457D01*
X102517127Y-110781457D01*
X102548547Y-110760463D01*
X102645463Y-110663547D01*
X102721610Y-110549585D01*
X102774061Y-110422957D01*
X102800800Y-110288530D01*
X102800800Y-110151470D01*
X102774061Y-110017043D01*
X102744775Y-109946340D01*
X102721613Y-109890421D01*
X102721606Y-109890408D01*
X102645463Y-109776453D01*
X102645460Y-109776449D01*
X102548550Y-109679539D01*
X102548546Y-109679536D01*
X102434591Y-109603393D01*
X102434578Y-109603386D01*
X102307961Y-109550940D01*
X102307949Y-109550937D01*
X102173534Y-109524200D01*
X102173530Y-109524200D01*
X102036470Y-109524200D01*
X102036465Y-109524200D01*
X101902050Y-109550937D01*
X101902038Y-109550940D01*
X101775421Y-109603386D01*
X101775408Y-109603393D01*
X101661453Y-109679536D01*
X101661449Y-109679539D01*
X101564539Y-109776449D01*
X101564536Y-109776453D01*
X101488393Y-109890408D01*
X101488386Y-109890421D01*
X101435940Y-110017038D01*
X101435937Y-110017050D01*
X101409200Y-110151465D01*
X100200500Y-110151465D01*
X100200500Y-107591457D01*
X110944499Y-107591457D01*
X110972379Y-107731614D01*
X110972381Y-107731620D01*
X111027069Y-107863650D01*
X111027074Y-107863659D01*
X111106467Y-107982478D01*
X111106470Y-107982482D01*
X111207517Y-108083529D01*
X111207521Y-108083532D01*
X111326340Y-108162925D01*
X111326346Y-108162928D01*
X111326347Y-108162929D01*
X111458380Y-108217619D01*
X111458384Y-108217619D01*
X111458385Y-108217620D01*
X111598542Y-108245500D01*
X111598545Y-108245500D01*
X111741457Y-108245500D01*
X111835751Y-108226742D01*
X111881620Y-108217619D01*
X112013653Y-108162929D01*
X112132479Y-108083532D01*
X112233532Y-107982479D01*
X112312929Y-107863653D01*
X112367619Y-107731620D01*
X112395500Y-107591455D01*
X112395500Y-107448545D01*
X112395500Y-107448542D01*
X112367620Y-107308385D01*
X112367619Y-107308384D01*
X112367619Y-107308380D01*
X112312929Y-107176347D01*
X112312928Y-107176346D01*
X112312925Y-107176340D01*
X112233532Y-107057521D01*
X112233529Y-107057517D01*
X112132482Y-106956470D01*
X112132478Y-106956467D01*
X112013659Y-106877074D01*
X112013650Y-106877069D01*
X111881620Y-106822381D01*
X111881614Y-106822379D01*
X111741457Y-106794500D01*
X111741455Y-106794500D01*
X111598545Y-106794500D01*
X111598543Y-106794500D01*
X111458385Y-106822379D01*
X111458379Y-106822381D01*
X111326349Y-106877069D01*
X111326340Y-106877074D01*
X111207521Y-106956467D01*
X111207517Y-106956470D01*
X111106470Y-107057517D01*
X111106467Y-107057521D01*
X111027074Y-107176340D01*
X111027069Y-107176349D01*
X110972381Y-107308379D01*
X110972379Y-107308385D01*
X110944500Y-107448542D01*
X110944500Y-107448545D01*
X110944500Y-107591455D01*
X110944500Y-107591457D01*
X110944499Y-107591457D01*
X100200500Y-107591457D01*
X100200500Y-106531457D01*
X120244499Y-106531457D01*
X120272379Y-106671614D01*
X120272381Y-106671620D01*
X120327069Y-106803650D01*
X120327074Y-106803659D01*
X120406467Y-106922478D01*
X120406470Y-106922482D01*
X120507517Y-107023529D01*
X120507521Y-107023532D01*
X120626340Y-107102925D01*
X120626346Y-107102928D01*
X120626347Y-107102929D01*
X120758380Y-107157619D01*
X120758384Y-107157619D01*
X120758385Y-107157620D01*
X120898542Y-107185500D01*
X120898545Y-107185500D01*
X121041457Y-107185500D01*
X121135751Y-107166742D01*
X121181620Y-107157619D01*
X121313653Y-107102929D01*
X121432479Y-107023532D01*
X121533532Y-106922479D01*
X121612929Y-106803653D01*
X121667619Y-106671620D01*
X121695500Y-106531455D01*
X121695500Y-106388545D01*
X121695500Y-106388542D01*
X121667620Y-106248385D01*
X121667619Y-106248384D01*
X121667619Y-106248380D01*
X121612929Y-106116347D01*
X121612928Y-106116346D01*
X121612925Y-106116340D01*
X121533532Y-105997521D01*
X121533529Y-105997517D01*
X121432482Y-105896470D01*
X121432478Y-105896467D01*
X121313659Y-105817074D01*
X121313650Y-105817069D01*
X121181620Y-105762381D01*
X121181614Y-105762379D01*
X121041457Y-105734500D01*
X121041455Y-105734500D01*
X120898545Y-105734500D01*
X120898543Y-105734500D01*
X120758385Y-105762379D01*
X120758379Y-105762381D01*
X120626349Y-105817069D01*
X120626340Y-105817074D01*
X120507521Y-105896467D01*
X120507517Y-105896470D01*
X120406470Y-105997517D01*
X120406467Y-105997521D01*
X120327074Y-106116340D01*
X120327069Y-106116349D01*
X120272381Y-106248379D01*
X120272379Y-106248385D01*
X120244500Y-106388542D01*
X120244500Y-106388545D01*
X120244500Y-106531455D01*
X120244500Y-106531457D01*
X120244499Y-106531457D01*
X100200500Y-106531457D01*
X100200500Y-104003052D01*
X100200649Y-103996967D01*
X100207585Y-103855778D01*
X101799500Y-103855778D01*
X101799500Y-104144221D01*
X101799501Y-104144238D01*
X101837149Y-104430206D01*
X101837150Y-104430211D01*
X101837151Y-104430217D01*
X101908460Y-104696347D01*
X101911809Y-104708844D01*
X101911814Y-104708860D01*
X102022191Y-104975336D01*
X102022199Y-104975352D01*
X102166420Y-105225148D01*
X102166431Y-105225164D01*
X102342024Y-105454002D01*
X102342030Y-105454009D01*
X102545990Y-105657969D01*
X102545997Y-105657975D01*
X102649793Y-105737620D01*
X102774844Y-105833575D01*
X102774851Y-105833579D01*
X103024647Y-105977800D01*
X103024663Y-105977808D01*
X103291139Y-106088185D01*
X103291145Y-106088186D01*
X103291155Y-106088191D01*
X103569783Y-106162849D01*
X103855772Y-106200500D01*
X103855779Y-106200500D01*
X104144221Y-106200500D01*
X104144228Y-106200500D01*
X104430217Y-106162849D01*
X104708845Y-106088191D01*
X104708857Y-106088185D01*
X104708860Y-106088185D01*
X104975336Y-105977808D01*
X104975339Y-105977806D01*
X104975345Y-105977804D01*
X105225156Y-105833575D01*
X105454004Y-105657974D01*
X105657974Y-105454004D01*
X105833575Y-105225156D01*
X105899219Y-105111457D01*
X108684499Y-105111457D01*
X108712379Y-105251614D01*
X108712381Y-105251620D01*
X108767069Y-105383650D01*
X108767074Y-105383659D01*
X108846467Y-105502478D01*
X108846470Y-105502482D01*
X108947517Y-105603529D01*
X108947521Y-105603532D01*
X109066340Y-105682925D01*
X109066346Y-105682928D01*
X109066347Y-105682929D01*
X109198380Y-105737619D01*
X109198384Y-105737619D01*
X109198385Y-105737620D01*
X109338542Y-105765500D01*
X109338545Y-105765500D01*
X109481457Y-105765500D01*
X109575751Y-105746742D01*
X109621620Y-105737619D01*
X109753653Y-105682929D01*
X109872479Y-105603532D01*
X109973532Y-105502479D01*
X110052929Y-105383653D01*
X110107619Y-105251620D01*
X110135500Y-105111455D01*
X110135500Y-104968545D01*
X110135500Y-104968542D01*
X110107620Y-104828385D01*
X110107619Y-104828384D01*
X110107619Y-104828380D01*
X110058106Y-104708845D01*
X110052930Y-104696349D01*
X110052925Y-104696340D01*
X109973532Y-104577521D01*
X109973529Y-104577517D01*
X109872482Y-104476470D01*
X109872478Y-104476467D01*
X109753659Y-104397074D01*
X109753650Y-104397069D01*
X109621620Y-104342381D01*
X109621614Y-104342379D01*
X109481457Y-104314500D01*
X109481455Y-104314500D01*
X109338545Y-104314500D01*
X109338543Y-104314500D01*
X109198385Y-104342379D01*
X109198379Y-104342381D01*
X109066349Y-104397069D01*
X109066340Y-104397074D01*
X108947521Y-104476467D01*
X108947517Y-104476470D01*
X108846470Y-104577517D01*
X108846467Y-104577521D01*
X108767074Y-104696340D01*
X108767069Y-104696349D01*
X108712381Y-104828379D01*
X108712379Y-104828385D01*
X108684500Y-104968542D01*
X108684500Y-104968545D01*
X108684500Y-105111455D01*
X108684500Y-105111457D01*
X108684499Y-105111457D01*
X105899219Y-105111457D01*
X105977804Y-104975345D01*
X106088191Y-104708845D01*
X106162849Y-104430217D01*
X106200500Y-104144228D01*
X106200500Y-103855778D01*
X132299500Y-103855778D01*
X132299500Y-104144221D01*
X132299501Y-104144238D01*
X132337149Y-104430206D01*
X132337150Y-104430211D01*
X132337151Y-104430217D01*
X132408460Y-104696347D01*
X132411809Y-104708844D01*
X132411814Y-104708860D01*
X132522191Y-104975336D01*
X132522199Y-104975352D01*
X132666420Y-105225148D01*
X132666431Y-105225164D01*
X132842024Y-105454002D01*
X132842030Y-105454009D01*
X133045990Y-105657969D01*
X133045997Y-105657975D01*
X133149793Y-105737620D01*
X133274844Y-105833575D01*
X133274851Y-105833579D01*
X133524647Y-105977800D01*
X133524663Y-105977808D01*
X133791139Y-106088185D01*
X133791145Y-106088186D01*
X133791155Y-106088191D01*
X134069783Y-106162849D01*
X134355772Y-106200500D01*
X134355779Y-106200500D01*
X134644221Y-106200500D01*
X134644228Y-106200500D01*
X134930217Y-106162849D01*
X135208845Y-106088191D01*
X135208857Y-106088185D01*
X135208860Y-106088185D01*
X135475336Y-105977808D01*
X135475339Y-105977806D01*
X135475345Y-105977804D01*
X135725156Y-105833575D01*
X135954004Y-105657974D01*
X136157974Y-105454004D01*
X136333575Y-105225156D01*
X136477804Y-104975345D01*
X136502801Y-104914998D01*
X136588185Y-104708860D01*
X136588185Y-104708857D01*
X136588191Y-104708845D01*
X136662849Y-104430217D01*
X136700500Y-104144228D01*
X136700500Y-103855772D01*
X136662849Y-103569783D01*
X136588191Y-103291155D01*
X136588186Y-103291145D01*
X136588185Y-103291139D01*
X136477808Y-103024663D01*
X136477800Y-103024647D01*
X136333579Y-102774851D01*
X136333575Y-102774844D01*
X136157974Y-102545996D01*
X136157972Y-102545994D01*
X136157969Y-102545990D01*
X135954009Y-102342030D01*
X135954002Y-102342024D01*
X135725164Y-102166431D01*
X135725162Y-102166429D01*
X135725156Y-102166425D01*
X135725151Y-102166422D01*
X135725148Y-102166420D01*
X135475352Y-102022199D01*
X135475336Y-102022191D01*
X135208860Y-101911814D01*
X135208848Y-101911810D01*
X135208845Y-101911809D01*
X134930217Y-101837151D01*
X134930211Y-101837150D01*
X134930206Y-101837149D01*
X134644238Y-101799501D01*
X134644233Y-101799500D01*
X134644228Y-101799500D01*
X134355772Y-101799500D01*
X134355766Y-101799500D01*
X134355761Y-101799501D01*
X134069793Y-101837149D01*
X134069786Y-101837150D01*
X134069783Y-101837151D01*
X133875865Y-101889111D01*
X133791155Y-101911809D01*
X133791139Y-101911814D01*
X133524663Y-102022191D01*
X133524647Y-102022199D01*
X133274851Y-102166420D01*
X133274835Y-102166431D01*
X133045997Y-102342024D01*
X133045990Y-102342030D01*
X132842030Y-102545990D01*
X132842024Y-102545997D01*
X132666431Y-102774835D01*
X132666420Y-102774851D01*
X132522199Y-103024647D01*
X132522191Y-103024663D01*
X132411814Y-103291139D01*
X132411809Y-103291155D01*
X132337152Y-103569780D01*
X132337149Y-103569793D01*
X132299501Y-103855761D01*
X132299500Y-103855778D01*
X106200500Y-103855778D01*
X106200500Y-103855772D01*
X106162849Y-103569783D01*
X106088191Y-103291155D01*
X106088186Y-103291145D01*
X106088185Y-103291139D01*
X105977808Y-103024663D01*
X105977800Y-103024647D01*
X105833579Y-102774851D01*
X105833575Y-102774844D01*
X105657974Y-102545996D01*
X105657972Y-102545994D01*
X105657969Y-102545990D01*
X105454009Y-102342030D01*
X105454002Y-102342024D01*
X105225164Y-102166431D01*
X105225162Y-102166429D01*
X105225156Y-102166425D01*
X105225151Y-102166422D01*
X105225148Y-102166420D01*
X104975352Y-102022199D01*
X104975336Y-102022191D01*
X104708860Y-101911814D01*
X104708848Y-101911810D01*
X104708845Y-101911809D01*
X104430217Y-101837151D01*
X104430211Y-101837150D01*
X104430206Y-101837149D01*
X104144238Y-101799501D01*
X104144233Y-101799500D01*
X104144228Y-101799500D01*
X103855772Y-101799500D01*
X103855766Y-101799500D01*
X103855761Y-101799501D01*
X103569793Y-101837149D01*
X103569786Y-101837150D01*
X103569783Y-101837151D01*
X103375865Y-101889111D01*
X103291155Y-101911809D01*
X103291139Y-101911814D01*
X103024663Y-102022191D01*
X103024647Y-102022199D01*
X102774851Y-102166420D01*
X102774835Y-102166431D01*
X102545997Y-102342024D01*
X102545990Y-102342030D01*
X102342030Y-102545990D01*
X102342024Y-102545997D01*
X102166431Y-102774835D01*
X102166420Y-102774851D01*
X102022199Y-103024647D01*
X102022191Y-103024663D01*
X101911814Y-103291139D01*
X101911809Y-103291155D01*
X101837152Y-103569780D01*
X101837149Y-103569793D01*
X101799501Y-103855761D01*
X101799500Y-103855778D01*
X100207585Y-103855778D01*
X100208084Y-103845628D01*
X100208084Y-103845627D01*
X100218497Y-103633665D01*
X100219690Y-103621555D01*
X100227368Y-103569793D01*
X100272614Y-103264765D01*
X100274981Y-103252863D01*
X100362631Y-102902947D01*
X100366152Y-102891341D01*
X100487672Y-102551717D01*
X100492314Y-102540509D01*
X100646547Y-102214409D01*
X100652262Y-102203717D01*
X100837704Y-101894327D01*
X100844447Y-101884234D01*
X101059329Y-101594500D01*
X101067032Y-101585115D01*
X101309273Y-101317843D01*
X101317843Y-101309273D01*
X101585115Y-101067032D01*
X101594500Y-101059329D01*
X101884234Y-100844447D01*
X101894327Y-100837704D01*
X102203717Y-100652262D01*
X102214409Y-100646547D01*
X102540509Y-100492314D01*
X102551717Y-100487672D01*
X102891341Y-100366152D01*
X102902947Y-100362631D01*
X103252863Y-100274981D01*
X103264765Y-100272614D01*
X103621561Y-100219689D01*
X103633659Y-100218497D01*
X103942885Y-100203305D01*
X103996968Y-100200649D01*
X104003052Y-100200500D01*
X104039882Y-100200500D01*
X134460118Y-100200500D01*
X134496948Y-100200500D01*
X134503032Y-100200649D01*
G37*
%TD.AperFunction*%
%TD*%
M02*
