%TF.GenerationSoftware,KiCad,Pcbnew,10.0.4*%
%TF.CreationDate,2026-08-30T06:02:39+02:00*%
%TF.ProjectId,STM32H743_board_wfl,53544d33-3248-4373-9433-5f626f617264,rev?*%
%TF.SameCoordinates,Original*%
%TF.FileFunction,Component,L1,Top*%
%TF.FilePolarity,Positive*%
%FSLAX46Y46*%
G04 Gerber Fmt 4.6, Leading zero omitted, Abs format (unit mm)*
G04 Created by KiCad (PCBNEW 10.0.4) date 2026-08-30 06:02:39*
%MOMM*%
%LPD*%
G01*
G04 APERTURE LIST*
%TA.AperFunction,ComponentMain*%
%ADD10C,0.300000*%
%TD*%
%TA.AperFunction,ComponentOutline,Courtyard*%
%ADD11C,0.100000*%
%TD*%
%TA.AperFunction,ComponentPin*%
%ADD12P,0.360000X4X0.000000*%
%TD*%
%TA.AperFunction,ComponentPin*%
%ADD13C,0.100000*%
%TD*%
%TA.AperFunction,ComponentOutline,Footprint*%
%ADD14C,0.100000*%
%TD*%
G04 APERTURE END LIST*
D10*
%TO.C,C23*%
%TO.CFtp,C_0402_1005Metric*%
%TO.CVal,10pF*%
%TO.CLbN,Capacitor_SMD*%
%TO.CMnt,SMD*%
%TO.CRot,0*%
X113030000Y-126990000D03*
D11*
X113935000Y-126535000D02*
X113935000Y-127445000D01*
X112125000Y-127445000D01*
X112125000Y-126535000D01*
X113935000Y-126535000D01*
D12*
%TO.P,C23,1*%
X112550000Y-126990000D03*
D13*
%TO.P,C23,2*%
X113510000Y-126990000D03*
%TD*%
D10*
%TO.C,R12*%
%TO.CFtp,R_01005_0402Metric*%
%TO.CVal,33R*%
%TO.CLbN,Resistor_SMD*%
%TO.CMnt,SMD*%
%TO.CRot,0*%
X113770000Y-107230000D03*
D11*
X114365000Y-106935000D02*
X114365000Y-107525000D01*
X113175000Y-107525000D01*
X113175000Y-106935000D01*
X114365000Y-106935000D01*
D12*
%TO.P,R12,1*%
X113520000Y-107230000D03*
D13*
%TO.P,R12,2*%
X114020000Y-107230000D03*
%TD*%
D10*
%TO.C,L2*%
%TO.CFtp,L_0805_2012Metric*%
%TO.CVal,BLM21PG221SN1D*%
%TO.CLbN,Inductor_SMD*%
%TO.CMnt,SMD*%
%TO.CRot,0*%
X119040000Y-129970000D03*
D11*
X120785000Y-129125000D02*
X120785000Y-130815000D01*
X117295000Y-130815000D01*
X117295000Y-129125000D01*
X120785000Y-129125000D01*
D12*
%TO.P,L2,1,1_1*%
X117977500Y-129970000D03*
D13*
%TO.P,L2,2,2_2*%
X120102500Y-129970000D03*
%TD*%
D10*
%TO.C,C8*%
%TO.CFtp,C_01005_0402Metric*%
%TO.CVal,10nF*%
%TO.CLbN,Capacitor_SMD*%
%TO.CMnt,SMD*%
%TO.CRot,90*%
X130140000Y-118360000D03*
D11*
X130435000Y-117765000D02*
X130435000Y-118955000D01*
X129845000Y-118955000D01*
X129845000Y-117765000D01*
X130435000Y-117765000D01*
D12*
%TO.P,C8,1*%
X130140000Y-118610000D03*
D13*
%TO.P,C8,2*%
X130140000Y-118110000D03*
%TD*%
D10*
%TO.C,C2*%
%TO.CFtp,C_1206_3216Metric*%
%TO.CVal,47uF*%
%TO.CLbN,Capacitor_SMD*%
%TO.CMnt,SMD*%
%TO.CRot,180*%
X127125000Y-111500000D03*
D11*
X129420000Y-110355000D02*
X129420000Y-112645000D01*
X124830000Y-112645000D01*
X124830000Y-110355000D01*
X129420000Y-110355000D01*
D12*
%TO.P,C2,1*%
X128600000Y-111500000D03*
D13*
%TO.P,C2,2*%
X125650000Y-111500000D03*
%TD*%
D10*
%TO.C,R10*%
%TO.CFtp,R_01005_0402Metric*%
%TO.CVal,33R*%
%TO.CLbN,Resistor_SMD*%
%TO.CMnt,SMD*%
%TO.CRot,0*%
X116480000Y-107230000D03*
D11*
X117075000Y-106935000D02*
X117075000Y-107525000D01*
X115885000Y-107525000D01*
X115885000Y-106935000D01*
X117075000Y-106935000D01*
D12*
%TO.P,R10,1*%
X116230000Y-107230000D03*
D13*
%TO.P,R10,2*%
X116730000Y-107230000D03*
%TD*%
D10*
%TO.C,C25*%
%TO.CFtp,C_0603_1608Metric*%
%TO.CVal,2.2uF*%
%TO.CLbN,Capacitor_SMD*%
%TO.CMnt,SMD*%
%TO.CRot,180*%
X110170000Y-107520000D03*
D11*
X111645000Y-106795000D02*
X111645000Y-108245000D01*
X108695000Y-108245000D01*
X108695000Y-106795000D01*
X111645000Y-106795000D01*
D12*
%TO.P,C25,1*%
X110945000Y-107520000D03*
D13*
%TO.P,C25,2*%
X109395000Y-107520000D03*
%TD*%
D10*
%TO.C,J3*%
%TO.CFtp,JST_GH_SM04B-GHS-TB_1x04-1MP_P1.25mm_Horizontal*%
%TO.CVal,UART*%
%TO.CLbN,Connector_JST*%
%TO.CMnt,SMD*%
%TO.CRot,0*%
X125480000Y-135550000D03*
D11*
X128155000Y-132355000D02*
X128155000Y-133455000D01*
X130105000Y-133455000D01*
X130105000Y-135055000D01*
X130205000Y-135055000D01*
X130205000Y-138745000D01*
X128205000Y-138745000D01*
X128205000Y-138495000D01*
X122755000Y-138495000D01*
X122755000Y-138745000D01*
X120755000Y-138745000D01*
X120755000Y-135055000D01*
X120855000Y-135055000D01*
X120855000Y-133455000D01*
X122805000Y-133455000D01*
X122805000Y-132355000D01*
X128155000Y-132355000D01*
D12*
%TO.P,J3,1,Pin_1_1*%
X123605000Y-133700000D03*
D13*
%TO.P,J3,2,Pin_2_2*%
X124855000Y-133700000D03*
%TO.P,J3,3,Pin_3_3*%
X126105000Y-133700000D03*
%TO.P,J3,4,Pin_4_4*%
X127355000Y-133700000D03*
%TO.P,J3,MP*%
X121755000Y-136900000D03*
X129205000Y-136900000D03*
%TD*%
D10*
%TO.C,H4*%
%TO.CFtp,MountingHole_4mm*%
%TO.CVal,MountingHole*%
%TO.CLbN,MountingHole*%
%TO.CMnt,Other*%
%TO.CRot,0*%
X134500000Y-104000000D03*
D11*
X134807665Y-99763679D02*
X135215100Y-99813150D01*
X135615845Y-99901712D01*
X136006173Y-100028536D01*
X136382445Y-100192445D01*
X136741143Y-100391904D01*
X137078907Y-100625046D01*
X137392598Y-100889703D01*
X137679286Y-101183404D01*
X137936282Y-101503394D01*
X138161196Y-101846696D01*
X138351929Y-102210107D01*
X138506697Y-102590229D01*
X138624053Y-102983508D01*
X138702907Y-103386284D01*
X138742521Y-103794820D01*
X138744999Y-104000000D01*
X138742521Y-104205179D01*
X138702907Y-104613715D01*
X138624053Y-105016491D01*
X138506697Y-105409770D01*
X138351929Y-105789892D01*
X138161196Y-106153303D01*
X137936282Y-106496605D01*
X137679286Y-106816595D01*
X137392598Y-107110296D01*
X137078907Y-107374953D01*
X136741143Y-107608095D01*
X136382445Y-107807554D01*
X136006173Y-107971463D01*
X135615845Y-108098287D01*
X135215100Y-108186849D01*
X134807665Y-108236320D01*
X134397361Y-108246238D01*
X133988026Y-108216509D01*
X133583454Y-108147411D01*
X133187458Y-108039592D01*
X132803706Y-107894055D01*
X132435792Y-107712159D01*
X132087161Y-107495609D01*
X131761041Y-107246411D01*
X131460515Y-106966918D01*
X131188346Y-106659703D01*
X130947112Y-106327673D01*
X130739041Y-105973896D01*
X130566096Y-105601710D01*
X130429870Y-105214546D01*
X130331652Y-104816054D01*
X130272350Y-104409935D01*
X130252521Y-104000000D01*
X130272350Y-103590064D01*
X130331652Y-103183945D01*
X130429870Y-102785453D01*
X130566096Y-102398289D01*
X130739041Y-102026103D01*
X130947112Y-101672326D01*
X131188346Y-101340296D01*
X131460515Y-101033081D01*
X131761041Y-100753588D01*
X132087161Y-100504390D01*
X132435792Y-100287840D01*
X132803706Y-100105944D01*
X133187458Y-99960407D01*
X133583454Y-99852588D01*
X133988026Y-99783490D01*
X134397361Y-99753761D01*
X134807665Y-99763679D01*
D13*
%TO.P,H4,*%
X134500000Y-104000000D03*
%TD*%
D10*
%TO.C,R13*%
%TO.CFtp,R_01005_0402Metric*%
%TO.CVal,10k*%
%TO.CLbN,Resistor_SMD*%
%TO.CMnt,SMD*%
%TO.CRot,-90*%
X125370000Y-113760000D03*
D11*
X125665000Y-113165000D02*
X125665000Y-114355000D01*
X125075000Y-114355000D01*
X125075000Y-113165000D01*
X125665000Y-113165000D01*
D12*
%TO.P,R13,1*%
X125370000Y-113510000D03*
D13*
%TO.P,R13,2*%
X125370000Y-114010000D03*
%TD*%
D10*
%TO.C,C3*%
%TO.CFtp,C_0603_1608Metric*%
%TO.CVal,1uF*%
%TO.CLbN,Capacitor_SMD*%
%TO.CMnt,SMD*%
%TO.CRot,180*%
X130130000Y-113490000D03*
D11*
X131605000Y-112765000D02*
X131605000Y-114215000D01*
X128655000Y-114215000D01*
X128655000Y-112765000D01*
X131605000Y-112765000D01*
D12*
%TO.P,C3,1*%
X130905000Y-113490000D03*
D13*
%TO.P,C3,2*%
X129355000Y-113490000D03*
%TD*%
D10*
%TO.C,D1*%
%TO.CFtp,D_SMB*%
%TO.CVal,SMBJ26A*%
%TO.CLbN,Diode_SMD*%
%TO.CMnt,SMD*%
%TO.CRot,0*%
X134410000Y-110510000D03*
D11*
X138055000Y-108265000D02*
X138055000Y-112755000D01*
X130765000Y-112755000D01*
X130765000Y-108265000D01*
X138055000Y-108265000D01*
D12*
%TO.P,D1,1,K_1*%
X132260000Y-110510000D03*
D13*
%TO.P,D1,2,A_2*%
X136560000Y-110510000D03*
%TD*%
D10*
%TO.C,R1*%
%TO.CFtp,R_01005_0402Metric*%
%TO.CVal,100k*%
%TO.CLbN,Resistor_SMD*%
%TO.CMnt,SMD*%
%TO.CRot,180*%
X132525000Y-113600000D03*
D11*
X133120000Y-113305000D02*
X133120000Y-113895000D01*
X131930000Y-113895000D01*
X131930000Y-113305000D01*
X133120000Y-113305000D01*
D12*
%TO.P,R1,1*%
X132775000Y-113600000D03*
D13*
%TO.P,R1,2*%
X132275000Y-113600000D03*
%TD*%
D10*
%TO.C,J2*%
%TO.CFtp,JST_GH_SM08B-GHS-TB_1x08-1MP_P1.25mm_Horizontal*%
%TO.CVal,ESC*%
%TO.CLbN,Connector_JST*%
%TO.CMnt,SMD*%
%TO.CRot,180*%
X119090000Y-102950000D03*
D11*
X113865000Y-99755000D02*
X113865000Y-100005000D01*
X124315000Y-100005000D01*
X124315000Y-99755000D01*
X126315000Y-99755000D01*
X126315000Y-103445000D01*
X126215000Y-103445000D01*
X126215000Y-105045000D01*
X124265000Y-105045000D01*
X124265000Y-106145000D01*
X113915000Y-106145000D01*
X113915000Y-105045000D01*
X111965000Y-105045000D01*
X111965000Y-103445000D01*
X111865000Y-103445000D01*
X111865000Y-99755000D01*
X113865000Y-99755000D01*
D12*
%TO.P,J2,1,Pin_1_1*%
X123465000Y-104800000D03*
D13*
%TO.P,J2,2,Pin_2_2*%
X122215000Y-104800000D03*
%TO.P,J2,3,Pin_3_3*%
X120965000Y-104800000D03*
%TO.P,J2,4,Pin_4_4*%
X119715000Y-104800000D03*
%TO.P,J2,5,Pin_5_5*%
X118465000Y-104800000D03*
%TO.P,J2,6,Pin_6_6*%
X117215000Y-104800000D03*
%TO.P,J2,7,Pin_7_7*%
X115965000Y-104800000D03*
%TO.P,J2,8,Pin_8_8*%
X114715000Y-104800000D03*
%TO.P,J2,MP*%
X125315000Y-101600000D03*
X112865000Y-101600000D03*
%TD*%
D10*
%TO.C,C28*%
%TO.CFtp,C_0402_1005Metric*%
%TO.CVal,100nF*%
%TO.CLbN,Capacitor_SMD*%
%TO.CMnt,SMD*%
%TO.CRot,90*%
X128620000Y-120250000D03*
D11*
X129075000Y-119345000D02*
X129075000Y-121155000D01*
X128165000Y-121155000D01*
X128165000Y-119345000D01*
X129075000Y-119345000D01*
D12*
%TO.P,C28,1*%
X128620000Y-120730000D03*
D13*
%TO.P,C28,2*%
X128620000Y-119770000D03*
%TD*%
D10*
%TO.C,H1*%
%TO.CFtp,MountingHole_4mm*%
%TO.CVal,MountingHole*%
%TO.CLbN,MountingHole*%
%TO.CMnt,Other*%
%TO.CRot,0*%
X104000000Y-104000000D03*
D11*
X104307665Y-99763679D02*
X104715100Y-99813150D01*
X105115845Y-99901712D01*
X105506173Y-100028536D01*
X105882445Y-100192445D01*
X106241143Y-100391904D01*
X106578907Y-100625046D01*
X106892598Y-100889703D01*
X107179286Y-101183404D01*
X107436282Y-101503394D01*
X107661196Y-101846696D01*
X107851929Y-102210107D01*
X108006697Y-102590229D01*
X108124053Y-102983508D01*
X108202907Y-103386284D01*
X108242521Y-103794820D01*
X108244999Y-104000000D01*
X108242521Y-104205179D01*
X108202907Y-104613715D01*
X108124053Y-105016491D01*
X108006697Y-105409770D01*
X107851929Y-105789892D01*
X107661196Y-106153303D01*
X107436282Y-106496605D01*
X107179286Y-106816595D01*
X106892598Y-107110296D01*
X106578907Y-107374953D01*
X106241143Y-107608095D01*
X105882445Y-107807554D01*
X105506173Y-107971463D01*
X105115845Y-108098287D01*
X104715100Y-108186849D01*
X104307665Y-108236320D01*
X103897361Y-108246238D01*
X103488026Y-108216509D01*
X103083454Y-108147411D01*
X102687458Y-108039592D01*
X102303706Y-107894055D01*
X101935792Y-107712159D01*
X101587161Y-107495609D01*
X101261041Y-107246411D01*
X100960515Y-106966918D01*
X100688346Y-106659703D01*
X100447112Y-106327673D01*
X100239041Y-105973896D01*
X100066096Y-105601710D01*
X99929870Y-105214546D01*
X99831652Y-104816054D01*
X99772350Y-104409935D01*
X99752521Y-104000000D01*
X99772350Y-103590064D01*
X99831652Y-103183945D01*
X99929870Y-102785453D01*
X100066096Y-102398289D01*
X100239041Y-102026103D01*
X100447112Y-101672326D01*
X100688346Y-101340296D01*
X100960515Y-101033081D01*
X101261041Y-100753588D01*
X101587161Y-100504390D01*
X101935792Y-100287840D01*
X102303706Y-100105944D01*
X102687458Y-99960407D01*
X103083454Y-99852588D01*
X103488026Y-99783490D01*
X103897361Y-99753761D01*
X104307665Y-99763679D01*
D13*
%TO.P,H1,*%
X104000000Y-104000000D03*
%TD*%
D10*
%TO.C,C5*%
%TO.CFtp,C_01005_0402Metric*%
%TO.CVal,10pF*%
%TO.CLbN,Capacitor_SMD*%
%TO.CMnt,SMD*%
%TO.CRot,90*%
X133480000Y-114455000D03*
D11*
X133775000Y-113860000D02*
X133775000Y-115050000D01*
X133185000Y-115050000D01*
X133185000Y-113860000D01*
X133775000Y-113860000D01*
D12*
%TO.P,C5,1*%
X133480000Y-114705000D03*
D13*
%TO.P,C5,2*%
X133480000Y-114205000D03*
%TD*%
D10*
%TO.C,C7*%
%TO.CFtp,C_1206_3216Metric*%
%TO.CVal,47uF*%
%TO.CLbN,Capacitor_SMD*%
%TO.CMnt,SMD*%
%TO.CRot,0*%
X136120000Y-114710000D03*
D11*
X138415000Y-113565000D02*
X138415000Y-115855000D01*
X133825000Y-115855000D01*
X133825000Y-113565000D01*
X138415000Y-113565000D01*
D12*
%TO.P,C7,1*%
X134645000Y-114710000D03*
D13*
%TO.P,C7,2*%
X137595000Y-114710000D03*
%TD*%
D10*
%TO.C,R7*%
%TO.CFtp,R_01005_0402Metric*%
%TO.CVal,4.7k*%
%TO.CLbN,Resistor_SMD*%
%TO.CMnt,SMD*%
%TO.CRot,-90*%
X103040000Y-118070000D03*
D11*
X103335000Y-117475000D02*
X103335000Y-118665000D01*
X102745000Y-118665000D01*
X102745000Y-117475000D01*
X103335000Y-117475000D01*
D12*
%TO.P,R7,1*%
X103040000Y-117820000D03*
D13*
%TO.P,R7,2*%
X103040000Y-118320000D03*
%TD*%
D10*
%TO.C,R8*%
%TO.CFtp,R_01005_0402Metric*%
%TO.CVal,4.7k*%
%TO.CLbN,Resistor_SMD*%
%TO.CMnt,SMD*%
%TO.CRot,90*%
X103050000Y-119330000D03*
D11*
X103345000Y-118735000D02*
X103345000Y-119925000D01*
X102755000Y-119925000D01*
X102755000Y-118735000D01*
X103345000Y-118735000D01*
D12*
%TO.P,R8,1*%
X103050000Y-119580000D03*
D13*
%TO.P,R8,2*%
X103050000Y-119080000D03*
%TD*%
D10*
%TO.C,U3*%
%TO.CFtp,LQFP-100_14x14mm_P0.5mm*%
%TO.CVal,STM32H743VITx*%
%TO.CLbN,Package_QFP*%
%TO.CMnt,SMD*%
%TO.CRot,90*%
X112954832Y-117205000D03*
D11*
X119349832Y-108480000D02*
X119349832Y-109960000D01*
X120199832Y-109960000D01*
X120199832Y-110810000D01*
X121679832Y-110810000D01*
X121679832Y-123600000D01*
X120199832Y-123600000D01*
X120199832Y-124450000D01*
X119349832Y-124450000D01*
X119349832Y-125930000D01*
X106559832Y-125930000D01*
X106559832Y-124450000D01*
X105709832Y-124450000D01*
X105709832Y-123600000D01*
X104229832Y-123600000D01*
X104229832Y-110810000D01*
X105709832Y-110810000D01*
X105709832Y-109960000D01*
X106559832Y-109960000D01*
X106559832Y-108480000D01*
X119349832Y-108480000D01*
D12*
%TO.P,U3,1,PE2_1*%
X106954832Y-124880000D03*
D13*
%TO.P,U3,2,PE3_2*%
X107454832Y-124880000D03*
%TO.P,U3,3,PE4_3*%
X107954832Y-124880000D03*
%TO.P,U3,4,PE5_4*%
X108454832Y-124880000D03*
%TO.P,U3,5,PE6_5*%
X108954832Y-124880000D03*
%TO.P,U3,6,VBAT_6*%
X109454832Y-124880000D03*
%TO.P,U3,7,PC13_7*%
X109954832Y-124880000D03*
%TO.P,U3,8,PC14_8*%
X110454832Y-124880000D03*
%TO.P,U3,9,PC15_9*%
X110954832Y-124880000D03*
%TO.P,U3,10,VSS_10*%
X111454832Y-124880000D03*
%TO.P,U3,11,VDD_11*%
X111954832Y-124880000D03*
%TO.P,U3,12,PH0_12*%
X112454832Y-124880000D03*
%TO.P,U3,13,PH1_13*%
X112954832Y-124880000D03*
%TO.P,U3,14,NRST_14*%
X113454832Y-124880000D03*
%TO.P,U3,15,PC0_15*%
X113954832Y-124880000D03*
%TO.P,U3,16,PC1_16*%
X114454832Y-124880000D03*
%TO.P,U3,17,PC2_C_17*%
X114954832Y-124880000D03*
%TO.P,U3,18,PC3_C_18*%
X115454832Y-124880000D03*
%TO.P,U3,19,VSSA_19*%
X115954832Y-124880000D03*
%TO.P,U3,20,VREF+_20*%
X116454832Y-124880000D03*
%TO.P,U3,21,VDDA_21*%
X116954832Y-124880000D03*
%TO.P,U3,22,PA0_22*%
X117454832Y-124880000D03*
%TO.P,U3,23,PA1_23*%
X117954832Y-124880000D03*
%TO.P,U3,24,PA2_24*%
X118454832Y-124880000D03*
%TO.P,U3,25,PA3_25*%
X118954832Y-124880000D03*
%TO.P,U3,26,VSS_26*%
X120629832Y-123205000D03*
%TO.P,U3,27,VDD_27*%
X120629832Y-122705000D03*
%TO.P,U3,28,PA4_28*%
X120629832Y-122205000D03*
%TO.P,U3,29,PA5_29*%
X120629832Y-121705000D03*
%TO.P,U3,30,PA6_30*%
X120629832Y-121205000D03*
%TO.P,U3,31,PA7_31*%
X120629832Y-120705000D03*
%TO.P,U3,32,PC4_32*%
X120629832Y-120205000D03*
%TO.P,U3,33,PC5_33*%
X120629832Y-119705000D03*
%TO.P,U3,34,PB0_34*%
X120629832Y-119205000D03*
%TO.P,U3,35,PB1_35*%
X120629832Y-118705000D03*
%TO.P,U3,36,PB2_36*%
X120629832Y-118205000D03*
%TO.P,U3,37,PE7_37*%
X120629832Y-117705000D03*
%TO.P,U3,38,PE8_38*%
X120629832Y-117205000D03*
%TO.P,U3,39,PE9_39*%
X120629832Y-116705000D03*
%TO.P,U3,40,PE10_40*%
X120629832Y-116205000D03*
%TO.P,U3,41,PE11_41*%
X120629832Y-115705000D03*
%TO.P,U3,42,PE12_42*%
X120629832Y-115205000D03*
%TO.P,U3,43,PE13_43*%
X120629832Y-114705000D03*
%TO.P,U3,44,PE14_44*%
X120629832Y-114205000D03*
%TO.P,U3,45,PE15_45*%
X120629832Y-113705000D03*
%TO.P,U3,46,PB10_46*%
X120629832Y-113205000D03*
%TO.P,U3,47,PB11_47*%
X120629832Y-112705000D03*
%TO.P,U3,48,VCAP_48*%
X120629832Y-112205000D03*
%TO.P,U3,49,VSS_49*%
X120629832Y-111705000D03*
%TO.P,U3,50,VDD_50*%
X120629832Y-111205000D03*
%TO.P,U3,51,PB12_51*%
X118954832Y-109530000D03*
%TO.P,U3,52,PB13_52*%
X118454832Y-109530000D03*
%TO.P,U3,53,PB14_53*%
X117954832Y-109530000D03*
%TO.P,U3,54,PB15_54*%
X117454832Y-109530000D03*
%TO.P,U3,55,PD8_55*%
X116954832Y-109530000D03*
%TO.P,U3,56,PD9_56*%
X116454832Y-109530000D03*
%TO.P,U3,57,PD10_57*%
X115954832Y-109530000D03*
%TO.P,U3,58,PD11_58*%
X115454832Y-109530000D03*
%TO.P,U3,59,PD12_59*%
X114954832Y-109530000D03*
%TO.P,U3,60,PD13_60*%
X114454832Y-109530000D03*
%TO.P,U3,61,PD14_61*%
X113954832Y-109530000D03*
%TO.P,U3,62,PD15_62*%
X113454832Y-109530000D03*
%TO.P,U3,63,PC6_63*%
X112954832Y-109530000D03*
%TO.P,U3,64,PC7_64*%
X112454832Y-109530000D03*
%TO.P,U3,65,PC8_65*%
X111954832Y-109530000D03*
%TO.P,U3,66,PC9_66*%
X111454832Y-109530000D03*
%TO.P,U3,67,PA8_67*%
X110954832Y-109530000D03*
%TO.P,U3,68,PA9_68*%
X110454832Y-109530000D03*
%TO.P,U3,69,PA10_69*%
X109954832Y-109530000D03*
%TO.P,U3,70,PA11_70*%
X109454832Y-109530000D03*
%TO.P,U3,71,PA12_71*%
X108954832Y-109530000D03*
%TO.P,U3,72,PA13_72*%
X108454832Y-109530000D03*
%TO.P,U3,73,VCAP_73*%
X107954832Y-109530000D03*
%TO.P,U3,74,VSS_74*%
X107454832Y-109530000D03*
%TO.P,U3,75,VDD_75*%
X106954832Y-109530000D03*
%TO.P,U3,76,PA14_76*%
X105279832Y-111205000D03*
%TO.P,U3,77,PA15_77*%
X105279832Y-111705000D03*
%TO.P,U3,78,PC10_78*%
X105279832Y-112205000D03*
%TO.P,U3,79,PC11_79*%
X105279832Y-112705000D03*
%TO.P,U3,80,PC12_80*%
X105279832Y-113205000D03*
%TO.P,U3,81,PD0_81*%
X105279832Y-113705000D03*
%TO.P,U3,82,PD1_82*%
X105279832Y-114205000D03*
%TO.P,U3,83,PD2_83*%
X105279832Y-114705000D03*
%TO.P,U3,84,PD3_84*%
X105279832Y-115205000D03*
%TO.P,U3,85,PD4_85*%
X105279832Y-115705000D03*
%TO.P,U3,86,PD5_86*%
X105279832Y-116205000D03*
%TO.P,U3,87,PD6_87*%
X105279832Y-116705000D03*
%TO.P,U3,88,PD7_88*%
X105279832Y-117205000D03*
%TO.P,U3,89,PB3_89*%
X105279832Y-117705000D03*
%TO.P,U3,90,PB4_90*%
X105279832Y-118205000D03*
%TO.P,U3,91,PB5_91*%
X105279832Y-118705000D03*
%TO.P,U3,92,PB6_92*%
X105279832Y-119205000D03*
%TO.P,U3,93,PB7_93*%
X105279832Y-119705000D03*
%TO.P,U3,94,BOOT0_94*%
X105279832Y-120205000D03*
%TO.P,U3,95,PB8_95*%
X105279832Y-120705000D03*
%TO.P,U3,96,PB9_96*%
X105279832Y-121205000D03*
%TO.P,U3,97,PE0_97*%
X105279832Y-121705000D03*
%TO.P,U3,98,PE1_98*%
X105279832Y-122205000D03*
%TO.P,U3,99,VSS_99*%
X105279832Y-122705000D03*
%TO.P,U3,100,VDD_100*%
X105279832Y-123205000D03*
%TD*%
D10*
%TO.C,C27*%
%TO.CFtp,C_0603_1608Metric*%
%TO.CVal,1uF*%
%TO.CLbN,Capacitor_SMD*%
%TO.CMnt,SMD*%
%TO.CRot,180*%
X127470000Y-121990000D03*
D11*
X128945000Y-121265000D02*
X128945000Y-122715000D01*
X125995000Y-122715000D01*
X125995000Y-121265000D01*
X128945000Y-121265000D01*
D12*
%TO.P,C27,1*%
X128245000Y-121990000D03*
D13*
%TO.P,C27,2*%
X126695000Y-121990000D03*
%TD*%
D10*
%TO.C,C24*%
%TO.CFtp,C_0402_1005Metric*%
%TO.CVal,10pF*%
%TO.CLbN,Capacitor_SMD*%
%TO.CMnt,SMD*%
%TO.CRot,0*%
X114950000Y-126810000D03*
D11*
X115855000Y-126355000D02*
X115855000Y-127265000D01*
X114045000Y-127265000D01*
X114045000Y-126355000D01*
X115855000Y-126355000D01*
D12*
%TO.P,C24,1*%
X114470000Y-126810000D03*
D13*
%TO.P,C24,2*%
X115430000Y-126810000D03*
%TD*%
D10*
%TO.C,F1*%
%TO.CFtp,FUSC6125X279N*%
%TO.CVal,1A Fuse 0680L1000-05*%
%TO.CLbN,STM32H743_board_library_footprints*%
%TO.CMnt,SMD*%
%TO.CRot,-90*%
X128300000Y-103970000D03*
D11*
X130015000Y-100195000D02*
X130015000Y-107745000D01*
X126585000Y-107745000D01*
X126585000Y-100195000D01*
X130015000Y-100195000D01*
D12*
%TO.P,F1,1*%
X128300000Y-101515000D03*
D13*
%TO.P,F1,2*%
X128300000Y-106425000D03*
%TD*%
D10*
%TO.C,C6*%
%TO.CFtp,C_0603_1608Metric*%
%TO.CVal,1uF*%
%TO.CLbN,Capacitor_SMD*%
%TO.CMnt,SMD*%
%TO.CRot,0*%
X132700000Y-121210000D03*
D11*
X134175000Y-120485000D02*
X134175000Y-121935000D01*
X131225000Y-121935000D01*
X131225000Y-120485000D01*
X134175000Y-120485000D01*
D12*
%TO.P,C6,1*%
X131925000Y-121210000D03*
D13*
%TO.P,C6,2*%
X133475000Y-121210000D03*
%TD*%
D10*
%TO.C,U5*%
%TO.CFtp,Bosch_LGA-16_4.5x3mm_P0.5mm_LayoutBorder7x1y_ClockwisePinNumbering*%
%TO.CVal,BMI088*%
%TO.CLbN,Package_LGA*%
%TO.CMnt,SMD*%
%TO.CRot,180*%
X125240000Y-126277500D03*
D11*
X127115000Y-124432500D02*
X127115000Y-124532500D01*
X127735000Y-124532500D01*
X127735000Y-125902500D01*
X127835000Y-125902500D01*
X127835000Y-126652500D01*
X127735000Y-126652500D01*
X127735000Y-128022500D01*
X127115000Y-128022500D01*
X127115000Y-128122500D01*
X123365000Y-128122500D01*
X123365000Y-128022500D01*
X122745000Y-128022500D01*
X122745000Y-126652500D01*
X122645000Y-126652500D01*
X122645000Y-125902500D01*
X122745000Y-125902500D01*
X122745000Y-124532500D01*
X123365000Y-124532500D01*
X123365000Y-124432500D01*
X127115000Y-124432500D01*
D12*
%TO.P,U5,1,INT2_1*%
X126740000Y-127540000D03*
D13*
%TO.P,U5,2,GNDA_2*%
X126240000Y-127540000D03*
%TO.P,U5,3,VDD_3*%
X125740000Y-127540000D03*
%TO.P,U5,4,GNDA_4*%
X125240000Y-127540000D03*
%TO.P,U5,5,~{CSB2}_5*%
X124740000Y-127540000D03*
%TO.P,U5,6,GNDIO_6*%
X124240000Y-127540000D03*
%TO.P,U5,7,PS_7*%
X123740000Y-127540000D03*
%TO.P,U5,8,SCK/SCL_8*%
X123227500Y-126277500D03*
%TO.P,U5,9,SDI/SDA_9*%
X123740000Y-125015000D03*
%TO.P,U5,10,SDO2_10*%
X124240000Y-125015000D03*
%TO.P,U5,11,VDDIO_11*%
X124740000Y-125015000D03*
%TO.P,U5,12,INT3_12*%
X125240000Y-125015000D03*
%TO.P,U5,13,INT4_13*%
X125740000Y-125015000D03*
%TO.P,U5,14,~{CSB1}_14*%
X126240000Y-125015000D03*
%TO.P,U5,15,SDO1_15*%
X126740000Y-125015000D03*
%TO.P,U5,16,INT1_16*%
X127252500Y-126277500D03*
%TD*%
D10*
%TO.C,C13*%
%TO.CFtp,C_0402_1005Metric*%
%TO.CVal,100nF*%
%TO.CLbN,Capacitor_SMD*%
%TO.CMnt,SMD*%
%TO.CRot,180*%
X111110000Y-126810000D03*
D11*
X112015000Y-126355000D02*
X112015000Y-127265000D01*
X110205000Y-127265000D01*
X110205000Y-126355000D01*
X112015000Y-126355000D01*
D12*
%TO.P,C13,1*%
X111590000Y-126810000D03*
D13*
%TO.P,C13,2*%
X110630000Y-126810000D03*
%TD*%
D10*
%TO.C,U1*%
%TO.CFtp,LT8609SEVPBF*%
%TO.CVal,LT8609SEV#PBF*%
%TO.CLbN,STM32H743_board_library_footprints*%
%TO.CMnt,SMD*%
%TO.CRot,90*%
X132570000Y-118715000D03*
D14*
X130820000Y-120140000D02*
X134320000Y-120140000D01*
X134320000Y-116640000D01*
X130820000Y-116640000D01*
X130820000Y-120140000D01*
D12*
%TO.P,U1,1,RT_1*%
X131820000Y-119790000D03*
D13*
%TO.P,U1,2,VCC_2*%
X132320000Y-119790000D03*
%TO.P,U1,3,GND_1_3*%
X132820000Y-119790000D03*
%TO.P,U1,4,GND_2_4*%
X133320000Y-119790000D03*
%TO.P,U1,5,SW_1_5*%
X133970000Y-119140000D03*
%TO.P,U1,6,SW_2_6*%
X133970000Y-118640000D03*
%TO.P,U1,7,NC_1_7*%
X133970000Y-118140000D03*
%TO.P,U1,8,GND_3_8*%
X133970000Y-117640000D03*
%TO.P,U1,9,VIN_1_9*%
X133320000Y-116990000D03*
%TO.P,U1,10,VIN_2_10*%
X132820000Y-116990000D03*
%TO.P,U1,11,EN/UV_11*%
X132320000Y-116990000D03*
%TO.P,U1,12,PG_12*%
X131820000Y-116990000D03*
%TO.P,U1,13,FB_13*%
X131170000Y-117640000D03*
%TO.P,U1,14,GND_4_14*%
X131170000Y-118140000D03*
%TO.P,U1,15,TR/SS_15*%
X131170000Y-118640000D03*
%TO.P,U1,16,SYNC_16*%
X131170000Y-119140000D03*
%TO.P,U1,17,GND_5_17*%
X132570000Y-118390000D03*
%TO.P,U1,18,NC_2_18*%
X131250000Y-119710000D03*
%TO.P,U1,19,NC_3_19*%
X133890000Y-119710000D03*
%TO.P,U1,20,NC_4_20*%
X133890000Y-117070000D03*
%TO.P,U1,21,NC_5_21*%
X131250000Y-117070000D03*
%TD*%
D10*
%TO.C,C18*%
%TO.CFtp,C_0402_1005Metric*%
%TO.CVal,100nF*%
%TO.CLbN,Capacitor_SMD*%
%TO.CMnt,SMD*%
%TO.CRot,180*%
X116950000Y-126760000D03*
D11*
X117855000Y-126305000D02*
X117855000Y-127215000D01*
X116045000Y-127215000D01*
X116045000Y-126305000D01*
X117855000Y-126305000D01*
D12*
%TO.P,C18,1*%
X117430000Y-126760000D03*
D13*
%TO.P,C18,2*%
X116470000Y-126760000D03*
%TD*%
D10*
%TO.C,C15*%
%TO.CFtp,C_0402_1005Metric*%
%TO.CVal,100nF*%
%TO.CLbN,Capacitor_SMD*%
%TO.CMnt,SMD*%
%TO.CRot,-90*%
X122630000Y-110770000D03*
D11*
X123085000Y-109865000D02*
X123085000Y-111675000D01*
X122175000Y-111675000D01*
X122175000Y-109865000D01*
X123085000Y-109865000D01*
D12*
%TO.P,C15,1*%
X122630000Y-110290000D03*
D13*
%TO.P,C15,2*%
X122630000Y-111250000D03*
%TD*%
D10*
%TO.C,J4*%
%TO.CFtp,Tag-Connect_TC2030-IDC-NL_2x03_P1.27mm_Vertical*%
%TO.CVal,Tag_Connect_6pin*%
%TO.CLbN,Connector*%
%TO.CMnt,Other*%
%TO.CRot,-90*%
X102105000Y-112760000D03*
D11*
X104100000Y-109265000D02*
X104100000Y-116255000D01*
X100110000Y-116255000D01*
X100110000Y-109265000D01*
X104100000Y-109265000D01*
D12*
%TO.P,J4,1,Pin_1_1*%
X101470000Y-111490000D03*
D13*
%TO.P,J4,*%
X102105000Y-110220000D03*
X103121000Y-115300000D03*
X101089000Y-115300000D03*
%TO.P,J4,2,Pin_2_2*%
X102740000Y-111490000D03*
%TO.P,J4,3,Pin_3_3*%
X101470000Y-112760000D03*
%TO.P,J4,4,Pin_4_4*%
X102740000Y-112760000D03*
%TO.P,J4,5,Pin_5_5*%
X101470000Y-114030000D03*
%TO.P,J4,6,Pin_6_6*%
X102740000Y-114030000D03*
%TD*%
D10*
%TO.C,JP1*%
%TO.CFtp,R_01005_0402Metric*%
%TO.CVal,PROG_MODE_JUMPER*%
%TO.CLbN,Resistor_SMD*%
%TO.CMnt,SMD*%
%TO.CRot,90*%
X102460000Y-120740000D03*
D11*
X102755000Y-120145000D02*
X102755000Y-121335000D01*
X102165000Y-121335000D01*
X102165000Y-120145000D01*
X102755000Y-120145000D01*
D12*
%TO.P,JP1,1,A_1*%
X102460000Y-120990000D03*
D13*
%TO.P,JP1,2,B_2*%
X102460000Y-120490000D03*
%TD*%
D10*
%TO.C,C29*%
%TO.CFtp,C_0603_1608Metric*%
%TO.CVal,1uF*%
%TO.CLbN,Capacitor_SMD*%
%TO.CMnt,SMD*%
%TO.CRot,180*%
X122925000Y-129225000D03*
D11*
X124400000Y-128500000D02*
X124400000Y-129950000D01*
X121450000Y-129950000D01*
X121450000Y-128500000D01*
X124400000Y-128500000D01*
D12*
%TO.P,C29,1*%
X123700000Y-129225000D03*
D13*
%TO.P,C29,2*%
X122150000Y-129225000D03*
%TD*%
D10*
%TO.C,C26*%
%TO.CFtp,C_0603_1608Metric*%
%TO.CVal,2.2uF*%
%TO.CLbN,Capacitor_SMD*%
%TO.CMnt,SMD*%
%TO.CRot,0*%
X123340000Y-112670000D03*
D11*
X124815000Y-111945000D02*
X124815000Y-113395000D01*
X121865000Y-113395000D01*
X121865000Y-111945000D01*
X124815000Y-111945000D01*
D12*
%TO.P,C26,1*%
X122565000Y-112670000D03*
D13*
%TO.P,C26,2*%
X124115000Y-112670000D03*
%TD*%
D10*
%TO.C,R9*%
%TO.CFtp,R_01005_0402Metric*%
%TO.CVal,33R*%
%TO.CLbN,Resistor_SMD*%
%TO.CMnt,SMD*%
%TO.CRot,0*%
X117810000Y-107230000D03*
D11*
X118405000Y-106935000D02*
X118405000Y-107525000D01*
X117215000Y-107525000D01*
X117215000Y-106935000D01*
X118405000Y-106935000D01*
D12*
%TO.P,R9,1*%
X117560000Y-107230000D03*
D13*
%TO.P,R9,2*%
X118060000Y-107230000D03*
%TD*%
D10*
%TO.C,R11*%
%TO.CFtp,R_01005_0402Metric*%
%TO.CVal,33R*%
%TO.CLbN,Resistor_SMD*%
%TO.CMnt,SMD*%
%TO.CRot,0*%
X115120000Y-107230000D03*
D11*
X115715000Y-106935000D02*
X115715000Y-107525000D01*
X114525000Y-107525000D01*
X114525000Y-106935000D01*
X115715000Y-106935000D01*
D12*
%TO.P,R11,1*%
X114870000Y-107230000D03*
D13*
%TO.P,R11,2*%
X115370000Y-107230000D03*
%TD*%
D10*
%TO.C,Y1*%
%TO.CFtp,Crystal_SMD_3225-4Pin_3.2x2.5mm*%
%TO.CVal,TSX-3225_16.0000MF18X-AC0*%
%TO.CLbN,Crystal*%
%TO.CMnt,SMD*%
%TO.CRot,180*%
X112980000Y-129340000D03*
D11*
X115075000Y-127595000D02*
X115075000Y-131085000D01*
X110885000Y-131085000D01*
X110885000Y-127595000D01*
X115075000Y-127595000D01*
D12*
%TO.P,Y1,1,1_1*%
X114080000Y-128490000D03*
D13*
%TO.P,Y1,2,G_2*%
X111880000Y-128490000D03*
%TO.P,Y1,3,3_3*%
X111880000Y-130190000D03*
%TO.P,Y1,4,G_4*%
X114080000Y-130190000D03*
%TD*%
D10*
%TO.C,C1*%
%TO.CFtp,C_1206_3216Metric*%
%TO.CVal,47uF*%
%TO.CLbN,Capacitor_SMD*%
%TO.CMnt,SMD*%
%TO.CRot,180*%
X127270000Y-109140000D03*
D11*
X129565000Y-107995000D02*
X129565000Y-110285000D01*
X124975000Y-110285000D01*
X124975000Y-107995000D01*
X129565000Y-107995000D01*
D12*
%TO.P,C1,1*%
X128745000Y-109140000D03*
D13*
%TO.P,C1,2*%
X125795000Y-109140000D03*
%TD*%
D10*
%TO.C,H2*%
%TO.CFtp,MountingHole_4mm*%
%TO.CVal,MountingHole*%
%TO.CLbN,MountingHole*%
%TO.CMnt,Other*%
%TO.CRot,0*%
X104000000Y-134500000D03*
D11*
X104307665Y-130263679D02*
X104715100Y-130313150D01*
X105115845Y-130401712D01*
X105506173Y-130528536D01*
X105882445Y-130692445D01*
X106241143Y-130891904D01*
X106578907Y-131125046D01*
X106892598Y-131389703D01*
X107179286Y-131683404D01*
X107436282Y-132003394D01*
X107661196Y-132346696D01*
X107851929Y-132710107D01*
X108006697Y-133090229D01*
X108124053Y-133483508D01*
X108202907Y-133886284D01*
X108242521Y-134294820D01*
X108244999Y-134500000D01*
X108242521Y-134705179D01*
X108202907Y-135113715D01*
X108124053Y-135516491D01*
X108006697Y-135909770D01*
X107851929Y-136289892D01*
X107661196Y-136653303D01*
X107436282Y-136996605D01*
X107179286Y-137316595D01*
X106892598Y-137610296D01*
X106578907Y-137874953D01*
X106241143Y-138108095D01*
X105882445Y-138307554D01*
X105506173Y-138471463D01*
X105115845Y-138598287D01*
X104715100Y-138686849D01*
X104307665Y-138736320D01*
X103897361Y-138746238D01*
X103488026Y-138716509D01*
X103083454Y-138647411D01*
X102687458Y-138539592D01*
X102303706Y-138394055D01*
X101935792Y-138212159D01*
X101587161Y-137995609D01*
X101261041Y-137746411D01*
X100960515Y-137466918D01*
X100688346Y-137159703D01*
X100447112Y-136827673D01*
X100239041Y-136473896D01*
X100066096Y-136101710D01*
X99929870Y-135714546D01*
X99831652Y-135316054D01*
X99772350Y-134909935D01*
X99752521Y-134500000D01*
X99772350Y-134090064D01*
X99831652Y-133683945D01*
X99929870Y-133285453D01*
X100066096Y-132898289D01*
X100239041Y-132526103D01*
X100447112Y-132172326D01*
X100688346Y-131840296D01*
X100960515Y-131533081D01*
X101261041Y-131253588D01*
X101587161Y-131004390D01*
X101935792Y-130787840D01*
X102303706Y-130605944D01*
X102687458Y-130460407D01*
X103083454Y-130352588D01*
X103488026Y-130283490D01*
X103897361Y-130253761D01*
X104307665Y-130263679D01*
D13*
%TO.P,H2,*%
X104000000Y-134500000D03*
%TD*%
D10*
%TO.C,R5*%
%TO.CFtp,R_01005_0402Metric*%
%TO.CVal,1k*%
%TO.CLbN,Resistor_SMD*%
%TO.CMnt,SMD*%
%TO.CRot,180*%
X120930000Y-127650000D03*
D11*
X121525000Y-127355000D02*
X121525000Y-127945000D01*
X120335000Y-127945000D01*
X120335000Y-127355000D01*
X121525000Y-127355000D01*
D12*
%TO.P,R5,1*%
X121180000Y-127650000D03*
D13*
%TO.P,R5,2*%
X120680000Y-127650000D03*
%TD*%
D10*
%TO.C,C19*%
%TO.CFtp,C_0603_1608Metric*%
%TO.CVal,1uF*%
%TO.CLbN,Capacitor_SMD*%
%TO.CMnt,SMD*%
%TO.CRot,180*%
X117170000Y-128340000D03*
D11*
X118645000Y-127615000D02*
X118645000Y-129065000D01*
X115695000Y-129065000D01*
X115695000Y-127615000D01*
X118645000Y-127615000D01*
D12*
%TO.P,C19,1*%
X117945000Y-128340000D03*
D13*
%TO.P,C19,2*%
X116395000Y-128340000D03*
%TD*%
D10*
%TO.C,C17*%
%TO.CFtp,C_0402_1005Metric*%
%TO.CVal,100nF*%
%TO.CLbN,Capacitor_SMD*%
%TO.CMnt,SMD*%
%TO.CRot,90*%
X103210000Y-122500000D03*
D11*
X103665000Y-121595000D02*
X103665000Y-123405000D01*
X102755000Y-123405000D01*
X102755000Y-121595000D01*
X103665000Y-121595000D01*
D12*
%TO.P,C17,1*%
X103210000Y-122980000D03*
D13*
%TO.P,C17,2*%
X103210000Y-122020000D03*
%TD*%
D10*
%TO.C,U4*%
%TO.CFtp,WSON-8-1EP_6x5mm_P1.27mm_EP3.4x4.3mm*%
%TO.CVal,W25Q512JVEIQ*%
%TO.CLbN,Package_SON*%
%TO.CMnt,SMD*%
%TO.CRot,-90*%
X125060000Y-117920000D03*
D11*
X127465000Y-114595000D02*
X127465000Y-114675000D01*
X127805000Y-114675000D01*
X127805000Y-121165000D01*
X127465000Y-121165000D01*
X127465000Y-121245000D01*
X122655000Y-121245000D01*
X122655000Y-121165000D01*
X122315000Y-121165000D01*
X122315000Y-114675000D01*
X122655000Y-114675000D01*
X122655000Y-114595000D01*
X127465000Y-114595000D01*
D12*
%TO.P,U4,1,~{CS}_1*%
X126965000Y-115220000D03*
D13*
%TO.P,U4,2,DO/IO_{1}_2*%
X125695000Y-115220000D03*
%TO.P,U4,3,~{WP}/IO_{2}_3*%
X124425000Y-115220000D03*
%TO.P,U4,4,GND_4*%
X123155000Y-115220000D03*
%TO.P,U4,5,DI/IO_{0}_5*%
X123155000Y-120620000D03*
%TO.P,U4,6,CLK_6*%
X124425000Y-120620000D03*
%TO.P,U4,7,~{HOLD}/~{RESET}/IO_{3}_7*%
X125695000Y-120620000D03*
%TO.P,U4,8,VCC_8*%
X126965000Y-120620000D03*
%TO.P,U4,9,EP_9*%
X125060000Y-117920000D03*
%TD*%
D10*
%TO.C,C12*%
%TO.CFtp,C_0603_1608Metric*%
%TO.CVal,4.7uF*%
%TO.CLbN,Capacitor_SMD*%
%TO.CMnt,SMD*%
%TO.CRot,0*%
X110190000Y-105960000D03*
D11*
X111665000Y-105235000D02*
X111665000Y-106685000D01*
X108715000Y-106685000D01*
X108715000Y-105235000D01*
X111665000Y-105235000D01*
D12*
%TO.P,C12,1*%
X109415000Y-105960000D03*
D13*
%TO.P,C12,2*%
X110965000Y-105960000D03*
%TD*%
D10*
%TO.C,R6*%
%TO.CFtp,R_01005_0402Metric*%
%TO.CVal,10k*%
%TO.CLbN,Resistor_SMD*%
%TO.CMnt,SMD*%
%TO.CRot,-90*%
X103344832Y-120690000D03*
D11*
X103639832Y-120095000D02*
X103639832Y-121285000D01*
X103049832Y-121285000D01*
X103049832Y-120095000D01*
X103639832Y-120095000D01*
D12*
%TO.P,R6,1*%
X103344832Y-120440000D03*
D13*
%TO.P,R6,2*%
X103344832Y-120940000D03*
%TD*%
D10*
%TO.C,C22*%
%TO.CFtp,C_0402_1005Metric*%
%TO.CVal,100nF*%
%TO.CLbN,Capacitor_SMD*%
%TO.CMnt,SMD*%
%TO.CRot,0*%
X121080000Y-126670000D03*
D11*
X121985000Y-126215000D02*
X121985000Y-127125000D01*
X120175000Y-127125000D01*
X120175000Y-126215000D01*
X121985000Y-126215000D01*
D12*
%TO.P,C22,1*%
X120600000Y-126670000D03*
D13*
%TO.P,C22,2*%
X121560000Y-126670000D03*
%TD*%
D10*
%TO.C,C30*%
%TO.CFtp,C_0402_1005Metric*%
%TO.CVal,100nF*%
%TO.CLbN,Capacitor_SMD*%
%TO.CMnt,SMD*%
%TO.CRot,0*%
X125270000Y-123715000D03*
D11*
X126175000Y-123260000D02*
X126175000Y-124170000D01*
X124365000Y-124170000D01*
X124365000Y-123260000D01*
X126175000Y-123260000D01*
D12*
%TO.P,C30,1*%
X124790000Y-123715000D03*
D13*
%TO.P,C30,2*%
X125750000Y-123715000D03*
%TD*%
D10*
%TO.C,R2*%
%TO.CFtp,R_01005_0402Metric*%
%TO.CVal,18.2k*%
%TO.CLbN,Resistor_SMD*%
%TO.CMnt,SMD*%
%TO.CRot,180*%
X130625000Y-120770000D03*
D11*
X131220000Y-120475000D02*
X131220000Y-121065000D01*
X130030000Y-121065000D01*
X130030000Y-120475000D01*
X131220000Y-120475000D01*
D12*
%TO.P,R2,1*%
X130875000Y-120770000D03*
D13*
%TO.P,R2,2*%
X130375000Y-120770000D03*
%TD*%
D10*
%TO.C,L1*%
%TO.CFtp,SPM3010-3020*%
%TO.CVal,SPM3020T-2R2M-LR*%
%TO.CLbN,STM32H743_board_library_footprints*%
%TO.CMnt,SMD*%
%TO.CRot,-90*%
X136380000Y-118620000D03*
D11*
X138575000Y-115875000D02*
X138575000Y-120965000D01*
X134185000Y-120965000D01*
X134185000Y-115875000D01*
X138575000Y-115875000D01*
D12*
%TO.P,L1,1,1_1*%
X136380000Y-117320000D03*
D13*
%TO.P,L1,2,2_2*%
X136380000Y-119920000D03*
%TD*%
D10*
%TO.C,C4*%
%TO.CFtp,C_01005_0402Metric*%
%TO.CVal,100nF*%
%TO.CLbN,Capacitor_SMD*%
%TO.CMnt,SMD*%
%TO.CRot,180*%
X130140000Y-114520000D03*
D11*
X130735000Y-114225000D02*
X130735000Y-114815000D01*
X129545000Y-114815000D01*
X129545000Y-114225000D01*
X130735000Y-114225000D01*
D12*
%TO.P,C4,1*%
X130390000Y-114520000D03*
D13*
%TO.P,C4,2*%
X129890000Y-114520000D03*
%TD*%
D10*
%TO.C,L3*%
%TO.CFtp,L_0805_2012Metric*%
%TO.CVal,BLM21PG221SN1D*%
%TO.CLbN,Inductor_SMD*%
%TO.CMnt,SMD*%
%TO.CRot,180*%
X122927500Y-131010000D03*
D11*
X124672500Y-130165000D02*
X124672500Y-131855000D01*
X121182500Y-131855000D01*
X121182500Y-130165000D01*
X124672500Y-130165000D01*
D12*
%TO.P,L3,1,1_1*%
X123990000Y-131010000D03*
D13*
%TO.P,L3,2,2_2*%
X121865000Y-131010000D03*
%TD*%
D10*
%TO.C,H3*%
%TO.CFtp,MountingHole_4mm*%
%TO.CVal,MountingHole*%
%TO.CLbN,MountingHole*%
%TO.CMnt,Other*%
%TO.CRot,0*%
X134500000Y-134500000D03*
D11*
X134807665Y-130263679D02*
X135215100Y-130313150D01*
X135615845Y-130401712D01*
X136006173Y-130528536D01*
X136382445Y-130692445D01*
X136741143Y-130891904D01*
X137078907Y-131125046D01*
X137392598Y-131389703D01*
X137679286Y-131683404D01*
X137936282Y-132003394D01*
X138161196Y-132346696D01*
X138351929Y-132710107D01*
X138506697Y-133090229D01*
X138624053Y-133483508D01*
X138702907Y-133886284D01*
X138742521Y-134294820D01*
X138744999Y-134500000D01*
X138742521Y-134705179D01*
X138702907Y-135113715D01*
X138624053Y-135516491D01*
X138506697Y-135909770D01*
X138351929Y-136289892D01*
X138161196Y-136653303D01*
X137936282Y-136996605D01*
X137679286Y-137316595D01*
X137392598Y-137610296D01*
X137078907Y-137874953D01*
X136741143Y-138108095D01*
X136382445Y-138307554D01*
X136006173Y-138471463D01*
X135615845Y-138598287D01*
X135215100Y-138686849D01*
X134807665Y-138736320D01*
X134397361Y-138746238D01*
X133988026Y-138716509D01*
X133583454Y-138647411D01*
X133187458Y-138539592D01*
X132803706Y-138394055D01*
X132435792Y-138212159D01*
X132087161Y-137995609D01*
X131761041Y-137746411D01*
X131460515Y-137466918D01*
X131188346Y-137159703D01*
X130947112Y-136827673D01*
X130739041Y-136473896D01*
X130566096Y-136101710D01*
X130429870Y-135714546D01*
X130331652Y-135316054D01*
X130272350Y-134909935D01*
X130252521Y-134500000D01*
X130272350Y-134090064D01*
X130331652Y-133683945D01*
X130429870Y-133285453D01*
X130566096Y-132898289D01*
X130739041Y-132526103D01*
X130947112Y-132172326D01*
X131188346Y-131840296D01*
X131460515Y-131533081D01*
X131761041Y-131253588D01*
X132087161Y-131004390D01*
X132435792Y-130787840D01*
X132803706Y-130605944D01*
X133187458Y-130460407D01*
X133583454Y-130352588D01*
X133988026Y-130283490D01*
X134397361Y-130253761D01*
X134807665Y-130263679D01*
D13*
%TO.P,H3,*%
X134500000Y-134500000D03*
%TD*%
D10*
%TO.C,C31*%
%TO.CFtp,C_0402_1005Metric*%
%TO.CVal,100nF*%
%TO.CLbN,Capacitor_SMD*%
%TO.CMnt,SMD*%
%TO.CRot,0*%
X125900000Y-129080000D03*
D11*
X126805000Y-128625000D02*
X126805000Y-129535000D01*
X124995000Y-129535000D01*
X124995000Y-128625000D01*
X126805000Y-128625000D01*
D12*
%TO.P,C31,1*%
X125420000Y-129080000D03*
D13*
%TO.P,C31,2*%
X126380000Y-129080000D03*
%TD*%
D10*
%TO.C,R3*%
%TO.CFtp,R_01005_0402Metric*%
%TO.CVal,1M*%
%TO.CLbN,Resistor_SMD*%
%TO.CMnt,SMD*%
%TO.CRot,90*%
X132780000Y-114530000D03*
D11*
X133075000Y-113935000D02*
X133075000Y-115125000D01*
X132485000Y-115125000D01*
X132485000Y-113935000D01*
X133075000Y-113935000D01*
D12*
%TO.P,R3,1*%
X132780000Y-114780000D03*
D13*
%TO.P,R3,2*%
X132780000Y-114280000D03*
%TD*%
D10*
%TO.C,C16*%
%TO.CFtp,C_0402_1005Metric*%
%TO.CVal,100nF*%
%TO.CLbN,Capacitor_SMD*%
%TO.CMnt,SMD*%
%TO.CRot,0*%
X107700000Y-107660000D03*
D11*
X108605000Y-107205000D02*
X108605000Y-108115000D01*
X106795000Y-108115000D01*
X106795000Y-107205000D01*
X108605000Y-107205000D01*
D12*
%TO.P,C16,1*%
X107220000Y-107660000D03*
D13*
%TO.P,C16,2*%
X108180000Y-107660000D03*
%TD*%
D10*
%TO.C,R4*%
%TO.CFtp,R_01005_0402Metric*%
%TO.CVal,182k*%
%TO.CLbN,Resistor_SMD*%
%TO.CMnt,SMD*%
%TO.CRot,-90*%
X133500000Y-115650000D03*
D11*
X133795000Y-115055000D02*
X133795000Y-116245000D01*
X133205000Y-116245000D01*
X133205000Y-115055000D01*
X133795000Y-115055000D01*
D12*
%TO.P,R4,1*%
X133500000Y-115400000D03*
D13*
%TO.P,R4,2*%
X133500000Y-115900000D03*
%TD*%
D10*
%TO.C,J1*%
%TO.CFtp,JST_GH_SM06B-GHS-TB_1x06-1MP_P1.25mm_Horizontal*%
%TO.CVal,GPS*%
%TO.CLbN,Connector_JST*%
%TO.CMnt,SMD*%
%TO.CRot,0*%
X114270000Y-135550000D03*
D11*
X118195000Y-132355000D02*
X118195000Y-133455000D01*
X120145000Y-133455000D01*
X120145000Y-135055000D01*
X120245000Y-135055000D01*
X120245000Y-138745000D01*
X118245000Y-138745000D01*
X118245000Y-138495000D01*
X110295000Y-138495000D01*
X110295000Y-138745000D01*
X108295000Y-138745000D01*
X108295000Y-135055000D01*
X108395000Y-135055000D01*
X108395000Y-133455000D01*
X110345000Y-133455000D01*
X110345000Y-132355000D01*
X118195000Y-132355000D01*
D12*
%TO.P,J1,1,Pin_1_1*%
X111145000Y-133700000D03*
D13*
%TO.P,J1,2,Pin_2_2*%
X112395000Y-133700000D03*
%TO.P,J1,3,Pin_3_3*%
X113645000Y-133700000D03*
%TO.P,J1,4,Pin_4_4*%
X114895000Y-133700000D03*
%TO.P,J1,5,Pin_5_5*%
X116145000Y-133700000D03*
%TO.P,J1,6,Pin_6_6*%
X117395000Y-133700000D03*
%TO.P,J1,MP*%
X109295000Y-136900000D03*
X119245000Y-136900000D03*
%TD*%
D10*
%TO.C,C20*%
%TO.CFtp,C_0402_1005Metric*%
%TO.CVal,100nF*%
%TO.CLbN,Capacitor_SMD*%
%TO.CMnt,SMD*%
%TO.CRot,0*%
X109190000Y-126820000D03*
D11*
X110095000Y-126365000D02*
X110095000Y-127275000D01*
X108285000Y-127275000D01*
X108285000Y-126365000D01*
X110095000Y-126365000D01*
D12*
%TO.P,C20,1*%
X108710000Y-126820000D03*
D13*
%TO.P,C20,2*%
X109670000Y-126820000D03*
%TD*%
D10*
%TO.C,C9*%
%TO.CFtp,C_0603_1608Metric*%
%TO.CVal,4.7uF*%
%TO.CLbN,Capacitor_SMD*%
%TO.CMnt,SMD*%
%TO.CRot,180*%
X130985000Y-115550000D03*
D11*
X132460000Y-114825000D02*
X132460000Y-116275000D01*
X129510000Y-116275000D01*
X129510000Y-114825000D01*
X132460000Y-114825000D01*
D12*
%TO.P,C9,1*%
X131760000Y-115550000D03*
D13*
%TO.P,C9,2*%
X130210000Y-115550000D03*
%TD*%
D10*
%TO.C,C10*%
%TO.CFtp,C_0603_1608Metric*%
%TO.CVal,1uF*%
%TO.CLbN,Capacitor_SMD*%
%TO.CMnt,SMD*%
%TO.CRot,-90*%
X128720000Y-124740000D03*
D11*
X129445000Y-123265000D02*
X129445000Y-126215000D01*
X127995000Y-126215000D01*
X127995000Y-123265000D01*
X129445000Y-123265000D01*
D12*
%TO.P,C10,1*%
X128720000Y-123965000D03*
D13*
%TO.P,C10,2*%
X128720000Y-125515000D03*
%TD*%
D10*
%TO.C,C21*%
%TO.CFtp,C_0402_1005Metric*%
%TO.CVal,100nF*%
%TO.CLbN,Capacitor_SMD*%
%TO.CMnt,SMD*%
%TO.CRot,-90*%
X101620000Y-117400000D03*
D11*
X102075000Y-116495000D02*
X102075000Y-118305000D01*
X101165000Y-118305000D01*
X101165000Y-116495000D01*
X102075000Y-116495000D01*
D12*
%TO.P,C21,1*%
X101620000Y-116920000D03*
D13*
%TO.P,C21,2*%
X101620000Y-117880000D03*
%TD*%
D10*
%TO.C,U2*%
%TO.CFtp,SOT-223-3_TabPin2*%
%TO.CVal,AP7361C-33E*%
%TO.CLbN,Package_TO_SOT_SMD*%
%TO.CMnt,SMD*%
%TO.CRot,0*%
X133930000Y-126127500D03*
D11*
X138325000Y-122532500D02*
X138325000Y-129722500D01*
X129535000Y-129722500D01*
X129535000Y-122532500D01*
X138325000Y-122532500D01*
D12*
%TO.P,U2,1,VI_1*%
X130780000Y-123827500D03*
D13*
%TO.P,U2,2,GND_2*%
X130780000Y-126127500D03*
X137080000Y-126127500D03*
%TO.P,U2,3,VO_3*%
X130780000Y-128427500D03*
%TD*%
D10*
%TO.C,C14*%
%TO.CFtp,C_0402_1005Metric*%
%TO.CVal,100nF*%
%TO.CLbN,Capacitor_SMD*%
%TO.CMnt,SMD*%
%TO.CRot,180*%
X121440000Y-125120000D03*
D11*
X122345000Y-124665000D02*
X122345000Y-125575000D01*
X120535000Y-125575000D01*
X120535000Y-124665000D01*
X122345000Y-124665000D01*
D12*
%TO.P,C14,1*%
X121920000Y-125120000D03*
D13*
%TO.P,C14,2*%
X120960000Y-125120000D03*
%TD*%
D10*
%TO.C,C11*%
%TO.CFtp,C_0603_1608Metric*%
%TO.CVal,4.7uF*%
%TO.CLbN,Capacitor_SMD*%
%TO.CMnt,SMD*%
%TO.CRot,-90*%
X129520000Y-131420000D03*
D11*
X130245000Y-129945000D02*
X130245000Y-132895000D01*
X128795000Y-132895000D01*
X128795000Y-129945000D01*
X130245000Y-129945000D01*
D12*
%TO.P,C11,1*%
X129520000Y-130645000D03*
D13*
%TO.P,C11,2*%
X129520000Y-132195000D03*
%TD*%
M02*
